<svg xmlns="http://www.w3.org/2000/svg" width="1030.462" height="192.319" viewBox="0 0 1030.462 192.319">
  <g id="Grupo_1107070" data-name="Grupo 1107070" transform="translate(-285 -4567.008)">
    <g id="Grupo_1106478" data-name="Grupo 1106478" transform="translate(-2.465 -211.46)">
      <path id="Trazado_891999" data-name="Trazado 891999" d="M-7599.051-9775.2v105.359h25.6v27.251h147.817v-27.251h24.092V-9775.2Z" transform="translate(8093.286 14613.381)" fill="#e38300"/>
      <path id="Trazado_892021" data-name="Trazado 892021" d="M-7599.051-9775.2v105.359h25.6v27.251h147.817v-27.251h24.092V-9775.2Z" transform="translate(7886.751 14613.381)" fill="#e38300"/>
      <path id="Trazado_892011" data-name="Trazado 892011" d="M-7599.051-9769.462v99.6h25.6v27.251h147.817v-27.251h24.092v-99.6Z" transform="translate(8384.735 14613.395)" fill="#e38300"/>
      <rect id="Rectángulo_402042" data-name="Rectángulo 402042" width="197.506" height="25.48" transform="translate(494.235 4814.654)" fill="#85c026"/>
      <rect id="Rectángulo_402075" data-name="Rectángulo 402075" width="197.506" height="25.48" transform="translate(287.701 4814.654)" fill="#85c026"/>
      <path id="Trazado_892012" data-name="Trazado 892012" d="M0,0H197.506V30.657H0Z" transform="translate(785.685 4814.654)" fill="#85c026"/>
      <path id="Trazado_892014" data-name="Trazado 892014" d="M0,0H38.934V30.657H0Z" transform="translate(1030.384 4814.654)" fill="#85c026"/>
      <path id="Trazado_892018" data-name="Trazado 892018" d="M0,0H38.934V30.657H0Z" transform="translate(1102.557 4814.654)" fill="#85c026"/>
      <path id="Trazado_892015" data-name="Trazado 892015" d="M0,0H38.934V99.183H0Z" transform="translate(1030.384 4841.719)" fill="#e38300"/>
      <path id="Trazado_892027" data-name="Trazado 892027" d="M-6831.295-6829l-76.324,33.376v18.1l37.426,8.646,65.027-41.012-8.157-13.573Z" transform="translate(8096.207 11608)" fill="#85c026" stroke="#3b574d" stroke-width="1"/>
      <path id="Trazado_892016" data-name="Trazado 892016" d="M0,0H38.934V99.183H0Z" transform="translate(1102.557 4841.719)" fill="#e38300"/>
      <rect id="Rectángulo_402039" data-name="Rectángulo 402039" width="143.041" height="37.82" transform="translate(521.34 4877.464)" fill="#fd0"/>
      <path id="Trazado_892025" data-name="Trazado 892025" d="M-6908.016-6778.062h28.193l74.16-32.323,26.788,66-94.5,72.352-39.114-2.372Z" transform="translate(8096.195 11608.045)" fill="#e38300" stroke="#707070" stroke-width="1"/>
      <rect id="Rectángulo_402040" data-name="Rectángulo 402040" width="143.041" height="13.867" transform="translate(521.34 4861.076)" fill="#fd0"/>
      <rect id="Rectángulo_402074" data-name="Rectángulo 402074" width="197.506" height="2.875" transform="translate(493.999 4838.697)" fill="#fd0"/>
      <rect id="Rectángulo_402076" data-name="Rectángulo 402076" width="197.506" height="2.875" transform="translate(287.465 4838.697)" fill="#fd0"/>
      <g id="Grupo_1106463" data-name="Grupo 1106463" transform="translate(494.545 4843.144)">
        <path id="Trazado_891997" data-name="Trazado 891997" d="M-7367.559-8508.528l3.62,1.45,3.885-1.45,3.622,1.45,3.622-1.45,3.621,1.45,3.621-1.45,3.622,1.45,3.621-1.45,3.622,1.45,3.621-1.45,3.622,1.45,3.621-1.45,3.622,1.45,3.621-1.45,3.621,1.45,3.622-1.45,3.621,1.45,3.622-1.45,3.621,1.45,3.622-1.45,3.621,1.45,2.21-.884" transform="translate(7367.559 8508.528)" fill="none" stroke="#000" stroke-width="2"/>
        <path id="Trazado_891998" data-name="Trazado 891998" d="M-7367.559-8508.528l3.62,1.45,3.885-1.45,3.622,1.45,3.622-1.45,3.621,1.45,3.621-1.45,3.622,1.45,3.621-1.45,3.622,1.45,3.621-1.45,3.622,1.45,3.621-1.45,3.622,1.45,3.621-1.45,3.621,1.45,3.622-1.45,3.621,1.45,3.622-1.45,3.621,1.45,3.622-1.45,3.621,1.45,2.21-.884" transform="translate(7439.413 8508.528)" fill="none" stroke="#000" stroke-width="2"/>
        <path id="Trazado_892007" data-name="Trazado 892007" d="M-7367.559-8508.528l3.62,1.45,3.885-1.45,3.622,1.45,3.622-1.45,3.621,1.45,3.621-1.45,3.622,1.45,3.621-1.45,3.622,1.45,3.621-1.45,3.622,1.45,3.621-1.45,3.622,1.45,3.621-1.45,3.621,1.45" transform="translate(7510.96 8508.528)" fill="none" stroke="#000" stroke-width="2"/>
      </g>
      <g id="Grupo_1106476" data-name="Grupo 1106476" transform="translate(288.011 4843.144)">
        <path id="Trazado_891997-2" data-name="Trazado 891997" d="M-7367.559-8508.528l3.62,1.45,3.885-1.45,3.622,1.45,3.622-1.45,3.621,1.45,3.621-1.45,3.622,1.45,3.621-1.45,3.622,1.45,3.621-1.45,3.622,1.45,3.621-1.45,3.622,1.45,3.621-1.45,3.621,1.45,3.622-1.45,3.621,1.45,3.622-1.45,3.621,1.45,3.622-1.45,3.621,1.45,2.21-.884" transform="translate(7367.559 8508.528)" fill="none" stroke="#000" stroke-width="2"/>
        <path id="Trazado_891998-2" data-name="Trazado 891998" d="M-7367.559-8508.528l3.62,1.45,3.885-1.45,3.622,1.45,3.622-1.45,3.621,1.45,3.621-1.45,3.622,1.45,3.621-1.45,3.622,1.45,3.621-1.45,3.622,1.45,3.621-1.45,3.622,1.45,3.621-1.45,3.621,1.45,3.622-1.45,3.621,1.45,3.622-1.45,3.621,1.45,3.622-1.45,3.621,1.45,2.21-.884" transform="translate(7439.413 8508.528)" fill="none" stroke="#000" stroke-width="2"/>
        <path id="Trazado_892007-2" data-name="Trazado 892007" d="M-7367.559-8508.528l3.62,1.45,3.885-1.45,3.622,1.45,3.622-1.45,3.621,1.45,3.621-1.45,3.622,1.45,3.621-1.45,3.622,1.45,3.621-1.45,3.622,1.45,3.621-1.45,3.622,1.45,3.621-1.45,3.621,1.45" transform="translate(7510.96 8508.528)" fill="none" stroke="#000" stroke-width="2"/>
      </g>
      <path id="Trazado_892008" data-name="Trazado 892008" d="M-7117.9-6791.2v124.587" transform="translate(8095.703 11608.687)" fill="none" stroke="#fd0" stroke-width="2"/>
      <path id="Trazado_892023" data-name="Trazado 892023" d="M-7117.793-6792.951l7.534,116.411" transform="translate(8335.276 11608.682)" fill="none" stroke="#fd0" stroke-width="2"/>
      <path id="Trazado_892013" data-name="Trazado 892013" d="M-7117.9-6791.2v126.247" transform="translate(8167.876 11605.854)" fill="none" stroke="#3b574d" stroke-width="3"/>
      <path id="Trazado_892017" data-name="Trazado 892017" d="M-7117.9-6791.2v126.247" transform="translate(8240.049 11605.854)" fill="none" stroke="#3b574d" stroke-width="3"/>
      <path id="Trazado_892009" data-name="Trazado 892009" d="M-7117.9-6791.2v124.587" transform="translate(7909.257 11608.687)" fill="none" stroke="#fd0" stroke-width="2"/>
      <path id="Trazado_892010" data-name="Trazado 892010" d="M0,0V144.287" transform="translate(957.741 4966.077) rotate(90)" fill="none" stroke="#fd0" stroke-width="2"/>
      <rect id="Rectángulo_402071" data-name="Rectángulo 402071" width="39" height="5" transform="translate(1102.516 4936.459)" fill="#fd0"/>
      <path id="Trazado_892019" data-name="Trazado 892019" d="M-7580.363-6707.924l-8.784-9.192-16.084,15.449-29.028-9.666,3.984-5.784-19.125,2.593,4.41,18.236,3.8-5.38,35.961,16.286Z" transform="translate(8094.427 11608.269)" fill="#fff"/>
      <path id="Trazado_892020" data-name="Trazado 892020" d="M-7600.31-6775.2h197.538" transform="translate(8094.545 11610.854)" fill="none" stroke="#fd0" stroke-width="2" stroke-dasharray="4"/>
      <path id="Trazado_892022" data-name="Trazado 892022" d="M-7600.31-6775.2h197.538" transform="translate(7888.011 11610.854)" fill="none" stroke="#fd0" stroke-width="2" stroke-dasharray="4"/>
      <path id="Sustracción_1" data-name="Sustracción 1" d="M20.046,24.558a19.921,19.921,0,0,1-7.8-1.575A20.032,20.032,0,0,1,0,4.511,20.163,20.163,0,0,1,.509,0,20.128,20.128,0,0,0,7.475,11.105a19.955,19.955,0,0,0,5.791,3.256,19.986,19.986,0,0,0,6.781,1.176,20,20,0,0,0,6.782-1.176,19.947,19.947,0,0,0,5.792-3.256A20.126,20.126,0,0,0,39.587,0,20.173,20.173,0,0,1,40.1,4.511,20.069,20.069,0,0,1,27.851,22.982,19.929,19.929,0,0,1,20.046,24.558Z" transform="translate(1029.828 4933.872)" fill="#e38300"/>
      <path id="Trazado_892024" data-name="Trazado 892024" d="M-7117.726-6792.951l6.542,115.465L-7146-6678.96" transform="translate(8331.515 11608.771)" fill="none" stroke="#fd0" stroke-width="2"/>
      <path id="Trazado_892026" data-name="Trazado 892026" d="M-6907.877-6795.515l28.03,3.023,66.649-30.308" transform="translate(8096.207 11608.016)" fill="none" stroke="#3b574d" stroke-width="1"/>
      <path id="Trazado_892028" data-name="Trazado 892028" d="M-6830.3-6815.6l-1.306-13.678" transform="translate(8096.389 11608)" fill="none" stroke="#3b574d" stroke-width="1"/>
    </g>
  </g>
</svg>
