<svg xmlns="http://www.w3.org/2000/svg" width="822.384" height="195.278" viewBox="0 0 822.384 195.278">
  <g id="Grupo_1107072" data-name="Grupo 1107072" transform="translate(-390 -8398.436)">
    <g id="Grupo_1106569" data-name="Grupo 1106569" transform="translate(0 -204.564)">
      <rect id="Rectángulo_402101" data-name="Rectángulo 402101" width="182.384" height="56" transform="translate(611 8742.278)" fill="#85c026"/>
      <rect id="Rectángulo_402161" data-name="Rectángulo 402161" width="182.384" height="22" transform="translate(390 8603)" fill="#e38300"/>
      <rect id="Rectángulo_402162" data-name="Rectángulo 402162" width="182.384" height="22" transform="translate(390 8603)" fill="#e38300"/>
      <rect id="Rectángulo_402164" data-name="Rectángulo 402164" width="182.384" height="22" transform="translate(611 8603)" fill="#e38300"/>
      <rect id="Rectángulo_402165" data-name="Rectángulo 402165" width="182.384" height="22" transform="translate(805 8670)" fill="#e38300"/>
      <rect id="Rectángulo_402163" data-name="Rectángulo 402163" width="182.384" height="22" transform="translate(390 8670)" fill="#85c026"/>
      <rect id="Rectángulo_402166" data-name="Rectángulo 402166" width="182.384" height="22" transform="translate(611 8670)" fill="#85c026"/>
      <rect id="Rectángulo_402167" data-name="Rectángulo 402167" width="182.384" height="28" transform="translate(1030 8664)" fill="#85c026"/>
      <rect id="Rectángulo_402158" data-name="Rectángulo 402158" width="182.384" height="47.855" transform="translate(842 8742.278)" fill="#3379d4"/>
      <rect id="Rectángulo_402107" data-name="Rectángulo 402107" width="182.384" height="10.534" transform="translate(611 8764.042)" fill="#fd0"/>
      <rect id="Rectángulo_402159" data-name="Rectángulo 402159" width="182.384" height="10.534" transform="translate(842 8760.143)" fill="#fd0"/>
      <path id="Trazado_891997" data-name="Trazado 891997" d="M-7367.559-8508.526l4.321,4.322,4.636-4.322,4.324,4.322,4.323-4.322,4.322,4.322,4.324-4.322,4.322,4.322,4.323-4.322,4.323,4.322,4.323-4.322,4.323,4.322,4.322-4.322,4.322,4.322,4.324-4.322,4.322,4.322,4.323-4.322,4.323,4.322,4.323-4.322,4.323,4.322,4.322-4.322,4.323,4.322,2.639-2.637" transform="translate(7980.063 17275.402)" fill="none" stroke="#000" stroke-width="2"/>
      <path id="Trazado_892118" data-name="Trazado 892118" d="M-7367.559-8508.526l4.321,4.322,4.636-4.322,4.324,4.322,4.323-4.322,4.322,4.322,4.324-4.322,4.322,4.322,4.323-4.322,4.323,4.322,4.323-4.322,4.323,4.322,4.322-4.322,4.322,4.322,4.324-4.322,4.322,4.322,4.323-4.322,4.323,4.322,4.323-4.322,4.323,4.322,4.322-4.322,4.323,4.322,2.639-2.637" transform="translate(8211.063 17271.525)" fill="none" stroke="#000" stroke-width="2"/>
      <path id="Trazado_891998" data-name="Trazado 891998" d="M-7367.559-8508.526l4.321,4.322,4.636-4.322,4.324,4.322,4.323-4.322,4.322,4.322,4.324-4.322,4.322,4.322,4.323-4.322,4.323,4.322,4.323-4.322,4.323,4.322,4.322-4.322,4.322,4.322,4.324-4.322,4.322,4.322,4.323-4.322,4.323,4.322,4.323-4.322,4.323,4.322,4.322-4.322,4.323,4.322,2.639-2.637" transform="translate(8066.516 17275.402)" fill="none" stroke="#000" stroke-width="2"/>
      <g id="Grupo_1106566" data-name="Grupo 1106566">
        <path id="Trazado_892123" data-name="Trazado 892123" d="M-7367.559-8508.526l4.321,1.667,4.636-1.667,4.324,1.667,4.323-1.667,4.322,1.667,4.324-1.667,4.322,1.667,4.323-1.667,4.323,1.667,4.323-1.667,4.323,1.667,4.322-1.667,4.322,1.667,4.324-1.667,4.322,1.667,4.323-1.667,4.323,1.667,4.323-1.667,4.323,1.667,4.322-1.667,4.323,1.667,2.639-1.017" transform="translate(7980.063 17186.531)" fill="none" stroke="#000" stroke-width="2"/>
        <path id="Trazado_892124" data-name="Trazado 892124" d="M-7367.559-8508.526l4.321,1.667,4.636-1.667,4.324,1.667,4.323-1.667,4.322,1.667,4.324-1.667,4.322,1.667,4.323-1.667,4.323,1.667,4.323-1.667,4.323,1.667,4.322-1.667,4.322,1.667,4.324-1.667,4.322,1.667,4.323-1.667,4.323,1.667,4.323-1.667,4.323,1.667,4.322-1.667,4.323,1.667,2.639-1.017" transform="translate(8066.516 17186.531)" fill="none" stroke="#000" stroke-width="2"/>
      </g>
      <g id="Grupo_1106567" data-name="Grupo 1106567" transform="translate(419 -12)">
        <path id="Trazado_892123-2" data-name="Trazado 892123" d="M-7367.559-8508.526l4.321,1.667,4.636-1.667,4.324,1.667,4.323-1.667,4.322,1.667,4.324-1.667,4.322,1.667,4.323-1.667,4.323,1.667,4.323-1.667,4.323,1.667,4.322-1.667,4.322,1.667,4.324-1.667,4.322,1.667,4.323-1.667,4.323,1.667,4.323-1.667,4.323,1.667,4.322-1.667,4.323,1.667,2.639-1.017" transform="translate(7980.063 17186.531)" fill="none" stroke="#000" stroke-width="2"/>
        <path id="Trazado_892124-2" data-name="Trazado 892124" d="M-7367.559-8508.526l4.321,1.667,4.636-1.667,4.324,1.667,4.323-1.667,4.322,1.667,4.324-1.667,4.322,1.667,4.323-1.667,4.323,1.667,4.323-1.667,4.323,1.667,4.322-1.667,4.322,1.667,4.324-1.667,4.322,1.667,4.323-1.667,4.323,1.667,4.323-1.667,4.323,1.667,4.322-1.667,4.323,1.667,2.639-1.017" transform="translate(8066.516 17186.531)" fill="none" stroke="#000" stroke-width="2"/>
      </g>
      <path id="Trazado_892116" data-name="Trazado 892116" d="M-7367.559-8508.526l4.321,4.322,4.636-4.322,4.324,4.322,4.323-4.322,4.322,4.322,4.324-4.322,4.322,4.322,4.323-4.322,4.323,4.322,4.323-4.322,4.323,4.322,4.322-4.322,4.322,4.322,4.324-4.322,4.322,4.322,4.323-4.322,4.323,4.322,4.323-4.322,4.323,4.322,4.322-4.322,4.323,4.322,2.639-2.637" transform="translate(8297.516 17271.525)" fill="none" stroke="#000" stroke-width="2"/>
      <path id="Trazado_892053" data-name="Trazado 892053" d="M-7230.94-8510.707v3.457h-8.38l-4.478-3.457,6.343-2.1,3.351,1.079Z" transform="translate(8022.085 17279.07)" fill="#fd0" stroke="#000" stroke-width="2"/>
      <path id="Trazado_892117" data-name="Trazado 892117" d="M-7230.94-8510.707v3.457h-8.38l-4.478-3.457,6.343-2.1,3.351,1.079Z" transform="translate(8253.086 17275.197)" fill="#fd0" stroke="#000" stroke-width="2"/>
      <path id="Trazado_892121" data-name="Trazado 892121" d="M0,0H182.384" transform="translate(987.384 8674.297) rotate(180)" fill="none" stroke="#fd0" stroke-width="2" stroke-dasharray="4"/>
      <path id="Trazado_892126" data-name="Trazado 892126" d="M0,0H182.384" transform="translate(1024.385 8756.297) rotate(180)" fill="none" stroke="#fd0" stroke-width="2" stroke-dasharray="4"/>
      <path id="Trazado_892127" data-name="Trazado 892127" d="M0,0H182.384" transform="translate(1024.385 8774.576) rotate(180)" fill="none" stroke="#fd0" stroke-width="2" stroke-dasharray="4"/>
      <path id="Trazado_892128" data-name="Trazado 892128" d="M0,0H182.384" transform="translate(793.384 8778.653) rotate(180)" fill="none" stroke="#fd0" stroke-width="2" stroke-dasharray="4"/>
      <path id="Trazado_892129" data-name="Trazado 892129" d="M0,0H182.384" transform="translate(793.384 8760.143) rotate(180)" fill="none" stroke="#fd0" stroke-width="2" stroke-dasharray="4"/>
      <path id="Trazado_892122" data-name="Trazado 892122" d="M0,0H182.384" transform="translate(792.689 8674.297) rotate(180)" fill="none" stroke="#fd0" stroke-width="2" stroke-dasharray="4"/>
      <path id="Trazado_892125" data-name="Trazado 892125" d="M0,0H182.384" transform="translate(1211.689 8674.297) rotate(180)" fill="none" stroke="#fd0" stroke-width="2" stroke-dasharray="4"/>
      <g id="Grupo_1106568" data-name="Grupo 1106568" transform="translate(684.612 8628.599)">
        <path id="Polígono_5" data-name="Polígono 5" d="M8.364,0l8.364,15.891H0Z" transform="translate(17.166 30.946) rotate(180)" fill="#0058c9"/>
        <rect id="Rectángulo_402097" data-name="Rectángulo 402097" width="7.527" height="17.564" transform="translate(5.439)" fill="#0058c9"/>
      </g>
    </g>
  </g>
</svg>
