<svg xmlns="http://www.w3.org/2000/svg" width="595.013" height="293.555" viewBox="0 0 595.013 293.555">
  <g id="Grupo_1107077" data-name="Grupo 1107077" transform="translate(-510.051 -11986.932)">
    <g id="Grupo_1106660" data-name="Grupo 1106660" transform="translate(0 -47.573)">
      <path id="Rectángulo_402257" data-name="Rectángulo 402257" d="M0,0H121a0,0,0,0,1,0,0V73a35,35,0,0,1-35,35H35A35,35,0,0,1,0,73V0A0,0,0,0,1,0,0Z" transform="translate(510.051 12055.546)" fill="#669bdf"/>
      <path id="Rectángulo_402283" data-name="Rectángulo 402283" d="M0,0H121a0,0,0,0,1,0,0V93.482a35,35,0,0,1-35,35H35a35,35,0,0,1-35-35V0A0,0,0,0,1,0,0Z" transform="translate(510.051 12199.577)" fill="#e38300"/>
      <path id="Rectángulo_402278" data-name="Rectángulo 402278" d="M0,0H121a0,0,0,0,1,0,0V73a35,35,0,0,1-35,35H35A35,35,0,0,1,0,73V0A0,0,0,0,1,0,0Z" transform="translate(633.051 12055.546)" fill="#669bdf"/>
      <path id="Rectángulo_402284" data-name="Rectángulo 402284" d="M0,0H121a0,0,0,0,1,0,0V93.482a35,35,0,0,1-35,35H35a35,35,0,0,1-35-35V0A0,0,0,0,1,0,0Z" transform="translate(633.051 12199.577)" fill="#e38300"/>
      <path id="Rectángulo_402285" data-name="Rectángulo 402285" d="M0,0H121a0,0,0,0,1,0,0V93.482a35,35,0,0,1-35,35H35a35,35,0,0,1-35-35V0A0,0,0,0,1,0,0Z" transform="translate(774 12199.577)" fill="#e38300"/>
      <path id="Rectángulo_402281" data-name="Rectángulo 402281" d="M0,0H121a0,0,0,0,1,0,0V73a35,35,0,0,1-35,35H35A35,35,0,0,1,0,73V0A0,0,0,0,1,0,0Z" transform="translate(784.051 12055.546)" fill="#669bdf"/>
      <g id="Grupo_1106654" data-name="Grupo 1106654" transform="translate(543.051 12071.063)">
        <g id="Rectángulo_402022" data-name="Rectángulo 402022" transform="translate(0 0)" fill="#e33d00" stroke="#e33d00" stroke-width="1">
          <rect width="54.457" height="38.482" stroke="none"/>
          <rect x="0.5" y="0.5" width="53.457" height="37.482" fill="none"/>
        </g>
        <g id="Rectángulo_402023" data-name="Rectángulo 402023" transform="translate(1.244 1.244)" fill="#e33d00" stroke="#ff7960" stroke-width="2">
          <rect width="51.969" height="35.995" stroke="none"/>
          <rect x="1" y="1" width="49.969" height="33.995" fill="none"/>
        </g>
      </g>
      <g id="Grupo_1106655" data-name="Grupo 1106655" transform="translate(-46.941 529.225)">
        <rect id="Rectángulo_402219" data-name="Rectángulo 402219" width="73.667" height="25.737" transform="translate(706.591 11556.325)" fill="#fd0"/>
        <rect id="Rectángulo_402220" data-name="Rectángulo 402220" width="73.667" height="9.437" transform="translate(706.591 11545.174)" fill="#fd0"/>
      </g>
      <rect id="Rectángulo_402279" data-name="Rectángulo 402279" width="121" height="21.041" transform="translate(510.051 12034.505)" fill="#e38300"/>
      <rect id="Rectángulo_402280" data-name="Rectángulo 402280" width="121" height="21.041" transform="translate(633.051 12034.505)" fill="#e38300"/>
      <path id="Trazado_892196" data-name="Trazado 892196" d="M-6989.051,618.141l-96.2,36.436s-1.237,104.363,26.521,105.5c31.566,1.09,45.5-11.383,58.392-29.772s11.291-45.193,11.291-45.193Z" transform="translate(8094.051 11545.405)" fill="#e38300"/>
      <rect id="Rectángulo_402282" data-name="Rectángulo 402282" width="121" height="21.041" transform="translate(784.051 12034.505)" fill="#e38300"/>
      <path id="Trazado_892191" data-name="Trazado 892191" d="M-7474.873-5403.856l9.178-4.623s-11.755-13.066-26.22-15.126-31.638,6.888-31.638,6.888l-3.951-3.088-2.5,10.517h15.134l-2.788-2.9s14.389-7.4,25.084-5.315S-7474.873-5403.856-7474.873-5403.856Z" transform="translate(-6866.799 6730.947) rotate(180)" fill="#2a3e37"/>
      <path id="Trazado_892192" data-name="Trazado 892192" d="M-7474.873-5403.856l9.178-4.623s-11.755-13.066-26.22-15.126-31.638,6.888-31.638,6.888l-3.951-3.088-2.5,10.517h15.134l-2.788-2.9s14.389-7.4,25.084-5.315S-7474.873-5403.856-7474.873-5403.856Z" transform="translate(-6866.799 6895.46) rotate(180)" fill="#2a3e37"/>
      <path id="Trazado_892193" data-name="Trazado 892193" d="M-7440.823-2538.9h12.6l3.7,40.788-10.032,20.878-10.032-20.878Z" transform="translate(8369.158 14736.301)" fill="#240d0a" stroke="#ccaf91" stroke-width="1"/>
      <path id="Trazado_892194" data-name="Trazado 892194" d="M-7440.823-2538.9h12.6l3.7,40.788-10.032,20.878-10.032-20.878Z" transform="translate(8397.158 14736.301)" fill="#240d0a" stroke="#ccaf91" stroke-width="1"/>
      <path id="Trazado_892195" data-name="Trazado 892195" d="M-7441.729-2538.9h9.571l2.809,36.417-7.622,18.641-7.622-18.641Z" transform="matrix(0.996, 0.087, -0.087, 0.996, 8210.978, 15382.669)" fill="#240d0a" stroke="#ccaf91" stroke-width="1"/>
      <g id="Grupo_1106656" data-name="Grupo 1106656" transform="translate(976.192 12235.839) rotate(-90)">
        <path id="Polígono_5" data-name="Polígono 5" d="M10.535,0,21.071,14.567H0Z" transform="translate(21.509 28.367) rotate(180)" fill="#0058c9"/>
        <rect id="Rectángulo_402097" data-name="Rectángulo 402097" width="6.9" height="16.1" transform="translate(8.14)" fill="#0058c9"/>
      </g>
    </g>
  </g>
</svg>
