<svg xmlns="http://www.w3.org/2000/svg" width="820" height="231.294" viewBox="0 0 820 231.294">
  <g id="Grupo_1107072" data-name="Grupo 1107072" transform="translate(-390 -15149.757)">
    <g id="Grupo_1106744" data-name="Grupo 1106744" transform="translate(0 -78)">
      <rect id="Rectángulo_402308" data-name="Rectángulo 402308" width="46" height="46" transform="translate(454.051 15294.816)" fill="#669bdf"/>
      <rect id="Rectángulo_402329" data-name="Rectángulo 402329" width="123" height="130.646" transform="translate(1087 15326.171)" fill="#669bdf"/>
      <rect id="Rectángulo_402311" data-name="Rectángulo 402311" width="123" height="43" transform="translate(540.051 15227.757)" fill="#669bdf"/>
      <rect id="Rectángulo_402313" data-name="Rectángulo 402313" width="123" height="11" transform="translate(540.051 15400.316)" fill="#669bdf"/>
      <rect id="Rectángulo_402316" data-name="Rectángulo 402316" width="123" height="11" transform="translate(674.051 15400.316)" fill="#669bdf"/>
      <g id="Grupo_1106743" data-name="Grupo 1106743" transform="translate(942.051 15325.905)">
        <g id="Grupo_1106740" data-name="Grupo 1106740">
          <rect id="Rectángulo_402319" data-name="Rectángulo 402319" width="123" height="7.104" transform="translate(0 0.718)" fill="#fd0"/>
          <g id="Grupo_1106734" data-name="Grupo 1106734" transform="translate(1.015)">
            <path id="Trazado_891997" data-name="Trazado 891997" d="M-7367.56-8505.613l2.914-2.916,3.127,2.916,2.915-2.916,2.916,2.916,2.915-2.916,2.916,2.916,2.915-2.916,2.915,2.916,2.916-2.916,2.915,2.916,2.916-2.916,2.915,2.916,2.915-2.916,2.916,2.916,2.915-2.916,2.915,2.916,2.915-2.916,2.916,2.916,2.915-2.916,2.915,2.916,2.916-2.916,1.779,1.779" transform="translate(7367.56 8508.529)" fill="none" stroke="#fd0" stroke-width="2"/>
            <path id="Trazado_891998" data-name="Trazado 891998" d="M-7367.56-8505.613l2.914-2.916,3.127,2.916,2.915-2.916,2.916,2.916,2.915-2.916,2.916,2.916,2.915-2.916,2.915,2.916,2.916-2.916,2.915,2.916,2.916-2.916,2.915,2.916,2.915-2.916,2.916,2.916,2.915-2.916,2.915,2.916,2.915-2.916,2.916,2.916,2.915-2.916,2.915,2.916,2.916-2.916,1.779,1.779" transform="translate(7425.863 8508.529)" fill="none" stroke="#fd0" stroke-width="2"/>
          </g>
        </g>
      </g>
      <rect id="Rectángulo_402312" data-name="Rectángulo 402312" width="123" height="43" transform="translate(540.051 15329.816)" fill="#e38300"/>
      <rect id="Rectángulo_402317" data-name="Rectángulo 402317" width="123" height="43" transform="translate(674.051 15329.816)" fill="#e38300"/>
      <rect id="Rectángulo_402326" data-name="Rectángulo 402326" width="123" height="58.734" transform="translate(800.797 15400.316)" fill="#e38300"/>
      <rect id="Rectángulo_402327" data-name="Rectángulo 402327" width="111.023" height="53.015" transform="translate(1092.773 15396.316)" fill="#e38300"/>
      <rect id="Rectángulo_402321" data-name="Rectángulo 402321" width="123" height="43" transform="translate(808.051 15329.816)" fill="#669bdf"/>
      <rect id="Rectángulo_402322" data-name="Rectángulo 402322" width="123" height="43" transform="translate(942.051 15329.816)" fill="#e38300"/>
      <rect id="Rectángulo_402309" data-name="Rectángulo 402309" width="46" height="46" transform="translate(454.051 15350.816)" fill="#e38300"/>
      <rect id="Rectángulo_402310" data-name="Rectángulo 402310" width="46" height="46" transform="translate(454.051 15406.816)" fill="#655647"/>
      <text id="Forro" transform="translate(390 15305.816)" fill="#12263f" font-size="18" font-family="Roboto-Medium, Roboto" font-weight="500"><tspan x="0" y="17">Forro</tspan></text>
      <text id="Cuero" transform="translate(390 15361.816)" fill="#12263f" font-size="18" font-family="Roboto-Medium, Roboto" font-weight="500"><tspan x="0" y="17">Cuero</tspan></text>
      <text id="Odena" transform="translate(390 15417.816)" fill="#12263f" font-size="18" font-family="Roboto-Medium, Roboto" font-weight="500"><tspan x="0" y="17">Odena</tspan></text>
      <g id="Rectángulo_402314" data-name="Rectángulo 402314" transform="translate(540.051 15407.266)" fill="#669bdf" stroke="#587090" stroke-width="1">
        <rect width="123" height="4" stroke="none"/>
        <rect x="0.5" y="0.5" width="122" height="3" fill="none"/>
      </g>
      <g id="Rectángulo_402315" data-name="Rectángulo 402315" transform="translate(674.051 15407.266)" fill="#669bdf" stroke="#587090" stroke-width="1">
        <rect width="123" height="4" stroke="none"/>
        <rect x="0.5" y="0.5" width="122" height="3" fill="none"/>
      </g>
      <g id="Grupo_1106742" data-name="Grupo 1106742">
        <g id="Grupo_1106740-2" data-name="Grupo 1106740">
          <rect id="Rectángulo_402319-2" data-name="Rectángulo 402319" width="123" height="7.104" transform="translate(540.051 15310.713)" fill="#fd0"/>
          <g id="Grupo_1106734-2" data-name="Grupo 1106734" transform="translate(541.065 15312.619)">
            <path id="Trazado_891997-2" data-name="Trazado 891997" d="M-7367.56-8508.529l2.914,2.916,3.127-2.916,2.915,2.916,2.916-2.916,2.915,2.916,2.916-2.916,2.915,2.916,2.915-2.916,2.916,2.916,2.915-2.916,2.916,2.916,2.915-2.916,2.915,2.916,2.916-2.916,2.915,2.916,2.915-2.916,2.915,2.916,2.916-2.916,2.915,2.916,2.915-2.916,2.916,2.916,1.779-1.779" transform="translate(7367.56 8511.529)" fill="none" stroke="#fd0" stroke-width="2"/>
            <path id="Trazado_891998-2" data-name="Trazado 891998" d="M-7367.56-8508.529l2.914,2.916,3.127-2.916,2.915,2.916,2.916-2.916,2.915,2.916,2.916-2.916,2.915,2.916,2.915-2.916,2.916,2.916,2.915-2.916,2.916,2.916,2.915-2.916,2.915,2.916,2.916-2.916,2.915,2.916,2.915-2.916,2.915,2.916,2.916-2.916,2.915,2.916,2.915-2.916,2.916,2.916,1.779-1.779" transform="translate(7425.863 8511.529)" fill="none" stroke="#fd0" stroke-width="2"/>
          </g>
        </g>
      </g>
      <path id="Trazado_892247" data-name="Trazado 892247" d="M-7286,3726.7h122.745" transform="translate(8094.051 11608)" fill="none" stroke="#ddebfd" stroke-width="1" opacity="0.293"/>
      <path id="Trazado_892249" data-name="Trazado 892249" d="M-7286,3726.7h123" transform="translate(8086.797 11678)" fill="none" stroke="#ddebfd" stroke-width="1" opacity="0.293"/>
      <path id="Trazado_892251" data-name="Trazado 892251" d="M-7286,3726.7h111.023" transform="translate(8378.773 11673.573)" fill="none" stroke="#ddebfd" stroke-width="1" opacity="0.293"/>
      <path id="Trazado_892250" data-name="Trazado 892250" d="M-7286,3726.7h123" transform="translate(8086.797 11693)" fill="none" stroke="#ddebfd" stroke-width="1" opacity="0.293"/>
      <path id="Trazado_892253" data-name="Trazado 892253" d="M-7286,3726.7h111.023" transform="translate(8378.773 11687.113)" fill="none" stroke="#ddebfd" stroke-width="1" opacity="0.293"/>
      <rect id="Rectángulo_402325" data-name="Rectángulo 402325" width="123" height="11.313" transform="translate(800.797 15406.554)" fill="#fd0"/>
      <rect id="Rectángulo_402328" data-name="Rectángulo 402328" width="111.023" height="10.211" transform="translate(1092.773 15401.946)" fill="#fd0"/>
      <g id="Grupo_1106737" data-name="Grupo 1106737" transform="translate(801.818 15410.488)">
        <path id="Trazado_891997-3" data-name="Trazado 891997" d="M-7367.558-8508.528l2.933,2.935,3.146-2.935,2.935,2.935,2.935-2.935,2.935,2.935,2.934-2.935,2.935,2.935,2.935-2.935,2.935,2.935,2.935-2.935,2.934,2.935,2.935-2.935,2.934,2.935,2.935-2.935,2.935,2.935,2.934-2.935,2.935,2.935,2.934-2.935,2.935,2.935,2.935-2.935,2.934,2.935,1.791-1.791" transform="translate(7367.558 8508.528)" fill="none" stroke="#fbfcfe" stroke-width="2"/>
        <path id="Trazado_891998-3" data-name="Trazado 891998" d="M-7367.558-8508.528l2.933,2.935,3.146-2.935,2.935,2.935,2.935-2.935,2.935,2.935,2.934-2.935,2.935,2.935,2.935-2.935,2.935,2.935,2.935-2.935,2.934,2.935,2.935-2.935,2.934,2.935,2.935-2.935,2.935,2.935,2.934-2.935,2.935,2.935,2.934-2.935,2.935,2.935,2.935-2.935,2.934,2.935,1.791-1.791" transform="translate(7425.442 8508.528)" fill="none" stroke="#fbfcfe" stroke-width="2"/>
      </g>
      <g id="Grupo_1106738" data-name="Grupo 1106738" transform="translate(1093.695 15405.498)">
        <path id="Trazado_891997-4" data-name="Trazado 891997" d="M-7367.559-8508.528l2.647,2.648,2.84-2.648,2.649,2.648,2.649-2.648,2.649,2.648,2.648-2.648,2.648,2.648,2.649-2.648,2.649,2.648,2.649-2.648,2.648,2.648,2.649-2.648,2.648,2.648,2.648-2.648,2.649,2.648,2.648-2.648,2.649,2.648,2.648-2.648,2.649,2.648,2.649-2.648,2.648,2.648,1.616-1.616" transform="translate(7367.559 8508.528)" fill="none" stroke="#fbfcfe" stroke-width="2"/>
        <path id="Trazado_891998-4" data-name="Trazado 891998" d="M-7367.559-8508.528l2.647,2.648,2.84-2.648,2.649,2.648,2.649-2.648,2.649,2.648,2.648-2.648,2.648,2.648,2.649-2.648,2.649,2.648,2.649-2.648,2.648,2.648,2.649-2.648,2.648,2.648,2.648-2.648,2.649,2.648,2.648-2.648,2.649,2.648,2.648-2.648,2.649,2.648,2.649-2.648,2.648,2.648,1.616-1.616" transform="translate(7419.806 8508.528)" fill="none" stroke="#fbfcfe" stroke-width="2"/>
      </g>
      <path id="Trazado_892248" data-name="Trazado 892248" d="M-7232.732-8511v2.975h-7.211L-7243.8-8511l5.459-1.807,2.884.93Z" transform="matrix(0.53, -0.848, 0.848, 0.53, 11970.803, 13786.112)" fill="#fd0" stroke="#814d05" stroke-width="2"/>
      <path id="Trazado_892252" data-name="Trazado 892252" d="M9.988,1.63V4.315H3.479L0,1.63,4.927,0l2.6.839Z" transform="matrix(0.53, -0.848, 0.848, 0.53, 1193.966, 15412.37)" fill="#fd0" stroke="#814d05" stroke-width="2"/>
      <g id="Rectángulo_402330" data-name="Rectángulo 402330" transform="translate(1088.373 15327.629)" fill="none" stroke="#ddebfd" stroke-width="1" opacity="0.199">
        <rect width="120.255" height="127.729" stroke="none"/>
        <rect x="0.5" y="0.5" width="119.255" height="126.729" fill="none"/>
      </g>
      <g id="Grupo_1106739" data-name="Grupo 1106739" transform="translate(592.294 15279.485)">
        <path id="Polígono_5" data-name="Polígono 5" d="M13.819,0,27.638,10.243H0Z" transform="translate(23.077 19.946) rotate(180)" fill="#e33d00"/>
        <rect id="Rectángulo_402097" data-name="Rectángulo 402097" width="11.708" height="11.321" transform="translate(3.661)" fill="#e33d00"/>
      </g>
      <g id="Grupo_1106741" data-name="Grupo 1106741" transform="translate(134 96.692)">
        <rect id="Rectángulo_402319-3" data-name="Rectángulo 402319" width="123" height="7.104" transform="translate(540.051 15310.713)" fill="#fd0"/>
        <g id="Grupo_1106734-3" data-name="Grupo 1106734" transform="translate(541.065 15312.619)">
          <path id="Trazado_891997-5" data-name="Trazado 891997" d="M-7367.56-8508.529l2.914,2.916,3.127-2.916,2.915,2.916,2.916-2.916,2.915,2.916,2.916-2.916,2.915,2.916,2.915-2.916,2.916,2.916,2.915-2.916,2.916,2.916,2.915-2.916,2.915,2.916,2.916-2.916,2.915,2.916,2.915-2.916,2.915,2.916,2.916-2.916,2.915,2.916,2.915-2.916,2.916,2.916,1.779-1.779" transform="translate(7367.56 8511.529)" fill="none" stroke="#fd0" stroke-width="2"/>
          <path id="Trazado_891998-5" data-name="Trazado 891998" d="M-7367.56-8508.529l2.914,2.916,3.127-2.916,2.915,2.916,2.916-2.916,2.915,2.916,2.916-2.916,2.915,2.916,2.915-2.916,2.916,2.916,2.915-2.916,2.916,2.916,2.915-2.916,2.915,2.916,2.916-2.916,2.915,2.916,2.915-2.916,2.915,2.916,2.916-2.916,2.915,2.916,2.915-2.916,2.916,2.916,1.779-1.779" transform="translate(7425.863 8511.529)" fill="none" stroke="#fd0" stroke-width="2"/>
        </g>
      </g>
    </g>
  </g>
</svg>
