<svg xmlns="http://www.w3.org/2000/svg" xmlns:xlink="http://www.w3.org/1999/xlink" width="819.104" height="158" viewBox="0 0 819.104 158">
  <defs>
    <clipPath id="clip-path">
      <rect id="Rectángulo_402375" data-name="Rectángulo 402375" width="54.37" height="5.368" fill="none"/>
    </clipPath>
  </defs>
  <g id="Grupo_1107084" data-name="Grupo 1107084" transform="translate(-390.896 -17910.234)">
    <path id="Trazado_895511" data-name="Trazado 895511" d="M8.675,11.577H3.524V17H1.3V4.2h8.13V6H3.524V9.8h5.15Zm1.723.58a5.607,5.607,0,0,1,.554-2.518,4.044,4.044,0,0,1,1.556-1.723,4.383,4.383,0,0,1,2.3-.6,4.154,4.154,0,0,1,3.125,1.239,4.874,4.874,0,0,1,1.3,3.287l.009.5a5.658,5.658,0,0,1-.541,2.514,4,4,0,0,1-1.547,1.714,4.415,4.415,0,0,1-2.325.606,4.125,4.125,0,0,1-3.221-1.34A5.133,5.133,0,0,1,10.4,12.263Zm2.136.185a3.832,3.832,0,0,0,.606,2.3,1.971,1.971,0,0,0,1.688.831,1.95,1.95,0,0,0,1.683-.844,4.232,4.232,0,0,0,.6-2.47,3.782,3.782,0,0,0-.62-2.285,2.089,2.089,0,0,0-3.344-.013A4.152,4.152,0,0,0,12.533,12.342Zm13.491-2.9a5.285,5.285,0,0,0-.87-.07A1.959,1.959,0,0,0,23.177,10.5V17H21.041V7.49H23.08l.053,1.063a2.406,2.406,0,0,1,2.145-1.239,2,2,0,0,1,.756.123Zm6.328,0a5.285,5.285,0,0,0-.87-.07A1.959,1.959,0,0,0,29.5,10.5V17H27.369V7.49h2.039l.053,1.063a2.406,2.406,0,0,1,2.145-1.239,2,2,0,0,1,.756.123Zm.633,2.716a5.607,5.607,0,0,1,.554-2.518,4.044,4.044,0,0,1,1.556-1.723,4.383,4.383,0,0,1,2.3-.6,4.154,4.154,0,0,1,3.125,1.239,4.874,4.874,0,0,1,1.3,3.287l.009.5a5.658,5.658,0,0,1-.541,2.514,4,4,0,0,1-1.547,1.714,4.415,4.415,0,0,1-2.325.606,4.125,4.125,0,0,1-3.221-1.34,5.133,5.133,0,0,1-1.208-3.573Zm2.136.185a3.832,3.832,0,0,0,.606,2.3,1.971,1.971,0,0,0,1.688.831,1.95,1.95,0,0,0,1.683-.844,4.232,4.232,0,0,0,.6-2.47,3.782,3.782,0,0,0-.62-2.285,2.089,2.089,0,0,0-3.344-.013A4.152,4.152,0,0,0,35.121,12.342Z" transform="translate(390 17921.234)" fill="#12263f"/>
    <path id="Trazado_895512" data-name="Trazado 895512" d="M11.065,12.834a4.621,4.621,0,0,1-1.512,3.195,5.154,5.154,0,0,1-3.507,1.147,4.99,4.99,0,0,1-2.694-.725,4.759,4.759,0,0,1-1.8-2.061,7.438,7.438,0,0,1-.659-3.1v-1.2A7.491,7.491,0,0,1,1.538,6.9,4.835,4.835,0,0,1,3.379,4.774a5.136,5.136,0,0,1,2.773-.747,4.946,4.946,0,0,1,3.41,1.147,4.793,4.793,0,0,1,1.5,3.248H8.851a3.161,3.161,0,0,0-.8-1.991A2.658,2.658,0,0,0,6.152,5.82,2.6,2.6,0,0,0,3.924,6.88a5.3,5.3,0,0,0-.8,3.11v1.135a5.62,5.62,0,0,0,.743,3.167,2.464,2.464,0,0,0,2.175,1.091,2.875,2.875,0,0,0,1.969-.589,3.071,3.071,0,0,0,.835-1.96Zm7.541,3.234a3.312,3.312,0,0,1-2.672,1.107,2.952,2.952,0,0,1-2.342-.905,3.851,3.851,0,0,1-.8-2.619V7.49h2.136v6.135q0,1.811,1.5,1.811a2.111,2.111,0,0,0,2.1-1.116V7.49h2.136V17H18.659Zm8.429,1.107A4.419,4.419,0,0,1,23.744,15.9a4.639,4.639,0,0,1-1.261-3.406v-.264a5.706,5.706,0,0,1,.549-2.544,4.181,4.181,0,0,1,1.542-1.745,4.078,4.078,0,0,1,2.215-.624,3.733,3.733,0,0,1,3,1.239,5.24,5.24,0,0,1,1.059,3.507v.861H24.636a2.856,2.856,0,0,0,.787,1.863,2.362,2.362,0,0,0,1.736.686,2.892,2.892,0,0,0,2.391-1.187l1.151,1.1a3.845,3.845,0,0,1-1.525,1.323A4.774,4.774,0,0,1,27.035,17.176ZM26.78,9.028a1.8,1.8,0,0,0-1.419.615,3.189,3.189,0,0,0-.69,1.714H28.74V11.2a2.6,2.6,0,0,0-.571-1.622A1.785,1.785,0,0,0,26.78,9.028Zm10.705.413a5.285,5.285,0,0,0-.87-.07A1.959,1.959,0,0,0,34.638,10.5V17H32.5V7.49h2.039l.053,1.063a2.406,2.406,0,0,1,2.145-1.239,2,2,0,0,1,.756.123Zm.633,2.716a5.607,5.607,0,0,1,.554-2.518,4.044,4.044,0,0,1,1.556-1.723,4.383,4.383,0,0,1,2.3-.6,4.154,4.154,0,0,1,3.125,1.239,4.874,4.874,0,0,1,1.3,3.287l.009.5a5.658,5.658,0,0,1-.541,2.514,4,4,0,0,1-1.547,1.714,4.415,4.415,0,0,1-2.325.606,4.125,4.125,0,0,1-3.221-1.34,5.133,5.133,0,0,1-1.208-3.573Zm2.136.185a3.832,3.832,0,0,0,.606,2.3,1.971,1.971,0,0,0,1.688.831,1.95,1.95,0,0,0,1.683-.844,4.232,4.232,0,0,0,.6-2.47,3.782,3.782,0,0,0-.62-2.285,2.089,2.089,0,0,0-3.344-.013A4.152,4.152,0,0,0,40.254,12.342Z" transform="translate(390 17977.234)" fill="#12263f"/>
    <path id="Trazado_895513" data-name="Trazado 895513" d="M11.514,10.936a7.851,7.851,0,0,1-.65,3.3A4.918,4.918,0,0,1,9,16.416a5.113,5.113,0,0,1-2.782.76,5.125,5.125,0,0,1-2.773-.76,4.993,4.993,0,0,1-1.881-2.167A7.606,7.606,0,0,1,.9,11.006v-.721a7.784,7.784,0,0,1,.664-3.3A4.987,4.987,0,0,1,3.432,4.788a5.1,5.1,0,0,1,2.773-.76,5.142,5.142,0,0,1,2.773.751,4.924,4.924,0,0,1,1.868,2.162,7.767,7.767,0,0,1,.668,3.283ZM9.29,10.268a5.594,5.594,0,0,0-.8-3.261A2.631,2.631,0,0,0,6.205,5.873,2.623,2.623,0,0,0,3.951,7,5.486,5.486,0,0,0,3.12,10.2v.738A5.552,5.552,0,0,0,3.942,14.2a2.646,2.646,0,0,0,2.281,1.151,2.615,2.615,0,0,0,2.272-1.125,5.671,5.671,0,0,0,.8-3.287Zm3.832,1.907a5.654,5.654,0,0,1,1.02-3.529,3.267,3.267,0,0,1,2.733-1.332,3.1,3.1,0,0,1,2.443,1.055V3.5h2.136V17H19.521l-.105-.984a3.148,3.148,0,0,1-2.558,1.16,3.248,3.248,0,0,1-2.7-1.345A5.861,5.861,0,0,1,13.122,12.175Zm2.136.185a3.958,3.958,0,0,0,.558,2.263,1.811,1.811,0,0,0,1.586.813,2.017,2.017,0,0,0,1.916-1.169V10.206a1.986,1.986,0,0,0-1.9-1.143,1.824,1.824,0,0,0-1.6.822A4.408,4.408,0,0,0,15.258,12.359ZM27.87,17.176A4.419,4.419,0,0,1,24.579,15.9a4.639,4.639,0,0,1-1.261-3.406v-.264a5.706,5.706,0,0,1,.549-2.544,4.181,4.181,0,0,1,1.542-1.745,4.078,4.078,0,0,1,2.215-.624,3.733,3.733,0,0,1,3,1.239,5.24,5.24,0,0,1,1.059,3.507v.861H25.471a2.856,2.856,0,0,0,.787,1.863,2.362,2.362,0,0,0,1.736.686,2.892,2.892,0,0,0,2.391-1.187l1.151,1.1a3.845,3.845,0,0,1-1.525,1.323A4.774,4.774,0,0,1,27.87,17.176Zm-.255-8.147a1.8,1.8,0,0,0-1.419.615,3.189,3.189,0,0,0-.69,1.714h4.069V11.2A2.6,2.6,0,0,0,29,9.578,1.785,1.785,0,0,0,27.615,9.028ZM35.323,7.49l.062,1.1a3.419,3.419,0,0,1,2.769-1.274q2.971,0,3.023,3.4V17H39.041V10.839A1.958,1.958,0,0,0,38.65,9.5a1.645,1.645,0,0,0-1.279-.435,2.058,2.058,0,0,0-1.925,1.169V17H33.311V7.49ZM49.034,17a3.3,3.3,0,0,1-.246-.888,3.593,3.593,0,0,1-4.834.246,2.615,2.615,0,0,1-.905-2.021A2.7,2.7,0,0,1,44.178,12a5.473,5.473,0,0,1,3.23-.813h1.31v-.624A1.666,1.666,0,0,0,48.3,9.384a1.638,1.638,0,0,0-1.257-.444,1.881,1.881,0,0,0-1.2.365,1.129,1.129,0,0,0-.466.927H43.251a2.37,2.37,0,0,1,.519-1.463A3.455,3.455,0,0,1,45.18,7.7a4.955,4.955,0,0,1,1.991-.387,3.99,3.99,0,0,1,2.663.839,2.993,2.993,0,0,1,1.02,2.36V14.8a4.861,4.861,0,0,0,.36,2.048V17Zm-2.347-1.538a2.429,2.429,0,0,0,1.191-.308,2.055,2.055,0,0,0,.839-.826V12.535H47.566a3.148,3.148,0,0,0-1.784.413,1.338,1.338,0,0,0-.6,1.169,1.248,1.248,0,0,0,.409.98A1.583,1.583,0,0,0,46.688,15.462Z" transform="translate(390 18033.234)" fill="#12263f"/>
    <g id="Trazado_895514" data-name="Trazado 895514" transform="translate(907.051 18006.766)" fill="#e38300">
      <path d="M 92.76275634765625 47.12353134155273 L 0.5000017285346985 47.12353134155273 L 0.5000017285346985 0.5000028610229492 L 92.76275634765625 0.5000028610229492 L 92.76275634765625 47.12353134155273 Z" stroke="none"/>
      <path d="M 1 1.000003814697266 L 1 46.62353134155273 L 92.26275634765625 46.62353134155273 L 92.26275634765625 1.000003814697266 L 1 1.000003814697266 M 0 3.814697265625e-06 L 93.26275634765625 3.814697265625e-06 L 93.26275634765625 47.62353134155273 L 0 47.62353134155273 L 0 3.814697265625e-06 Z" stroke="none" fill="#ac680c"/>
    </g>
    <g id="Trazado_895515" data-name="Trazado 895515" transform="translate(1009.923 18006.766)" fill="#e38300">
      <path d="M 91.57666015625 47.12353134155273 L 0.5000006556510925 47.12353134155273 L 0.5000006556510925 0.5000028610229492 L 91.57666015625 0.5000028610229492 L 91.57666015625 47.12353134155273 Z" stroke="none"/>
      <path d="M 0.9999923706054688 1.000003814697266 L 0.9999923706054688 46.62353134155273 L 91.07665252685547 46.62353134155273 L 91.07665252685547 1.000003814697266 L 0.9999923706054688 1.000003814697266 M -7.62939453125e-06 3.814697265625e-06 L 92.07665252685547 3.814697265625e-06 L 92.07665252685547 47.62353134155273 L -7.62939453125e-06 47.62353134155273 L -7.62939453125e-06 3.814697265625e-06 Z" stroke="none" fill="#ac680c"/>
    </g>
    <g id="Trazado_895516" data-name="Trazado 895516" transform="translate(1116.737 18006.766)" fill="#e38300">
      <path d="M 92.76275634765625 47.12353134155273 L 0.5000017285346985 47.12353134155273 L 0.5000017285346985 0.5000028610229492 L 92.76275634765625 0.5000028610229492 L 92.76275634765625 47.12353134155273 Z" stroke="none"/>
      <path d="M 1 1.000003814697266 L 1 46.62353134155273 L 92.26275634765625 46.62353134155273 L 92.26275634765625 1.000003814697266 L 1 1.000003814697266 M 0 3.814697265625e-06 L 93.26275634765625 3.814697265625e-06 L 93.26275634765625 47.62353134155273 L 0 47.62353134155273 L 0 3.814697265625e-06 Z" stroke="none" fill="#ac680c"/>
    </g>
    <path id="Trazado_895517" data-name="Trazado 895517" d="M0,0H46V46H0Z" transform="translate(454.051 17910.234)" fill="#669bdf"/>
    <path id="Trazado_895518" data-name="Trazado 895518" d="M0,0H46V46H0Z" transform="translate(454.051 17966.234)" fill="#e38300"/>
    <path id="Trazado_895519" data-name="Trazado 895519" d="M0,0H46V46H0Z" transform="translate(454.051 18022.234)" fill="#655647"/>
    <g id="Trazado_895520" data-name="Trazado 895520" transform="translate(907.051 18006.766)" fill="#e38300">
      <path d="M 56.05686569213867 36.20589447021484 L 37.20589065551758 36.20589447021484 C 32.31769180297852 36.20589447021484 27.57622909545898 35.24875640869141 23.11322784423828 33.36106872558594 C 18.80197906494141 31.53755569458008 14.92986583709717 28.92684364318848 11.60446548461914 25.60143089294434 C 8.279052734375 22.2760181427002 5.668340682983398 18.4039192199707 3.844828128814697 14.09265613555908 C 2.086181879043579 9.934755325317383 1.13520073890686 5.534787654876709 1.013403296470642 1.000005960464478 L 92.24935150146484 1.000005960464478 C 92.12755584716797 5.534787654876709 91.17657470703125 9.934755325317383 89.41793060302734 14.09265613555908 C 87.59441375732422 18.4039192199707 84.98370361328125 22.2760181427002 81.65828704833984 25.60143089294434 C 78.33289337158203 28.92684364318848 74.46077728271484 31.53755569458008 70.14952850341797 33.36106872558594 C 65.68653106689453 35.24875640869141 60.94506454467773 36.20589447021484 56.05686569213867 36.20589447021484 Z" stroke="none"/>
      <path d="M 2.055328369140625 1.999996185302734 C 2.280128479003906 6.047145843505859 3.189094543457031 9.975276947021484 4.765830993652344 13.70310401916504 C 6.538925170898438 17.89515686035156 9.077674865722656 21.66043663024902 12.31156158447266 24.89432907104492 C 15.54545593261719 28.12822341918945 19.31072235107422 30.66696929931641 23.50277709960938 32.4400634765625 C 27.84184265136719 34.27532958984375 32.45223236083984 35.20589065551758 37.20588302612305 35.20589065551758 L 56.0568733215332 35.20589065551758 C 60.81051254272461 35.20589065551758 65.42091369628906 34.27532958984375 69.75997924804688 32.4400634765625 C 73.95203399658203 30.66696929931641 77.71730041503906 28.12822341918945 80.95119476318359 24.89432907104492 C 84.18508911132812 21.66043663024902 86.72383117675781 17.89515686035156 88.49692535400391 13.70310401916504 C 90.07366180419922 9.975276947021484 90.98262786865234 6.047145843505859 91.20742797851562 1.999996185302734 L 2.055328369140625 1.999996185302734 M 7.62939453125e-06 -3.814697265625e-06 L 93.26274871826172 -3.814697265625e-06 C 93.26274871826172 20.54825019836426 76.60511016845703 37.20589065551758 56.0568733215332 37.20589065551758 L 37.20588302612305 37.20589065551758 C 16.65763092041016 37.20589065551758 7.62939453125e-06 20.54825019836426 7.62939453125e-06 -3.814697265625e-06 Z" stroke="none" fill="#ac680c"/>
    </g>
    <g id="Trazado_895521" data-name="Trazado 895521" transform="translate(947.233 18024.625)" fill="#fff">
      <path d="M 3.720588684082031 6.941178798675537 C 1.944748640060425 6.941178798675537 0.4999986886978149 5.496428489685059 0.4999986886978149 3.720588684082031 C 0.4999986886978149 1.944748640060425 1.944748640060425 0.4999986886978149 3.720588684082031 0.4999986886978149 C 5.496428489685059 0.4999986886978149 6.941178798675537 1.944748640060425 6.941178798675537 3.720588684082031 C 6.941178798675537 5.496428489685059 5.496428489685059 6.941178798675537 3.720588684082031 6.941178798675537 Z" stroke="none"/>
      <path d="M 3.720588684082031 0.9999985694885254 C 2.22044849395752 0.9999985694885254 0.9999985694885254 2.22044849395752 0.9999985694885254 3.720588684082031 C 0.9999985694885254 5.220728874206543 2.22044849395752 6.441178798675537 3.720588684082031 6.441178798675537 C 5.220728874206543 6.441178798675537 6.441178798675537 5.220728874206543 6.441178798675537 3.720588684082031 C 6.441178798675537 2.22044849395752 5.220728874206543 0.9999985694885254 3.720588684082031 0.9999985694885254 M 3.720588684082031 -1.430511474609375e-06 C 5.775408744812012 -1.430511474609375e-06 7.441178798675537 1.665768623352051 7.441178798675537 3.720588684082031 C 7.441178798675537 5.775408744812012 5.775408744812012 7.441178798675537 3.720588684082031 7.441178798675537 C 1.665768623352051 7.441178798675537 -1.430511474609375e-06 5.775408744812012 -1.430511474609375e-06 3.720588684082031 C -1.430511474609375e-06 1.665768623352051 1.665768623352051 -1.430511474609375e-06 3.720588684082031 -1.430511474609375e-06 Z" stroke="none" fill="#ac680c"/>
    </g>
    <g id="Trazado_895522" data-name="Trazado 895522" transform="translate(1156.92 18024.625)" fill="#fff">
      <path d="M 3.720588684082031 6.941178798675537 C 1.944748640060425 6.941178798675537 0.4999986886978149 5.496428489685059 0.4999986886978149 3.720588684082031 C 0.4999986886978149 1.944748640060425 1.944748640060425 0.4999986886978149 3.720588684082031 0.4999986886978149 C 5.496428489685059 0.4999986886978149 6.941178798675537 1.944748640060425 6.941178798675537 3.720588684082031 C 6.941178798675537 5.496428489685059 5.496428489685059 6.941178798675537 3.720588684082031 6.941178798675537 Z" stroke="none"/>
      <path d="M 3.720588684082031 0.9999985694885254 C 2.22044849395752 0.9999985694885254 0.9999985694885254 2.22044849395752 0.9999985694885254 3.720588684082031 C 0.9999985694885254 5.220728874206543 2.22044849395752 6.441178798675537 3.720588684082031 6.441178798675537 C 5.220728874206543 6.441178798675537 6.441178798675537 5.220728874206543 6.441178798675537 3.720588684082031 C 6.441178798675537 2.22044849395752 5.220728874206543 0.9999985694885254 3.720588684082031 0.9999985694885254 M 3.720588684082031 -1.430511474609375e-06 C 5.775408744812012 -1.430511474609375e-06 7.441178798675537 1.665768623352051 7.441178798675537 3.720588684082031 C 7.441178798675537 5.775408744812012 5.775408744812012 7.441178798675537 3.720588684082031 7.441178798675537 C 1.665768623352051 7.441178798675537 -1.430511474609375e-06 5.775408744812012 -1.430511474609375e-06 3.720588684082031 C -1.430511474609375e-06 1.665768623352051 1.665768623352051 -1.430511474609375e-06 3.720588684082031 -1.430511474609375e-06 Z" stroke="none" fill="#ac680c"/>
    </g>
    <g id="Grupo_1106822" data-name="Grupo 1106822" transform="translate(671.051 17935.43)">
      <g id="Grupo_1106819" data-name="Grupo 1106819" transform="translate(0)">
        <g id="Rectángulo_402364" data-name="Rectángulo 402364" fill="#e38300" stroke="#ac680c" stroke-width="2">
          <path d="M20,0H89.617a20,20,0,0,1,20,20V132.8a0,0,0,0,1,0,0H0a0,0,0,0,1,0,0V20A20,20,0,0,1,20,0Z" stroke="none"/>
          <path d="M20,1H89.617a19,19,0,0,1,19,19V131.8a0,0,0,0,1,0,0H1a0,0,0,0,1,0,0V20A19,19,0,0,1,20,1Z" fill="none"/>
        </g>
        <g id="Rectángulo_402362" data-name="Rectángulo 402362" transform="translate(5.27 40.579)" fill="#669bdf" stroke="#707070" stroke-width="1">
          <rect width="99.077" height="85.901" stroke="none"/>
          <rect x="0.5" y="0.5" width="98.077" height="84.901" fill="none"/>
        </g>
        <g id="Grupo_1106818" data-name="Grupo 1106818" transform="translate(9.167 50.004)">
          <g id="Grupo_1106789" data-name="Grupo 1106789" transform="translate(0 0.011)">
            <g id="Rectángulo_402332" data-name="Rectángulo 402332" transform="translate(43.824 0.001)" fill="#e38300" stroke="#ac680c" stroke-width="1">
              <rect width="46.822" height="32.325" stroke="none"/>
              <rect x="0.5" y="0.5" width="45.822" height="31.325" fill="none"/>
            </g>
            <g id="Trazado_892287" data-name="Trazado 892287" transform="translate(0 0.001)" fill="#e38300">
              <path d="M 46.32194137573242 31.82472038269043 L 0.5000026226043701 31.82472038269043 L 0.5000026226043701 0.5000011324882507 L 46.32194137573242 0.5000011324882507 L 46.32194137573242 31.82472038269043 Z" stroke="none"/>
              <path d="M 1.000003814697266 1.000001907348633 L 1.000003814697266 31.32472038269043 L 45.82194137573242 31.32472038269043 L 45.82194137573242 1.000001907348633 L 1.000003814697266 1.000001907348633 M 3.814697265625e-06 0 L 46.82194137573242 0 L 46.82194137573242 32.32472229003906 L 3.814697265625e-06 32.32472229003906 L 3.814697265625e-06 0 Z" stroke="none" fill="#ac680c"/>
            </g>
            <rect id="Rectángulo_402333" data-name="Rectángulo 402333" width="90.646" height="36.433" transform="translate(0 32.327)" fill="#e38300"/>
            <path id="Trazado_892226" data-name="Trazado 892226" d="M-7563.142,2562.069h38.357" transform="translate(7611.513 -2550.544)" fill="none" stroke="#655647" stroke-width="2"/>
            <path id="Trazado_892256" data-name="Trazado 892256" d="M-7563.142,2562.069h38.357" transform="translate(7611.513 -2545.431)" fill="none" stroke="#655647" stroke-width="2"/>
            <path id="Trazado_892257" data-name="Trazado 892257" d="M-7563.142,2562.069h38.357" transform="translate(7611.513 -2540.315)" fill="none" stroke="#655647" stroke-width="2"/>
            <path id="Trazado_892258" data-name="Trazado 892258" d="M-7563.142,2562.069h38.357" transform="translate(7611.513 -2535.201)" fill="none" stroke="#655647" stroke-width="2"/>
            <path id="Trazado_892249" data-name="Trazado 892249" d="M-7286,3726.7h90.646" transform="translate(7286 -3689.424)" fill="none" stroke="#ddebfd" stroke-width="2" opacity="0.293"/>
            <path id="Trazado_892262" data-name="Trazado 892262" d="M-7286,3726.7h45.323" transform="translate(7286 -3723.588)" fill="none" stroke="#ddebfd" stroke-width="2" opacity="0.293"/>
            <path id="Trazado_892263" data-name="Trazado 892263" d="M0,0H32.325" transform="translate(2.784 32.325) rotate(-90)" fill="none" stroke="#ddebfd" stroke-width="2" opacity="0.293"/>
            <path id="Trazado_892264" data-name="Trazado 892264" d="M0,0H32.325" transform="translate(42.539 32.325) rotate(-90)" fill="none" stroke="#ddebfd" stroke-width="2" opacity="0.293"/>
            <path id="Trazado_892259" data-name="Trazado 892259" d="M-7286,3726.7h90.646" transform="translate(7286 -3694.105)" fill="#e38300" stroke="#ac680c" stroke-width="2"/>
            <path id="Trazado_892250" data-name="Trazado 892250" d="M-7286,3726.7h90.646" transform="translate(7286 -3678.369)" fill="none" stroke="#ddebfd" stroke-width="2" opacity="0.293"/>
            <rect id="Rectángulo_402325" data-name="Rectángulo 402325" width="90.646" height="8.337" transform="translate(0 38.642)" fill="#fd0"/>
            <g id="Grupo_1106737" data-name="Grupo 1106737" transform="translate(0.753 41.542)">
              <path id="Trazado_891997" data-name="Trazado 891997" d="M-7367.558-8508.527l2.161,2.163,2.318-2.163,2.163,2.163,2.161-2.163,2.163,2.163,2.162-2.163,2.163,2.163,2.163-2.163,2.162,2.163,2.163-2.163,2.163,2.163,2.163-2.163,2.161,2.163,2.163-2.163,2.163,2.163,2.162-2.163,2.163,2.163,2.161-2.163,2.163,2.163,2.164-2.163,2.161,2.163,1.32-1.319" transform="translate(7367.558 8508.527)" fill="none" stroke="#727997" stroke-width="1"/>
              <path id="Trazado_891998" data-name="Trazado 891998" d="M-7367.558-8508.527l2.124,2.163,2.28-2.163,2.126,2.163,2.126-2.163,2.126,2.163,2.125-2.163,2.126,2.163,2.126-2.163,2.126,2.163,2.126-2.163,2.125,2.163,2.127-2.163,2.125,2.163,2.126-2.163,2.126,2.163,2.125-2.163,2.126,2.163,2.125-2.163,2.125,2.163,2.127-2.163,2.125,2.163,1.3-1.319" transform="translate(7411.006 8508.527)" fill="none" stroke="#727997" stroke-width="1"/>
            </g>
            <path id="Trazado_892248" data-name="Trazado 892248" d="M8.155,1.331V3.524H2.841L0,1.331,4.023,0,6.148.685Z" transform="matrix(0.53, -0.848, 0.848, 0.53, 82.62, 47.153)" fill="#fd0" stroke="#814d05" stroke-width="2"/>
          </g>
          <path id="Trazado_892271" data-name="Trazado 892271" d="M0,0H33.18" transform="translate(45.322 33.18) rotate(-90)" fill="#e38300" stroke="#ac680c" stroke-width="2"/>
        </g>
        <g id="Rectángulo_402361" data-name="Rectángulo 402361" transform="translate(10.177 45.055)" fill="#e38300" stroke="#ac680c" stroke-width="2">
          <rect width="42.205" height="28.458" rx="2" stroke="none"/>
          <rect x="1" y="1" width="40.205" height="26.458" rx="1" fill="none"/>
        </g>
        <g id="Elipse_11553" data-name="Elipse 11553" transform="translate(50.592 24.769)" fill="#fff" stroke="#ac680c" stroke-width="1">
          <circle cx="3.953" cy="3.953" r="3.953" stroke="none"/>
          <circle cx="3.953" cy="3.953" r="3.453" fill="none"/>
        </g>
        <g id="Rectángulo_402363" data-name="Rectángulo 402363" transform="translate(5.27 4.162)" fill="none" stroke="#ac680c" stroke-width="2" opacity="0.826">
          <path d="M20,0H79.077a20,20,0,0,1,20,20V32.728a0,0,0,0,1,0,0H0a0,0,0,0,1,0,0V20A20,20,0,0,1,20,0Z" stroke="none"/>
          <path d="M20,1H79.077a19,19,0,0,1,19,19V31.728a0,0,0,0,1,0,0H1a0,0,0,0,1,0,0V20A19,19,0,0,1,20,1Z" fill="none"/>
        </g>
      </g>
      <path id="Trazado_892288" data-name="Trazado 892288" d="M-7561.121,6599.957h98.1" transform="translate(7566.854 -6561.508)" fill="none" stroke="#fff" stroke-width="2" opacity="0.401"/>
    </g>
    <g id="Grupo_1106821" data-name="Grupo 1106821" transform="translate(790.585 17942.086)">
      <g id="Grupo_1106820" data-name="Grupo 1106820" transform="translate(0)">
        <g id="Rectángulo_402364-2" data-name="Rectángulo 402364" fill="#e38300" stroke="#ac680c" stroke-width="2">
          <path d="M20,0H84.122a20,20,0,0,1,20,20V126.147a0,0,0,0,1,0,0H0a0,0,0,0,1,0,0V20A20,20,0,0,1,20,0Z" stroke="none"/>
          <path d="M20,1H84.122a19,19,0,0,1,19,19V125.147a0,0,0,0,1,0,0H1a0,0,0,0,1,0,0V20A19,19,0,0,1,20,1Z" fill="none"/>
        </g>
        <g id="Rectángulo_402362-2" data-name="Rectángulo 402362" transform="translate(5.006 38.545)" fill="#669bdf" stroke="#707070" stroke-width="1">
          <rect width="94.11" height="81.595" stroke="none"/>
          <rect x="0.5" y="0.5" width="93.11" height="80.595" fill="none"/>
        </g>
        <g id="Grupo_1106818-2" data-name="Grupo 1106818" transform="translate(8.707 47.497)">
          <g id="Grupo_1106789-2" data-name="Grupo 1106789" transform="translate(0 0.011)">
            <g id="Rectángulo_402332-2" data-name="Rectángulo 402332" transform="translate(41.627 0.001)" fill="#e38300" stroke="#ac680c" stroke-width="1">
              <rect width="44.475" height="30.704" stroke="none"/>
              <rect x="0.5" y="0.5" width="43.475" height="29.704" fill="none"/>
            </g>
            <g id="Trazado_892287-2" data-name="Trazado 892287" transform="translate(0 0.001)" fill="#e38300">
              <path d="M 43.97485733032227 30.20435523986816 L 0.4999986588954926 30.20435523986816 L 0.4999986588954926 0.4999957084655762 L 43.97485733032227 0.4999957084655762 L 43.97485733032227 30.20435523986816 Z" stroke="none"/>
              <path d="M 1 0.9999961853027344 L 1 29.70435523986816 L 43.47485733032227 29.70435523986816 L 43.47485733032227 0.9999961853027344 L 1 0.9999961853027344 M 0 -3.814697265625e-06 L 44.47485733032227 -3.814697265625e-06 L 44.47485733032227 30.70435523986816 L 0 30.70435523986816 L 0 -3.814697265625e-06 Z" stroke="none" fill="#ac680c"/>
            </g>
            <rect id="Rectángulo_402333-2" data-name="Rectángulo 402333" width="86.102" height="34.607" transform="translate(0 30.706)" fill="#e38300"/>
            <path id="Trazado_892226-2" data-name="Trazado 892226" d="M-7563.142,2562.069h36.435" transform="translate(7609.088 -2551.122)" fill="none" stroke="#655647" stroke-width="2"/>
            <path id="Trazado_892256-2" data-name="Trazado 892256" d="M-7563.142,2562.069h36.435" transform="translate(7609.088 -2546.265)" fill="none" stroke="#655647" stroke-width="2"/>
            <path id="Trazado_892257-2" data-name="Trazado 892257" d="M-7563.142,2562.069h36.435" transform="translate(7609.088 -2541.406)" fill="none" stroke="#655647" stroke-width="2"/>
            <path id="Trazado_892258-2" data-name="Trazado 892258" d="M-7563.142,2562.069h36.435" transform="translate(7609.088 -2536.548)" fill="none" stroke="#655647" stroke-width="2"/>
            <path id="Trazado_892249-2" data-name="Trazado 892249" d="M-7286,3726.7h86.1" transform="translate(7286 -3691.292)" fill="none" stroke="#ddebfd" stroke-width="2" opacity="0.293"/>
            <path id="Trazado_892262-2" data-name="Trazado 892262" d="M-7286,3726.7h43.051" transform="translate(7286 -3723.744)" fill="none" stroke="#ddebfd" stroke-width="2" opacity="0.293"/>
            <path id="Trazado_892263-2" data-name="Trazado 892263" d="M0,0H30.7" transform="translate(2.645 30.704) rotate(-90)" fill="none" stroke="#ddebfd" stroke-width="2" opacity="0.293"/>
            <path id="Trazado_892264-2" data-name="Trazado 892264" d="M0,0H30.7" transform="translate(40.407 30.704) rotate(-90)" fill="none" stroke="#ddebfd" stroke-width="2" opacity="0.293"/>
            <path id="Trazado_892259-2" data-name="Trazado 892259" d="M-7286,3726.7h86.1" transform="translate(7286 -3695.739)" fill="#e38300" stroke="#ac680c" stroke-width="2"/>
            <path id="Trazado_892250-2" data-name="Trazado 892250" d="M-7286,3726.7h86.1" transform="translate(7286 -3680.791)" fill="none" stroke="#ddebfd" stroke-width="2" opacity="0.293"/>
            <rect id="Rectángulo_402325-2" data-name="Rectángulo 402325" width="86.102" height="7.919" transform="translate(0 36.705)" fill="#fd0"/>
            <g id="Grupo_1106737-2" data-name="Grupo 1106737" transform="translate(0.715 39.46)">
              <path id="Trazado_891997-2" data-name="Trazado 891997" d="M-7367.558-8508.527l2.053,2.055,2.2-2.055,2.055,2.055,2.053-2.055,2.055,2.055,2.054-2.055,2.055,2.055,2.055-2.055,2.053,2.055,2.055-2.055,2.054,2.055,2.055-2.055,2.053,2.055,2.055-2.055,2.055,2.055,2.054-2.055,2.055,2.055,2.052-2.055,2.055,2.055,2.056-2.055,2.053,2.055,1.254-1.253" transform="translate(7367.558 8508.527)" fill="none" stroke="#727997" stroke-width="1"/>
              <path id="Trazado_891998-2" data-name="Trazado 891998" d="M-7367.558-8508.527l2.018,2.055,2.166-2.055,2.02,2.055,2.02-2.055,2.02,2.055,2.019-2.055,2.021,2.055,2.02-2.055,2.02,2.055,2.02-2.055,2.019,2.055,2.02-2.055,2.02,2.055,2.02-2.055,2.02,2.055,2.019-2.055,2.021,2.055,2.019-2.055,2.019,2.055,2.021-2.055,2.019,2.055,1.233-1.253" transform="translate(7408.828 8508.527)" fill="none" stroke="#727997" stroke-width="1"/>
            </g>
            <path id="Trazado_892248-2" data-name="Trazado 892248" d="M7.746,1.264V3.347H2.7L0,1.265,3.822,0,5.84.651Z" transform="matrix(0.53, -0.848, 0.848, 0.53, 78.479, 44.79)" fill="#fd0" stroke="#814d05" stroke-width="2"/>
          </g>
          <path id="Trazado_892271-2" data-name="Trazado 892271" d="M0,0H31.517" transform="translate(43.05 31.517) rotate(-90)" fill="#e38300" stroke="#ac680c" stroke-width="2"/>
        </g>
        <g id="Rectángulo_402361-2" data-name="Rectángulo 402361" transform="translate(9.667 42.796)" fill="#e38300" stroke="#ac680c" stroke-width="2">
          <rect width="40.089" height="27.032" rx="2" stroke="none"/>
          <rect x="1" y="1" width="38.089" height="25.032" rx="1" fill="none"/>
        </g>
        <g id="Elipse_11553-2" data-name="Elipse 11553" transform="translate(48.056 23.528)" fill="#fff" stroke="#ac680c" stroke-width="1">
          <circle cx="3.754" cy="3.754" r="3.754" stroke="none"/>
          <circle cx="3.754" cy="3.754" r="3.254" fill="none"/>
        </g>
        <g id="Rectángulo_402363-2" data-name="Rectángulo 402363" transform="translate(5.006 4.004)" fill="none" stroke="#ac680c" stroke-width="2" opacity="0.826">
          <path d="M20,0H74.11a20,20,0,0,1,20,20V31.037a0,0,0,0,1,0,0H0a0,0,0,0,1,0,0V20A20,20,0,0,1,20,0Z" stroke="none"/>
          <path d="M20,1H74.11a19,19,0,0,1,19,19V30.037a0,0,0,0,1,0,0H1a0,0,0,0,1,0,0V20A19,19,0,0,1,20,1Z" fill="none"/>
        </g>
      </g>
      <path id="Trazado_892289" data-name="Trazado 892289" d="M-7561.121,6599.957h93.182" transform="translate(7566.591 -6563.436)" fill="none" stroke="#fff" stroke-width="2" opacity="0.401"/>
    </g>
    <g id="Trazado_895523" data-name="Trazado 895523" transform="translate(559.321 17935.43)" fill="#e38300">
      <path d="M 98.07650756835938 39.72817993164062 L 1.000004291534424 39.72817993164062 L 1.000004291534424 19.9999942779541 C 1.000004291534424 17.43456840515137 1.502217650413513 14.94642162322998 2.492710828781128 12.60464763641357 C 3.449617624282837 10.34226131439209 4.819724082946777 8.310221672058105 6.564977645874023 6.564968109130859 C 8.31023120880127 4.819714546203613 10.34227085113525 3.449608087539673 12.60465717315674 2.492701292037964 C 14.94643115997314 1.502208113670349 17.43457794189453 0.9999947547912598 20.00000381469727 0.9999947547912598 L 79.07650756835938 0.9999947547912598 C 81.64193725585938 0.9999947547912598 84.13008117675781 1.502208113670349 86.47185516357422 2.492701292037964 C 88.73424530029297 3.449608087539673 90.76628112792969 4.819714546203613 92.51153564453125 6.564968109130859 C 94.25679016113281 8.310221672058105 95.62689971923828 10.34226131439209 96.58380126953125 12.60464763641357 C 97.57429504394531 14.94642162322998 98.07650756835938 17.43456840515137 98.07650756835938 19.9999942779541 L 98.07650756835938 39.72817993164062 Z" stroke="none"/>
      <path d="M 20 2.000003814697266 C 15.19203186035156 2.000003814697266 10.67182922363281 3.872329711914062 7.272071838378906 7.272075653076172 C 3.872329711914062 10.67183113098145 2 15.19203186035156 2 20.00000190734863 L 2 38.72817230224609 L 97.07651519775391 38.72817230224609 L 97.07651519775391 20.00000190734863 C 97.07651519775391 15.19203186035156 95.20418548583984 10.67183113098145 91.80442810058594 7.272075653076172 C 88.40468597412109 3.872329711914062 83.88448333740234 2.000003814697266 79.07651519775391 2.000003814697266 L 20 2.000003814697266 M 20 3.814697265625e-06 L 79.07651519775391 3.814697265625e-06 C 90.12220001220703 3.814697265625e-06 99.07651519775391 8.954301834106445 99.07651519775391 20.00000190734863 L 99.07651519775391 40.72817230224609 L 0 40.72817230224609 L 0 20.00000190734863 C 0 8.954301834106445 8.954299926757812 3.814697265625e-06 20 3.814697265625e-06 Z" stroke="none" fill="#ac680c"/>
    </g>
    <g id="Trazado_895524" data-name="Trazado 895524" transform="translate(1009.923 17970.727)" fill="#e38300">
      <path d="M 91.07652282714844 37.72817611694336 L 1.000007629394531 37.72817611694336 L 1.000007629394531 20 C 1.000007629394531 17.4345760345459 1.502220153808594 14.94641304016113 2.492707490921021 12.60465049743652 C 3.449620008468628 10.34226322174072 4.819732666015625 8.310213088989258 6.564970016479492 6.564975738525391 C 8.310219764709473 4.819725513458252 10.34226989746094 3.449613094329834 12.60464477539062 2.492700576782227 C 14.94641971588135 1.502213001251221 17.4345703125 1.000000596046448 19.9999942779541 1.000000596046448 L 72.07652282714844 1.000000596046448 C 74.64194488525391 1.000000596046448 77.13009643554688 1.502213001251221 79.47187042236328 2.492700576782227 C 81.73426055908203 3.449613094329834 83.76629638671875 4.819725513458252 85.51154327392578 6.564975738525391 C 87.25679779052734 8.310225486755371 88.62690734863281 10.34226322174072 89.58381652832031 12.60465049743652 C 90.57431030273438 14.94642543792725 91.07652282714844 17.4345760345459 91.07652282714844 20 L 91.07652282714844 37.72817611694336 Z" stroke="none"/>
      <path d="M 20.00000762939453 1.999996185302734 C 15.19203186035156 1.999996185302734 10.67182922363281 3.872329711914062 7.272087097167969 7.272075653076172 C 3.872337341308594 10.67182159423828 2.000007629394531 15.1920223236084 2.000007629394531 19.9999942779541 L 2.000007629394531 36.72817993164062 L 90.07650756835938 36.72817993164062 L 90.07650756835938 19.9999942779541 C 90.07650756835938 15.1920223236084 88.20417785644531 10.67182159423828 84.80442810058594 7.272075653076172 C 81.40468597412109 3.872329711914062 76.88448333740234 1.999996185302734 72.07650756835938 1.999996185302734 L 20.00000762939453 1.999996185302734 M 20.00000762939453 -3.814697265625e-06 L 72.07650756835938 -3.814697265625e-06 C 83.12220764160156 -3.814697265625e-06 92.07650756835938 8.954301834106445 92.07650756835938 19.9999942779541 L 92.07650756835938 38.72817993164062 L 7.62939453125e-06 38.72817993164062 L 7.62939453125e-06 19.9999942779541 C 7.62939453125e-06 8.954301834106445 8.954307556152344 -3.814697265625e-06 20.00000762939453 -3.814697265625e-06 Z" stroke="none" fill="#ac680c"/>
    </g>
    <g id="Grupo_1106834" data-name="Grupo 1106834" transform="matrix(-0.545, -0.839, 0.839, -0.545, 1074.561, 18068.234)">
      <g id="Grupo_1106833" data-name="Grupo 1106833" clip-path="url(#clip-path)">
        <path id="Trazado_892290" data-name="Trazado 892290" d="M555.714.019c.175,0,.351-.012.526-.012q20.375,0,40.75,0c.131,0,.271-.044.394.043a.626.626,0,0,1,.176.181c.041.062.05.12-.022.167a.526.526,0,0,1-.257.044c-1.027.011-2.053.045-3.08.044Q577.27.484,560.34.479c-.972,0-1.944.021-2.916.013-.507,0-1.012-.06-1.519-.049a.379.379,0,0,1-.139-.023c-.067-.025-.089-.085-.112-.144a.217.217,0,0,1,.06-.257" transform="translate(-551.791 -0.001)" fill="#26d002"/>
        <path id="Trazado_892291" data-name="Trazado 892291" d="M6537.1,8.028a.85.85,0,0,1-.213-.282c.465.079.911.228,1.366.346.962.249,1.921.511,2.881.767l1.947.516a.182.182,0,0,1,.131.086c.011.069-.039.109-.074.155a1.806,1.806,0,0,0-.285.5c-.035.086-.066.177-.176.2a1.415,1.415,0,0,1-.583-.035c-.041-.013-.1-.024-.088-.086.01-.046.062-.046.1-.048.114-.005.229,0,.342,0-.715,0-1.429.09-2.145.063a1.183,1.183,0,0,1-.243-.015c-.052-.013-.114-.026-.1-.1s.062-.069.109-.068c.313.008.626-.029.868-.024-.5.006-1.069.05-1.64.042a1.333,1.333,0,0,1-.242-.012c-.062-.012-.124-.033-.124-.11s.059-.1.125-.1c-.6.032-1.192.013-1.788.015-.115,0-.231,0-.281-.144-.018-.05-.091-.054-.133-.088a.737.737,0,0,1-.3-.382c-.034-.178.1-.256.208-.35.079-.067.178-.1.256-.171.042-.033.088-.06.132-.091s.122-.065.123-.147a.761.761,0,0,0-.092-.271c-.026-.054-.086-.092-.082-.161" transform="translate(-6491.292 -7.692)" fill="#f8ddc0"/>
        <path id="Trazado_892292" data-name="Trazado 892292" d="M6539.111,419.083a6.35,6.35,0,0,0-.808.244c-.061.1-.176.084-.264.127s-.171.04-.254.071-.147.046-.219.073c-.1.037-.206.055-.307.089-.057.016-.112.038-.168.057-.146.075-.314.078-.464.142a5.381,5.381,0,0,1-.9.222c-.1-.1,0-.158.051-.214a2.884,2.884,0,0,0,.325-.411.2.2,0,0,0-.058-.313c-.137-.1-.271-.2-.407-.3-.1-.074-.217-.142-.231-.288.026-.086.058-.168.164-.181,1.04-.056,2.059-.3,3.092-.369.882-.061,1.749-.227,2.628-.286a.526.526,0,0,1,.239.008.392.392,0,0,1,.061.027,1.658,1.658,0,0,0,.586.242c.075.02.162.013.215.088l-2.877.844c-.134.039-.267.085-.4.128" transform="translate(-6490.154 -414.844)" fill="#c58965"/>
        <path id="Trazado_892293" data-name="Trazado 892293" d="M11.758,495.044a2.023,2.023,0,0,1-.872-.3,2.037,2.037,0,0,1-.772-1.109,1.041,1.041,0,0,1-.019-.137c-.041-.13.063-.13.136-.14a2.259,2.259,0,0,1,.383-.022c.989.036,1.979-.017,2.967.03.157.007.214-.119.327-.163.088.1.061.219.063.334-.007.485.032.972-.021,1.457a.151.151,0,0,1-.045.061,1.74,1.74,0,0,1-.522.038c-.124,0-.249,0-.374,0-.253,0-.507,0-.76,0-.163-.024-.336.048-.491-.053" transform="translate(-10.017 -489.792)" fill="#151315"/>
        <path id="Trazado_892294" data-name="Trazado 892294" d="M.034,251.92a7.658,7.658,0,0,1,.014-1.589.48.48,0,0,1,.309-.068q1.645,0,3.29,0a.4.4,0,0,1,.252.052.25.25,0,0,1,.055.169,9.622,9.622,0,0,1-.014,1.048c-.035.2-.177.238-.356.24-.875.009-1.749-.067-2.624-.045-.236.006-.47.037-.7.04-.118,0-.153.094-.221.153" transform="translate(0 -248.529)" fill="#484747"/>
        <path id="Trazado_892295" data-name="Trazado 892295" d="M4.505,436.207c-.017-.18.038-.258.24-.219a2.491,2.491,0,0,0,.52-.039c.95-.022,1.9.05,2.849.049.137,0,.211-.038.244-.165a.312.312,0,0,1,0,.405c-.035.212-.156.263-.356.212a1.249,1.249,0,0,0-.3-.011H5.368c-.214,0-.428,0-.641,0-.071,0-.156-.023-.177.084a.63.63,0,0,1-.045-.318" transform="translate(-4.471 -432.816)" fill="#2f2e2f"/>
        <path id="Trazado_892296" data-name="Trazado 892296" d="M18.633,140.378a.96.96,0,0,1,.155-.369,1.973,1.973,0,0,1,.736-.095c.884-.021,1.767.021,2.651.036a.283.283,0,0,1,.239.085.373.373,0,0,1,0,.332.155.155,0,0,1-.063.047.77.77,0,0,1-.26.025q-1.576,0-3.153,0a.419.419,0,0,1-.309-.062" transform="translate(-18.504 -138.94)" fill="#afafb0"/>
        <path id="Trazado_892297" data-name="Trazado 892297" d="M115.231,1.761a.424.424,0,0,0-.017.25c0,.106.084.214-.007.318a1.406,1.406,0,0,0-.6-.064c-.661.02-1.32-.042-1.98-.042-.121,0-.242,0-.364.012-.066.006-.153.042-.183-.065a1.618,1.618,0,0,1,1.029-.407c.705-.021,1.412,0,2.117,0" transform="translate(-111.309 -1.742)" fill="#4e4e4e"/>
        <path id="Trazado_892298" data-name="Trazado 892298" d="M65.013,59.991c.112.082.219-.015.33-.014.867,0,1.733.073,2.6.042a.171.171,0,0,1,.178.124.142.142,0,0,1,.058.121.325.325,0,0,1-.01.108c-.014.036-.029.071-.077.069a2.385,2.385,0,0,0-.422-.03c-.942,0-1.884-.006-2.827,0-.059,0-.141.035-.16-.067a1.063,1.063,0,0,1,.328-.358" transform="translate(-64.237 -59.561)" fill="#777779"/>
        <path id="Trazado_892299" data-name="Trazado 892299" d="M41.149,113.231l1.363,0h1.842c.087,0,.178-.016.23.081a.078.078,0,0,1,.042.043.238.238,0,0,1,.014.092.129.129,0,0,1-.05.109.4.4,0,0,0-.113-.038c-.452-.007-.9.006-1.355-.021-.279-.017-.558,0-.837-.022-.435-.033-.867.052-1.3.04a.643.643,0,0,1,.164-.282" transform="translate(-40.701 -112.444)" fill="#939395"/>
        <path id="Trazado_892300" data-name="Trazado 892300" d="M7415.71,253.46l-.038-.006a.233.233,0,0,1,.022-.3.4.4,0,0,1,.286-.081,17.516,17.516,0,0,0,2.052-.187,7.387,7.387,0,0,1-1.16-.3c-.178-.036-.354-.083-.533-.111-.081-.013-.2.013-.221-.122l.086-.107a.325.325,0,0,1,.254.014c.684.2,1.361.424,2.053.594.14.034.2.1.082.229-.1-.037-.184.024-.271.048a8.891,8.891,0,0,1-1.458.172c-.387.042-.764.151-1.156.155" transform="translate(-7364.287 -250.48)" fill="#4f4f4e"/>
        <path id="Trazado_892301" data-name="Trazado 892301" d="M10.3,221.238H6.777l-.319,0c-.017-.074.028-.136.039-.2a.349.349,0,0,1,.267-.066q1.547,0,3.094,0a1.557,1.557,0,0,1,.44.052.144.144,0,0,1,0,.215" transform="translate(-6.41 -219.438)" fill="#6c6b6b"/>
        <path id="Trazado_892302" data-name="Trazado 892302" d="M7427.375,371.811c.052-.106.158-.074.239-.083.5-.052.987-.172,1.49-.18a7.025,7.025,0,0,0,1.064-.145.089.089,0,0,1,.09.032l-2.072.662a1.609,1.609,0,0,1-.812-.287" transform="translate(-7375.952 -368.831)" fill="#202120"/>
        <path id="Trazado_892303" data-name="Trazado 892303" d="M16.4,207.784c-.124.093-.248,0-.372,0-1.142.007-2.284,0-3.427,0l.042-.16,3.77.005a.1.1,0,0,1-.013.154" transform="translate(-12.515 -206.188)" fill="#868685"/>
        <path id="Trazado_892304" data-name="Trazado 892304" d="M608.355,48.524a.214.214,0,0,1,.11.126c.052.137,0,.193-.14.223a2.124,2.124,0,0,1-.483,0q-2.727,0-5.454,0H568.3c-.546,0-1.092-.048-1.638-.024-.183.008-.218-.054-.18-.28.87,0,1.74.066,2.611.039.427-.013.854-.032,1.28-.037.181,0,.362.035.543.035q17.094,0,34.187,0c.519,0,1.04.021,1.558-.006s1.011-.03,1.516-.036a.81.81,0,0,0,.175-.041" transform="translate(-562.549 -48.188)" fill="#44e523"/>
        <path id="Trazado_892305" data-name="Trazado 892305" d="M561.2,38.9c-.018.175.012.254.232.215a3.568,3.568,0,0,1,.663.008c.26,0,.52.02.78.02q19.752,0,39.5,0a4.828,4.828,0,0,0,.661.009c.122-.017.147-.066.141-.167a.447.447,0,0,1,.116.322.219.219,0,0,1-.07.041c-13.841-.053-27.682-.008-41.524-.023-.108,0-.216,0-.324,0a.246.246,0,0,1-.213-.1l-.015-.122q.01-.157.02-.313c.037.03.025.073.031.112" transform="translate(-557.268 -38.516)" fill="#5bea46"/>
        <path id="Trazado_892306" data-name="Trazado 892306" d="M561.133,197.493l.013-.154.006-.005a.262.262,0,0,1,.2-.069c.088,0,.176,0,.263,0h40.423c.1,0,.2,0,.3,0s.174.031.2.138a.965.965,0,0,0,.246.331c.122.15.255.291.369.449a.523.523,0,0,1,.042.625,2.356,2.356,0,0,1-.566.673l-.131.163a.354.354,0,0,1-.339.084,3.7,3.7,0,0,0-.486-.022q-18.944,0-37.887,0c-.817,0-1.635-.019-2.452,0-.075,0-.152.009-.194-.074l-.014-.323q0-.2,0-.405v-1.421" transform="translate(-557.247 -195.896)" fill="#11be00"/>
        <path id="Trazado_892307" data-name="Trazado 892307" d="M603.17,142.142c-.052-.1-.143-.079-.229-.079H562.021c-.081,0-.162,0-.243.005q-.008-.164-.016-.328l.009-.119a.036.036,0,0,1,.054,0,.346.346,0,0,1,.045.083.144.144,0,0,0,.053.042,9.562,9.562,0,0,0,1.234-.016c.423-.039.85-.008,1.275-.009q7.026-.006,14.053,0,9.308,0,18.616,0,2.484,0,4.968,0a6.079,6.079,0,0,1,1.089.036c.078.014.164,0,.23.062-.067.109-.248.139-.216.316" transform="translate(-557.873 -140.632)" fill="#92fb9a"/>
        <path id="Trazado_892308" data-name="Trazado 892308" d="M6555.7,267.632c.135-.174.265-.352.406-.521a.547.547,0,0,0,.04-.8c-.1-.142-.194-.287-.291-.431a.453.453,0,0,0,.3.089c.023.1-.086.048-.1.136h2.29c-.1.137-.2.084-.287.1-.035.007-.068.017-.069.058s.032.057.067.058c.054,0,.108,0,.162,0,.633,0,1.267,0,1.9.032l-1.1.067c.9.125,1.8-.038,2.692.044v.053h-.648a1.523,1.523,0,0,0,.688.09.09.09,0,0,1,0,.122.663.663,0,0,0-.047.282.773.773,0,0,0-.475.012c-.691.092-1.384.195-2.077.257-.358.032-.719.06-1.078.1-.533.063-1.064.142-1.6.218a7.337,7.337,0,0,1-.773.026" transform="translate(-6510.308 -264.044)" fill="#f1c6a4"/>
        <path id="Trazado_892309" data-name="Trazado 892309" d="M602.965,109.383H603c0,.1-.089.125-.158.164a.445.445,0,0,1-.257.029,2.292,2.292,0,0,0-.4-.012H562.147c-.343,0-.686-.021-1.029,0a.333.333,0,0,1-.251-.056l-.013-.041.013-.081a.144.144,0,0,1,.1-.022c.831.006,1.662-.007,2.493,0,2.032.029,4.064.015,6.1.017.452,0,.9,0,1.355,0,1.108.005,2.215-.028,3.323-.022,1.553.008,3.106,0,4.659,0,.452,0,.9.036,1.357.02.526-.019,1.052,0,1.578,0,1.128-.014,2.256-.029,3.384-.011.674.01,1.348-.009,2.023,0,.462.008.928,0,1.391,0,.991-.005,1.984-.041,2.975.011.176.009.35-.024.526-.021,1.79.031,3.58.023,5.37.018.546,0,1.093,0,1.639,0,.952.007,1.9-.04,2.857-.019a3.405,3.405,0,0,1,.842.049.166.166,0,0,0,.134-.032" transform="translate(-556.971 -108.598)" fill="#66ed59"/>
        <path id="Trazado_892310" data-name="Trazado 892310" d="M610.03,139.641a.694.694,0,0,1-.3,0c-.38-.014-.76-.039-1.14-.039q-18.782,0-37.565,0c-.793,0-1.587.026-2.38.037-.07,0-.172.046-.2-.079a.253.253,0,0,1,.187-.056c.522,0,1.042-.067,1.565-.042h1.161q.312,0,.625,0h5.3q1.776,0,3.553,0h2.406a4.274,4.274,0,0,0,.559-.013.263.263,0,0,1,.07,0,4.714,4.714,0,0,0,.827,0,.267.267,0,0,1,.071,0,3.708,3.708,0,0,0,.885-.015,2.331,2.331,0,0,1,.529,0,.745.745,0,0,0,.261.024h4.859a.7.7,0,0,0,.241-.022.459.459,0,0,1,.2,0,.919.919,0,0,0,.3.022h3.284c.248,0,.5,0,.744,0q1.249,0,2.5,0c.221,0,.442,0,.663,0q.606,0,1.213,0c1.215,0,2.431,0,3.646,0,.143,0,.282-.044.422-.038.626.026,1.253-.037,1.876.006.534.037,1.065.008,1.6.033.332.015.658-.056.989-.043.367-.024.731.043,1.1.046.067-.018.135-.046.2.015-.059.087-.167.1-.244.162" transform="translate(-564.516 -138.447)" fill="#7ff480"/>
        <path id="Trazado_892311" data-name="Trazado 892311" d="M604.593,131.142a.249.249,0,0,0-.168.037,5.492,5.492,0,0,0-1.12-.061c-.7.029-1.405.029-2.107.017-.445-.007-.891-.021-1.336-.017-4.459.042-8.918.011-13.377.02-1.79,0-3.58.014-5.37,0-.984-.01-1.969-.008-2.953,0-4.8.021-9.61,0-14.414.01-.25,0-.5.026-.749.017a.341.341,0,0,1-.231-.056h-.034l0-.083q20.779,0,41.557,0c.14,0,.28.026.421.04l-.116.083" transform="translate(-558.836 -130.11)" fill="#71f06a"/>
        <path id="Trazado_892312" data-name="Trazado 892312" d="M7428.61,271.616c0-.041,0-.081,0-.122a2.284,2.284,0,0,1,.4-.7c.342.083.682.179,1.027.24.126.022.221.1.334.124a1.769,1.769,0,0,0,.6.094c.061-.006.1.027.132.111-.341.043-.677.075-1.009.128-.491.078-.99.047-1.481.12" transform="translate(-7377.177 -268.924)" fill="#696767"/>
        <path id="Trazado_892313" data-name="Trazado 892313" d="M562.149,540.962c.112.058.224,0,.336,0q20.221.005,40.441,0a1.739,1.739,0,0,0,.58,0,2.812,2.812,0,0,0,.66.527.254.254,0,0,1,.057.41c-.142.187-.289.37-.433.555-.07.074-.162.058-.248.059q-6.417.006-12.834,0H585.62q-8.911,0-17.822,0-2.666,0-5.332,0c-.11,0-.233.036-.324-.066q0-.745.007-1.491" transform="translate(-558.25 -537.217)" fill="#036304"/>
        <path id="Trazado_892314" data-name="Trazado 892314" d="M280.587,758.672l-.037.114h-1.027c.1-.127.226-.039.293-.116h.771" transform="translate(-277.588 -753.419)" fill="#adacac"/>
        <path id="Trazado_892315" data-name="Trazado 892315" d="M486.967,758.515h-.378c-.074,0-.149.005-.19-.075h.526l.043.075" transform="translate(-483.03 -753.189)" fill="#959292"/>
        <path id="Trazado_892316" data-name="Trazado 892316" d="M604.881,101.788a.125.125,0,0,1-.149.077,6.96,6.96,0,0,0-1.5-.074c-.931.021-1.862.043-2.793.039-1.727-.006-3.454,0-5.181-.005-.349,0-.7-.055-1.049-.036-.862.049-1.724-.03-2.585,0-.433.014-.867.043-1.3.034-.238,0-.483-.027-.715-.017a12.826,12.826,0,0,0-1.77.019,2.849,2.849,0,0,1-.522-.037c-.825,0-1.65-.02-2.474.01a10.674,10.674,0,0,1-1.312.022c-.46-.04-.914.023-1.37.008-1.668-.054-3.336-.047-5-.031-.45,0-.9,0-1.348-.01-.979-.021-1.956.051-2.935.046-1.943-.01-3.887,0-5.83,0-.329,0-.657-.031-.985-.035-1.091-.014-2.183-.005-3.275-.005l0-.081a1.007,1.007,0,0,0,.359.041q20.607,0,41.213,0c.176,0,.348.028.522.043" transform="translate(-558.887 -101.003)" fill="#5deb49"/>
        <path id="Trazado_892317" data-name="Trazado 892317" d="M567.879,142.655l11.291,0h29.271q.02.014.013.027c0,.009-.009.014-.013.014l-8.558.04a7.159,7.159,0,0,0-1.217,0h-.649a.174.174,0,0,0-.117-.021h-2.282a.174.174,0,0,0-.117.021h-.73a.412.412,0,0,0-.218-.02l-3.174,0a.438.438,0,0,1-.218-.019H591a.321.321,0,0,1-.178.019h-5.038a.321.321,0,0,1-.178-.019h-.527a4.165,4.165,0,0,1-.892,0h-.041a3.729,3.729,0,0,1-.852,0h-.041c-.186.056-.382-.017-.568.04H582.6a1.654,1.654,0,0,0-.459-.019c-.457,0-.914,0-1.372,0a.349.349,0,0,0-.2.02h-.284a.212.212,0,0,0-.137-.02h-3.3a.211.211,0,0,0-.137.02H571.41a1.835,1.835,0,0,0-.608,0h-1.176a2.381,2.381,0,0,0-.56-.019c-.356,0-.711.013-1.066.037a.165.165,0,0,1-.117-.018Z" transform="translate(-563.947 -141.665)" fill="#7bf37a"/>
        <path id="Trazado_892318" data-name="Trazado 892318" d="M568.366,148.011a12.393,12.393,0,0,1,1.553-.039c.064,0,.137-.022.19.039-.582-.029-1.161.058-1.743.041,0-.014,0-.027,0-.041" transform="translate(-564.431 -146.943)" fill="#80f47d"/>
        <path id="Trazado_892319" data-name="Trazado 892319" d="M3128.318,148.536h5.394c-.06.066-.139.039-.21.039q-2.487,0-4.975,0c-.071,0-.15.027-.21-.039" transform="translate(-3106.659 -147.508)" fill="#80f47d"/>
        <path id="Trazado_892320" data-name="Trazado 892320" d="M3930.911,147.789q1.69,0,3.379,0c.077,0,.163-.03.23.039q-1.69,0-3.38,0c-.077,0-.163.03-.23-.039" transform="translate(-3903.696 -146.76)" fill="#80f47d"/>
        <path id="Trazado_892321" data-name="Trazado 892321" d="M1845.336,148.159c.053-.061.125-.04.189-.04q1.6,0,3.191,0c.065,0,.136-.022.189.04h-3.569" transform="translate(-1832.56 -147.091)" fill="#80f47d"/>
        <path id="Trazado_892322" data-name="Trazado 892322" d="M4557.738,148.339c.046-.056.11-.04.169-.04h2.177c.059,0,.123-.016.169.04h-2.515" transform="translate(-4526.183 -147.27)" fill="#80f47d"/>
        <path id="Trazado_892323" data-name="Trazado 892323" d="M2401.875,148.5c.04-.05.1-.04.148-.04h1.731c.052,0,.109-.01.148.04h-2.028" transform="translate(-2385.246 -147.429)" fill="#80f47d"/>
        <path id="Trazado_892324" data-name="Trazado 892324" d="M6426.547,142.648v-.041h.84a.294.294,0,0,1,.256.081c-.28.041-.552-.069-.832-.042-.087.008-.176,0-.264,0" transform="translate(-6382.053 -141.62)" fill="#79f376"/>
        <path id="Trazado_892325" data-name="Trazado 892325" d="M5014.685,147.194c.094-.079.207-.042.308-.037a3.642,3.642,0,0,1,.909.037h-1.217" transform="translate(-4979.966 -146.125)" fill="#80f47d"/>
        <path id="Trazado_892326" data-name="Trazado 892326" d="M2923.276,148.536h.892a2.007,2.007,0,0,1-.892,0" transform="translate(-2903.037 -147.508)" fill="#80f47d"/>
        <path id="Trazado_892327" data-name="Trazado 892327" d="M2794.4,148.537h.852a1.87,1.87,0,0,1-.852,0" transform="translate(-2775.05 -147.509)" fill="#80f47d"/>
        <path id="Trazado_892328" data-name="Trazado 892328" d="M990.022,147.3a.962.962,0,0,1,.609,0h-.609" transform="translate(-983.168 -146.228)" fill="#80f47d"/>
        <path id="Trazado_892329" data-name="Trazado 892329" d="M2706.509,147.869a1.668,1.668,0,0,1,.568-.04,1.666,1.666,0,0,1-.568.04" transform="translate(-2687.771 -146.801)" fill="#80f47d"/>
      </g>
    </g>
  </g>
</svg>
