<svg xmlns="http://www.w3.org/2000/svg" xmlns:xlink="http://www.w3.org/1999/xlink" width="820" height="234.5" viewBox="0 0 820 234.5">
  <defs>
    <clipPath id="clip-path">
      <rect id="Rectángulo_402119" data-name="Rectángulo 402119" width="120.5" height="820" transform="translate(642.343 2780)" fill="#fff" stroke="#707070" stroke-width="1"/>
    </clipPath>
  </defs>
  <g id="Grupo_1107073" data-name="Grupo 1107073" transform="translate(-390 -20903.188)">
    <g id="Grupo_1106876" data-name="Grupo 1106876" transform="translate(0 55.17)">
      <g id="Enmascarar_grupo_1098683" data-name="Enmascarar grupo 1098683" transform="translate(-2390 21610.861) rotate(-90)" clip-path="url(#clip-path)">
        <g id="Grupo_1106622" data-name="Grupo 1106622" transform="translate(659.338 4684.165) rotate(-90)">
          <g id="Grupo_1106623" data-name="Grupo 1106623" transform="translate(0.276 0.276)">
            <path id="Trazado_891146" data-name="Trazado 891146" d="M435.624,87.93h-74.2a8.1,8.1,0,0,1-8.106-8.106V8.613A8.1,8.1,0,0,1,361.425.507h74.2a8.1,8.1,0,0,1,8.1,8.106V79.824a8.1,8.1,0,0,1-8.1,8.106M436.668,73V15.434a8.1,8.1,0,0,0-8.1-8.1H368.476a8.1,8.1,0,0,0-8.1,8.1V73a8.1,8.1,0,0,0,8.1,8.1h60.091a8.1,8.1,0,0,0,8.1-8.1" transform="translate(1454.052 1.449)" fill="#fff" stroke="#707070" stroke-width="1"/>
            <path id="Trazado_891147" data-name="Trazado 891147" d="M435.624,87.93h-74.2a8.1,8.1,0,0,1-8.106-8.106V8.613A8.1,8.1,0,0,1,361.425.507h74.2a8.1,8.1,0,0,1,8.1,8.106V79.824A8.1,8.1,0,0,1,435.624,87.93ZM436.668,73V15.434a8.1,8.1,0,0,0-8.1-8.1H368.476a8.1,8.1,0,0,0-8.1,8.1V73a8.1,8.1,0,0,0,8.1,8.1h60.091A8.1,8.1,0,0,0,436.668,73Z" transform="translate(1454.052 1.449)" fill="#fd0" stroke="#000" stroke-miterlimit="10" stroke-width="1"/>
            <path id="Trazado_891148" data-name="Trazado 891148" d="M.125,40.189h0A38.662,38.662,0,0,1,38.791,1.528h1784.2V78.854H38.791A38.666,38.666,0,0,1,.125,40.189M218.743,26.863a12.225,12.225,0,1,0,12.225,12.225,12.223,12.223,0,0,0-12.225-12.225m46.285,0a12.225,12.225,0,1,0,12.225,12.225,12.228,12.228,0,0,0-12.225-12.225m46.285,0a12.225,12.225,0,1,0,12.225,12.225,12.228,12.228,0,0,0-12.225-12.225m46.285,0a12.225,12.225,0,1,0,12.225,12.225A12.228,12.228,0,0,0,357.6,26.863m46.285,0a12.225,12.225,0,1,0,12.225,12.225,12.228,12.228,0,0,0-12.225-12.225" transform="translate(-0.125 5.653)" fill="#ccaf91" stroke="#707070" stroke-width="1"/>
            <g id="Rectángulo_402392" data-name="Rectángulo 402392" transform="translate(1817.495 80.445) rotate(180)" fill="#ccaf91" stroke="#000" stroke-width="1" stroke-dasharray="10 5">
              <rect width="745.657" height="70" stroke="none"/>
              <rect x="0.5" y="0.5" width="744.657" height="69" fill="none"/>
            </g>
            <path id="Trazado_891149" data-name="Trazado 891149" d="M.125,40.189h0A38.662,38.662,0,0,1,38.791,1.528h1784.2V78.854H38.791A38.666,38.666,0,0,1,.125,40.189ZM218.743,26.863a12.225,12.225,0,1,0,12.225,12.225A12.223,12.223,0,0,0,218.743,26.863Zm46.285,0a12.225,12.225,0,1,0,12.225,12.225A12.228,12.228,0,0,0,265.028,26.863Zm46.285,0a12.225,12.225,0,1,0,12.225,12.225A12.228,12.228,0,0,0,311.313,26.863Zm46.285,0a12.225,12.225,0,1,0,12.225,12.225A12.228,12.228,0,0,0,357.6,26.863Zm46.285,0a12.225,12.225,0,1,0,12.225,12.225A12.228,12.228,0,0,0,403.884,26.863Z" transform="translate(-0.125 5.653)" fill="none" stroke="#000" stroke-miterlimit="10" stroke-width="1"/>
            <path id="Trazado_892339" data-name="Trazado 892339" d="M0,0H29.849V91.685H0Z" transform="translate(1754.495 0)" fill="#fd0" stroke="#707070" stroke-width="1"/>
            <rect id="Rectángulo_402096" data-name="Rectángulo 402096" width="29.849" height="91.685" transform="translate(1754.495 0)" fill="none" stroke="#000" stroke-miterlimit="10" stroke-width="1"/>
            <path id="Trazado_891150" data-name="Trazado 891150" d="M358.888,17.983h75.034V8.173H358.888a4.9,4.9,0,0,0,0,9.81" transform="translate(1456.798 33.012)" stroke="#707070" stroke-width="1"/>
            <path id="Trazado_891151" data-name="Trazado 891151" d="M358.888,17.983h75.034V8.173H358.888a4.9,4.9,0,0,0,0,9.81Z" transform="translate(1456.798 33.012)" fill="#fd0" stroke="#000" stroke-miterlimit="10" stroke-width="1"/>
            <path id="Trazado_891152" data-name="Trazado 891152" d="M368.088,1.528s-33.047,15.884-37.1,40.83c0,0-1.064,19.261,37.1,36.5" transform="translate(1362.1 5.653)" fill="none" stroke="#000" stroke-miterlimit="10" stroke-width="1"/>
          </g>
        </g>
      </g>
      <g id="Enmascarar_grupo_1098683-2" data-name="Enmascarar grupo 1098683" transform="translate(-2390 21724.861) rotate(-90)" clip-path="url(#clip-path)">
        <g id="Grupo_1106622-2" data-name="Grupo 1106622" transform="translate(659.338 4684.165) rotate(-90)">
          <g id="Grupo_1106623-2" data-name="Grupo 1106623" transform="translate(0.276 0.276)">
            <path id="Trazado_891146-2" data-name="Trazado 891146" d="M435.624,87.93h-74.2a8.1,8.1,0,0,1-8.106-8.106V8.613A8.1,8.1,0,0,1,361.425.507h74.2a8.1,8.1,0,0,1,8.1,8.106V79.824a8.1,8.1,0,0,1-8.1,8.106M436.668,73V15.434a8.1,8.1,0,0,0-8.1-8.1H368.476a8.1,8.1,0,0,0-8.1,8.1V73a8.1,8.1,0,0,0,8.1,8.1h60.091a8.1,8.1,0,0,0,8.1-8.1" transform="translate(1454.052 1.449)" fill="#fff" stroke="#707070" stroke-width="1"/>
            <path id="Trazado_891147-2" data-name="Trazado 891147" d="M435.624,87.93h-74.2a8.1,8.1,0,0,1-8.106-8.106V8.613A8.1,8.1,0,0,1,361.425.507h74.2a8.1,8.1,0,0,1,8.1,8.106V79.824A8.1,8.1,0,0,1,435.624,87.93ZM436.668,73V15.434a8.1,8.1,0,0,0-8.1-8.1H368.476a8.1,8.1,0,0,0-8.1,8.1V73a8.1,8.1,0,0,0,8.1,8.1h60.091A8.1,8.1,0,0,0,436.668,73Z" transform="translate(1454.052 1.449)" fill="#fd0" stroke="#000" stroke-miterlimit="10" stroke-width="1"/>
            <path id="Trazado_891151-2" data-name="Trazado 891151" d="M358.888,17.983h75.034V8.173H358.888a4.9,4.9,0,0,0,0,9.81Z" transform="translate(1456.798 33.012)" fill="#fd0" stroke="#000" stroke-miterlimit="10" stroke-width="1"/>
            <path id="Trazado_891148-2" data-name="Trazado 891148" d="M.125,40.189h0A38.662,38.662,0,0,1,38.791,1.528h1784.2V78.854H38.791A38.666,38.666,0,0,1,.125,40.189M218.743,26.863a12.225,12.225,0,1,0,12.225,12.225,12.223,12.223,0,0,0-12.225-12.225m46.285,0a12.225,12.225,0,1,0,12.225,12.225,12.228,12.228,0,0,0-12.225-12.225m46.285,0a12.225,12.225,0,1,0,12.225,12.225,12.228,12.228,0,0,0-12.225-12.225m46.285,0a12.225,12.225,0,1,0,12.225,12.225A12.228,12.228,0,0,0,357.6,26.863m46.285,0a12.225,12.225,0,1,0,12.225,12.225,12.228,12.228,0,0,0-12.225-12.225" transform="translate(-0.125 5.653)" fill="#f4eee8" stroke="#707070" stroke-width="1"/>
            <g id="Rectángulo_402393" data-name="Rectángulo 402393" transform="translate(1817.495 81.089) rotate(180)" fill="#f4eee8" stroke="#000" stroke-width="1" stroke-dasharray="10 5">
              <rect width="745.657" height="70" stroke="none"/>
              <rect x="0.5" y="0.5" width="744.657" height="69" fill="none"/>
            </g>
            <path id="Trazado_891149-2" data-name="Trazado 891149" d="M.125,40.189h0A38.662,38.662,0,0,1,38.791,1.528h1784.2V78.854H38.791A38.666,38.666,0,0,1,.125,40.189ZM218.743,26.863a12.225,12.225,0,1,0,12.225,12.225A12.223,12.223,0,0,0,218.743,26.863Zm46.285,0a12.225,12.225,0,1,0,12.225,12.225A12.228,12.228,0,0,0,265.028,26.863Zm46.285,0a12.225,12.225,0,1,0,12.225,12.225A12.228,12.228,0,0,0,311.313,26.863Zm46.285,0a12.225,12.225,0,1,0,12.225,12.225A12.228,12.228,0,0,0,357.6,26.863Zm46.285,0a12.225,12.225,0,1,0,12.225,12.225A12.228,12.228,0,0,0,403.884,26.863Z" transform="translate(-0.125 5.653)" fill="none" stroke="#000" stroke-miterlimit="10" stroke-width="1"/>
            <path id="Trazado_892340" data-name="Trazado 892340" d="M0,0H29.849V91.685H0Z" transform="translate(1754.495 0)" fill="#fd0" stroke="#707070" stroke-width="1"/>
            <rect id="Rectángulo_402096-2" data-name="Rectángulo 402096" width="29.849" height="91.685" transform="translate(1754.495 0)" fill="none" stroke="#000" stroke-miterlimit="10" stroke-width="1"/>
            <path id="Trazado_891152-2" data-name="Trazado 891152" d="M368.088,1.528s-33.047,15.884-37.1,40.83c0,0-1.064,19.261,37.1,36.5" transform="translate(1362.1 5.653)" fill="none" stroke="#000" stroke-miterlimit="10" stroke-width="1"/>
          </g>
        </g>
      </g>
    </g>
  </g>
</svg>
