<svg xmlns="http://www.w3.org/2000/svg" width="260.567" height="202.723" viewBox="0 0 260.567 202.723">
  <g id="Grupo_1107069" data-name="Grupo 1107069" transform="translate(-951.051 -2875.002)">
    <path id="Trazado_891759" data-name="Trazado 891759" d="M-7599.051-9756.65V-9616.7h33.768v33.216h195.018V-9616.7h31.781V-9756.65Z" transform="translate(8550.102 12631.652)" fill="#e77918"/>
    <rect id="Rect치ngulo_402008" data-name="Rect치ngulo 402008" width="162" height="155" transform="translate(998.057 2922.725)" fill="#567e6f"/>
    <rect id="Rect치ngulo_402009" data-name="Rect치ngulo 402009" width="162" height="17" transform="translate(998.057 2907.725)" fill="#fd0"/>
    <path id="Trazado_891762" data-name="Trazado 891762" d="M-7088.4-8261.987s7.882,14.691,3.768,21.317-7.8,16.96-3.768,23.655" transform="translate(8093.051 11185.712)" fill="none" stroke="#000" stroke-width="2"/>
    <path id="Trazado_891763" data-name="Trazado 891763" d="M-7094-8261.987s-5.1,10.812-7.4,27.415-17.946,8.692-17.946,8.692" transform="translate(8093.051 11185.712)" fill="none" stroke="#000" stroke-width="2"/>
    <path id="Trazado_891764" data-name="Trazado 891764" d="M-6936-8262.157a45.975,45.975,0,0,1-4,17.358c-4.027,8.739-4.849,25.862,4,29.99" transform="translate(8091.051 11186.693)" fill="none" stroke="#000" stroke-linecap="round" stroke-width="2"/>
  </g>
</svg>
