<svg xmlns="http://www.w3.org/2000/svg" width="85" height="85" viewBox="0 0 85 85">
  <g id="Grupo_1107070" data-name="Grupo 1107070" transform="translate(-705.051 -3246)">
    <g id="Grupo_1106447" data-name="Grupo 1106447" transform="translate(0 -6)">
      <g id="Grupo_1106440" data-name="Grupo 1106440">
        <g id="Rectángulo_402010" data-name="Rectángulo 402010" transform="translate(705.051 3252)" fill="#fff" stroke="#567e6f" stroke-width="3">
          <rect width="85" height="85" stroke="none"/>
          <rect x="1.5" y="1.5" width="82" height="82" fill="none"/>
        </g>
        <g id="tela" transform="translate(707.432 3285.715) rotate(-90)">
          <path id="Trazado_891766" data-name="Trazado 891766" d="M24.535,13.837a15.714,15.714,0,0,1-1.425-2.761,1.172,1.172,0,1,0-2.17.885,18,18,0,0,0,1.645,3.176,6.363,6.363,0,0,1,.98,4.11,9.049,9.049,0,0,1-2.039,5.006,8.057,8.057,0,0,0-3.745-4.165V14.075a2.745,2.745,0,0,0-2.742-2.742H10.9a2.745,2.745,0,0,0-2.742,2.742v6.014a8.058,8.058,0,0,0-3.719,4.1,8.818,8.818,0,0,1-2.065-4.94,6.367,6.367,0,0,1,.98-4.11C6.05,11.1,7.046,4.846,7.35,2.344H18.6c.068.56.172,1.31.322,2.184a1.172,1.172,0,1,0,2.31-.4c-.306-1.783-.41-3.042-.411-3.054A1.171,1.171,0,0,0,19.648,0H6.3A1.172,1.172,0,0,0,5.127,1.077c-.007.082-.7,8.225-3.719,12.76A8.625,8.625,0,0,0,.046,19.484a11.033,11.033,0,0,0,3.819,7.462c0,.079-.006.159-.006.239v8.678a7.98,7.98,0,0,0,2.454,5.76V78.061a1.955,1.955,0,0,0,1.953,1.953h9.41a1.955,1.955,0,0,0,1.953-1.953V41.612a7.965,7.965,0,0,0,2.43-5.128,1.172,1.172,0,1,0-2.337-.18,5.684,5.684,0,0,1-5.645,5.22H11.865A5.668,5.668,0,0,1,6.2,35.863V27.184a5.668,5.668,0,0,1,5.661-5.661h2.214a5.668,5.668,0,0,1,5.661,5.661v1.831a1.172,1.172,0,0,0,2.345,0V27.184c0-.051,0-.1,0-.154A11.238,11.238,0,0,0,25.9,19.483,8.626,8.626,0,0,0,24.535,13.837ZM8.658,72.042h4.314a1.172,1.172,0,0,0,0-2.344H8.658V64.92h4.314a1.172,1.172,0,0,0,0-2.344H8.658V57.8h4.314a1.172,1.172,0,0,0,0-2.344H8.658V50.674h4.314a1.172,1.172,0,0,0,0-2.345H8.658V43.2a7.956,7.956,0,0,0,3.207.673h2.214a7.92,7.92,0,0,0,3.207-.679v1.5H12.972a1.172,1.172,0,1,0,0,2.344h4.314v4.779H12.972a1.172,1.172,0,1,0,0,2.344h4.314v4.779H12.972a1.172,1.172,0,0,0,0,2.345h4.314v4.779H12.972a1.172,1.172,0,0,0,0,2.344h4.314v4.779H12.972a1.172,1.172,0,0,0,0,2.344h4.314V77.67H8.658Zm6.78-52.748a8.041,8.041,0,0,0-1.359-.117H11.865a8.041,8.041,0,0,0-1.359.117v-5.22a.4.4,0,0,1,.4-.4H15.04a.4.4,0,0,1,.4.4Zm0,0" transform="translate(-8.616)" fill="#567e6f"/>
          <path id="Trazado_891767" data-name="Trazado 891767" d="M55.133,198.418a4.355,4.355,0,1,0,4.355-4.355A4.36,4.36,0,0,0,55.133,198.418Zm6.366,0a2.011,2.011,0,1,1-2.011-2.011A2.013,2.013,0,0,1,61.5,198.418Zm0,0" transform="translate(-46.516 -163.735)" fill="#567e6f"/>
        </g>
      </g>
      <path id="Trazado_891770" data-name="Trazado 891770" d="M-7388.008-8365.9h82.974" transform="translate(8095.085 11632)" fill="none" stroke="#567e6f" stroke-width="3"/>
      <path id="Trazado_891771" data-name="Trazado 891771" d="M-7388.008-8365.9h82.974" transform="translate(8095.085 11663)" fill="none" stroke="#567e6f" stroke-width="3"/>
    </g>
  </g>
</svg>
