<svg xmlns="http://www.w3.org/2000/svg" width="489.753" height="114.85" viewBox="0 0 489.753 114.85">
  <g id="Grupo_1107069" data-name="Grupo 1107069" transform="translate(-285 -4138.984)">
    <path id="Trazado_891993" data-name="Trazado 891993" d="M-7599.051-9756.651v65.021h15.318v21.617h88.467v-21.617h14.417v-65.021Z" transform="translate(8131.602 13923.848)" fill="#e38300"/>
    <path id="Trazado_891995" data-name="Trazado 891995" d="M-7599.051-9772.536v80.905h15.318v21.617h88.467v-21.617h14.417v-80.905Z" transform="translate(7884.051 13923.848)" fill="#e38300"/>
    <path id="Trazado_891994" data-name="Trazado 891994" d="M-7599.051-9760.205v68.574h15.318v21.617h88.467v-21.617h14.417v-68.574Z" transform="translate(8255.602 13923.848)" fill="#e38300"/>
    <path id="Trazado_891996" data-name="Trazado 891996" d="M-7599.051-9772.205v80.574h15.318v21.617h88.467v-21.617h14.417v-80.574Z" transform="translate(8008.051 13923.848)" fill="#e38300"/>
    <rect id="Rectángulo_402033" data-name="Rectángulo 402033" width="118.203" height="26.212" transform="translate(532.551 4142.984)" fill="#85c026"/>
    <rect id="Rectángulo_402034" data-name="Rectángulo 402034" width="118.203" height="26.212" transform="translate(656.551 4138.984)" fill="#85c026"/>
    <g id="Grupo_1106457" data-name="Grupo 1106457" transform="translate(143 110.807)">
      <g id="Rectángulo_402022" data-name="Rectángulo 402022" transform="translate(422.051 4059)" fill="#e33d00" stroke="#e33d00" stroke-width="1">
        <rect width="53" height="35" stroke="none"/>
        <rect x="0.5" y="0.5" width="52" height="34" fill="none"/>
      </g>
      <g id="Rectángulo_402023" data-name="Rectángulo 402023" transform="translate(424.051 4061)" fill="#e33d00" stroke="#ff7960" stroke-width="2">
        <rect width="49" height="31" stroke="none"/>
        <rect x="1" y="1" width="47" height="29" fill="none"/>
      </g>
    </g>
    <g id="Grupo_1106458" data-name="Grupo 1106458" transform="translate(-104.551 110.807)">
      <g id="Rectángulo_402022-2" data-name="Rectángulo 402022" transform="translate(422.051 4059)" fill="#e33d00" stroke="#e33d00" stroke-width="1">
        <rect width="53" height="35" stroke="none"/>
        <rect x="0.5" y="0.5" width="52" height="34" fill="none"/>
      </g>
      <g id="Rectángulo_402023-2" data-name="Rectángulo 402023" transform="translate(424.051 4061)" fill="#e33d00" stroke="#ff7960" stroke-width="2">
        <rect width="49" height="31" stroke="none"/>
        <rect x="1" y="1" width="47" height="29" fill="none"/>
      </g>
    </g>
    <rect id="Rectángulo_402031" data-name="Rectángulo 402031" width="75" height="30" transform="translate(678.051 4179.807)" fill="#fd0"/>
    <rect id="Rectángulo_402035" data-name="Rectángulo 402035" width="75" height="30" transform="translate(430.5 4179.807)" fill="#fd0"/>
    <rect id="Rectángulo_402032" data-name="Rectángulo 402032" width="75" height="11" transform="translate(678.051 4166.807)" fill="#fd0"/>
    <rect id="Rectángulo_402036" data-name="Rectángulo 402036" width="75" height="11" transform="translate(430.5 4166.807)" fill="#fd0"/>
    <rect id="Rectángulo_402037" data-name="Rectángulo 402037" width="118.203" height="9" transform="translate(285 4144.807)" fill="#fd0"/>
    <rect id="Rectángulo_402038" data-name="Rectángulo 402038" width="118.203" height="9" transform="translate(409 4144.807)" fill="#fd0"/>
    <g id="Grupo_1106459" data-name="Grupo 1106459" transform="translate(1.013 -46.297)">
      <path id="Trazado_891997" data-name="Trazado 891997" d="M-7367.559-8508.528l2.872,2.873,3.081-2.873,2.873,2.873,2.873-2.873,2.873,2.873,2.873-2.873,2.873,2.873,2.873-2.873,2.873,2.873,2.873-2.873,2.873,2.873,2.873-2.873,2.873,2.873,2.873-2.873,2.873,2.873,2.873-2.873,2.873,2.873,2.873-2.873,2.873,2.873,2.873-2.873,2.873,2.873,1.753-1.753" transform="translate(7652.559 12707.195)" fill="none" stroke="#000" stroke-width="2"/>
      <path id="Trazado_891998" data-name="Trazado 891998" d="M-7367.559-8508.528l2.7,2.873,2.9-2.873,2.7,2.873,2.7-2.873,2.7,2.873,2.7-2.873,2.7,2.873,2.7-2.873,2.7,2.873,2.7-2.873,2.7,2.873,2.7-2.873,2.7,2.873,2.7-2.873,2.7,2.873,2.7-2.873,2.7,2.873,2.7-2.873,2.7,2.873,2.7-2.873,2.7,2.873,1.649-1.753" transform="translate(7710.302 12707.195)" fill="none" stroke="#000" stroke-width="2"/>
    </g>
    <g id="Grupo_1106460" data-name="Grupo 1106460" transform="translate(124.72 -46.297)">
      <path id="Trazado_891997-2" data-name="Trazado 891997" d="M-7367.559-8508.528l2.872,2.873,3.081-2.873,2.873,2.873,2.873-2.873,2.873,2.873,2.873-2.873,2.873,2.873,2.873-2.873,2.873,2.873,2.873-2.873,2.873,2.873,2.873-2.873,2.873,2.873,2.873-2.873,2.873,2.873,2.873-2.873,2.873,2.873,2.873-2.873,2.873,2.873,2.873-2.873,2.873,2.873,1.753-1.753" transform="translate(7652.559 12707.195)" fill="none" stroke="#000" stroke-width="2"/>
      <path id="Trazado_891998-2" data-name="Trazado 891998" d="M-7367.559-8508.528l2.725,2.873,2.924-2.873,2.725,2.873,2.726-2.873,2.726,2.873,2.726-2.873,2.726,2.873,2.726-2.873,2.726,2.873,2.726-2.873,2.726,2.873,2.726-2.873,2.726,2.873,2.726-2.873,2.726,2.873,2.726-2.873,2.725,2.873,2.726-2.873,2.726,2.873,2.726-2.873,2.726,2.873,1.663-1.753" transform="translate(7710.292 12707.195)" fill="none" stroke="#000" stroke-width="2"/>
    </g>
  </g>
</svg>
