<svg xmlns="http://www.w3.org/2000/svg" width="1030.244" height="264.551" viewBox="0 0 1030.244 264.551">
  <g id="Grupo_1107070" data-name="Grupo 1107070" transform="translate(-285 -6344.655)">
    <path id="Trazado_892058" data-name="Trazado 892058" d="M-7599.051-9756.651v65.021h118.2v-65.021Z" transform="translate(7987.602 16141.837)" fill="#e38300"/>
    <path id="Trazado_892056" data-name="Trazado 892056" d="M-7599.051-9756.651v65.021h118.2v-65.021Z" transform="translate(8131.602 16300.837)" fill="#e38300"/>
    <path id="Trazado_892049" data-name="Trazado 892049" d="M-7599.051-9775.651v84.021h118.2v-84.021Z" transform="translate(8381.602 16300.837)" fill="#e38300"/>
    <path id="Trazado_892050" data-name="Trazado 892050" d="M-7599.051-9770.651v79.021h118.2v-79.021Z" transform="translate(8647.602 16300.837)" fill="#e38300"/>
    <path id="Trazado_892060" data-name="Trazado 892060" d="M-7599.051-9772.536v80.905h118.2v-80.905Z" transform="translate(7884.051 16300.837)" fill="#e38300"/>
    <path id="Trazado_892054" data-name="Trazado 892054" d="M-7599.051-9767.219v75.588h118.2v-75.588Z" transform="translate(8237.602 16136.128)" fill="#e38300"/>
    <path id="Trazado_892057" data-name="Trazado 892057" d="M-7599.051-9756.651v65.021h118.2v-65.021Z" transform="translate(8111.602 16141.837)" fill="#e38300"/>
    <path id="Trazado_892055" data-name="Trazado 892055" d="M-7599.051-9760.205v68.574h118.2v-68.574Z" transform="translate(8255.602 16300.837)" fill="#e38300"/>
    <path id="Trazado_892051" data-name="Trazado 892051" d="M-7599.051-9775.205v83.574h118.2v-83.574Z" transform="translate(8505.602 16300.837)" fill="#e38300"/>
    <path id="Trazado_892059" data-name="Trazado 892059" d="M-7599.051-9772.205v80.574h118.2v-80.574Z" transform="translate(8008.051 16300.837)" fill="#e38300"/>
    <path id="Trazado_892052" data-name="Trazado 892052" d="M-7599.051-9767.424v75.793h118.2v-75.793Z" transform="translate(8361.602 16136.128)" fill="#e38300"/>
    <rect id="Rectángulo_402119" data-name="Rectángulo 402119" width="118.203" height="26.212" transform="translate(388.551 6360.973)" fill="#3379d4"/>
    <rect id="Rectángulo_402115" data-name="Rectángulo 402115" width="118.203" height="26.212" transform="translate(532.551 6519.973)" fill="#3379d4"/>
    <rect id="Rectángulo_402099" data-name="Rectángulo 402099" width="118.203" height="18.212" transform="translate(782.551 6508.973)" fill="#3379d4"/>
    <rect id="Rectángulo_402100" data-name="Rectángulo 402100" width="118.197" height="22.823" transform="translate(1048.551 6508.973)" fill="#3379d4"/>
    <rect id="Rectángulo_402101" data-name="Rectángulo 402101" width="121.197" height="50.823" transform="translate(1193.803 6539.82)" fill="#3379d4"/>
    <rect id="Rectángulo_402109" data-name="Rectángulo 402109" width="118.203" height="26.212" transform="translate(638.551 6344.655)" fill="#3379d4"/>
    <rect id="Rectángulo_402116" data-name="Rectángulo 402116" width="118.203" height="26.212" transform="translate(512.551 6360.973)" fill="#3379d4"/>
    <rect id="Rectángulo_402110" data-name="Rectángulo 402110" width="118.203" height="26.212" transform="translate(656.551 6515.973)" fill="#3379d4"/>
    <rect id="Rectángulo_402102" data-name="Rectángulo 402102" width="118.197" height="20.212" transform="translate(906.551 6506.973)" fill="#3379d4"/>
    <rect id="Rectángulo_402103" data-name="Rectángulo 402103" width="118.203" height="26.212" transform="translate(762.551 6344.655)" fill="#3379d4"/>
    <g id="Grupo_1106517" data-name="Grupo 1106517" transform="translate(-1 2328.796)">
      <g id="Rectángulo_402022" data-name="Rectángulo 402022" transform="translate(422.051 4059)" fill="#e33d00" stroke="#e33d00" stroke-width="1">
        <rect width="53" height="35" stroke="none"/>
        <rect x="0.5" y="0.5" width="52" height="34" fill="none"/>
      </g>
      <g id="Rectángulo_402023" data-name="Rectángulo 402023" transform="translate(424.051 4061)" fill="#e33d00" stroke="#ff7960" stroke-width="2">
        <rect width="49" height="31" stroke="none"/>
        <rect x="1" y="1" width="47" height="29" fill="none"/>
      </g>
    </g>
    <g id="Grupo_1106515" data-name="Grupo 1106515" transform="translate(143 2487.796)">
      <g id="Rectángulo_402022-2" data-name="Rectángulo 402022" transform="translate(422.051 4059)" fill="#e33d00" stroke="#e33d00" stroke-width="1">
        <rect width="53" height="35" stroke="none"/>
        <rect x="0.5" y="0.5" width="52" height="34" fill="none"/>
      </g>
      <g id="Rectángulo_402023-2" data-name="Rectángulo 402023" transform="translate(424.051 4061)" fill="#e33d00" stroke="#ff7960" stroke-width="2">
        <rect width="49" height="31" stroke="none"/>
        <rect x="1" y="1" width="47" height="29" fill="none"/>
      </g>
    </g>
    <g id="Grupo_1106513" data-name="Grupo 1106513" transform="translate(393 2487.796)">
      <g id="Rectángulo_402022-3" data-name="Rectángulo 402022" transform="translate(422.051 4059)" fill="#e33d00" stroke="#e33d00" stroke-width="1">
        <rect width="53" height="35" stroke="none"/>
        <rect x="0.5" y="0.5" width="52" height="34" fill="none"/>
      </g>
      <g id="Rectángulo_402023-3" data-name="Rectángulo 402023" transform="translate(424.051 4061)" fill="#e33d00" stroke="#ff7960" stroke-width="2">
        <rect width="49" height="31" stroke="none"/>
        <rect x="1" y="1" width="47" height="29" fill="none"/>
      </g>
    </g>
    <g id="Grupo_1106509" data-name="Grupo 1106509" transform="translate(659 2487.796)">
      <g id="Rectángulo_402022-4" data-name="Rectángulo 402022" transform="translate(422.051 4059)" fill="#e33d00" stroke="#e33d00" stroke-width="1">
        <rect width="53" height="35" stroke="none"/>
        <rect x="0.5" y="0.5" width="52" height="34" fill="none"/>
      </g>
      <g id="Rectángulo_402023-4" data-name="Rectángulo 402023" transform="translate(424.051 4061)" fill="#e33d00" stroke="#ff7960" stroke-width="2">
        <rect width="49" height="31" stroke="none"/>
        <rect x="1" y="1" width="47" height="29" fill="none"/>
      </g>
    </g>
    <g id="Grupo_1106519" data-name="Grupo 1106519" transform="translate(-104.551 2487.796)">
      <g id="Rectángulo_402022-5" data-name="Rectángulo 402022" transform="translate(422.051 4059)" fill="#e33d00" stroke="#e33d00" stroke-width="1">
        <rect width="53" height="35" stroke="none"/>
        <rect x="0.5" y="0.5" width="52" height="34" fill="none"/>
      </g>
      <g id="Rectángulo_402023-5" data-name="Rectángulo 402023" transform="translate(424.051 4061)" fill="#e33d00" stroke="#ff7960" stroke-width="2">
        <rect width="49" height="31" stroke="none"/>
        <rect x="1" y="1" width="47" height="29" fill="none"/>
      </g>
    </g>
    <g id="Grupo_1106514" data-name="Grupo 1106514" transform="translate(249 2322.979)">
      <g id="Rectángulo_402022-6" data-name="Rectángulo 402022" transform="translate(422.051 4059)" fill="#e33d00" stroke="#e33d00" stroke-width="1">
        <rect width="53" height="35" stroke="none"/>
        <rect x="0.5" y="0.5" width="52" height="34" fill="none"/>
      </g>
      <g id="Rectángulo_402023-6" data-name="Rectángulo 402023" transform="translate(424.051 4061)" fill="#e33d00" stroke="#ff7960" stroke-width="2">
        <rect width="49" height="31" stroke="none"/>
        <rect x="1" y="1" width="47" height="29" fill="none"/>
      </g>
    </g>
    <rect id="Rectángulo_402117" data-name="Rectángulo 402117" width="75" height="30" transform="translate(534.051 6402.796)" fill="#fd0"/>
    <rect id="Rectángulo_402111" data-name="Rectángulo 402111" width="75" height="30" transform="translate(678.051 6556.796)" fill="#fd0"/>
    <rect id="Rectángulo_402104" data-name="Rectángulo 402104" width="75" height="30" transform="translate(928.051 6556.796)" fill="#fd0"/>
    <rect id="Rectángulo_402120" data-name="Rectángulo 402120" width="75" height="30" transform="translate(430.5 6556.796)" fill="#fd0"/>
    <rect id="Rectángulo_402112" data-name="Rectángulo 402112" width="75" height="30" transform="translate(784.051 6392.796)" fill="#fd0"/>
    <rect id="Rectángulo_402118" data-name="Rectángulo 402118" width="75" height="11" transform="translate(534.051 6389.796)" fill="#fd0"/>
    <rect id="Rectángulo_402113" data-name="Rectángulo 402113" width="75" height="11" transform="translate(678.051 6543.796)" fill="#fd0"/>
    <rect id="Rectángulo_402105" data-name="Rectángulo 402105" width="75" height="11" transform="translate(928.051 6543.796)" fill="#fd0"/>
    <rect id="Rectángulo_402121" data-name="Rectángulo 402121" width="75" height="11" transform="translate(430.5 6543.796)" fill="#fd0"/>
    <rect id="Rectángulo_402114" data-name="Rectángulo 402114" width="75" height="11" transform="translate(784.051 6379.796)" fill="#fd0"/>
    <rect id="Rectángulo_402123" data-name="Rectángulo 402123" width="118.203" height="9" transform="translate(285 6521.796)" fill="#fd0"/>
    <rect id="Rectángulo_402122" data-name="Rectángulo 402122" width="118.203" height="9" transform="translate(409 6521.796)" fill="#fd0"/>
    <g id="Grupo_1106518" data-name="Grupo 1106518" transform="translate(1.013 2330.692)">
      <path id="Trazado_891997" data-name="Trazado 891997" d="M-7367.559-8508.528l2.872,2.873,3.081-2.873,2.873,2.873,2.873-2.873,2.873,2.873,2.873-2.873,2.873,2.873,2.873-2.873,2.873,2.873,2.873-2.873,2.873,2.873,2.873-2.873,2.873,2.873,2.873-2.873,2.873,2.873,2.873-2.873,2.873,2.873,2.873-2.873,2.873,2.873,2.873-2.873,2.873,2.873,1.753-1.753" transform="translate(7652.559 12707.195)" fill="none" stroke="#000" stroke-width="2"/>
      <path id="Trazado_891998" data-name="Trazado 891998" d="M-7367.559-8508.528l2.7,2.873,2.9-2.873,2.7,2.873,2.7-2.873,2.7,2.873,2.7-2.873,2.7,2.873,2.7-2.873,2.7,2.873,2.7-2.873,2.7,2.873,2.7-2.873,2.7,2.873,2.7-2.873,2.7,2.873,2.7-2.873,2.7,2.873,2.7-2.873,2.7,2.873,2.7-2.873,2.7,2.873,1.649-1.753" transform="translate(7710.302 12707.195)" fill="none" stroke="#000" stroke-width="2"/>
    </g>
    <g id="Grupo_1106516" data-name="Grupo 1106516" transform="translate(124.72 2330.693)">
      <path id="Trazado_891997-2" data-name="Trazado 891997" d="M-7367.559-8508.528l2.872,2.873,3.081-2.873,2.873,2.873,2.873-2.873,2.873,2.873,2.873-2.873,2.873,2.873,2.873-2.873,2.873,2.873,2.873-2.873,2.873,2.873,2.873-2.873,2.873,2.873,2.873-2.873,2.873,2.873,2.873-2.873,2.873,2.873,2.873-2.873,2.873,2.873,2.873-2.873,2.873,2.873,1.753-1.753" transform="translate(7652.559 12707.195)" fill="none" stroke="#000" stroke-width="2"/>
      <path id="Trazado_891998-2" data-name="Trazado 891998" d="M-7367.559-8508.528l2.725,2.873,2.924-2.873,2.725,2.873,2.726-2.873,2.726,2.873,2.726-2.873,2.726,2.873,2.726-2.873,2.726,2.873,2.726-2.873,2.726,2.873,2.726-2.873,2.726,2.873,2.726-2.873,2.726,2.873,2.726-2.873,2.725,2.873,2.726-2.873,2.726,2.873,2.726-2.873,2.726,2.873,1.663-1.753" transform="translate(7710.292 12707.195)" fill="none" stroke="#000" stroke-width="2"/>
    </g>
    <rect id="Rectángulo_402106" data-name="Rectángulo 402106" width="118.203" height="7" transform="translate(782.551 6526.796)" fill="#fd0"/>
    <rect id="Rectángulo_402107" data-name="Rectángulo 402107" width="121.197" height="7" transform="translate(1193.803 6560.796)" fill="#fd0"/>
    <rect id="Rectángulo_402108" data-name="Rectángulo 402108" width="118.203" height="7" transform="translate(906.551 6526.796)" fill="#fd0"/>
    <rect id="Rectángulo_402153" data-name="Rectángulo 402153" width="118.203" height="7" transform="translate(1048.551 6526.796)" fill="#fd0"/>
    <g id="Grupo_1106510" data-name="Grupo 1106510" transform="translate(498.166 2329.976)">
      <path id="Trazado_891997-3" data-name="Trazado 891997" d="M-7367.559-8508.528l2.872,2.873,3.081-2.873,2.873,2.873,2.873-2.873,2.873,2.873,2.873-2.873,2.873,2.873,2.873-2.873,2.873,2.873,2.873-2.873,2.873,2.873,2.873-2.873,2.873,2.873,2.873-2.873,2.873,2.873,2.873-2.873,2.873,2.873,2.873-2.873,2.873,2.873,2.873-2.873,2.873,2.873,1.753-1.753" transform="translate(7652.559 12707.195)" fill="none" stroke="#000" stroke-width="2"/>
      <path id="Trazado_891998-3" data-name="Trazado 891998" d="M-7367.559-8508.528l2.726,2.873,2.924-2.873,2.727,2.873,2.728-2.873,2.727,2.873,2.727-2.873,2.727,2.873,2.727-2.873,2.727,2.873,2.727-2.873,2.727,2.873,2.727-2.873,2.727,2.873,2.727-2.873,2.727,2.873,2.727-2.873,2.727,2.873,2.727-2.873,2.727,2.873,2.727-2.873,2.727,2.873,1.664-1.753" transform="translate(7710.392 12707.195)" fill="none" stroke="#000" stroke-width="2"/>
    </g>
    <g id="Grupo_1106511" data-name="Grupo 1106511" transform="translate(909.803 2363.976)">
      <path id="Trazado_891997-4" data-name="Trazado 891997" d="M-7367.559-8508.528l2.872,2.873,3.081-2.873,2.873,2.873,2.873-2.873,2.873,2.873,2.873-2.873,2.873,2.873,2.873-2.873,2.873,2.873,2.873-2.873,2.873,2.873,2.873-2.873,2.873,2.873,2.873-2.873,2.873,2.873,2.873-2.873,2.873,2.873,2.873-2.873,2.873,2.873,2.873-2.873,2.873,2.873,1.753-1.753" transform="translate(7652.559 12707.195)" fill="none" stroke="#000" stroke-width="2"/>
      <path id="Trazado_891998-4" data-name="Trazado 891998" d="M-7367.559-8508.528l2.872,2.873,3.081-2.873,2.873,2.873,2.873-2.873,2.873,2.873,2.873-2.873,2.873,2.873,2.873-2.873,2.873,2.873,2.873-2.873,2.873,2.873,2.873-2.873,2.873,2.873,2.873-2.873,2.873,2.873,2.873-2.873,2.873,2.873,2.873-2.873,2.873,2.873,2.873-2.873,2.873,2.873,1.753-1.753" transform="translate(7710.007 12707.195)" fill="none" stroke="#000" stroke-width="2"/>
    </g>
    <g id="Grupo_1106512" data-name="Grupo 1106512" transform="translate(622.358 2329.976)">
      <path id="Trazado_891997-5" data-name="Trazado 891997" d="M-7367.559-8508.528l2.872,2.873,3.081-2.873,2.873,2.873,2.873-2.873,2.873,2.873,2.873-2.873,2.873,2.873,2.873-2.873,2.873,2.873,2.873-2.873,2.873,2.873,2.873-2.873,2.873,2.873,2.873-2.873,2.873,2.873,2.873-2.873,2.873,2.873,2.873-2.873,2.873,2.873,2.873-2.873,2.873,2.873,1.753-1.753" transform="translate(7652.559 12707.195)" fill="none" stroke="#000" stroke-width="2"/>
      <path id="Trazado_891998-5" data-name="Trazado 891998" d="M-7367.559-8508.528l2.731,2.873,2.93-2.873,2.732,2.873,2.732-2.873,2.732,2.873,2.732-2.873,2.732,2.873,2.731-2.873,2.732,2.873,2.732-2.873,2.732,2.873,2.731-2.873,2.732,2.873,2.732-2.873,2.732,2.873,2.731-2.873,2.732,2.873,2.732-2.873,2.732,2.873,2.731-2.873,2.732,2.873,1.667-1.753" transform="translate(7710.151 12707.195)" fill="none" stroke="#000" stroke-width="2"/>
    </g>
    <g id="Grupo_1106535" data-name="Grupo 1106535" transform="translate(764.358 2329.976)">
      <path id="Trazado_891997-6" data-name="Trazado 891997" d="M-7367.559-8508.528l2.872,2.873,3.081-2.873,2.873,2.873,2.873-2.873,2.873,2.873,2.873-2.873,2.873,2.873,2.873-2.873,2.873,2.873,2.873-2.873,2.873,2.873,2.873-2.873,2.873,2.873,2.873-2.873,2.873,2.873,2.873-2.873,2.873,2.873,2.873-2.873,2.873,2.873,2.873-2.873,2.873,2.873,1.753-1.753" transform="translate(7652.559 12707.195)" fill="none" stroke="#000" stroke-width="2"/>
      <path id="Trazado_891998-6" data-name="Trazado 891998" d="M-7367.559-8508.528l2.731,2.873,2.93-2.873,2.732,2.873,2.732-2.873,2.732,2.873,2.732-2.873,2.732,2.873,2.731-2.873,2.732,2.873,2.732-2.873,2.732,2.873,2.731-2.873,2.732,2.873,2.732-2.873,2.732,2.873,2.731-2.873,2.732,2.873,2.732-2.873,2.732,2.873,2.731-2.873,2.732,2.873,1.667-1.753" transform="translate(7710.151 12707.195)" fill="none" stroke="#000" stroke-width="2"/>
    </g>
    <path id="Trazado_892073" data-name="Trazado 892073" d="M-7235.254-8511.411v2.3h-5.568l-2.976-2.3,4.215-1.395,2.227.718Z" transform="translate(8401.229 15040.91)" fill="#fd0" stroke="#000" stroke-width="2"/>
    <rect id="Rectángulo_402124" data-name="Rectángulo 402124" width="28" height="28" transform="translate(285.051 6360.796)" fill="#3379d4"/>
    <rect id="Rectángulo_402125" data-name="Rectángulo 402125" width="28" height="28" transform="translate(285.051 6403.796)" fill="#e38300"/>
  </g>
</svg>
