<svg xmlns="http://www.w3.org/2000/svg" width="820.523" height="170.203" viewBox="0 0 820.523 170.203">
  <g id="Grupo_1107071" data-name="Grupo 1107071" transform="translate(-389.477 -7523.176)">
    <g id="Grupo_1106552" data-name="Grupo 1106552" transform="translate(0 5.1)">
      <path id="Trazado_892091" data-name="Trazado 892091" d="M-7046.406-5778.9a183.13,183.13,0,0,0-61.037-3.068c-33.711,4.011-53.653,18.764-53.653,18.764l55.938,51.895Z" transform="translate(7934.75 13335.196)" fill="#669bdf"/>
      <path id="Trazado_892092" data-name="Trazado 892092" d="M-7157.465-5649.933s-7.5-30.553-8.237-58.89,5.288-54.459,5.288-54.459l24.275,66.994Z" transform="translate(7934.11 13335.244)" fill="#669bdf"/>
      <path id="Trazado_892093" data-name="Trazado 892093" d="M-7157.465-5652.8s-7.5-30.553-8.237-58.89a227.66,227.66,0,0,1,1.578-31.709c8.134-.877,11.993,0,11.993,0l15.992,44.243Z" transform="translate(7934.11 13338.108)" fill="#e7791a"/>
      <path id="Trazado_892040" data-name="Trazado 892040" d="M-6888.948-5780.289s-34.248-7.33-62.722-3.6-51.172,18.515-51.172,18.515l5.908,28.561,105.818-15.87Z" transform="translate(8095.128 13335.192)" fill="#669bdf"/>
      <path id="Trazado_892100" data-name="Trazado 892100" d="M-6888.948-5780.289s-34.248-7.33-62.722-3.6-51.172,18.515-51.172,18.515l5.908,28.561,105.818-15.87Z" transform="translate(7626.128 13335.192)" fill="#669bdf"/>
      <path id="Trazado_892106" data-name="Trazado 892106" d="M-6888.948-5780.289s-34.248-7.33-62.722-3.6-51.172,18.515-51.172,18.515l5.908,28.561,105.818-15.87Z" transform="translate(7461.42 13335.192)" fill="#669bdf"/>
      <path id="Trazado_892041" data-name="Trazado 892041" d="M-7002.645-5766.279s33.642,1.178,62.139-2.327a277.388,277.388,0,0,0,51.847-11.693l3.531,105s-24.677,7.528-52.348,13.621-58.339,10.748-58.339,10.748l-6.83-1.241Z" transform="translate(8095.128 13339.214)" fill="#669bdf"/>
      <path id="Trazado_892101" data-name="Trazado 892101" d="M-7002.645-5766.279s33.642,1.178,62.139-2.327a277.388,277.388,0,0,0,51.847-11.693l3.531,105s-24.677,7.528-52.348,13.621-58.339,10.748-58.339,10.748l-6.83-1.241Z" transform="translate(7626.128 13339.214)" fill="#669bdf"/>
      <path id="Trazado_892107" data-name="Trazado 892107" d="M-7002.645-5766.279s33.642,1.178,62.139-2.327a277.388,277.388,0,0,0,51.847-11.693l3.531,105s-24.677,7.528-52.348,13.621-58.339,10.748-58.339,10.748l-6.83-1.241Z" transform="translate(7461.42 13339.214)" fill="#669bdf"/>
      <path id="Trazado_892039" data-name="Trazado 892039" d="M-7002.645-5766.279s33.642,1.178,62.139-2.327a277.388,277.388,0,0,0,51.847-11.693l3.531,105s-24.677,7.528-52.348,13.621-58.339,10.748-58.339,10.748l-6.83-1.241Z" transform="translate(8095.128 13335.204)" fill="#3379d4"/>
      <path id="Trazado_892102" data-name="Trazado 892102" d="M-7002.645-5766.279s33.642,1.178,62.139-2.327a277.388,277.388,0,0,0,51.847-11.693l3.531,105s-24.677,7.528-52.348,13.621-58.339,10.748-58.339,10.748l-6.83-1.241Z" transform="translate(7626.128 13335.204)" fill="#3379d4"/>
      <path id="Trazado_892108" data-name="Trazado 892108" d="M-7002.645-5766.279s33.642,1.178,62.139-2.327a277.388,277.388,0,0,0,51.847-11.693l3.531,105s-24.677,7.528-52.348,13.621-58.339,10.748-58.339,10.748l-6.83-1.241Z" transform="translate(7461.42 13335.204)" fill="#3379d4"/>
      <path id="Trazado_892089" data-name="Trazado 892089" d="M-7160.64-5763.167s-.606,26.141,0,54.377,2.425,58.569,2.425,58.569,19.736-14,54.531-20.445,54.23-4.971,54.23-4.971l3.047-103.274s-11.822,8.585-48.424,13.23A368.238,368.238,0,0,1-7160.64-5763.167Z" transform="translate(7934.75 13335.207)" fill="#3379d4" stroke="#ddebfd" stroke-width="1"/>
      <path id="Trazado_892090" data-name="Trazado 892090" d="M-7160.9-5743.636c-.031,8.848.015,19.993.262,31.485.605,28.237,2.425,58.569,2.425,58.569s27.5-2.564,62.291-9.011,46.47-16.4,46.47-16.4l1.688-77.021S-7117.505-5742.2-7160.9-5743.636Z" transform="translate(7934.75 13338.569)" fill="#e7791a" stroke="#ddebfd" stroke-width="1"/>
      <path id="Trazado_892038" data-name="Trazado 892038" d="M-6996.9-5764.846l1.2,113.875" transform="translate(8095.142 13335.239)" fill="none" stroke="#003579" stroke-width="1"/>
      <path id="Trazado_892104" data-name="Trazado 892104" d="M-6996.9-5764.846l1.2,113.875" transform="translate(7626.142 13335.239)" fill="none" stroke="#003579" stroke-width="1"/>
      <path id="Trazado_892110" data-name="Trazado 892110" d="M-6996.9-5764.846l1.2,113.875" transform="translate(7461.434 13335.239)" fill="none" stroke="#003579" stroke-width="1"/>
      <path id="Trazado_892085" data-name="Trazado 892085" d="M-6994.9-3905.6h8.813v19.955l-6.465,10.641-5.975-12.671Z" transform="translate(8088.051 11475)" fill="#240d0a" stroke="#ccaf91" stroke-width="1"/>
      <path id="Trazado_892105" data-name="Trazado 892105" d="M-6994.9-3905.6h8.813v19.955l-6.465,10.641-5.975-12.671Z" transform="translate(7619.051 11475)" fill="#240d0a" stroke="#ccaf91" stroke-width="1"/>
      <path id="Trazado_892109" data-name="Trazado 892109" d="M-6994.9-3905.6h8.813v19.955l-6.465,10.641-5.975-12.671Z" transform="translate(7454.343 11475)" fill="#240d0a" stroke="#ccaf91" stroke-width="1"/>
      <path id="Trazado_892111" data-name="Trazado 892111" d="M-6994.9-3905.6h8.813v19.955l-6.465,10.641-5.975-12.671Z" transform="translate(7410.343 11479.912)" fill="#240d0a" stroke="#ccaf91" stroke-width="1"/>
      <path id="Trazado_892112" data-name="Trazado 892112" d="M-6994.9-3905.6h8.813v19.955l-6.465,10.641-5.975-12.671Z" transform="translate(7388.531 11479.912)" fill="#240d0a" stroke="#ccaf91" stroke-width="1"/>
      <path id="Trazado_892086" data-name="Trazado 892086" d="M-6995.9-3908.886s-5.438-46.2,29.665-50.694,83.536,36.638,83.536,36.638l-5.734,1.739s-48.317-39.893-78.7-35.52-18.079,47.838-18.079,47.838Z" transform="translate(8088.932 11478)" fill="#6e747d"/>
      <path id="Trazado_892095" data-name="Trazado 892095" d="M-6888.948-5780.289s-34.248-7.33-62.722-3.6-51.172,18.515-51.172,18.515l5.908,28.561,105.818-15.87Z" transform="translate(7938.179 13335.192)" fill="#669bdf"/>
      <path id="Trazado_892096" data-name="Trazado 892096" d="M-7002.645-5766.279s33.642,1.178,62.139-2.327a277.388,277.388,0,0,0,51.847-11.693l3.531,105s-24.677,7.528-52.348,13.621-58.339,10.748-58.339,10.748l-6.83-1.241Z" transform="translate(7938.179 13339.214)" fill="#669bdf"/>
      <path id="Trazado_892097" data-name="Trazado 892097" d="M-7002.645-5766.279s33.642,1.178,62.139-2.327a277.388,277.388,0,0,0,51.847-11.693l3.531,105s-24.677,7.528-52.348,13.621-58.339,10.748-58.339,10.748l-6.83-1.241Z" transform="translate(7938.179 13335.204)" fill="#3379d4"/>
      <path id="Trazado_892098" data-name="Trazado 892098" d="M-6996.9-5764.846l1.2,113.875" transform="translate(7938.192 13335.239)" fill="none" stroke="#003579" stroke-width="1"/>
      <path id="Trazado_892099" data-name="Trazado 892099" d="M-6994.9-3905.6h8.813v19.955l-6.465,10.641-5.975-12.671Z" transform="translate(7931.102 11475)" fill="#240d0a" stroke="#ccaf91" stroke-width="1"/>
      <g id="Grupo_1106551" data-name="Grupo 1106551" transform="translate(427.164 7590.415) rotate(-90)">
        <path id="Polígono_5" data-name="Polígono 5" d="M5.234,0l5.234,9.944H0Z" transform="translate(10.467 19.365) rotate(180)" fill="#0058c9"/>
        <rect id="Rectángulo_402097" data-name="Rectángulo 402097" width="4.71" height="10.991" transform="translate(3.14)" fill="#0058c9"/>
      </g>
      <path id="Trazado_892113" data-name="Trazado 892113" d="M-7430.016-5387.537l16.646-8.385s-21.32-23.7-47.554-27.434-57.38,12.492-57.38,12.492l-7.166-5.6L-7530-5397.39h27.448l-5.056-5.256s26.1-13.417,45.494-9.64S-7430.016-5387.537-7430.016-5387.537Z" transform="translate(8228.652 12955.971)" fill="#2a3e37"/>
    </g>
  </g>
</svg>
