<svg xmlns="http://www.w3.org/2000/svg" width="399.646" height="309.54" viewBox="0 0 399.646 309.54">
  <g id="Grupo_1107073" data-name="Grupo 1107073" transform="translate(-599.848 -8930.916)">
    <g id="Grupo_1106581" data-name="Grupo 1106581" transform="translate(0 7.958)">
      <g id="Rectángulo_402169" data-name="Rectángulo 402169" transform="translate(918.051 8938)" fill="#85c026" stroke="#567e6f" stroke-width="1">
        <rect width="69" height="74" stroke="none"/>
        <rect x="0.5" y="0.5" width="68" height="73" fill="none"/>
      </g>
      <rect id="Rectángulo_402159" data-name="Rectángulo 402159" width="72.925" height="8.066" transform="translate(957.205 8938.825) rotate(90)" fill="#fd0"/>
      <path id="Trazado_892118" data-name="Trazado 892118" d="M0,0,3.309,3.31,6.858,0l3.311,3.31L13.479,0l3.31,3.31L20.1,0l3.31,3.31L26.72,0l3.311,3.31L33.341,0l3.311,3.31L39.961,0l3.31,3.31L46.582,0l3.31,3.31L53.2,0l3.31,3.31L59.822,0l3.311,3.31L66.442,0l3.31,3.31,2.021-2.019" transform="translate(955.018 8939.977) rotate(90)" fill="none" stroke="#000" stroke-width="2"/>
      <path id="Trazado_892126" data-name="Trazado 892126" d="M0,0H72.924" transform="translate(960.15 9011.751) rotate(-90)" fill="none" stroke="#fd0" stroke-width="2" stroke-dasharray="4"/>
      <path id="Trazado_892127" data-name="Trazado 892127" d="M0,0H72.924" transform="translate(946.153 9011.751) rotate(-90)" fill="none" stroke="#fd0" stroke-width="2" stroke-dasharray="4"/>
      <path id="Trazado_892135" data-name="Trazado 892135" d="M-7170.638-2684.522s-99.888,32.422-125.673,50.991-52.65,88.63-52.65,88.63l66.684,11.626s27.711-68.983,45.239-83.2,128.446-52.473,128.446-52.473Z" transform="translate(8094.051 11608)" fill="#85c026" stroke="#567e6f" stroke-width="1"/>
      <path id="Trazado_892132" data-name="Trazado 892132" d="M-7124.492-2672.583s-120.324,34.719-144.226,54.74-40.25,78.944-40.25,78.944l-15.717-1.965s23.28-64.021,49.408-84.548,129.975-52.14,129.975-52.14Z" transform="translate(8094.051 11608)" fill="#fd0" stroke="#707070" stroke-width="1"/>
      <path id="Trazado_892134" data-name="Trazado 892134" d="M-7145.486-2677.551l3.728,9.806-17.766-5.1,3.216,9.688-17.7-4.59v9.956l-14.855-5.365v10.587l-14.3-5.222v10.188l-14.958-4.966v10.965l-14.633-6v10.432l-13.794-4.433v10.611l-13.49-3.407v10.991l-13.218-2.565,3.23,7.978h-11.672l3.228,8.37H-7289.6l7.9,8.206h-13.158l5.257,8.764h-10.817l5.56,12.015h-11.783l6.223,8.874h-11.348l9.117,9.139h-13.034l9.042,8.661h-11.88l11.88,9.781-18.4,2.233" transform="translate(8094.051 11608)" fill="none" stroke="#707070" stroke-width="1"/>
      <path id="Trazado_892137" data-name="Trazado 892137" d="M-7437.687-2538.9h23.075l6.771,40.1-18.376,20.525-18.376-20.525Z" transform="translate(8094.051 11608)" fill="#240d0a" stroke="#ccaf91" stroke-width="1"/>
      <path id="Trazado_892140" data-name="Trazado 892140" d="M-7282.3-2533.275s5.365,65.688,13.818,102.056,19.992,43.413,19.992,43.413-49.938-4.041-75.043-43.413-25.375-114.074-25.375-114.074Z" transform="translate(8094.051 11608)" fill="#85c026" stroke="#567e6f" stroke-width="1"/>
      <path id="Trazado_892138" data-name="Trazado 892138" d="M-7437.687-2538.9h23.075l6.771,40.1-18.376,20.525-18.376-20.525Z" transform="translate(8044.974 11608)" fill="#240d0a" stroke="#ccaf91" stroke-width="1"/>
      <path id="Trazado_892139" data-name="Trazado 892139" d="M-7437.687-2538.9h23.075l6.771,40.1-18.376,20.525-18.376-20.525Z" transform="translate(7714.013 12738.28) rotate(9)" fill="#240d0a" stroke="#ccaf91" stroke-width="1"/>
      <g id="Grupo_1106580" data-name="Grupo 1106580" transform="translate(693.941 9105.248) rotate(-90)">
        <path id="Polígono_5" data-name="Polígono 5" d="M11.562,0,23.124,21.968H0Z" transform="translate(23.562 42.779) rotate(180)" fill="#0058c9"/>
        <rect id="Rectángulo_402097" data-name="Rectángulo 402097" width="10.406" height="24.28" transform="translate(7.351)" fill="#0058c9"/>
      </g>
      <path id="Trazado_892141" data-name="Trazado 892141" d="M-7176.22-2596.249s20.193,97.788,2.016,149.929-74.725,58.634-74.725,58.634,72.3,38.792,125.2-25.074,16.346-183.489,16.346-183.489Z" transform="translate(8094.051 11608)" fill="#e38300" stroke="#8d7964" stroke-width="1"/>
    </g>
  </g>
</svg>
