<svg xmlns="http://www.w3.org/2000/svg" xmlns:xlink="http://www.w3.org/1999/xlink" width="817.854" height="254.692" viewBox="0 0 817.854 254.692">
  <defs>
    <filter id="Rectángulo_402174" x="430.465" y="60.597" width="107.633" height="120.741" filterUnits="userSpaceOnUse">
      <feOffset dy="3" input="SourceAlpha"/>
      <feGaussianBlur stdDeviation="3" result="blur"/>
      <feFlood flood-opacity="0.161"/>
      <feComposite operator="in" in2="blur"/>
      <feComposite in="SourceGraphic"/>
    </filter>
    <filter id="Rectángulo_402190" x="565.465" y="60.597" width="107.633" height="120.741" filterUnits="userSpaceOnUse">
      <feOffset dy="3" input="SourceAlpha"/>
      <feGaussianBlur stdDeviation="3" result="blur-2"/>
      <feFlood flood-opacity="0.161"/>
      <feComposite operator="in" in2="blur-2"/>
      <feComposite in="SourceGraphic"/>
    </filter>
    <filter id="Rectángulo_402193" x="719.004" y="0" width="97.314" height="108.914" filterUnits="userSpaceOnUse">
      <feOffset dy="3" input="SourceAlpha"/>
      <feGaussianBlur stdDeviation="3" result="blur-3"/>
      <feFlood flood-opacity="0.161"/>
      <feComposite operator="in" in2="blur-3"/>
      <feComposite in="SourceGraphic"/>
    </filter>
  </defs>
  <g id="Grupo_1107075" data-name="Grupo 1107075" transform="translate(-390.051 -10376.971)">
    <g id="Grupo_1106605" data-name="Grupo 1106605">
      <rect id="Rectángulo_402173" data-name="Rectángulo 402173" width="97.633" height="112.741" rx="8" transform="translate(825.516 10438.567)" fill="#e38300"/>
      <rect id="Rectángulo_402191" data-name="Rectángulo 402191" width="97.633" height="112.741" rx="8" transform="translate(555.516 10438.567)" fill="#e38300"/>
      <rect id="Rectángulo_402189" data-name="Rectángulo 402189" width="97.633" height="112.741" rx="8" transform="translate(960.516 10438.567)" fill="#fd0"/>
      <rect id="Rectángulo_402192" data-name="Rectángulo 402192" width="97.633" height="112.741" rx="8" transform="translate(671.516 10438.567)" fill="#fd0"/>
      <g id="Grupo_1106604" data-name="Grupo 1106604" transform="translate(638.192 10521.454) rotate(-90)">
        <path id="Polígono_5" data-name="Polígono 5" d="M20.046,0,40.091,27.716H0Z" transform="translate(40.53 53.974) rotate(180)" fill="#0058c9"/>
        <rect id="Rectángulo_402097" data-name="Rectángulo 402097" width="13.129" height="30.634" transform="translate(15.092)" fill="#0058c9"/>
      </g>
      <g transform="matrix(1, 0, 0, 1, 390.05, 10376.97)" filter="url(#Rectángulo_402174)">
        <g id="Rectángulo_402174-2" data-name="Rectángulo 402174" transform="translate(439.46 66.6)" fill="none" stroke="#4b1c16" stroke-width="1" stroke-dasharray="4 2">
          <rect width="89.633" height="102.741" rx="8" stroke="none"/>
          <rect x="0.5" y="0.5" width="88.633" height="101.741" rx="7.5" fill="none"/>
        </g>
      </g>
      <g transform="matrix(1, 0, 0, 1, 390.05, 10376.97)" filter="url(#Rectángulo_402190)">
        <g id="Rectángulo_402190-2" data-name="Rectángulo 402190" transform="translate(574.46 66.6)" fill="none" stroke="#4b1c16" stroke-width="1" stroke-dasharray="4 2">
          <rect width="89.633" height="102.741" rx="8" stroke="none"/>
          <rect x="0.5" y="0.5" width="88.633" height="101.741" rx="7.5" fill="none"/>
        </g>
      </g>
      <rect id="Rectángulo_402180" data-name="Rectángulo 402180" width="100.384" height="111.058" rx="4" transform="translate(1107.521 10454.456)" fill="#3b574d"/>
      <path id="Trazado_892154" data-name="Trazado 892154" d="M-7675-977.541l-21.051-1.042s-12.147,4.4-3.526-114.778,84.163-12.924,84.163-12.924Z" transform="translate(8094.051 11608)" fill="#85c026" stroke="#707070" stroke-width="1"/>
      <path id="Trazado_892149" data-name="Trazado 892149" d="M-7656.906-1123.082l-18.312,16.024v128.19l34.455-34.351,31.391-31.3-3.937-87.085Z" transform="translate(8094.051 11609.328)" fill="#3b574d" stroke="#3b574d" stroke-width="1"/>
      <rect id="Rectángulo_402181" data-name="Rectángulo 402181" width="92.384" height="104.844" rx="4" transform="translate(1111.521 10457.563)" fill="#85c026"/>
      <g id="Rectángulo_402182" data-name="Rectángulo 402182" transform="translate(1109.521 10455.456)" fill="none" stroke="#eaded2" stroke-width="1" stroke-dasharray="8 3">
        <rect width="96.384" height="109.058" rx="4" stroke="none"/>
        <rect x="0.5" y="0.5" width="95.384" height="108.058" rx="3.5" fill="none"/>
      </g>
      <path id="Trazado_892147" data-name="Trazado 892147" d="M-7657.954-1123.57l-17.263,15.106v119.687l62.211-56.839-3.846-85.986Z" transform="translate(8094.051 11608)" fill="#85c026" stroke="#3b574d" stroke-width="2"/>
      <rect id="Rectángulo_402194" data-name="Rectángulo 402194" width="86.394" height="99.763" rx="8" transform="translate(1114.516 10378.546)" fill="#fd0"/>
      <rect id="Rectángulo_402186" data-name="Rectángulo 402186" width="16.384" height="10.286" rx="1" transform="translate(1149.521 10561.407)" fill="#85c026"/>
      <g transform="matrix(1, 0, 0, 1, 390.05, 10376.97)" filter="url(#Rectángulo_402193)">
        <g id="Rectángulo_402193-2" data-name="Rectángulo 402193" transform="translate(728 6)" fill="none" stroke="#4b1c16" stroke-width="1" stroke-dasharray="4 2">
          <rect width="79.314" height="90.914" rx="8" stroke="none"/>
          <rect x="0.5" y="0.5" width="78.314" height="89.914" rx="7.5" fill="none"/>
        </g>
      </g>
      <path id="Trazado_892146" data-name="Trazado 892146" d="M-7686.908-1141.847s11.294-17.2,22.063-27.211,21.012-12.822,21.012-12.822l31.449,10.491,3.957,100.856s-12.253,15.409-24.122,21.789a36.386,36.386,0,0,1-23.352,3.73l-4.963-79.807Z" transform="translate(8094.051 11608)" fill="#fd0" stroke="#816e1d" stroke-width="1"/>
      <path id="Trazado_892148" data-name="Trazado 892148" d="M-7649.416-1001.758v-9l11.672-10.621v8.727Z" transform="translate(8094.519 11606)" fill="#85c026" stroke="#3b574d" stroke-width="1"/>
      <path id="Trazado_892150" data-name="Trazado 892150" d="M-7670.953-1134.818s-12.615,9.4-13.5,36.383" transform="translate(8094.051 11608)" fill="none" stroke="#fd0" stroke-width="2"/>
      <path id="Trazado_892151" data-name="Trazado 892151" d="M-7613.006-1171.463s-16.159-15.072-33.262-19.838-35.153.773-35.153.773,14.188-.007,23.624,2.166,14.117,6.529,14.117,6.529Z" transform="translate(8094.051 11608)" fill="#6e747d" stroke="#707070" stroke-width="1"/>
      <path id="Trazado_892152" data-name="Trazado 892152" d="M-7682.733-1091.736s-14.2-37.414-13.81-62.168,15.373-36.851,15.373-36.851-15.987,3.74-20.63,28.5,2.059,70.524,2.059,70.524Z" transform="translate(8094.051 11608)" fill="#6e747d" stroke="#707070" stroke-width="1"/>
      <g id="Elipse_11534" data-name="Elipse 11534" transform="translate(390.051 10508)" fill="none" stroke="#fd0" stroke-width="2">
        <ellipse cx="14.5" cy="9.5" rx="14.5" ry="9.5" stroke="none"/>
        <ellipse cx="14.5" cy="9.5" rx="13.5" ry="8.5" fill="none"/>
      </g>
      <path id="Trazado_892153" data-name="Trazado 892153" d="M-7440.823-2538.9h12.6l3.7,21.891-10.032,11.205-10.032-11.205Z" transform="translate(7837.159 13059.896)" fill="#240d0a" stroke="#ccaf91" stroke-width="1"/>
    </g>
  </g>
</svg>
