<svg xmlns="http://www.w3.org/2000/svg" width="822.074" height="276.257" viewBox="0 0 822.074 276.257">
  <g id="Grupo_1107078" data-name="Grupo 1107078" transform="translate(-388.974 -12764.681)">
    <g id="Grupo_1106671" data-name="Grupo 1106671">
      <path id="Trazado_892219" data-name="Trazado 892219" d="M55.131,0,64.31,9.9S52.554,37.868,38.09,42.277,6.452,27.533,6.452,27.533L2.5,34.143,0,11.63H15.134l-2.788,6.2S26.735,33.67,37.431,29.213,55.131,0,55.131,0Z" transform="translate(584.917 12839.466) rotate(-161)" fill="#2a3e37"/>
      <path id="Sustracción_3" data-name="Sustracción 3" d="M8115.633,11653.762h0c-2.842,0-5.97-1.817-8.809-5.116a35.273,35.273,0,0,1-6.709-13.059,33.87,33.87,0,0,1-1-15.9,14.842,14.842,0,0,1,2.269-5.557,7.234,7.234,0,0,1,3.893-2.915,6.444,6.444,0,0,1,1.771-.246c2.842,0,5.971,1.817,8.811,5.116a35.268,35.268,0,0,1,6.711,13.059,33.869,33.869,0,0,1,1,15.9,14.833,14.833,0,0,1-2.269,5.557,7.235,7.235,0,0,1-3.894,2.915A6.429,6.429,0,0,1,8115.633,11653.762Zm-8.354-38.821a3.279,3.279,0,0,0-.9.124c-1.926.552-3.22,2.87-3.644,6.529a34.166,34.166,0,0,0,1.4,12.841c2.511,8.756,7.355,15.359,11.27,15.359a3.258,3.258,0,0,0,.9-.125c1.926-.553,3.22-2.871,3.644-6.528a34.17,34.17,0,0,0-1.4-12.842c-2.511-8.756-7.357-15.358-11.271-15.358Z" transform="translate(-6914.11 1209.463)" fill="#fd0"/>
      <path id="Trazado_892201" data-name="Trazado 892201" d="M-7557.051,1258.514v-31.158l-147,53.628v25.881l79.182,24.027Z" transform="translate(8094.051 11608)" fill="#e38300" stroke="#000" stroke-width="2"/>
      <path id="Unión_29" data-name="Unión 29" d="M8135.3,11812.493c-30.089-1.155-27.045-86.83-24.738-119.971l-16.516-5.012v-25.884l147-53.626v31.158l-.086.092v78.943s2.158,33.854-15.178,57.077c-16.615,22.259-45.511,37.309-85.247,37.307Q8137.954,11812.578,8135.3,11812.493Z" transform="translate(-7031.051 1227.356)" fill="#e38300" stroke="#000" stroke-width="2"/>
      <path id="Trazado_892199" data-name="Trazado 892199" d="M-7704.051,1296.958h22.774l-3.641,101.227s-9.93-27.113-14.713-52.42A273.666,273.666,0,0,1-7704.051,1296.958Z" transform="translate(8094.051 11608)" fill="#669bdf" stroke="#0058c9" stroke-width="2"/>
      <path id="Trazado_892213" data-name="Trazado 892213" d="M-7704.051,1296.958h22.774l-3.641,113.308s-11.273-29.47-16.056-57.8A274.362,274.362,0,0,1-7704.051,1296.958Z" transform="translate(8767.051 11595.919)" fill="#e38300" stroke="#000" stroke-width="2"/>
      <path id="Trazado_892196" data-name="Trazado 892196" d="M-6955.919,618.141l-129.332,46.017s-13.646,131.426,23.671,132.861c42.437,1.377,73.146-14,90.482-37.222s15.179-57.077,15.179-57.077Z" transform="translate(7492.834 12242.832)" fill="#669bdf" stroke="#0058c9" stroke-width="2"/>
      <path id="Trazado_892195" data-name="Trazado 892195" d="M4.4,0H19.106l4.315,55.955L11.71,84.6,0,55.955Z" transform="matrix(0.996, 0.087, -0.087, 0.996, 402.777, 12892.877)" fill="#240d0a" stroke="#ccaf91" stroke-width="1"/>
      <path id="Trazado_892200" data-name="Trazado 892200" d="M-7686.835,1285.6l128.64-55.775" transform="translate(8094.051 11608)" fill="none" stroke="#000" stroke-width="2"/>
      <g id="Grupo_1106669" data-name="Grupo 1106669" transform="translate(20)">
        <path id="Unión_27" data-name="Unión 27" d="M8135.307,11812.493c-30.091-1.155-27.046-86.829-24.738-119.97l-16.519-5.013v-25.884l147-53.626v31.158l-.083.089v78.946s2.155,33.854-15.181,57.077c-16.615,22.259-45.508,37.309-85.244,37.307Q8137.957,11812.578,8135.307,11812.493Z" transform="translate(-7523.494 1227.356)" fill="#e38300" stroke="#000" stroke-width="2"/>
        <path id="Trazado_892203" data-name="Trazado 892203" d="M-7704.051,1296.958h22.774l-3.641,112.58s-11.646-29.367-16.43-57.512A254.788,254.788,0,0,1-7704.051,1296.958Z" transform="translate(8274.607 11596.646)" fill="#e38300" stroke="#000" stroke-width="2"/>
        <path id="Trazado_892205" data-name="Trazado 892205" d="M4.4,0H19.106l4.315,55.955L11.71,84.6,0,55.955Z" transform="matrix(0.996, 0.087, -0.087, 0.996, 583.334, 12892.877)" fill="#240d0a" stroke="#ccaf91" stroke-width="1"/>
        <path id="Trazado_892206" data-name="Trazado 892206" d="M-7686.835,1285.6l128.64-55.775" transform="translate(8274.607 11608)" fill="none" stroke="#000" stroke-width="2"/>
      </g>
      <g id="Grupo_1106670" data-name="Grupo 1106670">
        <path id="Unión_28" data-name="Unión 28" d="M8135.3,11812.493c-30.089-1.155-27.045-86.83-24.738-119.971l-16.516-5.012v-25.884l147-53.626v31.158l-.086.092v78.943s2.158,33.854-15.178,57.077c-16.615,22.259-45.511,37.309-85.247,37.307Q8137.954,11812.578,8135.3,11812.493Z" transform="translate(-7278.453 1227.356)" fill="#e38300" stroke="#000" stroke-width="2"/>
        <path id="Trazado_892208" data-name="Trazado 892208" d="M-7704.051,1296.958h22.774l-3.641,112.581s-11.378-29.907-16.162-58.052A260.735,260.735,0,0,1-7704.051,1296.958Z" transform="translate(8519.648 11596.646)" fill="#e38300" stroke="#000" stroke-width="2"/>
        <path id="Trazado_892210" data-name="Trazado 892210" d="M4.4,0H19.106l4.315,55.955L11.71,84.6,0,55.955Z" transform="matrix(0.996, 0.087, -0.087, 0.996, 828.375, 12892.877)" fill="#240d0a" stroke="#ccaf91" stroke-width="1"/>
        <path id="Trazado_892211" data-name="Trazado 892211" d="M-7686.835,1285.6l128.64-55.775" transform="translate(8519.648 11608)" fill="none" stroke="#000" stroke-width="2"/>
      </g>
      <path id="Trazado_892216" data-name="Trazado 892216" d="M-7686.835,1285.6l128.64-55.775" transform="translate(8767.051 11608)" fill="none" stroke="#000" stroke-width="2"/>
      <path id="Sustracción_2" data-name="Sustracción 2" d="M8115.052,11650a20.934,20.934,0,1,1,8.174-1.65A20.883,20.883,0,0,1,8115.052,11650Zm0-36a15,15,0,1,0,10.605,4.394A14.907,14.907,0,0,0,8115.052,11614Z" transform="translate(-7026 1258)" fill="#fd0"/>
      <path id="Trazado_892215" data-name="Trazado 892215" d="M4.4,0H19.106l4.315,55.955L11.71,84.6,0,55.955Z" transform="matrix(0.996, 0.087, -0.087, 0.996, 1075.777, 12892.877)" fill="#240d0a" stroke="#ccaf91" stroke-width="1"/>
      <g id="Grupo_1106668" data-name="Grupo 1106668" transform="translate(0 3)">
        <path id="Trazado_892217" data-name="Trazado 892217" d="M-6902.041,1165.608s-27.347-26.118-48.738-40.6-36.827-17.32-36.827-17.32,19.7-6.931,43.029,7.548,50.288,50.368,50.288,50.368Z" transform="translate(8091.521 11656.148)" fill="#6e747d" stroke="#707070" stroke-width="1"/>
        <path id="Trazado_892218" data-name="Trazado 892218" d="M-6996.436,1217.706s-9.26-45.759-7.247-73.252,15.3-36.72,15.3-36.72-18.062-.593-23.062,27.49,3.061,84.842,3.061,84.842Z" transform="translate(8094.051 11656.148)" fill="#6e747d" stroke="#707070" stroke-width="1"/>
      </g>
    </g>
  </g>
</svg>
