<svg xmlns="http://www.w3.org/2000/svg" width="819.154" height="158" viewBox="0 0 819.154 158">
  <g id="Grupo_1107080" data-name="Grupo 1107080" transform="translate(-390.896 -14148.932)">
    <path id="Trazado_895479" data-name="Trazado 895479" d="M0,0H46V46H0Z" transform="translate(454.051 14148.932)" fill="#669bdf"/>
    <path id="Trazado_895480" data-name="Trazado 895480" d="M0,0H132V83H0Z" transform="translate(513.051 14148.932)" fill="#e38300"/>
    <path id="Trazado_895481" data-name="Trazado 895481" d="M0,0H132V83H0Z" transform="translate(650.051 14148.932)" fill="#e38300"/>
    <path id="Trazado_895482" data-name="Trazado 895482" d="M0,0H132V83H0Z" transform="translate(798.051 14148.932)" fill="#e38300"/>
    <path id="Trazado_895483" data-name="Trazado 895483" d="M0,0H132V83H0Z" transform="translate(937.051 14148.932)" fill="#e38300"/>
    <path id="Trazado_895484" data-name="Trazado 895484" d="M0,0H132V83H0Z" transform="translate(1078.051 14148.932)" fill="#e38300"/>
    <path id="Trazado_895485" data-name="Trazado 895485" d="M0,0H122V83H0Z" transform="translate(518.051 14215.932)" fill="#669bdf"/>
    <path id="Trazado_895486" data-name="Trazado 895486" d="M0,0H122V53H0Z" transform="translate(655.051 14201.932)" fill="#669bdf"/>
    <path id="Trazado_895487" data-name="Trazado 895487" d="M0,0H122V92H0Z" transform="translate(803.051 14196.932)" fill="#669bdf"/>
    <path id="Trazado_895488" data-name="Trazado 895488" d="M0,0H46V46H0Z" transform="translate(454.051 14204.932)" fill="#e38300"/>
    <path id="Trazado_895489" data-name="Trazado 895489" d="M0,0H46V46H0Z" transform="translate(454.051 14260.932)" fill="#655647"/>
    <path id="Trazado_892226" data-name="Trazado 892226" d="M-7563.142,2562.069h98.446" transform="translate(8092.692 11604.932)" fill="none" stroke="#655647" stroke-width="3"/>
    <path id="Trazado_892230" data-name="Trazado 892230" d="M-7563.142,2562.069h98.446" transform="translate(8229.692 11604.932)" fill="none" stroke="#655647" stroke-width="3"/>
    <path id="Trazado_892233" data-name="Trazado 892233" d="M-7563.142,2562.069h98.446" transform="translate(8377.692 11604.932)" fill="none" stroke="#655647" stroke-width="3"/>
    <path id="Trazado_892236" data-name="Trazado 892236" d="M-7563.142,2562.069h98.446" transform="translate(8516.692 11604.932)" fill="none" stroke="#655647" stroke-width="3"/>
    <path id="Trazado_892227" data-name="Trazado 892227" d="M-7563.142,2562.069h98.446" transform="translate(8092.692 11619.932)" fill="none" stroke="#655647" stroke-width="3"/>
    <path id="Trazado_895490" data-name="Trazado 895490" d="M0,0H122V94H0Z" transform="translate(1083.051 14161.932)" fill="#669bdf"/>
    <path id="Trazado_892231" data-name="Trazado 892231" d="M-7563.142,2562.069h98.446" transform="translate(8229.692 11619.932)" fill="none" stroke="#655647" stroke-width="3"/>
    <path id="Trazado_892234" data-name="Trazado 892234" d="M-7563.142,2562.069h98.446" transform="translate(8377.692 11619.932)" fill="none" stroke="#655647" stroke-width="3"/>
    <path id="Trazado_892237" data-name="Trazado 892237" d="M-7563.142,2562.069h98.446" transform="translate(8516.692 11619.932)" fill="none" stroke="#655647" stroke-width="3"/>
    <path id="Trazado_892228" data-name="Trazado 892228" d="M-7563.142,2562.069h98.446" transform="translate(8092.692 11632.863)" fill="none" stroke="#655647" stroke-width="3"/>
    <path id="Trazado_892232" data-name="Trazado 892232" d="M-7563.142,2562.069h98.446" transform="translate(8229.692 11632.863)" fill="none" stroke="#655647" stroke-width="3"/>
    <path id="Trazado_892235" data-name="Trazado 892235" d="M-7563.142,2562.069h98.446" transform="translate(8377.692 11632.863)" fill="none" stroke="#655647" stroke-width="3"/>
    <path id="Trazado_892238" data-name="Trazado 892238" d="M-7563.142,2562.069h98.446" transform="translate(8516.692 11632.863)" fill="none" stroke="#655647" stroke-width="3"/>
    <path id="Trazado_892241" data-name="Trazado 892241" d="M-7563.142,2562.069h122" transform="translate(8646.192 11650.863)" fill="none" stroke="#0058c9" stroke-width="1"/>
    <path id="Trazado_892242" data-name="Trazado 892242" d="M-7563.142,2562.069h122" transform="translate(8646.192 11666.863)" fill="none" stroke="#0058c9" stroke-width="1"/>
    <path id="Trazado_892243" data-name="Trazado 892243" d="M-7563.142,2562.069h122" transform="translate(8646.192 11678.863)" fill="none" stroke="#0058c9" stroke-width="1"/>
    <path id="Trazado_895491" data-name="Trazado 895491" d="M0,0H122V65H0Z" transform="translate(942.051 14189.932)" fill="#669bdf"/>
    <path id="Trazado_892229" data-name="Trazado 892229" d="M-7563.142,2562.069h98.446" transform="translate(8092.692 11645.795)" fill="none" stroke="#655647" stroke-width="3"/>
    <path id="Trazado_892244" data-name="Trazado 892244" d="M-7563.142,2562.069h122" transform="translate(8505.192 11678.863)" fill="none" stroke="#0058c9" stroke-width="1"/>
    <path id="Trazado_895492" data-name="Trazado 895492" d="M8.675,11.577H3.524V17H1.3V4.2h8.13V6H3.524V9.8h5.15Zm1.723.58a5.607,5.607,0,0,1,.554-2.518,4.044,4.044,0,0,1,1.556-1.723,4.383,4.383,0,0,1,2.3-.6,4.154,4.154,0,0,1,3.125,1.239,4.874,4.874,0,0,1,1.3,3.287l.009.5a5.658,5.658,0,0,1-.541,2.514,4,4,0,0,1-1.547,1.714,4.415,4.415,0,0,1-2.325.606,4.125,4.125,0,0,1-3.221-1.34A5.133,5.133,0,0,1,10.4,12.263Zm2.136.185a3.832,3.832,0,0,0,.606,2.3,1.971,1.971,0,0,0,1.688.831,1.95,1.95,0,0,0,1.683-.844,4.232,4.232,0,0,0,.6-2.47,3.782,3.782,0,0,0-.62-2.285,2.089,2.089,0,0,0-3.344-.013A4.152,4.152,0,0,0,12.533,12.342Zm13.491-2.9a5.285,5.285,0,0,0-.87-.07A1.959,1.959,0,0,0,23.177,10.5V17H21.041V7.49H23.08l.053,1.063a2.406,2.406,0,0,1,2.145-1.239,2,2,0,0,1,.756.123Zm6.328,0a5.285,5.285,0,0,0-.87-.07A1.959,1.959,0,0,0,29.5,10.5V17H27.369V7.49h2.039l.053,1.063a2.406,2.406,0,0,1,2.145-1.239,2,2,0,0,1,.756.123Zm.633,2.716a5.607,5.607,0,0,1,.554-2.518,4.044,4.044,0,0,1,1.556-1.723,4.383,4.383,0,0,1,2.3-.6,4.154,4.154,0,0,1,3.125,1.239,4.874,4.874,0,0,1,1.3,3.287l.009.5a5.658,5.658,0,0,1-.541,2.514,4,4,0,0,1-1.547,1.714,4.415,4.415,0,0,1-2.325.606,4.125,4.125,0,0,1-3.221-1.34,5.133,5.133,0,0,1-1.208-3.573Zm2.136.185a3.832,3.832,0,0,0,.606,2.3,1.971,1.971,0,0,0,1.688.831,1.95,1.95,0,0,0,1.683-.844,4.232,4.232,0,0,0,.6-2.47,3.782,3.782,0,0,0-.62-2.285,2.089,2.089,0,0,0-3.344-.013A4.152,4.152,0,0,0,35.121,12.342Z" transform="translate(390 14159.932)" fill="#12263f"/>
    <path id="Trazado_895493" data-name="Trazado 895493" d="M11.065,12.834a4.621,4.621,0,0,1-1.512,3.195,5.154,5.154,0,0,1-3.507,1.147,4.99,4.99,0,0,1-2.694-.725,4.759,4.759,0,0,1-1.8-2.061,7.438,7.438,0,0,1-.659-3.1v-1.2A7.491,7.491,0,0,1,1.538,6.9,4.835,4.835,0,0,1,3.379,4.774a5.136,5.136,0,0,1,2.773-.747,4.946,4.946,0,0,1,3.41,1.147,4.793,4.793,0,0,1,1.5,3.248H8.851a3.161,3.161,0,0,0-.8-1.991A2.658,2.658,0,0,0,6.152,5.82,2.6,2.6,0,0,0,3.924,6.88a5.3,5.3,0,0,0-.8,3.11v1.135a5.62,5.62,0,0,0,.743,3.167,2.464,2.464,0,0,0,2.175,1.091,2.875,2.875,0,0,0,1.969-.589,3.071,3.071,0,0,0,.835-1.96Zm7.541,3.234a3.312,3.312,0,0,1-2.672,1.107,2.952,2.952,0,0,1-2.342-.905,3.851,3.851,0,0,1-.8-2.619V7.49h2.136v6.135q0,1.811,1.5,1.811a2.111,2.111,0,0,0,2.1-1.116V7.49h2.136V17H18.659Zm8.429,1.107A4.419,4.419,0,0,1,23.744,15.9a4.639,4.639,0,0,1-1.261-3.406v-.264a5.706,5.706,0,0,1,.549-2.544,4.181,4.181,0,0,1,1.542-1.745,4.078,4.078,0,0,1,2.215-.624,3.733,3.733,0,0,1,3,1.239,5.24,5.24,0,0,1,1.059,3.507v.861H24.636a2.856,2.856,0,0,0,.787,1.863,2.362,2.362,0,0,0,1.736.686,2.892,2.892,0,0,0,2.391-1.187l1.151,1.1a3.845,3.845,0,0,1-1.525,1.323A4.774,4.774,0,0,1,27.035,17.176ZM26.78,9.028a1.8,1.8,0,0,0-1.419.615,3.189,3.189,0,0,0-.69,1.714H28.74V11.2a2.6,2.6,0,0,0-.571-1.622A1.785,1.785,0,0,0,26.78,9.028Zm10.705.413a5.285,5.285,0,0,0-.87-.07A1.959,1.959,0,0,0,34.638,10.5V17H32.5V7.49h2.039l.053,1.063a2.406,2.406,0,0,1,2.145-1.239,2,2,0,0,1,.756.123Zm.633,2.716a5.607,5.607,0,0,1,.554-2.518,4.044,4.044,0,0,1,1.556-1.723,4.383,4.383,0,0,1,2.3-.6,4.154,4.154,0,0,1,3.125,1.239,4.874,4.874,0,0,1,1.3,3.287l.009.5a5.658,5.658,0,0,1-.541,2.514,4,4,0,0,1-1.547,1.714,4.415,4.415,0,0,1-2.325.606,4.125,4.125,0,0,1-3.221-1.34,5.133,5.133,0,0,1-1.208-3.573Zm2.136.185a3.832,3.832,0,0,0,.606,2.3,1.971,1.971,0,0,0,1.688.831,1.95,1.95,0,0,0,1.683-.844,4.232,4.232,0,0,0,.6-2.47,3.782,3.782,0,0,0-.62-2.285,2.089,2.089,0,0,0-3.344-.013A4.152,4.152,0,0,0,40.254,12.342Z" transform="translate(390 14215.932)" fill="#12263f"/>
    <path id="Trazado_895494" data-name="Trazado 895494" d="M11.514,10.936a7.851,7.851,0,0,1-.65,3.3A4.918,4.918,0,0,1,9,16.416a5.113,5.113,0,0,1-2.782.76,5.125,5.125,0,0,1-2.773-.76,4.993,4.993,0,0,1-1.881-2.167A7.606,7.606,0,0,1,.9,11.006v-.721a7.784,7.784,0,0,1,.664-3.3A4.987,4.987,0,0,1,3.432,4.788a5.1,5.1,0,0,1,2.773-.76,5.142,5.142,0,0,1,2.773.751,4.924,4.924,0,0,1,1.868,2.162,7.767,7.767,0,0,1,.668,3.283ZM9.29,10.268a5.594,5.594,0,0,0-.8-3.261A2.631,2.631,0,0,0,6.205,5.873,2.623,2.623,0,0,0,3.951,7,5.486,5.486,0,0,0,3.12,10.2v.738A5.552,5.552,0,0,0,3.942,14.2a2.646,2.646,0,0,0,2.281,1.151,2.615,2.615,0,0,0,2.272-1.125,5.671,5.671,0,0,0,.8-3.287Zm3.832,1.907a5.654,5.654,0,0,1,1.02-3.529,3.267,3.267,0,0,1,2.733-1.332,3.1,3.1,0,0,1,2.443,1.055V3.5h2.136V17H19.521l-.105-.984a3.148,3.148,0,0,1-2.558,1.16,3.248,3.248,0,0,1-2.7-1.345A5.861,5.861,0,0,1,13.122,12.175Zm2.136.185a3.958,3.958,0,0,0,.558,2.263,1.811,1.811,0,0,0,1.586.813,2.017,2.017,0,0,0,1.916-1.169V10.206a1.986,1.986,0,0,0-1.9-1.143,1.824,1.824,0,0,0-1.6.822A4.408,4.408,0,0,0,15.258,12.359ZM27.87,17.176A4.419,4.419,0,0,1,24.579,15.9a4.639,4.639,0,0,1-1.261-3.406v-.264a5.706,5.706,0,0,1,.549-2.544,4.181,4.181,0,0,1,1.542-1.745,4.078,4.078,0,0,1,2.215-.624,3.733,3.733,0,0,1,3,1.239,5.24,5.24,0,0,1,1.059,3.507v.861H25.471a2.856,2.856,0,0,0,.787,1.863,2.362,2.362,0,0,0,1.736.686,2.892,2.892,0,0,0,2.391-1.187l1.151,1.1a3.845,3.845,0,0,1-1.525,1.323A4.774,4.774,0,0,1,27.87,17.176Zm-.255-8.147a1.8,1.8,0,0,0-1.419.615,3.189,3.189,0,0,0-.69,1.714h4.069V11.2A2.6,2.6,0,0,0,29,9.578,1.785,1.785,0,0,0,27.615,9.028ZM35.323,7.49l.062,1.1a3.419,3.419,0,0,1,2.769-1.274q2.971,0,3.023,3.4V17H39.041V10.839A1.958,1.958,0,0,0,38.65,9.5a1.645,1.645,0,0,0-1.279-.435,2.058,2.058,0,0,0-1.925,1.169V17H33.311V7.49ZM49.034,17a3.3,3.3,0,0,1-.246-.888,3.593,3.593,0,0,1-4.834.246,2.615,2.615,0,0,1-.905-2.021A2.7,2.7,0,0,1,44.178,12a5.473,5.473,0,0,1,3.23-.813h1.31v-.624A1.666,1.666,0,0,0,48.3,9.384a1.638,1.638,0,0,0-1.257-.444,1.881,1.881,0,0,0-1.2.365,1.129,1.129,0,0,0-.466.927H43.251a2.37,2.37,0,0,1,.519-1.463A3.455,3.455,0,0,1,45.18,7.7a4.955,4.955,0,0,1,1.991-.387,3.99,3.99,0,0,1,2.663.839,2.993,2.993,0,0,1,1.02,2.36V14.8a4.861,4.861,0,0,0,.36,2.048V17Zm-2.347-1.538a2.429,2.429,0,0,0,1.191-.308,2.055,2.055,0,0,0,.839-.826V12.535H47.566a3.148,3.148,0,0,0-1.784.413,1.338,1.338,0,0,0-.6,1.169,1.248,1.248,0,0,0,.409.98A1.583,1.583,0,0,0,46.688,15.462Z" transform="translate(390 14271.932)" fill="#12263f"/>
  </g>
</svg>
