<svg xmlns="http://www.w3.org/2000/svg" width="85.044" height="94.658" viewBox="0 0 85.044 94.658">
  <g id="Grupo_1107122" data-name="Grupo 1107122" transform="translate(-705 -1132)">
    <g id="bolsillo-2" transform="translate(705 1132)">
      <path id="Trazado_891097" data-name="Trazado 891097" d="M83.2,0H20.337a1.849,1.849,0,1,0,0,3.7h61.01V7.4c-.024,0-.047,0-.071,0h-3.7a1.849,1.849,0,1,0,0,3.7h3.7l.071,0V31.984L42.522,46.1,3.7,31.984V11.093H7.324a1.849,1.849,0,1,0,0-3.7H3.7V3.7H5.546a1.849,1.849,0,1,0,0-3.7h-3.7A1.849,1.849,0,0,0,0,1.849V78.018a1.848,1.848,0,0,0,1.217,1.738L41.89,94.546a1.851,1.851,0,0,0,1.264,0L83.827,79.755a1.849,1.849,0,0,0,1.217-1.738V1.849A1.849,1.849,0,0,0,83.2,0ZM42.522,90.842,3.7,76.723v-40.8l3.7,1.345v2.4a1.849,1.849,0,1,0,3.7,0V38.608l30.8,11.2a1.851,1.851,0,0,0,1.264,0l30.8-11.2v1.058a1.849,1.849,0,1,0,3.7,0v-2.4l3.7-1.345v40.8Zm0,0" fill="#567e6f"/>
      <path id="Trazado_891098" data-name="Trazado 891098" d="M159.265,426.56l-3.474-1.264a1.849,1.849,0,1,0-1.264,3.474L158,430.034a1.848,1.848,0,1,0,1.263-3.474Zm0,0" transform="translate(-124.966 -346.577)" fill="#567e6f"/>
      <path id="Trazado_891099" data-name="Trazado 891099" d="M41.849,344.551A1.849,1.849,0,0,0,40,346.4v3.7a1.849,1.849,0,1,0,3.7,0v-3.7A1.849,1.849,0,0,0,41.849,344.551Zm0,0" transform="translate(-32.605 -280.851)" fill="#567e6f"/>
      <path id="Trazado_891100" data-name="Trazado 891100" d="M84.082,399.22l-3.474-1.264a1.849,1.849,0,1,0-1.264,3.474l3.475,1.264a1.848,1.848,0,0,0,1.263-3.474Zm0,0" transform="translate(-63.682 -324.292)" fill="#567e6f"/>
      <path id="Trazado_891101" data-name="Trazado 891101" d="M41.849,264.551A1.849,1.849,0,0,0,40,266.4v3.7a1.849,1.849,0,1,0,3.7,0v-3.7A1.849,1.849,0,0,0,41.849,264.551Zm0,0" transform="translate(-32.605 -215.641)" fill="#567e6f"/>
      <path id="Trazado_891102" data-name="Trazado 891102" d="M180,113.283a9.244,9.244,0,1,0,9.244-9.244A9.254,9.254,0,0,0,180,113.283Zm14.79,0a5.546,5.546,0,1,1-5.546-5.546A5.552,5.552,0,0,1,194.79,113.283Zm0,0" transform="translate(-146.722 -84.805)" fill="#567e6f"/>
      <path id="Trazado_891103" data-name="Trazado 891103" d="M255.164,43.7a1.849,1.849,0,1,0,0-3.7h-3.7a1.849,1.849,0,1,0,0,3.7Zm0,0" transform="translate(-203.468 -32.605)" fill="#567e6f"/>
      <path id="Trazado_891104" data-name="Trazado 891104" d="M175.164,40h-3.7a1.849,1.849,0,1,0,0,3.7h3.7a1.849,1.849,0,1,0,0-3.7Zm0,0" transform="translate(-138.259 -32.605)" fill="#567e6f"/>
      <path id="Trazado_891105" data-name="Trazado 891105" d="M91.466,43.7h3.7a1.849,1.849,0,0,0,0-3.7h-3.7a1.849,1.849,0,1,0,0,3.7Zm0,0" transform="translate(-73.049 -32.605)" fill="#567e6f"/>
      <path id="Trazado_891106" data-name="Trazado 891106" d="M335.164,43.7a1.849,1.849,0,1,0,0-3.7h-3.7a1.849,1.849,0,0,0,0,3.7Zm0,0" transform="translate(-268.678 -32.605)" fill="#567e6f"/>
      <path id="Trazado_891107" data-name="Trazado 891107" d="M272.58,425.3l-3.475,1.264a1.849,1.849,0,1,0,1.264,3.474l3.475-1.263a1.849,1.849,0,0,0-1.264-3.475Zm0,0" transform="translate(-218.361 -346.577)" fill="#567e6f"/>
      <path id="Trazado_891108" data-name="Trazado 891108" d="M401.849,344.551A1.849,1.849,0,0,0,400,346.4v3.7a1.849,1.849,0,1,0,3.7,0v-3.7A1.849,1.849,0,0,0,401.849,344.551Zm0,0" transform="translate(-326.049 -280.851)" fill="#567e6f"/>
      <path id="Trazado_891109" data-name="Trazado 891109" d="M347.764,397.955l-3.475,1.264a1.849,1.849,0,1,0,1.264,3.474l3.475-1.264a1.849,1.849,0,0,0-1.264-3.474Zm0,0" transform="translate(-279.645 -324.291)" fill="#567e6f"/>
      <path id="Trazado_891110" data-name="Trazado 891110" d="M401.849,264.551A1.849,1.849,0,0,0,400,266.4v3.7a1.849,1.849,0,1,0,3.7,0v-3.7A1.849,1.849,0,0,0,401.849,264.551Zm0,0" transform="translate(-326.049 -215.641)" fill="#567e6f"/>
      <path id="Trazado_891111" data-name="Trazado 891111" d="M221.849,449.43A1.849,1.849,0,0,0,220,451.279h0a1.849,1.849,0,1,0,1.849-1.85Zm0,0" transform="translate(-179.327 -366.34)" fill="#567e6f"/>
      <path id="Trazado_891112" data-name="Trazado 891112" d="M61.85,3.7a1.849,1.849,0,0,0,0-3.7h0a1.849,1.849,0,1,0,0,3.7Zm0,0" transform="translate(-48.907)" fill="#567e6f"/>
    </g>
  </g>
</svg>
