<svg xmlns="http://www.w3.org/2000/svg" width="819.104" height="169.406" viewBox="0 0 819.104 169.406">
  <g id="Grupo_1107082" data-name="Grupo 1107082" transform="translate(-390.896 -16412.785)">
    <g id="Grupo_1106771" data-name="Grupo 1106771" transform="translate(7201.145 11956.616)">
      <rect id="Rectángulo_402329" data-name="Rectángulo 402329" width="161.906" height="169.405" transform="translate(-6153.051 4456.171)" fill="#669bdf"/>
      <g id="Rectángulo_402330" data-name="Rectángulo 402330" transform="translate(-6151.678 4457.629)" fill="none" stroke="#ddebfd" stroke-width="1" opacity="0.199">
        <rect width="159.161" height="166.489" stroke="none"/>
        <rect x="0.5" y="0.5" width="158.161" height="165.489" fill="none"/>
      </g>
    </g>
    <path id="Trazado_895495" data-name="Trazado 895495" d="M0,0H70.151V44.3H0Z" transform="translate(623.094 16443.129)" fill="#e38300"/>
    <path id="Trazado_895496" data-name="Trazado 895496" d="M0,0H70.151V44.3H0Z" transform="translate(703.094 16443.129)" fill="#e38300"/>
    <g id="Grupo_1106774" data-name="Grupo 1106774" transform="translate(6676.145 12051.616)">
      <rect id="Rectángulo_402329-2" data-name="Rectángulo 402329" width="73.955" height="43.966" transform="translate(-6153.051 4456.171)" fill="#669bdf"/>
      <g id="Rectángulo_402330-2" data-name="Rectángulo 402330" transform="translate(-6151.678 4457.629)" fill="none" stroke="#ddebfd" stroke-width="1" opacity="0.199">
        <rect width="71.21" height="41.05" stroke="none"/>
        <rect x="0.5" y="0.5" width="70.21" height="40.05" fill="none"/>
      </g>
    </g>
    <g id="Grupo_1106777" data-name="Grupo 1106777" transform="translate(6779.145 11990.542)">
      <rect id="Rectángulo_402329-3" data-name="Rectángulo 402329" width="64.151" height="37.139" transform="translate(-6153.051 4456.171)" fill="#669bdf"/>
      <g id="Rectángulo_402330-3" data-name="Rectángulo 402330" transform="translate(-6151.678 4457.629)" fill="none" stroke="#ddebfd" stroke-width="1" opacity="0.199">
        <rect width="61.406" height="34.223" stroke="none"/>
        <rect x="0.5" y="0.5" width="60.406" height="33.223" fill="none"/>
      </g>
    </g>
    <g id="Grupo_1106775" data-name="Grupo 1106775" transform="translate(6673.145 11983.616)">
      <rect id="Rectángulo_402329-4" data-name="Rectángulo 402329" width="79.802" height="50.892" transform="translate(-6153.051 4456.171)" fill="#e38300"/>
      <g id="Rectángulo_402330-4" data-name="Rectángulo 402330" transform="translate(-6151.678 4457.629)" fill="none" stroke="#ddebfd" stroke-width="1" opacity="0.199">
        <rect width="77.057" height="47.976" stroke="none"/>
        <rect x="0.5" y="0.5" width="76.057" height="46.976" fill="none"/>
      </g>
    </g>
    <g id="Grupo_1106776" data-name="Grupo 1106776" transform="translate(6947.934 11986.96)">
      <rect id="Rectángulo_402329-5" data-name="Rectángulo 402329" width="65.013" height="45.082" transform="translate(-6153.051 4456.171)" fill="#e38300"/>
      <g id="Rectángulo_402330-5" data-name="Rectángulo 402330" transform="translate(-6143.678 4457.629)" fill="none" stroke="#ddebfd" stroke-width="1" opacity="0.199">
        <rect width="46.268" height="42.166" stroke="none"/>
        <rect x="0.5" y="0.5" width="45.268" height="41.166" fill="none"/>
      </g>
    </g>
    <g id="Grupo_1106772" data-name="Grupo 1106772" transform="translate(7032.145 11956.616)">
      <rect id="Rectángulo_402329-6" data-name="Rectángulo 402329" width="161.906" height="169.405" transform="translate(-6153.051 4456.171)" fill="#669bdf"/>
      <g id="Rectángulo_402330-6" data-name="Rectángulo 402330" transform="translate(-6151.678 4457.629)" fill="none" stroke="#ddebfd" stroke-width="1" opacity="0.199">
        <rect width="159.161" height="166.489" stroke="none"/>
        <rect x="0.5" y="0.5" width="158.161" height="165.489" fill="none"/>
      </g>
    </g>
    <g id="Grupo_1106769" data-name="Grupo 1106769" transform="translate(408.361 615.925)">
      <rect id="Rectángulo_402332" data-name="Rectángulo 402332" width="75.377" height="52.038" transform="translate(719.318 15845.599)" fill="#e38300"/>
      <rect id="Rectángulo_402338" data-name="Rectángulo 402338" width="75.377" height="52.038" transform="translate(648.768 15845.599)" fill="#e38300"/>
      <rect id="Rectángulo_402333" data-name="Rectángulo 402333" width="145.927" height="58.652" transform="translate(648.768 15897.639)" fill="#e38300"/>
      <path id="Trazado_892226" data-name="Trazado 892226" d="M-7563.142,2562.069h61.75" transform="translate(8289.779 13302.081)" fill="none" stroke="#655647" stroke-width="3"/>
      <path id="Trazado_892256" data-name="Trazado 892256" d="M-7563.142,2562.069h61.75" transform="translate(8289.779 13310.313)" fill="none" stroke="#655647" stroke-width="3"/>
      <path id="Trazado_892257" data-name="Trazado 892257" d="M-7563.142,2562.069h61.75" transform="translate(8289.779 13318.548)" fill="none" stroke="#655647" stroke-width="3"/>
      <path id="Trazado_892258" data-name="Trazado 892258" d="M-7563.142,2562.069h61.75" transform="translate(8289.779 13326.781)" fill="none" stroke="#655647" stroke-width="3"/>
      <path id="Trazado_892249" data-name="Trazado 892249" d="M-7286,3726.7h145.927" transform="translate(7934.767 12178.905)" fill="none" stroke="#ddebfd" stroke-width="2" opacity="0.293"/>
      <path id="Trazado_892262" data-name="Trazado 892262" d="M-7286,3726.7h72.964" transform="translate(7934.767 12123.905)" fill="none" stroke="#ddebfd" stroke-width="2" opacity="0.293"/>
      <path id="Trazado_892263" data-name="Trazado 892263" d="M-7286,3726.7h52.038" transform="translate(-3073.447 8611.637) rotate(-90)" fill="none" stroke="#ddebfd" stroke-width="2" opacity="0.293"/>
      <path id="Trazado_892264" data-name="Trazado 892264" d="M-7286,3726.7h52.038" transform="translate(-3009.447 8611.637) rotate(-90)" fill="none" stroke="#ddebfd" stroke-width="2" opacity="0.293"/>
      <path id="Trazado_892259" data-name="Trazado 892259" d="M-7286,3726.7h145.927" transform="translate(7934.767 12171.368)" fill="#e38300" stroke="#ac680c" stroke-width="2"/>
      <path id="Trazado_892250" data-name="Trazado 892250" d="M-7286,3726.7h145.927" transform="translate(7934.767 12196.702)" fill="none" stroke="#ddebfd" stroke-width="2" opacity="0.293"/>
      <rect id="Rectángulo_402325" data-name="Rectángulo 402325" width="145.926" height="13.422" transform="translate(648.768 15907.806)" fill="#fd0"/>
      <g id="Grupo_1106737" data-name="Grupo 1106737" transform="translate(649.98 15912.474)">
        <path id="Trazado_891997" data-name="Trazado 891997" d="M-7367.558-8508.527l3.479,3.481,3.733-3.481,3.481,3.481,3.479-3.481,3.482,3.481,3.48-3.481,3.482,3.481,3.481-3.481,3.48,3.481,3.481-3.481,3.481,3.481,3.481-3.481,3.479,3.481,3.481-3.481,3.482,3.481,3.48-3.481,3.482,3.481,3.479-3.481,3.482,3.481,3.482-3.481,3.479,3.481,2.125-2.124" transform="translate(7367.558 8508.527)" fill="none" stroke="#727997" stroke-width="2"/>
        <path id="Trazado_891998" data-name="Trazado 891998" d="M-7367.558-8508.527l3.421,3.481,3.671-3.481,3.422,3.481,3.423-3.481,3.423,3.481,3.422-3.481,3.423,3.481,3.423-3.481,3.423,3.481,3.423-3.481,3.422,3.481,3.423-3.481,3.422,3.481,3.423-3.481,3.423,3.481,3.422-3.481,3.424,3.481,3.421-3.481,3.422,3.481,3.424-3.481,3.422,3.481,2.089-2.124" transform="translate(7437.503 8508.527)" fill="none" stroke="#727997" stroke-width="2"/>
      </g>
      <path id="Trazado_892248" data-name="Trazado 892248" d="M13.129,2.143V5.672H4.573L0,2.143,6.477,0,9.9,1.1Z" transform="matrix(0.53, -0.848, 0.848, 0.53, 781.774, 15921.507)" fill="#fd0" stroke="#814d05" stroke-width="2"/>
    </g>
    <g id="Grupo_1106773" data-name="Grupo 1106773" transform="translate(239.361 615.925)">
      <rect id="Rectángulo_402332-2" data-name="Rectángulo 402332" width="75.377" height="52.038" transform="translate(719.318 15845.599)" fill="#e38300"/>
      <rect id="Rectángulo_402338-2" data-name="Rectángulo 402338" width="75.377" height="52.038" transform="translate(648.768 15845.599)" fill="#e38300"/>
      <rect id="Rectángulo_402333-2" data-name="Rectángulo 402333" width="145.927" height="58.652" transform="translate(648.768 15897.639)" fill="#e38300"/>
      <path id="Trazado_892226-2" data-name="Trazado 892226" d="M-7563.142,2562.069h61.75" transform="translate(8289.779 13302.081)" fill="none" stroke="#655647" stroke-width="3"/>
      <path id="Trazado_892256-2" data-name="Trazado 892256" d="M-7563.142,2562.069h61.75" transform="translate(8289.779 13310.313)" fill="none" stroke="#655647" stroke-width="3"/>
      <path id="Trazado_892257-2" data-name="Trazado 892257" d="M-7563.142,2562.069h61.75" transform="translate(8289.779 13318.548)" fill="none" stroke="#655647" stroke-width="3"/>
      <path id="Trazado_892258-2" data-name="Trazado 892258" d="M-7563.142,2562.069h61.75" transform="translate(8289.779 13326.781)" fill="none" stroke="#655647" stroke-width="3"/>
      <path id="Trazado_892249-2" data-name="Trazado 892249" d="M-7286,3726.7h145.927" transform="translate(7934.767 12178.905)" fill="none" stroke="#ddebfd" stroke-width="2" opacity="0.293"/>
      <path id="Trazado_892262-2" data-name="Trazado 892262" d="M-7286,3726.7h72.964" transform="translate(7934.767 12123.905)" fill="none" stroke="#ddebfd" stroke-width="2" opacity="0.293"/>
      <path id="Trazado_892263-2" data-name="Trazado 892263" d="M-7286,3726.7h52.038" transform="translate(-3073.447 8611.637) rotate(-90)" fill="none" stroke="#ddebfd" stroke-width="2" opacity="0.293"/>
      <path id="Trazado_892264-2" data-name="Trazado 892264" d="M-7286,3726.7h52.038" transform="translate(-3009.447 8611.637) rotate(-90)" fill="none" stroke="#ddebfd" stroke-width="2" opacity="0.293"/>
      <path id="Trazado_892259-2" data-name="Trazado 892259" d="M-7286,3726.7h145.927" transform="translate(7934.767 12171.368)" fill="#e38300" stroke="#ac680c" stroke-width="2"/>
      <path id="Trazado_892250-2" data-name="Trazado 892250" d="M-7286,3726.7h145.927" transform="translate(7934.767 12196.702)" fill="none" stroke="#ddebfd" stroke-width="2" opacity="0.293"/>
      <rect id="Rectángulo_402325-2" data-name="Rectángulo 402325" width="145.926" height="13.422" transform="translate(648.768 15907.806)" fill="#fd0"/>
      <g id="Grupo_1106737-2" data-name="Grupo 1106737" transform="translate(649.98 15912.474)">
        <path id="Trazado_891997-2" data-name="Trazado 891997" d="M-7367.558-8508.527l3.479,3.481,3.733-3.481,3.481,3.481,3.479-3.481,3.482,3.481,3.48-3.481,3.482,3.481,3.481-3.481,3.48,3.481,3.481-3.481,3.481,3.481,3.481-3.481,3.479,3.481,3.481-3.481,3.482,3.481,3.48-3.481,3.482,3.481,3.479-3.481,3.482,3.481,3.482-3.481,3.479,3.481,2.125-2.124" transform="translate(7367.558 8508.527)" fill="none" stroke="#727997" stroke-width="2"/>
        <path id="Trazado_891998-2" data-name="Trazado 891998" d="M-7367.558-8508.527l3.421,3.481,3.671-3.481,3.422,3.481,3.423-3.481,3.423,3.481,3.422-3.481,3.423,3.481,3.423-3.481,3.423,3.481,3.423-3.481,3.422,3.481,3.423-3.481,3.422,3.481,3.423-3.481,3.423,3.481,3.422-3.481,3.424,3.481,3.421-3.481,3.422,3.481,3.424-3.481,3.422,3.481,2.089-2.124" transform="translate(7437.503 8508.527)" fill="none" stroke="#727997" stroke-width="2"/>
      </g>
      <path id="Trazado_892248-2" data-name="Trazado 892248" d="M13.129,2.143V5.672H4.573L0,2.143,6.477,0,9.9,1.1Z" transform="matrix(0.53, -0.848, 0.848, 0.53, 781.774, 15921.507)" fill="#fd0" stroke="#814d05" stroke-width="2"/>
    </g>
    <path id="Trazado_892261" data-name="Trazado 892261" d="M-7286,3726.7h53.415" transform="translate(-2596.605 9228.921) rotate(-90)" fill="#e38300" stroke="#ac680c" stroke-width="2"/>
    <path id="Trazado_892265" data-name="Trazado 892265" d="M-7286,3726.7h53.415" transform="translate(-2765.605 9228.921) rotate(-90)" fill="#e38300" stroke="#ac680c" stroke-width="2"/>
    <path id="Trazado_895497" data-name="Trazado 895497" d="M0,0H46V46H0Z" transform="translate(454.051 16412.785)" fill="#669bdf"/>
    <path id="Trazado_895498" data-name="Trazado 895498" d="M0,0H46V46H0Z" transform="translate(454.051 16468.785)" fill="#e38300"/>
    <path id="Trazado_895499" data-name="Trazado 895499" d="M0,0H46V46H0Z" transform="translate(454.051 16524.785)" fill="#655647"/>
    <path id="Trazado_895500" data-name="Trazado 895500" d="M8.675,11.577H3.524V17H1.3V4.2h8.13V6H3.524V9.8h5.15Zm1.723.58a5.607,5.607,0,0,1,.554-2.518,4.044,4.044,0,0,1,1.556-1.723,4.383,4.383,0,0,1,2.3-.6,4.154,4.154,0,0,1,3.125,1.239,4.874,4.874,0,0,1,1.3,3.287l.009.5a5.658,5.658,0,0,1-.541,2.514,4,4,0,0,1-1.547,1.714,4.415,4.415,0,0,1-2.325.606,4.125,4.125,0,0,1-3.221-1.34A5.133,5.133,0,0,1,10.4,12.263Zm2.136.185a3.832,3.832,0,0,0,.606,2.3,1.971,1.971,0,0,0,1.688.831,1.95,1.95,0,0,0,1.683-.844,4.232,4.232,0,0,0,.6-2.47,3.782,3.782,0,0,0-.62-2.285,2.089,2.089,0,0,0-3.344-.013A4.152,4.152,0,0,0,12.533,12.342Zm13.491-2.9a5.285,5.285,0,0,0-.87-.07A1.959,1.959,0,0,0,23.177,10.5V17H21.041V7.49H23.08l.053,1.063a2.406,2.406,0,0,1,2.145-1.239,2,2,0,0,1,.756.123Zm6.328,0a5.285,5.285,0,0,0-.87-.07A1.959,1.959,0,0,0,29.5,10.5V17H27.369V7.49h2.039l.053,1.063a2.406,2.406,0,0,1,2.145-1.239,2,2,0,0,1,.756.123Zm.633,2.716a5.607,5.607,0,0,1,.554-2.518,4.044,4.044,0,0,1,1.556-1.723,4.383,4.383,0,0,1,2.3-.6,4.154,4.154,0,0,1,3.125,1.239,4.874,4.874,0,0,1,1.3,3.287l.009.5a5.658,5.658,0,0,1-.541,2.514,4,4,0,0,1-1.547,1.714,4.415,4.415,0,0,1-2.325.606,4.125,4.125,0,0,1-3.221-1.34,5.133,5.133,0,0,1-1.208-3.573Zm2.136.185a3.832,3.832,0,0,0,.606,2.3,1.971,1.971,0,0,0,1.688.831,1.95,1.95,0,0,0,1.683-.844,4.232,4.232,0,0,0,.6-2.47,3.782,3.782,0,0,0-.62-2.285,2.089,2.089,0,0,0-3.344-.013A4.152,4.152,0,0,0,35.121,12.342Z" transform="translate(390 16423.785)" fill="#12263f"/>
    <path id="Trazado_895501" data-name="Trazado 895501" d="M11.065,12.834a4.621,4.621,0,0,1-1.512,3.195,5.154,5.154,0,0,1-3.507,1.147,4.99,4.99,0,0,1-2.694-.725,4.759,4.759,0,0,1-1.8-2.061,7.438,7.438,0,0,1-.659-3.1v-1.2A7.491,7.491,0,0,1,1.538,6.9,4.835,4.835,0,0,1,3.379,4.774a5.136,5.136,0,0,1,2.773-.747,4.946,4.946,0,0,1,3.41,1.147,4.793,4.793,0,0,1,1.5,3.248H8.851a3.161,3.161,0,0,0-.8-1.991A2.658,2.658,0,0,0,6.152,5.82,2.6,2.6,0,0,0,3.924,6.88a5.3,5.3,0,0,0-.8,3.11v1.135a5.62,5.62,0,0,0,.743,3.167,2.464,2.464,0,0,0,2.175,1.091,2.875,2.875,0,0,0,1.969-.589,3.071,3.071,0,0,0,.835-1.96Zm7.541,3.234a3.312,3.312,0,0,1-2.672,1.107,2.952,2.952,0,0,1-2.342-.905,3.851,3.851,0,0,1-.8-2.619V7.49h2.136v6.135q0,1.811,1.5,1.811a2.111,2.111,0,0,0,2.1-1.116V7.49h2.136V17H18.659Zm8.429,1.107A4.419,4.419,0,0,1,23.744,15.9a4.639,4.639,0,0,1-1.261-3.406v-.264a5.706,5.706,0,0,1,.549-2.544,4.181,4.181,0,0,1,1.542-1.745,4.078,4.078,0,0,1,2.215-.624,3.733,3.733,0,0,1,3,1.239,5.24,5.24,0,0,1,1.059,3.507v.861H24.636a2.856,2.856,0,0,0,.787,1.863,2.362,2.362,0,0,0,1.736.686,2.892,2.892,0,0,0,2.391-1.187l1.151,1.1a3.845,3.845,0,0,1-1.525,1.323A4.774,4.774,0,0,1,27.035,17.176ZM26.78,9.028a1.8,1.8,0,0,0-1.419.615,3.189,3.189,0,0,0-.69,1.714H28.74V11.2a2.6,2.6,0,0,0-.571-1.622A1.785,1.785,0,0,0,26.78,9.028Zm10.705.413a5.285,5.285,0,0,0-.87-.07A1.959,1.959,0,0,0,34.638,10.5V17H32.5V7.49h2.039l.053,1.063a2.406,2.406,0,0,1,2.145-1.239,2,2,0,0,1,.756.123Zm.633,2.716a5.607,5.607,0,0,1,.554-2.518,4.044,4.044,0,0,1,1.556-1.723,4.383,4.383,0,0,1,2.3-.6,4.154,4.154,0,0,1,3.125,1.239,4.874,4.874,0,0,1,1.3,3.287l.009.5a5.658,5.658,0,0,1-.541,2.514,4,4,0,0,1-1.547,1.714,4.415,4.415,0,0,1-2.325.606,4.125,4.125,0,0,1-3.221-1.34,5.133,5.133,0,0,1-1.208-3.573Zm2.136.185a3.832,3.832,0,0,0,.606,2.3,1.971,1.971,0,0,0,1.688.831,1.95,1.95,0,0,0,1.683-.844,4.232,4.232,0,0,0,.6-2.47,3.782,3.782,0,0,0-.62-2.285,2.089,2.089,0,0,0-3.344-.013A4.152,4.152,0,0,0,40.254,12.342Z" transform="translate(390 16479.785)" fill="#12263f"/>
    <path id="Trazado_895502" data-name="Trazado 895502" d="M11.514,10.936a7.851,7.851,0,0,1-.65,3.3A4.918,4.918,0,0,1,9,16.416a5.113,5.113,0,0,1-2.782.76,5.125,5.125,0,0,1-2.773-.76,4.993,4.993,0,0,1-1.881-2.167A7.606,7.606,0,0,1,.9,11.006v-.721a7.784,7.784,0,0,1,.664-3.3A4.987,4.987,0,0,1,3.432,4.788a5.1,5.1,0,0,1,2.773-.76,5.142,5.142,0,0,1,2.773.751,4.924,4.924,0,0,1,1.868,2.162,7.767,7.767,0,0,1,.668,3.283ZM9.29,10.268a5.594,5.594,0,0,0-.8-3.261A2.631,2.631,0,0,0,6.205,5.873,2.623,2.623,0,0,0,3.951,7,5.486,5.486,0,0,0,3.12,10.2v.738A5.552,5.552,0,0,0,3.942,14.2a2.646,2.646,0,0,0,2.281,1.151,2.615,2.615,0,0,0,2.272-1.125,5.671,5.671,0,0,0,.8-3.287Zm3.832,1.907a5.654,5.654,0,0,1,1.02-3.529,3.267,3.267,0,0,1,2.733-1.332,3.1,3.1,0,0,1,2.443,1.055V3.5h2.136V17H19.521l-.105-.984a3.148,3.148,0,0,1-2.558,1.16,3.248,3.248,0,0,1-2.7-1.345A5.861,5.861,0,0,1,13.122,12.175Zm2.136.185a3.958,3.958,0,0,0,.558,2.263,1.811,1.811,0,0,0,1.586.813,2.017,2.017,0,0,0,1.916-1.169V10.206a1.986,1.986,0,0,0-1.9-1.143,1.824,1.824,0,0,0-1.6.822A4.408,4.408,0,0,0,15.258,12.359ZM27.87,17.176A4.419,4.419,0,0,1,24.579,15.9a4.639,4.639,0,0,1-1.261-3.406v-.264a5.706,5.706,0,0,1,.549-2.544,4.181,4.181,0,0,1,1.542-1.745,4.078,4.078,0,0,1,2.215-.624,3.733,3.733,0,0,1,3,1.239,5.24,5.24,0,0,1,1.059,3.507v.861H25.471a2.856,2.856,0,0,0,.787,1.863,2.362,2.362,0,0,0,1.736.686,2.892,2.892,0,0,0,2.391-1.187l1.151,1.1a3.845,3.845,0,0,1-1.525,1.323A4.774,4.774,0,0,1,27.87,17.176Zm-.255-8.147a1.8,1.8,0,0,0-1.419.615,3.189,3.189,0,0,0-.69,1.714h4.069V11.2A2.6,2.6,0,0,0,29,9.578,1.785,1.785,0,0,0,27.615,9.028ZM35.323,7.49l.062,1.1a3.419,3.419,0,0,1,2.769-1.274q2.971,0,3.023,3.4V17H39.041V10.839A1.958,1.958,0,0,0,38.65,9.5a1.645,1.645,0,0,0-1.279-.435,2.058,2.058,0,0,0-1.925,1.169V17H33.311V7.49ZM49.034,17a3.3,3.3,0,0,1-.246-.888,3.593,3.593,0,0,1-4.834.246,2.615,2.615,0,0,1-.905-2.021A2.7,2.7,0,0,1,44.178,12a5.473,5.473,0,0,1,3.23-.813h1.31v-.624A1.666,1.666,0,0,0,48.3,9.384a1.638,1.638,0,0,0-1.257-.444,1.881,1.881,0,0,0-1.2.365,1.129,1.129,0,0,0-.466.927H43.251a2.37,2.37,0,0,1,.519-1.463A3.455,3.455,0,0,1,45.18,7.7a4.955,4.955,0,0,1,1.991-.387,3.99,3.99,0,0,1,2.663.839,2.993,2.993,0,0,1,1.02,2.36V14.8a4.861,4.861,0,0,0,.36,2.048V17Zm-2.347-1.538a2.429,2.429,0,0,0,1.191-.308,2.055,2.055,0,0,0,.839-.826V12.535H47.566a3.148,3.148,0,0,0-1.784.413,1.338,1.338,0,0,0-.6,1.169,1.248,1.248,0,0,0,.409.98A1.583,1.583,0,0,0,46.688,15.462Z" transform="translate(390 16535.785)" fill="#12263f"/>
    <path id="Trazado_892266" data-name="Trazado 892266" d="M-7390.957,4944.06h70.415" transform="translate(8094.051 11502.653)" fill="none" stroke="#fff" stroke-width="1" opacity="0.12"/>
    <path id="Trazado_892267" data-name="Trazado 892267" d="M-7390.957,4944.06h45.665" transform="translate(7344.88 22418.469) rotate(76)" fill="none" stroke="#fff" stroke-width="1" opacity="0.12"/>
    <path id="Trazado_892268" data-name="Trazado 892268" d="M0,0H45.664" transform="translate(716.693 16443.133) rotate(104)" fill="none" stroke="#fff" stroke-width="1" opacity="0.12"/>
  </g>
</svg>
