<svg xmlns="http://www.w3.org/2000/svg" xmlns:xlink="http://www.w3.org/1999/xlink" width="609.104" height="186.514" viewBox="0 0 609.104 186.514">
  <defs>
    <clipPath id="clip-path">
      <rect id="Rectángulo_402355" data-name="Rectángulo 402355" width="75.776" height="15.485" fill="none"/>
    </clipPath>
    <clipPath id="clip-path-3">
      <rect id="Rectángulo_402350" data-name="Rectángulo 402350" width="6.819" height="13.599" transform="translate(0)" fill="none"/>
    </clipPath>
    <clipPath id="clip-path-4">
      <rect id="Rectángulo_402351" data-name="Rectángulo 402351" width="36.145" height="5.471" fill="none"/>
    </clipPath>
    <clipPath id="clip-path-5">
      <rect id="Rectángulo_402352" data-name="Rectángulo 402352" width="44.946" height="15.485" fill="none"/>
    </clipPath>
    <clipPath id="clip-path-6">
      <rect id="Rectángulo_402353" data-name="Rectángulo 402353" width="21.886" height="3.067" transform="translate(0)" fill="none"/>
    </clipPath>
  </defs>
  <g id="Grupo_1107083" data-name="Grupo 1107083" transform="translate(-495.896 -17343.234)">
    <path id="Trazado_895503" data-name="Trazado 895503" d="M0,0H86.085V54H0Z" transform="translate(723.915 17413.492)" fill="#e38300"/>
    <path id="Trazado_895504" data-name="Trazado 895504" d="M8.675,11.577H3.524V17H1.3V4.2h8.13V6H3.524V9.8h5.15Zm1.723.58a5.607,5.607,0,0,1,.554-2.518,4.044,4.044,0,0,1,1.556-1.723,4.383,4.383,0,0,1,2.3-.6,4.154,4.154,0,0,1,3.125,1.239,4.874,4.874,0,0,1,1.3,3.287l.009.5a5.658,5.658,0,0,1-.541,2.514,4,4,0,0,1-1.547,1.714,4.415,4.415,0,0,1-2.325.606,4.125,4.125,0,0,1-3.221-1.34A5.133,5.133,0,0,1,10.4,12.263Zm2.136.185a3.832,3.832,0,0,0,.606,2.3,1.971,1.971,0,0,0,1.688.831,1.95,1.95,0,0,0,1.683-.844,4.232,4.232,0,0,0,.6-2.47,3.782,3.782,0,0,0-.62-2.285,2.089,2.089,0,0,0-3.344-.013A4.152,4.152,0,0,0,12.533,12.342Zm13.491-2.9a5.285,5.285,0,0,0-.87-.07A1.959,1.959,0,0,0,23.177,10.5V17H21.041V7.49H23.08l.053,1.063a2.406,2.406,0,0,1,2.145-1.239,2,2,0,0,1,.756.123Zm6.328,0a5.285,5.285,0,0,0-.87-.07A1.959,1.959,0,0,0,29.5,10.5V17H27.369V7.49h2.039l.053,1.063a2.406,2.406,0,0,1,2.145-1.239,2,2,0,0,1,.756.123Zm.633,2.716a5.607,5.607,0,0,1,.554-2.518,4.044,4.044,0,0,1,1.556-1.723,4.383,4.383,0,0,1,2.3-.6,4.154,4.154,0,0,1,3.125,1.239,4.874,4.874,0,0,1,1.3,3.287l.009.5a5.658,5.658,0,0,1-.541,2.514,4,4,0,0,1-1.547,1.714,4.415,4.415,0,0,1-2.325.606,4.125,4.125,0,0,1-3.221-1.34,5.133,5.133,0,0,1-1.208-3.573Zm2.136.185a3.832,3.832,0,0,0,.606,2.3,1.971,1.971,0,0,0,1.688.831,1.95,1.95,0,0,0,1.683-.844,4.232,4.232,0,0,0,.6-2.47,3.782,3.782,0,0,0-.62-2.285,2.089,2.089,0,0,0-3.344-.013A4.152,4.152,0,0,0,35.121,12.342Z" transform="translate(495 17368.492)" fill="#12263f"/>
    <path id="Trazado_895505" data-name="Trazado 895505" d="M11.065,12.834a4.621,4.621,0,0,1-1.512,3.195,5.154,5.154,0,0,1-3.507,1.147,4.99,4.99,0,0,1-2.694-.725,4.759,4.759,0,0,1-1.8-2.061,7.438,7.438,0,0,1-.659-3.1v-1.2A7.491,7.491,0,0,1,1.538,6.9,4.835,4.835,0,0,1,3.379,4.774a5.136,5.136,0,0,1,2.773-.747,4.946,4.946,0,0,1,3.41,1.147,4.793,4.793,0,0,1,1.5,3.248H8.851a3.161,3.161,0,0,0-.8-1.991A2.658,2.658,0,0,0,6.152,5.82,2.6,2.6,0,0,0,3.924,6.88a5.3,5.3,0,0,0-.8,3.11v1.135a5.62,5.62,0,0,0,.743,3.167,2.464,2.464,0,0,0,2.175,1.091,2.875,2.875,0,0,0,1.969-.589,3.071,3.071,0,0,0,.835-1.96Zm7.541,3.234a3.312,3.312,0,0,1-2.672,1.107,2.952,2.952,0,0,1-2.342-.905,3.851,3.851,0,0,1-.8-2.619V7.49h2.136v6.135q0,1.811,1.5,1.811a2.111,2.111,0,0,0,2.1-1.116V7.49h2.136V17H18.659Zm8.429,1.107A4.419,4.419,0,0,1,23.744,15.9a4.639,4.639,0,0,1-1.261-3.406v-.264a5.706,5.706,0,0,1,.549-2.544,4.181,4.181,0,0,1,1.542-1.745,4.078,4.078,0,0,1,2.215-.624,3.733,3.733,0,0,1,3,1.239,5.24,5.24,0,0,1,1.059,3.507v.861H24.636a2.856,2.856,0,0,0,.787,1.863,2.362,2.362,0,0,0,1.736.686,2.892,2.892,0,0,0,2.391-1.187l1.151,1.1a3.845,3.845,0,0,1-1.525,1.323A4.774,4.774,0,0,1,27.035,17.176ZM26.78,9.028a1.8,1.8,0,0,0-1.419.615,3.189,3.189,0,0,0-.69,1.714H28.74V11.2a2.6,2.6,0,0,0-.571-1.622A1.785,1.785,0,0,0,26.78,9.028Zm10.705.413a5.285,5.285,0,0,0-.87-.07A1.959,1.959,0,0,0,34.638,10.5V17H32.5V7.49h2.039l.053,1.063a2.406,2.406,0,0,1,2.145-1.239,2,2,0,0,1,.756.123Zm.633,2.716a5.607,5.607,0,0,1,.554-2.518,4.044,4.044,0,0,1,1.556-1.723,4.383,4.383,0,0,1,2.3-.6,4.154,4.154,0,0,1,3.125,1.239,4.874,4.874,0,0,1,1.3,3.287l.009.5a5.658,5.658,0,0,1-.541,2.514,4,4,0,0,1-1.547,1.714,4.415,4.415,0,0,1-2.325.606,4.125,4.125,0,0,1-3.221-1.34,5.133,5.133,0,0,1-1.208-3.573Zm2.136.185a3.832,3.832,0,0,0,.606,2.3,1.971,1.971,0,0,0,1.688.831,1.95,1.95,0,0,0,1.683-.844,4.232,4.232,0,0,0,.6-2.47,3.782,3.782,0,0,0-.62-2.285,2.089,2.089,0,0,0-3.344-.013A4.152,4.152,0,0,0,40.254,12.342Z" transform="translate(495 17424.492)" fill="#12263f"/>
    <path id="Trazado_895506" data-name="Trazado 895506" d="M11.514,10.936a7.851,7.851,0,0,1-.65,3.3A4.918,4.918,0,0,1,9,16.416a5.113,5.113,0,0,1-2.782.76,5.125,5.125,0,0,1-2.773-.76,4.993,4.993,0,0,1-1.881-2.167A7.606,7.606,0,0,1,.9,11.006v-.721a7.784,7.784,0,0,1,.664-3.3A4.987,4.987,0,0,1,3.432,4.788a5.1,5.1,0,0,1,2.773-.76,5.142,5.142,0,0,1,2.773.751,4.924,4.924,0,0,1,1.868,2.162,7.767,7.767,0,0,1,.668,3.283ZM9.29,10.268a5.594,5.594,0,0,0-.8-3.261A2.631,2.631,0,0,0,6.205,5.873,2.623,2.623,0,0,0,3.951,7,5.486,5.486,0,0,0,3.12,10.2v.738A5.552,5.552,0,0,0,3.942,14.2a2.646,2.646,0,0,0,2.281,1.151,2.615,2.615,0,0,0,2.272-1.125,5.671,5.671,0,0,0,.8-3.287Zm3.832,1.907a5.654,5.654,0,0,1,1.02-3.529,3.267,3.267,0,0,1,2.733-1.332,3.1,3.1,0,0,1,2.443,1.055V3.5h2.136V17H19.521l-.105-.984a3.148,3.148,0,0,1-2.558,1.16,3.248,3.248,0,0,1-2.7-1.345A5.861,5.861,0,0,1,13.122,12.175Zm2.136.185a3.958,3.958,0,0,0,.558,2.263,1.811,1.811,0,0,0,1.586.813,2.017,2.017,0,0,0,1.916-1.169V10.206a1.986,1.986,0,0,0-1.9-1.143,1.824,1.824,0,0,0-1.6.822A4.408,4.408,0,0,0,15.258,12.359ZM27.87,17.176A4.419,4.419,0,0,1,24.579,15.9a4.639,4.639,0,0,1-1.261-3.406v-.264a5.706,5.706,0,0,1,.549-2.544,4.181,4.181,0,0,1,1.542-1.745,4.078,4.078,0,0,1,2.215-.624,3.733,3.733,0,0,1,3,1.239,5.24,5.24,0,0,1,1.059,3.507v.861H25.471a2.856,2.856,0,0,0,.787,1.863,2.362,2.362,0,0,0,1.736.686,2.892,2.892,0,0,0,2.391-1.187l1.151,1.1a3.845,3.845,0,0,1-1.525,1.323A4.774,4.774,0,0,1,27.87,17.176Zm-.255-8.147a1.8,1.8,0,0,0-1.419.615,3.189,3.189,0,0,0-.69,1.714h4.069V11.2A2.6,2.6,0,0,0,29,9.578,1.785,1.785,0,0,0,27.615,9.028ZM35.323,7.49l.062,1.1a3.419,3.419,0,0,1,2.769-1.274q2.971,0,3.023,3.4V17H39.041V10.839A1.958,1.958,0,0,0,38.65,9.5a1.645,1.645,0,0,0-1.279-.435,2.058,2.058,0,0,0-1.925,1.169V17H33.311V7.49ZM49.034,17a3.3,3.3,0,0,1-.246-.888,3.593,3.593,0,0,1-4.834.246,2.615,2.615,0,0,1-.905-2.021A2.7,2.7,0,0,1,44.178,12a5.473,5.473,0,0,1,3.23-.813h1.31v-.624A1.666,1.666,0,0,0,48.3,9.384a1.638,1.638,0,0,0-1.257-.444,1.881,1.881,0,0,0-1.2.365,1.129,1.129,0,0,0-.466.927H43.251a2.37,2.37,0,0,1,.519-1.463A3.455,3.455,0,0,1,45.18,7.7a4.955,4.955,0,0,1,1.991-.387,3.99,3.99,0,0,1,2.663.839,2.993,2.993,0,0,1,1.02,2.36V14.8a4.861,4.861,0,0,0,.36,2.048V17Zm-2.347-1.538a2.429,2.429,0,0,0,1.191-.308,2.055,2.055,0,0,0,.839-.826V12.535H47.566a3.148,3.148,0,0,0-1.784.413,1.338,1.338,0,0,0-.6,1.169,1.248,1.248,0,0,0,.409.98A1.583,1.583,0,0,0,46.688,15.462Z" transform="translate(495 17480.492)" fill="#12263f"/>
    <path id="Trazado_895507" data-name="Trazado 895507" d="M0,0H46V46H0Z" transform="translate(559.051 17357.492)" fill="#669bdf"/>
    <path id="Trazado_895508" data-name="Trazado 895508" d="M0,0H77V46H0Z" transform="translate(728.458 17417.492)" fill="#669bdf"/>
    <path id="Trazado_895509" data-name="Trazado 895509" d="M0,0H46V46H0Z" transform="translate(559.051 17413.492)" fill="#e38300"/>
    <path id="Trazado_895510" data-name="Trazado 895510" d="M0,0H46V46H0Z" transform="translate(559.051 17469.492)" fill="#655647"/>
    <g id="Grupo_1106788" data-name="Grupo 1106788" transform="translate(926.742 17343.234)">
      <rect id="Rectángulo_402329" data-name="Rectángulo 402329" width="178.258" height="186.514" transform="translate(0 0)" fill="#669bdf"/>
      <g id="Rectángulo_402330" data-name="Rectángulo 402330" transform="translate(1.511 1.605)" fill="none" stroke="#ddebfd" stroke-width="1" opacity="0.199">
        <rect width="175.236" height="183.304" stroke="none"/>
        <rect x="0.5" y="0.5" width="174.236" height="182.304" fill="none"/>
      </g>
    </g>
    <g id="Grupo_1106789" data-name="Grupo 1106789" transform="translate(936.689 17396.893)">
      <rect id="Rectángulo_402332" data-name="Rectángulo 402332" width="82.989" height="57.294" transform="translate(77.676 0.001)" fill="#e38300"/>
      <rect id="Rectángulo_402338" data-name="Rectángulo 402338" width="82.989" height="57.294" transform="translate(0 0.001)" fill="#e38300"/>
      <rect id="Rectángulo_402333" data-name="Rectángulo 402333" width="160.665" height="64.576" transform="translate(0.001 57.297)" fill="#e38300"/>
      <path id="Trazado_892226" data-name="Trazado 892226" d="M-7563.142,2562.069h67.986" transform="translate(7648.876 -2541.643)" fill="none" stroke="#655647" stroke-width="3"/>
      <path id="Trazado_892256" data-name="Trazado 892256" d="M-7563.142,2562.069h67.986" transform="translate(7648.876 -2532.579)" fill="none" stroke="#655647" stroke-width="3"/>
      <path id="Trazado_892257" data-name="Trazado 892257" d="M-7563.142,2562.069h67.986" transform="translate(7648.876 -2523.513)" fill="none" stroke="#655647" stroke-width="3"/>
      <path id="Trazado_892258" data-name="Trazado 892258" d="M-7563.142,2562.069h67.986" transform="translate(7648.876 -2514.448)" fill="none" stroke="#655647" stroke-width="3"/>
      <path id="Trazado_892249" data-name="Trazado 892249" d="M-7286,3726.7h160.665" transform="translate(7286 -3660.632)" fill="none" stroke="#ddebfd" stroke-width="2" opacity="0.293"/>
      <path id="Trazado_892262" data-name="Trazado 892262" d="M-7286,3726.7h80.333" transform="translate(7286 -3721.187)" fill="none" stroke="#ddebfd" stroke-width="2" opacity="0.293"/>
      <path id="Trazado_892263" data-name="Trazado 892263" d="M0,0H57.294" transform="translate(4.935 57.294) rotate(-90)" fill="none" stroke="#ddebfd" stroke-width="2" opacity="0.293"/>
      <path id="Trazado_892264" data-name="Trazado 892264" d="M0,0H57.294" transform="translate(75.399 57.294) rotate(-90)" fill="none" stroke="#ddebfd" stroke-width="2" opacity="0.293"/>
      <path id="Trazado_892259" data-name="Trazado 892259" d="M-7286,3726.7h160.665" transform="translate(7286 -3668.93)" fill="#e38300" stroke="#ac680c" stroke-width="2"/>
      <path id="Trazado_892250" data-name="Trazado 892250" d="M-7286,3726.7h160.665" transform="translate(7286 -3641.038)" fill="none" stroke="#ddebfd" stroke-width="2" opacity="0.293"/>
      <rect id="Rectángulo_402325" data-name="Rectángulo 402325" width="160.665" height="14.777" transform="translate(0.001 68.491)" fill="#fd0"/>
      <g id="Grupo_1106737" data-name="Grupo 1106737" transform="translate(1.334 73.63)">
        <path id="Trazado_891997" data-name="Trazado 891997" d="M-7367.558-8508.527l3.831,3.834,4.11-3.834,3.833,3.834,3.831-3.834,3.834,3.834,3.832-3.834,3.834,3.834,3.833-3.834,3.832,3.834,3.833-3.834,3.833,3.834,3.833-3.834,3.831,3.834,3.833-3.834,3.834,3.834,3.832-3.834,3.834,3.834,3.83-3.834,3.834,3.834,3.834-3.834,3.831,3.834,2.339-2.339" transform="translate(7367.558 8508.527)" fill="none" stroke="#727997" stroke-width="2"/>
        <path id="Trazado_891998" data-name="Trazado 891998" d="M-7367.558-8508.527l3.767,3.834,4.042-3.834,3.768,3.834,3.769-3.834,3.769,3.834,3.768-3.834,3.769,3.834,3.769-3.834,3.769,3.834,3.769-3.834,3.767,3.834,3.769-3.834,3.768,3.834,3.769-3.834,3.769,3.834,3.768-3.834,3.77,3.834,3.767-3.834,3.767,3.834,3.77-3.834,3.767,3.834,2.3-2.339" transform="translate(7444.567 8508.527)" fill="none" stroke="#727997" stroke-width="2"/>
      </g>
      <path id="Trazado_892248" data-name="Trazado 892248" d="M14.455,2.359V6.245H5.035L0,2.36,7.131,0,10.9,1.215Z" transform="matrix(0.53, -0.848, 0.848, 0.53, 146.44, 83.576)" fill="#fd0" stroke="#814d05" stroke-width="2"/>
    </g>
    <path id="Trazado_892271" data-name="Trazado 892271" d="M0,0H58.81" transform="translate(1017.021 17455.682) rotate(-90)" fill="#e38300" stroke="#ac680c" stroke-width="2"/>
    <g id="Grupo_1106805" data-name="Grupo 1106805" transform="translate(723.915 17412.908) rotate(-49)">
      <g id="Grupo_1106804" data-name="Grupo 1106804" clip-path="url(#clip-path)">
        <path id="Trazado_892272" data-name="Trazado 892272" d="M75.775,0V13.6h-45.1L15.917,0Z" transform="translate(-15.917 0)" fill="#ededed"/>
        <path id="Trazado_892273" data-name="Trazado 892273" d="M69.352,0V13.6h-45.1L9.493,0Z" transform="translate(-3.069 0)" fill="#c6c6c6"/>
        <g id="Grupo_1106803" data-name="Grupo 1106803" transform="translate(0 0.001)">
          <g id="Grupo_1106802" data-name="Grupo 1106802" clip-path="url(#clip-path)">
            <g id="Grupo_1106792" data-name="Grupo 1106792" transform="translate(26.323 -0.001)" opacity="0.1">
              <g id="Grupo_1106791" data-name="Grupo 1106791" transform="translate(0 0)">
                <g id="Grupo_1106790" data-name="Grupo 1106790" transform="translate(0)" clip-path="url(#clip-path-3)">
                  <rect id="Rectángulo_402349" data-name="Rectángulo 402349" width="6.82" height="13.599" transform="translate(0 0.001)" fill="#1d1d1b"/>
                </g>
              </g>
            </g>
            <path id="Trazado_892274" data-name="Trazado 892274" d="M39.992,15.48,2.646,13.724A2.778,2.778,0,0,1,0,10.949V2.781A2.779,2.779,0,0,1,2.776,0h37.48a5.589,5.589,0,0,1,5.591,5.591v4.3a5.592,5.592,0,0,1-5.855,5.586" transform="translate(29.929 -0.001)" fill="#805d42"/>
            <path id="Trazado_892275" data-name="Trazado 892275" d="M1.494,2.779A1.286,1.286,0,0,1,2.779,1.494H40.258a4.1,4.1,0,0,1,4.1,4.1V9.9a4.1,4.1,0,0,1-4.288,4.091L2.719,12.232a1.284,1.284,0,0,1-1.225-1.284Z" transform="translate(29.928 -0.001)" fill="#bf915b"/>
            <g id="Grupo_1106795" data-name="Grupo 1106795" transform="translate(37.142 2.488)" opacity="0.3">
              <g id="Grupo_1106794" data-name="Grupo 1106794" transform="translate(0)">
                <g id="Grupo_1106793" data-name="Grupo 1106793" clip-path="url(#clip-path-4)">
                  <path id="Trazado_892276" data-name="Trazado 892276" d="M37.907,6.309l.727,1.651V5.59a3.1,3.1,0,0,0-3.1-3.1H2.488l31.6,1.221a4.355,4.355,0,0,1,3.82,2.6" transform="translate(-2.488 -2.489)" fill="#fff"/>
                </g>
              </g>
            </g>
            <path id="Trazado_892277" data-name="Trazado 892277" d="M5.979,8.5a1.98,1.98,0,1,1,2.8,0,1.981,1.981,0,0,1-2.8,0" transform="translate(61.017 -0.001)" fill="#5c432f"/>
            <path id="Trazado_892278" data-name="Trazado 892278" d="M6.317,8.162a1.5,1.5,0,1,1,2.128,0,1.5,1.5,0,0,1-2.128,0" transform="translate(61.015 -0.001)" fill="#878787"/>
            <path id="Trazado_892279" data-name="Trazado 892279" d="M8.883,8.369,6.811,6.3A1.5,1.5,0,0,0,8.883,8.369" transform="translate(60.315 -0.001)" fill="#c6c6c6"/>
            <path id="Trazado_892280" data-name="Trazado 892280" d="M7.971,7.974A1.5,1.5,0,0,0,5.878,5.881Z" transform="translate(61.643 -0.001)" fill="#c6c6c6"/>
            <path id="Trazado_892281" data-name="Trazado 892281" d="M37.671,8.5a1.98,1.98,0,1,1,2.8,0,1.981,1.981,0,0,1-2.8,0" transform="translate(-2.367 -0.001)" fill="#5c432f"/>
            <path id="Trazado_892282" data-name="Trazado 892282" d="M38.009,8.162a1.5,1.5,0,1,1,2.128,0,1.5,1.5,0,0,1-2.128,0" transform="translate(-2.369 -0.001)" fill="#878787"/>
            <path id="Trazado_892283" data-name="Trazado 892283" d="M40.575,8.369,38.5,6.3a1.5,1.5,0,0,0,2.072,2.072" transform="translate(-3.069 -0.001)" fill="#c6c6c6"/>
            <path id="Trazado_892284" data-name="Trazado 892284" d="M39.663,7.974A1.5,1.5,0,0,0,37.57,5.881Z" transform="translate(-1.741 -0.001)" fill="#c6c6c6"/>
            <g id="Grupo_1106798" data-name="Grupo 1106798" transform="translate(29.929 -0.001)" opacity="0.2">
              <g id="Grupo_1106797" data-name="Grupo 1106797" transform="translate(0 0)">
                <g id="Grupo_1106796" data-name="Grupo 1106796" clip-path="url(#clip-path-5)">
                  <path id="Trazado_892285" data-name="Trazado 892285" d="M40.893,15.48,3.547,13.724A2.778,2.778,0,0,1,.9,10.949V2.781A2.779,2.779,0,0,1,3.677,0l.711,7.138a4.171,4.171,0,0,0,3.924,3.751l37.535,2.049a5.592,5.592,0,0,1-4.954,2.542" transform="translate(-0.901 0)" fill="#1d1d1b"/>
                </g>
              </g>
            </g>
            <g id="Grupo_1106801" data-name="Grupo 1106801" transform="translate(3.401 1.493)" opacity="0.75">
              <g id="Grupo_1106800" data-name="Grupo 1106800" transform="translate(0)">
                <g id="Grupo_1106799" data-name="Grupo 1106799" transform="translate(0)" clip-path="url(#clip-path-6)">
                  <path id="Trazado_892286" data-name="Trazado 892286" d="M50.489,1.494H72.375V4.561Z" transform="translate(-50.489 -1.494)" fill="#fff"/>
                </g>
              </g>
            </g>
          </g>
        </g>
      </g>
    </g>
  </g>
</svg>
