<svg xmlns="http://www.w3.org/2000/svg" width="819.154" height="252" viewBox="0 0 819.154 252">
  <g id="Grupo_1107085" data-name="Grupo 1107085" transform="translate(-390.896 -18588.174)">
    <path id="Trazado_895525" data-name="Trazado 895525" d="M8.675,11.577H3.524V17H1.3V4.2h8.13V6H3.524V9.8h5.15Zm1.723.58a5.607,5.607,0,0,1,.554-2.518,4.044,4.044,0,0,1,1.556-1.723,4.383,4.383,0,0,1,2.3-.6,4.154,4.154,0,0,1,3.125,1.239,4.874,4.874,0,0,1,1.3,3.287l.009.5a5.658,5.658,0,0,1-.541,2.514,4,4,0,0,1-1.547,1.714,4.415,4.415,0,0,1-2.325.606,4.125,4.125,0,0,1-3.221-1.34A5.133,5.133,0,0,1,10.4,12.263Zm2.136.185a3.832,3.832,0,0,0,.606,2.3,1.971,1.971,0,0,0,1.688.831,1.95,1.95,0,0,0,1.683-.844,4.232,4.232,0,0,0,.6-2.47,3.782,3.782,0,0,0-.62-2.285,2.089,2.089,0,0,0-3.344-.013A4.152,4.152,0,0,0,12.533,12.342Zm13.491-2.9a5.285,5.285,0,0,0-.87-.07A1.959,1.959,0,0,0,23.177,10.5V17H21.041V7.49H23.08l.053,1.063a2.406,2.406,0,0,1,2.145-1.239,2,2,0,0,1,.756.123Zm6.328,0a5.285,5.285,0,0,0-.87-.07A1.959,1.959,0,0,0,29.5,10.5V17H27.369V7.49h2.039l.053,1.063a2.406,2.406,0,0,1,2.145-1.239,2,2,0,0,1,.756.123Zm.633,2.716a5.607,5.607,0,0,1,.554-2.518,4.044,4.044,0,0,1,1.556-1.723,4.383,4.383,0,0,1,2.3-.6,4.154,4.154,0,0,1,3.125,1.239,4.874,4.874,0,0,1,1.3,3.287l.009.5a5.658,5.658,0,0,1-.541,2.514,4,4,0,0,1-1.547,1.714,4.415,4.415,0,0,1-2.325.606,4.125,4.125,0,0,1-3.221-1.34,5.133,5.133,0,0,1-1.208-3.573Zm2.136.185a3.832,3.832,0,0,0,.606,2.3,1.971,1.971,0,0,0,1.688.831,1.95,1.95,0,0,0,1.683-.844,4.232,4.232,0,0,0,.6-2.47,3.782,3.782,0,0,0-.62-2.285,2.089,2.089,0,0,0-3.344-.013A4.152,4.152,0,0,0,35.121,12.342Z" transform="translate(390 18652.174)" fill="#12263f"/>
    <path id="Trazado_895526" data-name="Trazado 895526" d="M11.065,12.834a4.621,4.621,0,0,1-1.512,3.195,5.154,5.154,0,0,1-3.507,1.147,4.99,4.99,0,0,1-2.694-.725,4.759,4.759,0,0,1-1.8-2.061,7.438,7.438,0,0,1-.659-3.1v-1.2A7.491,7.491,0,0,1,1.538,6.9,4.835,4.835,0,0,1,3.379,4.774a5.136,5.136,0,0,1,2.773-.747,4.946,4.946,0,0,1,3.41,1.147,4.793,4.793,0,0,1,1.5,3.248H8.851a3.161,3.161,0,0,0-.8-1.991A2.658,2.658,0,0,0,6.152,5.82,2.6,2.6,0,0,0,3.924,6.88a5.3,5.3,0,0,0-.8,3.11v1.135a5.62,5.62,0,0,0,.743,3.167,2.464,2.464,0,0,0,2.175,1.091,2.875,2.875,0,0,0,1.969-.589,3.071,3.071,0,0,0,.835-1.96Zm7.541,3.234a3.312,3.312,0,0,1-2.672,1.107,2.952,2.952,0,0,1-2.342-.905,3.851,3.851,0,0,1-.8-2.619V7.49h2.136v6.135q0,1.811,1.5,1.811a2.111,2.111,0,0,0,2.1-1.116V7.49h2.136V17H18.659Zm8.429,1.107A4.419,4.419,0,0,1,23.744,15.9a4.639,4.639,0,0,1-1.261-3.406v-.264a5.706,5.706,0,0,1,.549-2.544,4.181,4.181,0,0,1,1.542-1.745,4.078,4.078,0,0,1,2.215-.624,3.733,3.733,0,0,1,3,1.239,5.24,5.24,0,0,1,1.059,3.507v.861H24.636a2.856,2.856,0,0,0,.787,1.863,2.362,2.362,0,0,0,1.736.686,2.892,2.892,0,0,0,2.391-1.187l1.151,1.1a3.845,3.845,0,0,1-1.525,1.323A4.774,4.774,0,0,1,27.035,17.176ZM26.78,9.028a1.8,1.8,0,0,0-1.419.615,3.189,3.189,0,0,0-.69,1.714H28.74V11.2a2.6,2.6,0,0,0-.571-1.622A1.785,1.785,0,0,0,26.78,9.028Zm10.705.413a5.285,5.285,0,0,0-.87-.07A1.959,1.959,0,0,0,34.638,10.5V17H32.5V7.49h2.039l.053,1.063a2.406,2.406,0,0,1,2.145-1.239,2,2,0,0,1,.756.123Zm.633,2.716a5.607,5.607,0,0,1,.554-2.518,4.044,4.044,0,0,1,1.556-1.723,4.383,4.383,0,0,1,2.3-.6,4.154,4.154,0,0,1,3.125,1.239,4.874,4.874,0,0,1,1.3,3.287l.009.5a5.658,5.658,0,0,1-.541,2.514,4,4,0,0,1-1.547,1.714,4.415,4.415,0,0,1-2.325.606,4.125,4.125,0,0,1-3.221-1.34,5.133,5.133,0,0,1-1.208-3.573Zm2.136.185a3.832,3.832,0,0,0,.606,2.3,1.971,1.971,0,0,0,1.688.831,1.95,1.95,0,0,0,1.683-.844,4.232,4.232,0,0,0,.6-2.47,3.782,3.782,0,0,0-.62-2.285,2.089,2.089,0,0,0-3.344-.013A4.152,4.152,0,0,0,40.254,12.342Z" transform="translate(390 18708.174)" fill="#12263f"/>
    <path id="Trazado_895527" data-name="Trazado 895527" d="M11.514,10.936a7.851,7.851,0,0,1-.65,3.3A4.918,4.918,0,0,1,9,16.416a5.113,5.113,0,0,1-2.782.76,5.125,5.125,0,0,1-2.773-.76,4.993,4.993,0,0,1-1.881-2.167A7.606,7.606,0,0,1,.9,11.006v-.721a7.784,7.784,0,0,1,.664-3.3A4.987,4.987,0,0,1,3.432,4.788a5.1,5.1,0,0,1,2.773-.76,5.142,5.142,0,0,1,2.773.751,4.924,4.924,0,0,1,1.868,2.162,7.767,7.767,0,0,1,.668,3.283ZM9.29,10.268a5.594,5.594,0,0,0-.8-3.261A2.631,2.631,0,0,0,6.205,5.873,2.623,2.623,0,0,0,3.951,7,5.486,5.486,0,0,0,3.12,10.2v.738A5.552,5.552,0,0,0,3.942,14.2a2.646,2.646,0,0,0,2.281,1.151,2.615,2.615,0,0,0,2.272-1.125,5.671,5.671,0,0,0,.8-3.287Zm3.832,1.907a5.654,5.654,0,0,1,1.02-3.529,3.267,3.267,0,0,1,2.733-1.332,3.1,3.1,0,0,1,2.443,1.055V3.5h2.136V17H19.521l-.105-.984a3.148,3.148,0,0,1-2.558,1.16,3.248,3.248,0,0,1-2.7-1.345A5.861,5.861,0,0,1,13.122,12.175Zm2.136.185a3.958,3.958,0,0,0,.558,2.263,1.811,1.811,0,0,0,1.586.813,2.017,2.017,0,0,0,1.916-1.169V10.206a1.986,1.986,0,0,0-1.9-1.143,1.824,1.824,0,0,0-1.6.822A4.408,4.408,0,0,0,15.258,12.359ZM27.87,17.176A4.419,4.419,0,0,1,24.579,15.9a4.639,4.639,0,0,1-1.261-3.406v-.264a5.706,5.706,0,0,1,.549-2.544,4.181,4.181,0,0,1,1.542-1.745,4.078,4.078,0,0,1,2.215-.624,3.733,3.733,0,0,1,3,1.239,5.24,5.24,0,0,1,1.059,3.507v.861H25.471a2.856,2.856,0,0,0,.787,1.863,2.362,2.362,0,0,0,1.736.686,2.892,2.892,0,0,0,2.391-1.187l1.151,1.1a3.845,3.845,0,0,1-1.525,1.323A4.774,4.774,0,0,1,27.87,17.176Zm-.255-8.147a1.8,1.8,0,0,0-1.419.615,3.189,3.189,0,0,0-.69,1.714h4.069V11.2A2.6,2.6,0,0,0,29,9.578,1.785,1.785,0,0,0,27.615,9.028ZM35.323,7.49l.062,1.1a3.419,3.419,0,0,1,2.769-1.274q2.971,0,3.023,3.4V17H39.041V10.839A1.958,1.958,0,0,0,38.65,9.5a1.645,1.645,0,0,0-1.279-.435,2.058,2.058,0,0,0-1.925,1.169V17H33.311V7.49ZM49.034,17a3.3,3.3,0,0,1-.246-.888,3.593,3.593,0,0,1-4.834.246,2.615,2.615,0,0,1-.905-2.021A2.7,2.7,0,0,1,44.178,12a5.473,5.473,0,0,1,3.23-.813h1.31v-.624A1.666,1.666,0,0,0,48.3,9.384a1.638,1.638,0,0,0-1.257-.444,1.881,1.881,0,0,0-1.2.365,1.129,1.129,0,0,0-.466.927H43.251a2.37,2.37,0,0,1,.519-1.463A3.455,3.455,0,0,1,45.18,7.7a4.955,4.955,0,0,1,1.991-.387,3.99,3.99,0,0,1,2.663.839,2.993,2.993,0,0,1,1.02,2.36V14.8a4.861,4.861,0,0,0,.36,2.048V17Zm-2.347-1.538a2.429,2.429,0,0,0,1.191-.308,2.055,2.055,0,0,0,.839-.826V12.535H47.566a3.148,3.148,0,0,0-1.784.413,1.338,1.338,0,0,0-.6,1.169,1.248,1.248,0,0,0,.409.98A1.583,1.583,0,0,0,46.688,15.462Z" transform="translate(390 18764.174)" fill="#12263f"/>
    <g id="Trazado_895528" data-name="Trazado 895528" transform="translate(1022.051 18684.174)" fill="#e38300">
      <path d="M 187.5 95.5 L 0.5 95.5 L 0.5 0.5 L 187.5 0.5 L 187.5 95.5 Z" stroke="none"/>
      <path d="M 1 1 L 1 95 L 187 95 L 187 1 L 1 1 M 0 0 L 188 0 L 188 96 L 0 96 L 0 0 Z" stroke="none" fill="#ac680c"/>
    </g>
    <path id="Trazado_895529" data-name="Trazado 895529" d="M0,0H46V46H0Z" transform="translate(454.051 18641.174)" fill="#669bdf"/>
    <path id="Trazado_895530" data-name="Trazado 895530" d="M0,0H46V46H0Z" transform="translate(454.051 18697.174)" fill="#e38300"/>
    <path id="Trazado_895531" data-name="Trazado 895531" d="M0,0H46V46H0Z" transform="translate(454.051 18753.174)" fill="#655647"/>
    <g id="Trazado_895532" data-name="Trazado 895532" transform="translate(1022.051 18684.174)" fill="#e38300">
      <path d="M 148 74 L 40 74 C 34.73459625244141 74 29.6272144317627 72.96897888183594 24.81976127624512 70.93559265136719 C 20.17578506469727 68.97135925292969 16.00485801696777 66.15918731689453 12.42283344268799 62.57716751098633 C 8.84083366394043 58.99516677856445 6.028642654418945 54.82423782348633 4.064404964447021 50.18026351928711 C 2.031023740768433 45.37278747558594 1 40.26540374755859 1 35 L 1 1 L 187 1 L 187 35 C 187 40.26540374755859 185.9689788818359 45.37278747558594 183.9355926513672 50.18026351928711 C 181.9713592529297 54.82423782348633 179.1591644287109 58.99516677856445 175.5771636962891 62.57716751098633 C 171.9951477050781 66.15918731689453 167.82421875 68.97135925292969 163.1802368164062 70.93559265136719 C 158.3727874755859 72.96897888183594 153.2654113769531 74 148 74 Z" stroke="none"/>
      <path d="M 2 2 L 2 35 C 2 40.13085174560547 3.004425048828125 45.107177734375 4.985397338867188 49.79070281982422 C 6.89923095703125 54.31547546386719 9.639450073242188 58.37957763671875 13.12994384765625 61.87004852294922 C 16.62042236328125 65.36054992675781 20.68452453613281 68.10077667236328 25.20930480957031 70.01460266113281 C 29.892822265625 71.99557495117188 34.86915588378906 73 40 73 L 148 73 C 153.130859375 73 158.1071472167969 71.99557495117188 162.7906951904297 70.01460266113281 C 167.3154754638672 68.10077667236328 171.3795471191406 65.36054992675781 174.8700561523438 61.87004852294922 C 178.3605499267578 58.37955093383789 181.1007690429688 54.31547546386719 183.0146026611328 49.79070281982422 C 184.9955749511719 45.10714721679688 186 40.13085174560547 186 35 L 186 2 L 2 2 M 0 0 L 188 0 L 188 35 C 188 57.09140014648438 170.0913696289062 75 148 75 L 40 75 C 17.90859985351562 75 0 57.09140014648438 0 35 L 0 0 Z" stroke="none" fill="#ac680c"/>
    </g>
    <g id="Trazado_895533" data-name="Trazado 895533" transform="translate(1103.051 18720.174)" fill="#fff">
      <path d="M 7.5 14.5 C 3.64018988609314 14.5 0.5 11.35980987548828 0.5 7.5 C 0.5 3.64018988609314 3.64018988609314 0.5 7.5 0.5 C 11.35980987548828 0.5 14.5 3.64018988609314 14.5 7.5 C 14.5 11.35980987548828 11.35980987548828 14.5 7.5 14.5 Z" stroke="none"/>
      <path d="M 7.5 1 C 3.915889739990234 1 1 3.915889739990234 1 7.5 C 1 11.08411026000977 3.915889739990234 14 7.5 14 C 11.08411026000977 14 14 11.08411026000977 14 7.5 C 14 3.915889739990234 11.08411026000977 1 7.5 1 M 7.5 0 C 11.64213943481445 0 15 3.35785961151123 15 7.5 C 15 11.64213943481445 11.64213943481445 15 7.5 15 C 3.35785961151123 15 0 11.64213943481445 0 7.5 C 0 3.35785961151123 3.35785961151123 0 7.5 0 Z" stroke="none" fill="#ac680c"/>
    </g>
    <g id="Grupo_1106822" data-name="Grupo 1106822" transform="translate(-4 453.174)">
      <g id="Grupo_1106819" data-name="Grupo 1106819" transform="translate(18)">
        <g id="Rectángulo_402364" data-name="Rectángulo 402364" transform="translate(522.051 18135)" fill="#e38300" stroke="#ac680c" stroke-width="2">
          <path d="M40,0H168a40,40,0,0,1,40,40V252a0,0,0,0,1,0,0H0a0,0,0,0,1,0,0V40A40,40,0,0,1,40,0Z" stroke="none"/>
          <path d="M40,1H168a39,39,0,0,1,39,39V251a0,0,0,0,1,0,0H1a0,0,0,0,1,0,0V40A39,39,0,0,1,40,1Z" fill="none"/>
        </g>
        <g id="Rectángulo_402362" data-name="Rectángulo 402362" transform="translate(532.051 18212)" fill="#669bdf" stroke="#707070" stroke-width="1">
          <rect width="188" height="163" stroke="none"/>
          <rect x="0.5" y="0.5" width="187" height="162" fill="none"/>
        </g>
        <g id="Grupo_1106818" data-name="Grupo 1106818" transform="translate(-4 -27.633)">
          <g id="Grupo_1106789" data-name="Grupo 1106789" transform="translate(543.445 18257.537)">
            <g id="Rectángulo_402332" data-name="Rectángulo 402332" transform="translate(83.158 0.002)" fill="#e38300" stroke="#ac680c" stroke-width="1">
              <rect width="88.846" height="61.337" stroke="none"/>
              <rect x="0.5" y="0.5" width="87.846" height="60.337" fill="none"/>
            </g>
            <g id="Trazado_892287" data-name="Trazado 892287" transform="translate(0 0.002)" fill="#e38300">
              <path d="M 88.34573364257812 60.8369140625 L 0.4999962449073792 60.8369140625 L 0.4999962449073792 0.4999963045120239 L 88.34573364257812 0.4999963045120239 L 88.34573364257812 60.8369140625 Z" stroke="none"/>
              <path d="M 1 0.9999961853027344 L 1 60.3369140625 L 87.84573364257812 60.3369140625 L 87.84573364257812 0.9999961853027344 L 1 0.9999961853027344 M 0 -3.814697265625e-06 L 88.84573364257812 -3.814697265625e-06 L 88.84573364257812 61.3369140625 L 0 61.3369140625 L 0 -3.814697265625e-06 Z" stroke="none" fill="#ac680c"/>
            </g>
            <rect id="Rectángulo_402333" data-name="Rectángulo 402333" width="172.003" height="69.133" transform="translate(0.001 61.341)" fill="#e38300"/>
            <path id="Trazado_892226" data-name="Trazado 892226" d="M-7563.142,2562.069h72.784" transform="translate(7654.927 -2540.201)" fill="none" stroke="#655647" stroke-width="3"/>
            <path id="Trazado_892256" data-name="Trazado 892256" d="M-7563.142,2562.069h72.784" transform="translate(7654.927 -2530.498)" fill="none" stroke="#655647" stroke-width="3"/>
            <path id="Trazado_892257" data-name="Trazado 892257" d="M-7563.142,2562.069h72.784" transform="translate(7654.927 -2520.792)" fill="none" stroke="#655647" stroke-width="3"/>
            <path id="Trazado_892258" data-name="Trazado 892258" d="M-7563.142,2562.069h72.784" transform="translate(7654.927 -2511.087)" fill="none" stroke="#655647" stroke-width="3"/>
            <path id="Trazado_892249" data-name="Trazado 892249" d="M-7286,3726.7h172" transform="translate(7286 -3655.969)" fill="none" stroke="#ddebfd" stroke-width="2" opacity="0.293"/>
            <path id="Trazado_892262" data-name="Trazado 892262" d="M-7286,3726.7h86" transform="translate(7286 -3720.797)" fill="none" stroke="#ddebfd" stroke-width="2" opacity="0.293"/>
            <path id="Trazado_892263" data-name="Trazado 892263" d="M0,0H61.337" transform="translate(5.283 61.337) rotate(-90)" fill="none" stroke="#ddebfd" stroke-width="2" opacity="0.293"/>
            <path id="Trazado_892264" data-name="Trazado 892264" d="M0,0H61.337" transform="translate(80.719 61.337) rotate(-90)" fill="none" stroke="#ddebfd" stroke-width="2" opacity="0.293"/>
            <path id="Trazado_892259" data-name="Trazado 892259" d="M-7286,3726.7h172" transform="translate(7286 -3664.853)" fill="#e38300" stroke="#ac680c" stroke-width="2"/>
            <path id="Trazado_892250" data-name="Trazado 892250" d="M-7286,3726.7h172" transform="translate(7286 -3634.992)" fill="none" stroke="#ddebfd" stroke-width="2" opacity="0.293"/>
            <rect id="Rectángulo_402325" data-name="Rectángulo 402325" width="172.002" height="15.82" transform="translate(0.001 73.325)" fill="#fd0"/>
            <g id="Grupo_1106737" data-name="Grupo 1106737" transform="translate(1.429 78.827)">
              <path id="Trazado_891997" data-name="Trazado 891997" d="M-7367.558-8508.527l4.1,4.1,4.4-4.1,4.1,4.1,4.1-4.1,4.1,4.1,4.1-4.1,4.1,4.1,4.1-4.1,4.1,4.1,4.1-4.1,4.1,4.1,4.1-4.1,4.1,4.1,4.1-4.1,4.1,4.1,4.1-4.1,4.1,4.1,4.1-4.1,4.1,4.1,4.105-4.1,4.1,4.1,2.5-2.5" transform="translate(7367.558 8508.527)" fill="none" stroke="#727997" stroke-width="2"/>
              <path id="Trazado_891998" data-name="Trazado 891998" d="M-7367.558-8508.527l4.031,4.1,4.327-4.1,4.033,4.1,4.035-4.1,4.034,4.1,4.033-4.1,4.035,4.1,4.034-4.1,4.034,4.1,4.035-4.1,4.032,4.1,4.035-4.1,4.033,4.1,4.034-4.1,4.035,4.1,4.033-4.1,4.035,4.1,4.032-4.1,4.033,4.1,4.036-4.1,4.033,4.1,2.462-2.5" transform="translate(7450.001 8508.527)" fill="none" stroke="#727997" stroke-width="2"/>
            </g>
            <path id="Trazado_892248" data-name="Trazado 892248" d="M15.475,2.526v4.16H5.39L0,2.526,7.634,0l4.033,1.3Z" transform="matrix(0.53, -0.848, 0.848, 0.53, 156.774, 89.474)" fill="#fd0" stroke="#814d05" stroke-width="2"/>
          </g>
          <path id="Trazado_892271" data-name="Trazado 892271" d="M0,0H62.96" transform="translate(629.445 18320.475) rotate(-90)" fill="#e38300" stroke="#ac680c" stroke-width="2"/>
        </g>
        <g id="Rectángulo_402361" data-name="Rectángulo 402361" transform="translate(541.361 18220.492)" fill="#e38300" stroke="#ac680c" stroke-width="2">
          <rect width="80.085" height="54" rx="2" stroke="none"/>
          <rect x="1" y="1" width="78.085" height="52" rx="1" fill="none"/>
        </g>
        <g id="Elipse_11553" data-name="Elipse 11553" transform="translate(618.051 18182)" fill="#fff" stroke="#ac680c" stroke-width="1">
          <circle cx="7.5" cy="7.5" r="7.5" stroke="none"/>
          <circle cx="7.5" cy="7.5" r="7" fill="none"/>
        </g>
        <g id="Rectángulo_402363" data-name="Rectángulo 402363" transform="translate(532.051 18141)" fill="none" stroke="#ac680c" stroke-width="2" opacity="0.826">
          <path d="M40,0H148a40,40,0,0,1,40,40V64a0,0,0,0,1,0,0H0a0,0,0,0,1,0,0V40A40,40,0,0,1,40,0Z" stroke="none"/>
          <path d="M40,1H148a39,39,0,0,1,39,39V63a0,0,0,0,1,0,0H1a0,0,0,0,1,0,0V40A39,39,0,0,1,40,1Z" fill="none"/>
        </g>
      </g>
      <path id="Trazado_892288" data-name="Trazado 892288" d="M-7561.121,6599.957h186.147" transform="translate(8112.051 11608)" fill="none" stroke="#fff" stroke-width="2" opacity="0.401"/>
    </g>
    <g id="Grupo_1106821" data-name="Grupo 1106821" transform="translate(-12 453.174)">
      <g id="Grupo_1106820" data-name="Grupo 1106820" transform="translate(268)">
        <g id="Rectángulo_402364-2" data-name="Rectángulo 402364" transform="translate(522.051 18135)" fill="#e38300" stroke="#ac680c" stroke-width="2">
          <path d="M40,0H168a40,40,0,0,1,40,40V252a0,0,0,0,1,0,0H0a0,0,0,0,1,0,0V40A40,40,0,0,1,40,0Z" stroke="none"/>
          <path d="M40,1H168a39,39,0,0,1,39,39V251a0,0,0,0,1,0,0H1a0,0,0,0,1,0,0V40A39,39,0,0,1,40,1Z" fill="none"/>
        </g>
        <g id="Rectángulo_402362-2" data-name="Rectángulo 402362" transform="translate(532.051 18212)" fill="#669bdf" stroke="#707070" stroke-width="1">
          <rect width="188" height="163" stroke="none"/>
          <rect x="0.5" y="0.5" width="187" height="162" fill="none"/>
        </g>
        <g id="Grupo_1106818-2" data-name="Grupo 1106818" transform="translate(535 18228.049)">
          <g id="Grupo_1106789-2" data-name="Grupo 1106789" transform="translate(0 0.023)">
            <g id="Rectángulo_402332-2" data-name="Rectángulo 402332" transform="translate(88.422 0.002)" fill="#e38300" stroke="#ac680c" stroke-width="1">
              <rect width="94.471" height="65.22" stroke="none"/>
              <rect x="0.5" y="0.5" width="93.471" height="64.22" fill="none"/>
            </g>
            <g id="Trazado_892287-2" data-name="Trazado 892287" transform="translate(0 0.002)" fill="#e38300">
              <path d="M 93.97061920166016 64.72019958496094 L 0.5000057816505432 64.72019958496094 L 0.5000057816505432 0.4999959766864777 L 93.97061920166016 0.4999959766864777 L 93.97061920166016 64.72019958496094 Z" stroke="none"/>
              <path d="M 0.9999923706054688 0.9999923706054688 L 0.9999923706054688 64.22019958496094 L 93.47060394287109 64.22019958496094 L 93.47060394287109 0.9999923706054688 L 0.9999923706054688 0.9999923706054688 M -7.62939453125e-06 -7.62939453125e-06 L 94.47060394287109 -7.62939453125e-06 L 94.47060394287109 65.22019958496094 L -7.62939453125e-06 65.22019958496094 L -7.62939453125e-06 -7.62939453125e-06 Z" stroke="none" fill="#ac680c"/>
            </g>
            <rect id="Rectángulo_402333-2" data-name="Rectángulo 402333" width="182.892" height="73.509" transform="translate(0.001 65.225)" fill="#e38300"/>
            <path id="Trazado_892226-2" data-name="Trazado 892226" d="M-7563.141,2562.069h77.392" transform="translate(7660.737 -2538.816)" fill="none" stroke="#655647" stroke-width="3"/>
            <path id="Trazado_892256-2" data-name="Trazado 892256" d="M-7563.141,2562.069h77.392" transform="translate(7660.737 -2528.499)" fill="none" stroke="#655647" stroke-width="3"/>
            <path id="Trazado_892257-2" data-name="Trazado 892257" d="M-7563.141,2562.069h77.392" transform="translate(7660.737 -2518.178)" fill="none" stroke="#655647" stroke-width="3"/>
            <path id="Trazado_892258-2" data-name="Trazado 892258" d="M-7563.141,2562.069h77.392" transform="translate(7660.737 -2507.859)" fill="none" stroke="#655647" stroke-width="3"/>
            <path id="Trazado_892249-2" data-name="Trazado 892249" d="M-7286,3726.7h182.893" transform="translate(7286 -3651.491)" fill="none" stroke="#ddebfd" stroke-width="2" opacity="0.293"/>
            <path id="Trazado_892262-2" data-name="Trazado 892262" d="M-7286,3726.7h91.447" transform="translate(7286 -3720.424)" fill="none" stroke="#ddebfd" stroke-width="2" opacity="0.293"/>
            <path id="Trazado_892263-2" data-name="Trazado 892263" d="M0,0H65.22" transform="translate(5.618 65.22) rotate(-90)" fill="none" stroke="#ddebfd" stroke-width="2" opacity="0.293"/>
            <path id="Trazado_892264-2" data-name="Trazado 892264" d="M0,0H65.22" transform="translate(85.83 65.22) rotate(-90)" fill="none" stroke="#ddebfd" stroke-width="2" opacity="0.293"/>
            <path id="Trazado_892259-2" data-name="Trazado 892259" d="M-7286,3726.7h182.893" transform="translate(7286 -3660.938)" fill="#e38300" stroke="#ac680c" stroke-width="2"/>
            <path id="Trazado_892250-2" data-name="Trazado 892250" d="M-7286,3726.7h182.893" transform="translate(7286 -3629.186)" fill="none" stroke="#ddebfd" stroke-width="2" opacity="0.293"/>
            <rect id="Rectángulo_402325-2" data-name="Rectángulo 402325" width="182.892" height="16.821" transform="translate(0.001 77.967)" fill="#fd0"/>
            <g id="Grupo_1106737-2" data-name="Grupo 1106737" transform="translate(1.519 83.818)">
              <path id="Trazado_891997-2" data-name="Trazado 891997" d="M-7367.558-8508.526l4.36,4.364,4.679-4.364,4.363,4.364,4.361-4.364,4.365,4.364,4.362-4.364,4.364,4.364,4.364-4.364,4.361,4.364,4.363-4.364,4.363,4.364,4.363-4.364,4.361,4.364,4.364-4.364,4.363,4.364,4.363-4.364,4.363,4.364,4.36-4.364,4.364,4.364,4.365-4.364,4.36,4.364,2.664-2.663" transform="translate(7367.558 8508.526)" fill="none" stroke="#727997" stroke-width="2"/>
              <path id="Trazado_891998-2" data-name="Trazado 891998" d="M-7367.558-8508.526l4.287,4.364,4.6-4.364,4.289,4.364,4.291-4.364,4.29,4.364,4.289-4.364,4.291,4.364,4.29-4.364,4.29,4.364,4.291-4.364,4.288,4.364,4.291-4.364,4.289,4.364,4.29-4.364,4.291,4.364,4.289-4.364,4.291,4.364,4.288-4.364,4.289,4.364,4.292-4.364,4.289,4.364,2.618-2.663" transform="translate(7455.221 8508.526)" fill="none" stroke="#727997" stroke-width="2"/>
            </g>
            <path id="Trazado_892248-2" data-name="Trazado 892248" d="M16.454,2.686V7.109H5.732L0,2.686,8.118,0l4.288,1.383Z" transform="matrix(0.53, -0.848, 0.848, 0.53, 166.699, 95.139)" fill="#fd0" stroke="#814d05" stroke-width="2"/>
          </g>
          <path id="Trazado_892271-2" data-name="Trazado 892271" d="M0,0H66.946" transform="translate(91.445 66.945) rotate(-90)" fill="#e38300" stroke="#ac680c" stroke-width="2"/>
        </g>
        <g id="Rectángulo_402361-2" data-name="Rectángulo 402361" transform="translate(537.038 18218.064)" fill="#e38300" stroke="#ac680c" stroke-width="2">
          <rect width="85.155" height="57.419" rx="2" stroke="none"/>
          <rect x="1" y="1" width="83.155" height="55.419" rx="1" fill="none"/>
        </g>
        <g id="Elipse_11553-2" data-name="Elipse 11553" transform="translate(618.051 18182)" fill="#fff" stroke="#ac680c" stroke-width="1">
          <circle cx="7.5" cy="7.5" r="7.5" stroke="none"/>
          <circle cx="7.5" cy="7.5" r="7" fill="none"/>
        </g>
        <g id="Rectángulo_402363-2" data-name="Rectángulo 402363" transform="translate(532.051 18141)" fill="none" stroke="#ac680c" stroke-width="2" opacity="0.826">
          <path d="M40,0H148a40,40,0,0,1,40,40V64a0,0,0,0,1,0,0H0a0,0,0,0,1,0,0V40A40,40,0,0,1,40,0Z" stroke="none"/>
          <path d="M40,1H148a39,39,0,0,1,39,39V63a0,0,0,0,1,0,0H1a0,0,0,0,1,0,0V40A39,39,0,0,1,40,1Z" fill="none"/>
        </g>
      </g>
      <path id="Trazado_892289" data-name="Trazado 892289" d="M-7561.121,6599.957h186.147" transform="translate(8362.099 11608)" fill="none" stroke="#fff" stroke-width="2" opacity="0.401"/>
    </g>
  </g>
</svg>
