<svg xmlns="http://www.w3.org/2000/svg" xmlns:xlink="http://www.w3.org/1999/xlink" width="820" height="138.809" viewBox="0 0 820 138.809">
  <defs>
    <clipPath id="clip-path">
      <rect id="Rectángulo_402355" data-name="Rectángulo 402355" width="75.776" height="15.485" fill="none"/>
    </clipPath>
    <clipPath id="clip-path-3">
      <rect id="Rectángulo_402350" data-name="Rectángulo 402350" width="6.819" height="13.599" transform="translate(0)" fill="none"/>
    </clipPath>
    <clipPath id="clip-path-4">
      <rect id="Rectángulo_402351" data-name="Rectángulo 402351" width="36.145" height="5.471" fill="none"/>
    </clipPath>
    <clipPath id="clip-path-5">
      <rect id="Rectángulo_402352" data-name="Rectángulo 402352" width="44.946" height="15.485" fill="none"/>
    </clipPath>
    <clipPath id="clip-path-6">
      <rect id="Rectángulo_402353" data-name="Rectángulo 402353" width="21.886" height="3.067" transform="translate(0)" fill="none"/>
    </clipPath>
  </defs>
  <g id="Grupo_1107087" data-name="Grupo 1107087" transform="translate(-390.051 -20206.191)">
    <g id="Grupo_1106870" data-name="Grupo 1106870" transform="translate(0 3.803)">
      <g id="Grupo_1106853" data-name="Grupo 1106853" transform="translate(0 528)">
        <g id="Rectángulo_402382" data-name="Rectángulo 402382" transform="translate(810.051 19712)" fill="#ccaf91" stroke="#000" stroke-width="1">
          <rect width="400" height="55" stroke="none"/>
          <rect x="0.5" y="0.5" width="399" height="54" fill="none"/>
        </g>
        <g id="Rectángulo_402385" data-name="Rectángulo 402385" transform="translate(815.051 19716)" fill="#ccaf91" stroke="#000" stroke-width="1" stroke-dasharray="4 2">
          <rect width="390" height="47" stroke="none"/>
          <rect x="0.5" y="0.5" width="389" height="46" fill="none"/>
        </g>
      </g>
      <g id="Grupo_1106866" data-name="Grupo 1106866" transform="translate(-420 528.389)">
        <g id="Rectángulo_402382-2" data-name="Rectángulo 402382" transform="translate(810.051 19712)" fill="#ccaf91" stroke="#000" stroke-width="1">
          <rect width="400" height="55" stroke="none"/>
          <rect x="0.5" y="0.5" width="399" height="54" fill="none"/>
        </g>
        <g id="Rectángulo_402385-2" data-name="Rectángulo 402385" transform="translate(815.051 19716)" fill="#ccaf91" stroke="#000" stroke-width="1" stroke-dasharray="4 2">
          <rect width="390" height="47" stroke="none"/>
          <rect x="0.5" y="0.5" width="389" height="46" fill="none"/>
        </g>
      </g>
      <g id="Grupo_1106867" data-name="Grupo 1106867" transform="translate(-19257.449 21142.662) rotate(-90)">
        <g id="Rectángulo_402382-3" data-name="Rectángulo 402382" transform="translate(810.051 19712)" fill="#ccaf91" stroke="#000" stroke-width="1">
          <rect width="130.224" height="20.449" stroke="none"/>
          <rect x="0.5" y="0.5" width="129.224" height="19.449" fill="none"/>
        </g>
        <g id="Rectángulo_402385-3" data-name="Rectángulo 402385" transform="translate(815.051 19716)" fill="#ccaf91" stroke="#000" stroke-width="1" stroke-dasharray="4 2">
          <rect width="120.224" height="12.449" stroke="none"/>
          <rect x="0.5" y="0.5" width="119.224" height="11.449" fill="none"/>
        </g>
      </g>
      <g id="Grupo_1106868" data-name="Grupo 1106868" transform="translate(-18829.449 21110.666) rotate(-90)">
        <g id="Rectángulo_402382-4" data-name="Rectángulo 402382" transform="translate(810.051 19712)" fill="#ccaf91" stroke="#000" stroke-width="1">
          <rect width="65.731" height="20.449" stroke="none"/>
          <rect x="0.5" y="0.5" width="64.731" height="19.449" fill="none"/>
        </g>
        <g id="Rectángulo_402385-4" data-name="Rectángulo 402385" transform="translate(815.051 19716)" fill="#ccaf91" stroke="#000" stroke-width="1" stroke-dasharray="4 2">
          <rect width="55.731" height="12.449" stroke="none"/>
          <rect x="0.5" y="0.5" width="54.731" height="11.449" fill="none"/>
        </g>
      </g>
      <g id="Grupo_1106869" data-name="Grupo 1106869" transform="matrix(0.695, 0.719, -0.719, 0.695, 845.951, 20275.932)">
        <g id="Grupo_1106804" data-name="Grupo 1106804" clip-path="url(#clip-path)">
          <path id="Trazado_892272" data-name="Trazado 892272" d="M75.775,0V13.6h-45.1L15.917,0Z" transform="translate(-15.917 0)" fill="#ededed"/>
          <path id="Trazado_892273" data-name="Trazado 892273" d="M69.352,0V13.6h-45.1L9.493,0Z" transform="translate(-3.069 0)" fill="#c6c6c6"/>
          <g id="Grupo_1106803" data-name="Grupo 1106803" transform="translate(0 0.001)">
            <g id="Grupo_1106802" data-name="Grupo 1106802" clip-path="url(#clip-path)">
              <g id="Grupo_1106792" data-name="Grupo 1106792" transform="translate(26.323 -0.001)" opacity="0.1">
                <g id="Grupo_1106791" data-name="Grupo 1106791" transform="translate(0 0)">
                  <g id="Grupo_1106790" data-name="Grupo 1106790" transform="translate(0)" clip-path="url(#clip-path-3)">
                    <rect id="Rectángulo_402349" data-name="Rectángulo 402349" width="6.82" height="13.599" transform="translate(0 0.001)" fill="#1d1d1b"/>
                  </g>
                </g>
              </g>
              <path id="Trazado_892274" data-name="Trazado 892274" d="M39.992,15.48,2.646,13.724A2.778,2.778,0,0,1,0,10.949V2.781A2.779,2.779,0,0,1,2.776,0h37.48a5.589,5.589,0,0,1,5.591,5.591v4.3a5.592,5.592,0,0,1-5.855,5.586" transform="translate(29.929 -0.001)" fill="#805d42"/>
              <path id="Trazado_892275" data-name="Trazado 892275" d="M1.494,2.779A1.286,1.286,0,0,1,2.779,1.494H40.258a4.1,4.1,0,0,1,4.1,4.1V9.9a4.1,4.1,0,0,1-4.288,4.091L2.719,12.232a1.284,1.284,0,0,1-1.225-1.284Z" transform="translate(29.928 -0.001)" fill="#bf915b"/>
              <g id="Grupo_1106795" data-name="Grupo 1106795" transform="translate(37.142 2.488)" opacity="0.3">
                <g id="Grupo_1106794" data-name="Grupo 1106794" transform="translate(0)">
                  <g id="Grupo_1106793" data-name="Grupo 1106793" clip-path="url(#clip-path-4)">
                    <path id="Trazado_892276" data-name="Trazado 892276" d="M37.907,6.309l.727,1.651V5.59a3.1,3.1,0,0,0-3.1-3.1H2.488l31.6,1.221a4.355,4.355,0,0,1,3.82,2.6" transform="translate(-2.488 -2.489)" fill="#fff"/>
                  </g>
                </g>
              </g>
              <path id="Trazado_892277" data-name="Trazado 892277" d="M5.979,8.5a1.98,1.98,0,1,1,2.8,0,1.981,1.981,0,0,1-2.8,0" transform="translate(61.017 -0.001)" fill="#5c432f"/>
              <path id="Trazado_892278" data-name="Trazado 892278" d="M6.317,8.162a1.5,1.5,0,1,1,2.128,0,1.5,1.5,0,0,1-2.128,0" transform="translate(61.015 -0.001)" fill="#878787"/>
              <path id="Trazado_892279" data-name="Trazado 892279" d="M8.883,8.369,6.811,6.3A1.5,1.5,0,0,0,8.883,8.369" transform="translate(60.315 -0.001)" fill="#c6c6c6"/>
              <path id="Trazado_892280" data-name="Trazado 892280" d="M7.971,7.974A1.5,1.5,0,0,0,5.878,5.881Z" transform="translate(61.643 -0.001)" fill="#c6c6c6"/>
              <path id="Trazado_892281" data-name="Trazado 892281" d="M37.671,8.5a1.98,1.98,0,1,1,2.8,0,1.981,1.981,0,0,1-2.8,0" transform="translate(-2.367 -0.001)" fill="#5c432f"/>
              <path id="Trazado_892282" data-name="Trazado 892282" d="M38.009,8.162a1.5,1.5,0,1,1,2.128,0,1.5,1.5,0,0,1-2.128,0" transform="translate(-2.369 -0.001)" fill="#878787"/>
              <path id="Trazado_892283" data-name="Trazado 892283" d="M40.575,8.369,38.5,6.3a1.5,1.5,0,0,0,2.072,2.072" transform="translate(-3.069 -0.001)" fill="#c6c6c6"/>
              <path id="Trazado_892284" data-name="Trazado 892284" d="M39.663,7.974A1.5,1.5,0,0,0,37.57,5.881Z" transform="translate(-1.741 -0.001)" fill="#c6c6c6"/>
              <g id="Grupo_1106798" data-name="Grupo 1106798" transform="translate(29.929 -0.001)" opacity="0.2">
                <g id="Grupo_1106797" data-name="Grupo 1106797" transform="translate(0 0)">
                  <g id="Grupo_1106796" data-name="Grupo 1106796" clip-path="url(#clip-path-5)">
                    <path id="Trazado_892285" data-name="Trazado 892285" d="M40.893,15.48,3.547,13.724A2.778,2.778,0,0,1,.9,10.949V2.781A2.779,2.779,0,0,1,3.677,0l.711,7.138a4.171,4.171,0,0,0,3.924,3.751l37.535,2.049a5.592,5.592,0,0,1-4.954,2.542" transform="translate(-0.901 0)" fill="#1d1d1b"/>
                  </g>
                </g>
              </g>
              <g id="Grupo_1106801" data-name="Grupo 1106801" transform="translate(3.401 1.493)" opacity="0.75">
                <g id="Grupo_1106800" data-name="Grupo 1106800" transform="translate(0)">
                  <g id="Grupo_1106799" data-name="Grupo 1106799" transform="translate(0)" clip-path="url(#clip-path-6)">
                    <path id="Trazado_892286" data-name="Trazado 892286" d="M50.489,1.494H72.375V4.561Z" transform="translate(-50.489 -1.494)" fill="#fff"/>
                  </g>
                </g>
              </g>
            </g>
          </g>
        </g>
      </g>
    </g>
  </g>
</svg>
