<svg xmlns="http://www.w3.org/2000/svg" xmlns:xlink="http://www.w3.org/1999/xlink" width="402.006" height="278.938" viewBox="0 0 402.006 278.938">
  <defs>
    <clipPath id="clip-path">
      <path id="Trazado_891118" data-name="Trazado 891118" d="M-7599.05-9756.649v222.2h51.579v52.737h297.883v-52.737h48.544v-222.2Z" transform="translate(8094.05 11607.998)" fill="#fff" stroke="#707070" stroke-width="1"/>
    </clipPath>
    <clipPath id="clip-path-2">
      <rect id="Rectángulo_401992" data-name="Rectángulo 401992" width="564.475" height="354.92" fill="#567e6f" stroke="#707070" stroke-width="1"/>
    </clipPath>
  </defs>
  <g id="Grupo_1107069" data-name="Grupo 1107069" transform="translate(-179.994 -1727.276)">
    <g id="Enmascarar_grupo_1098676" data-name="Enmascarar grupo 1098676" transform="translate(-313.006 -122.072)" clip-path="url(#clip-path)">
      <g id="Grupo_1101549" data-name="Grupo 1101549" transform="translate(486.063 1851.349)">
        <g id="Grupo_1101548" data-name="Grupo 1101548" transform="translate(0 0)" clip-path="url(#clip-path-2)">
          <path id="Trazado_891119" data-name="Trazado 891119" d="M23.383,11.692A11.692,11.692,0,1,1,11.69,0,11.693,11.693,0,0,1,23.383,11.692" transform="translate(0 -0.002)" fill="#567e6f"/>
          <path id="Trazado_891120" data-name="Trazado 891120" d="M38.628,11.692A11.692,11.692,0,1,1,26.935,0,11.693,11.693,0,0,1,38.628,11.692" transform="translate(28.085 -0.002)" fill="#567e6f"/>
          <path id="Trazado_891121" data-name="Trazado 891121" d="M53.872,11.692A11.692,11.692,0,1,1,42.179,0,11.693,11.693,0,0,1,53.872,11.692" transform="translate(56.169 -0.002)" fill="#567e6f"/>
          <path id="Trazado_891122" data-name="Trazado 891122" d="M69.117,11.692A11.692,11.692,0,1,1,57.424,0,11.693,11.693,0,0,1,69.117,11.692" transform="translate(84.254 -0.002)" fill="#567e6f"/>
          <path id="Trazado_891123" data-name="Trazado 891123" d="M84.361,11.692A11.692,11.692,0,1,1,72.668,0,11.693,11.693,0,0,1,84.361,11.692" transform="translate(112.338 -0.002)" fill="#567e6f"/>
          <path id="Trazado_891124" data-name="Trazado 891124" d="M99.606,11.692A11.692,11.692,0,1,1,87.913,0,11.693,11.693,0,0,1,99.606,11.692" transform="translate(140.423 -0.002)" fill="#567e6f"/>
          <path id="Trazado_891125" data-name="Trazado 891125" d="M114.85,11.692A11.692,11.692,0,1,1,103.157,0,11.693,11.693,0,0,1,114.85,11.692" transform="translate(168.507 -0.002)" fill="#567e6f"/>
          <path id="Trazado_891126" data-name="Trazado 891126" d="M130.1,11.692A11.692,11.692,0,1,1,118.4,0,11.693,11.693,0,0,1,130.1,11.692" transform="translate(196.592 -0.002)" fill="#567e6f"/>
          <path id="Trazado_891127" data-name="Trazado 891127" d="M145.339,11.692A11.692,11.692,0,1,1,133.646,0a11.693,11.693,0,0,1,11.693,11.693" transform="translate(224.676 -0.002)" fill="#567e6f"/>
          <path id="Trazado_891128" data-name="Trazado 891128" d="M160.584,11.692A11.692,11.692,0,1,1,148.891,0a11.693,11.693,0,0,1,11.693,11.693" transform="translate(252.761 -0.002)" fill="#567e6f"/>
          <path id="Trazado_891129" data-name="Trazado 891129" d="M175.828,11.692A11.692,11.692,0,1,1,164.135,0a11.693,11.693,0,0,1,11.693,11.693" transform="translate(280.845 -0.002)" fill="#567e6f"/>
          <path id="Trazado_891130" data-name="Trazado 891130" d="M191.073,11.692A11.692,11.692,0,1,1,179.38,0a11.693,11.693,0,0,1,11.693,11.693" transform="translate(308.93 -0.002)" fill="#567e6f"/>
          <path id="Trazado_891131" data-name="Trazado 891131" d="M206.317,11.692A11.692,11.692,0,1,1,194.624,0a11.693,11.693,0,0,1,11.693,11.693" transform="translate(337.014 -0.002)" fill="#567e6f"/>
          <path id="Trazado_891132" data-name="Trazado 891132" d="M30.822,19.074A11.692,11.692,0,1,1,19.129,7.381,11.693,11.693,0,0,1,30.822,19.074" transform="translate(13.705 13.598)" fill="#567e6f"/>
          <path id="Trazado_891133" data-name="Trazado 891133" d="M46.067,19.074A11.692,11.692,0,1,1,34.374,7.381,11.693,11.693,0,0,1,46.067,19.074" transform="translate(41.79 13.598)" fill="#567e6f"/>
          <path id="Trazado_891134" data-name="Trazado 891134" d="M61.311,19.074A11.692,11.692,0,1,1,49.618,7.381,11.693,11.693,0,0,1,61.311,19.074" transform="translate(69.874 13.598)" fill="#567e6f"/>
          <path id="Trazado_891135" data-name="Trazado 891135" d="M76.556,19.074A11.692,11.692,0,1,1,64.863,7.381,11.693,11.693,0,0,1,76.556,19.074" transform="translate(97.959 13.598)" fill="#567e6f"/>
          <path id="Trazado_891136" data-name="Trazado 891136" d="M91.8,19.074A11.692,11.692,0,1,1,80.107,7.381,11.693,11.693,0,0,1,91.8,19.074" transform="translate(126.043 13.598)" fill="#567e6f"/>
          <path id="Trazado_891137" data-name="Trazado 891137" d="M107.045,19.074A11.692,11.692,0,1,1,95.352,7.381a11.693,11.693,0,0,1,11.693,11.693" transform="translate(154.128 13.598)" fill="#567e6f"/>
          <path id="Trazado_891138" data-name="Trazado 891138" d="M122.289,19.074A11.692,11.692,0,1,1,110.6,7.381a11.693,11.693,0,0,1,11.693,11.693" transform="translate(182.212 13.598)" fill="#567e6f"/>
          <path id="Trazado_891139" data-name="Trazado 891139" d="M137.534,19.074A11.692,11.692,0,1,1,125.841,7.381a11.693,11.693,0,0,1,11.693,11.693" transform="translate(210.297 13.598)" fill="#567e6f"/>
          <path id="Trazado_891140" data-name="Trazado 891140" d="M152.778,19.074A11.692,11.692,0,1,1,141.085,7.381a11.693,11.693,0,0,1,11.693,11.693" transform="translate(238.38 13.598)" fill="#567e6f"/>
          <path id="Trazado_891141" data-name="Trazado 891141" d="M168.023,19.074A11.692,11.692,0,1,1,156.33,7.381a11.693,11.693,0,0,1,11.693,11.693" transform="translate(266.466 13.598)" fill="#567e6f"/>
          <path id="Trazado_891142" data-name="Trazado 891142" d="M183.267,19.074A11.692,11.692,0,1,1,171.574,7.381a11.693,11.693,0,0,1,11.693,11.693" transform="translate(294.549 13.598)" fill="#567e6f"/>
          <path id="Trazado_891143" data-name="Trazado 891143" d="M198.512,19.074A11.692,11.692,0,1,1,186.819,7.381a11.693,11.693,0,0,1,11.693,11.693" transform="translate(322.635 13.598)" fill="#567e6f"/>
          <path id="Trazado_891144" data-name="Trazado 891144" d="M213.756,19.074A11.692,11.692,0,1,1,202.063,7.381a11.693,11.693,0,0,1,11.693,11.693" transform="translate(350.718 13.598)" fill="#567e6f"/>
          <path id="Trazado_891145" data-name="Trazado 891145" d="M23.383,27.3A11.692,11.692,0,1,1,11.69,15.608,11.693,11.693,0,0,1,23.383,27.3" transform="translate(0 28.754)" fill="#567e6f"/>
          <path id="Trazado_891146" data-name="Trazado 891146" d="M38.628,27.3A11.692,11.692,0,1,1,26.935,15.608,11.693,11.693,0,0,1,38.628,27.3" transform="translate(28.085 28.754)" fill="#567e6f"/>
          <path id="Trazado_891147" data-name="Trazado 891147" d="M53.872,27.3A11.692,11.692,0,1,1,42.179,15.608,11.693,11.693,0,0,1,53.872,27.3" transform="translate(56.169 28.754)" fill="#567e6f"/>
          <path id="Trazado_891148" data-name="Trazado 891148" d="M69.117,27.3A11.692,11.692,0,1,1,57.424,15.608,11.693,11.693,0,0,1,69.117,27.3" transform="translate(84.254 28.754)" fill="#567e6f"/>
          <path id="Trazado_891149" data-name="Trazado 891149" d="M84.361,27.3A11.692,11.692,0,1,1,72.668,15.608,11.693,11.693,0,0,1,84.361,27.3" transform="translate(112.338 28.754)" fill="#567e6f"/>
          <path id="Trazado_891150" data-name="Trazado 891150" d="M99.606,27.3A11.692,11.692,0,1,1,87.913,15.608,11.693,11.693,0,0,1,99.606,27.3" transform="translate(140.423 28.754)" fill="#567e6f"/>
          <path id="Trazado_891151" data-name="Trazado 891151" d="M114.85,27.3a11.692,11.692,0,1,1-11.693-11.693A11.693,11.693,0,0,1,114.85,27.3" transform="translate(168.507 28.754)" fill="#567e6f"/>
          <path id="Trazado_891152" data-name="Trazado 891152" d="M130.1,27.3A11.692,11.692,0,1,1,118.4,15.608,11.693,11.693,0,0,1,130.1,27.3" transform="translate(196.592 28.754)" fill="#567e6f"/>
          <path id="Trazado_891153" data-name="Trazado 891153" d="M145.339,27.3a11.692,11.692,0,1,1-11.693-11.693A11.693,11.693,0,0,1,145.339,27.3" transform="translate(224.676 28.754)" fill="#567e6f"/>
          <path id="Trazado_891154" data-name="Trazado 891154" d="M160.584,27.3a11.692,11.692,0,1,1-11.693-11.693A11.693,11.693,0,0,1,160.584,27.3" transform="translate(252.761 28.754)" fill="#567e6f"/>
          <path id="Trazado_891155" data-name="Trazado 891155" d="M175.828,27.3a11.692,11.692,0,1,1-11.693-11.693A11.693,11.693,0,0,1,175.828,27.3" transform="translate(280.845 28.754)" fill="#567e6f"/>
          <path id="Trazado_891156" data-name="Trazado 891156" d="M191.073,27.3A11.692,11.692,0,1,1,179.38,15.608,11.693,11.693,0,0,1,191.073,27.3" transform="translate(308.93 28.754)" fill="#567e6f"/>
          <path id="Trazado_891157" data-name="Trazado 891157" d="M206.317,27.3a11.692,11.692,0,1,1-11.693-11.693A11.693,11.693,0,0,1,206.317,27.3" transform="translate(337.014 28.754)" fill="#567e6f"/>
          <path id="Trazado_891158" data-name="Trazado 891158" d="M30.822,34.683A11.692,11.692,0,1,1,19.129,22.99,11.693,11.693,0,0,1,30.822,34.683" transform="translate(13.705 42.354)" fill="#567e6f"/>
          <path id="Trazado_891159" data-name="Trazado 891159" d="M46.067,34.683A11.692,11.692,0,1,1,34.374,22.99,11.693,11.693,0,0,1,46.067,34.683" transform="translate(41.79 42.354)" fill="#567e6f"/>
          <path id="Trazado_891160" data-name="Trazado 891160" d="M61.311,34.683A11.692,11.692,0,1,1,49.618,22.99,11.693,11.693,0,0,1,61.311,34.683" transform="translate(69.874 42.354)" fill="#567e6f"/>
          <path id="Trazado_891161" data-name="Trazado 891161" d="M76.556,34.683A11.692,11.692,0,1,1,64.863,22.99,11.693,11.693,0,0,1,76.556,34.683" transform="translate(97.959 42.354)" fill="#567e6f"/>
          <path id="Trazado_891162" data-name="Trazado 891162" d="M91.8,34.683A11.692,11.692,0,1,1,80.107,22.99,11.693,11.693,0,0,1,91.8,34.683" transform="translate(126.043 42.354)" fill="#567e6f"/>
          <path id="Trazado_891163" data-name="Trazado 891163" d="M107.045,34.683A11.692,11.692,0,1,1,95.352,22.99a11.693,11.693,0,0,1,11.693,11.693" transform="translate(154.128 42.354)" fill="#567e6f"/>
          <path id="Trazado_891164" data-name="Trazado 891164" d="M122.289,34.683A11.692,11.692,0,1,1,110.6,22.99a11.693,11.693,0,0,1,11.693,11.693" transform="translate(182.212 42.354)" fill="#567e6f"/>
          <path id="Trazado_891165" data-name="Trazado 891165" d="M137.534,34.683A11.692,11.692,0,1,1,125.841,22.99a11.693,11.693,0,0,1,11.693,11.693" transform="translate(210.297 42.354)" fill="#567e6f"/>
          <path id="Trazado_891166" data-name="Trazado 891166" d="M152.778,34.683A11.692,11.692,0,1,1,141.085,22.99a11.693,11.693,0,0,1,11.693,11.693" transform="translate(238.38 42.354)" fill="#567e6f"/>
          <path id="Trazado_891167" data-name="Trazado 891167" d="M168.023,34.683A11.692,11.692,0,1,1,156.33,22.99a11.693,11.693,0,0,1,11.693,11.693" transform="translate(266.466 42.354)" fill="#567e6f"/>
          <path id="Trazado_891168" data-name="Trazado 891168" d="M183.267,34.683A11.692,11.692,0,1,1,171.574,22.99a11.693,11.693,0,0,1,11.693,11.693" transform="translate(294.549 42.354)" fill="#567e6f"/>
          <path id="Trazado_891169" data-name="Trazado 891169" d="M198.512,34.683A11.692,11.692,0,1,1,186.819,22.99a11.693,11.693,0,0,1,11.693,11.693" transform="translate(322.635 42.354)" fill="#567e6f"/>
          <path id="Trazado_891170" data-name="Trazado 891170" d="M213.756,34.683A11.692,11.692,0,1,1,202.063,22.99a11.694,11.694,0,0,1,11.693,11.693" transform="translate(350.718 42.354)" fill="#567e6f"/>
          <path id="Trazado_891171" data-name="Trazado 891171" d="M23.383,42.91A11.692,11.692,0,1,1,11.69,31.217,11.693,11.693,0,0,1,23.383,42.91" transform="translate(0 57.51)" fill="#567e6f"/>
          <path id="Trazado_891172" data-name="Trazado 891172" d="M38.628,42.91A11.692,11.692,0,1,1,26.935,31.217,11.693,11.693,0,0,1,38.628,42.91" transform="translate(28.085 57.51)" fill="#567e6f"/>
          <path id="Trazado_891173" data-name="Trazado 891173" d="M53.872,42.91A11.692,11.692,0,1,1,42.179,31.217,11.693,11.693,0,0,1,53.872,42.91" transform="translate(56.169 57.51)" fill="#567e6f"/>
          <path id="Trazado_891174" data-name="Trazado 891174" d="M69.117,42.91A11.692,11.692,0,1,1,57.424,31.217,11.693,11.693,0,0,1,69.117,42.91" transform="translate(84.254 57.51)" fill="#567e6f"/>
          <path id="Trazado_891175" data-name="Trazado 891175" d="M84.361,42.91A11.692,11.692,0,1,1,72.668,31.217,11.693,11.693,0,0,1,84.361,42.91" transform="translate(112.338 57.51)" fill="#567e6f"/>
          <path id="Trazado_891176" data-name="Trazado 891176" d="M99.606,42.91A11.692,11.692,0,1,1,87.913,31.217,11.693,11.693,0,0,1,99.606,42.91" transform="translate(140.423 57.51)" fill="#567e6f"/>
          <path id="Trazado_891177" data-name="Trazado 891177" d="M114.85,42.91a11.692,11.692,0,1,1-11.693-11.693A11.693,11.693,0,0,1,114.85,42.91" transform="translate(168.507 57.51)" fill="#567e6f"/>
          <path id="Trazado_891178" data-name="Trazado 891178" d="M130.1,42.91A11.692,11.692,0,1,1,118.4,31.217,11.693,11.693,0,0,1,130.1,42.91" transform="translate(196.592 57.51)" fill="#567e6f"/>
          <path id="Trazado_891179" data-name="Trazado 891179" d="M145.339,42.91a11.692,11.692,0,1,1-11.693-11.693A11.693,11.693,0,0,1,145.339,42.91" transform="translate(224.676 57.51)" fill="#567e6f"/>
          <path id="Trazado_891180" data-name="Trazado 891180" d="M160.584,42.91a11.692,11.692,0,1,1-11.693-11.693A11.693,11.693,0,0,1,160.584,42.91" transform="translate(252.761 57.51)" fill="#567e6f"/>
          <path id="Trazado_891181" data-name="Trazado 891181" d="M175.828,42.91a11.692,11.692,0,1,1-11.693-11.693A11.693,11.693,0,0,1,175.828,42.91" transform="translate(280.845 57.51)" fill="#567e6f"/>
          <path id="Trazado_891182" data-name="Trazado 891182" d="M191.073,42.91A11.692,11.692,0,1,1,179.38,31.217,11.693,11.693,0,0,1,191.073,42.91" transform="translate(308.93 57.51)" fill="#567e6f"/>
          <path id="Trazado_891183" data-name="Trazado 891183" d="M206.317,42.91a11.692,11.692,0,1,1-11.693-11.693A11.693,11.693,0,0,1,206.317,42.91" transform="translate(337.014 57.51)" fill="#567e6f"/>
          <path id="Trazado_891184" data-name="Trazado 891184" d="M30.822,50.292A11.692,11.692,0,1,1,19.129,38.6,11.693,11.693,0,0,1,30.822,50.292" transform="translate(13.705 71.11)" fill="#567e6f"/>
          <path id="Trazado_891185" data-name="Trazado 891185" d="M46.067,50.292A11.692,11.692,0,1,1,34.374,38.6,11.693,11.693,0,0,1,46.067,50.292" transform="translate(41.79 71.11)" fill="#567e6f"/>
          <path id="Trazado_891186" data-name="Trazado 891186" d="M61.311,50.292A11.692,11.692,0,1,1,49.618,38.6,11.693,11.693,0,0,1,61.311,50.292" transform="translate(69.874 71.11)" fill="#567e6f"/>
          <path id="Trazado_891187" data-name="Trazado 891187" d="M76.556,50.292A11.692,11.692,0,1,1,64.863,38.6,11.693,11.693,0,0,1,76.556,50.292" transform="translate(97.959 71.11)" fill="#567e6f"/>
          <path id="Trazado_891188" data-name="Trazado 891188" d="M91.8,50.292A11.692,11.692,0,1,1,80.107,38.6,11.693,11.693,0,0,1,91.8,50.292" transform="translate(126.043 71.11)" fill="#567e6f"/>
          <path id="Trazado_891189" data-name="Trazado 891189" d="M107.045,50.292A11.692,11.692,0,1,1,95.352,38.6a11.693,11.693,0,0,1,11.693,11.693" transform="translate(154.128 71.11)" fill="#567e6f"/>
          <path id="Trazado_891190" data-name="Trazado 891190" d="M122.289,50.292A11.692,11.692,0,1,1,110.6,38.6a11.693,11.693,0,0,1,11.693,11.693" transform="translate(182.212 71.11)" fill="#567e6f"/>
          <path id="Trazado_891191" data-name="Trazado 891191" d="M137.534,50.292A11.692,11.692,0,1,1,125.841,38.6a11.693,11.693,0,0,1,11.693,11.693" transform="translate(210.297 71.11)" fill="#567e6f"/>
          <path id="Trazado_891192" data-name="Trazado 891192" d="M152.778,50.292A11.692,11.692,0,1,1,141.085,38.6a11.693,11.693,0,0,1,11.693,11.693" transform="translate(238.38 71.11)" fill="#567e6f"/>
          <path id="Trazado_891193" data-name="Trazado 891193" d="M168.023,50.292A11.692,11.692,0,1,1,156.33,38.6a11.693,11.693,0,0,1,11.693,11.693" transform="translate(266.466 71.11)" fill="#567e6f"/>
          <path id="Trazado_891194" data-name="Trazado 891194" d="M183.267,50.292A11.692,11.692,0,1,1,171.574,38.6a11.693,11.693,0,0,1,11.693,11.693" transform="translate(294.549 71.11)" fill="#567e6f"/>
          <path id="Trazado_891195" data-name="Trazado 891195" d="M198.512,50.292A11.692,11.692,0,1,1,186.819,38.6a11.693,11.693,0,0,1,11.693,11.693" transform="translate(322.635 71.11)" fill="#567e6f"/>
          <path id="Trazado_891196" data-name="Trazado 891196" d="M213.756,50.292A11.692,11.692,0,1,1,202.063,38.6a11.693,11.693,0,0,1,11.693,11.693" transform="translate(350.718 71.11)" fill="#567e6f"/>
          <path id="Trazado_891197" data-name="Trazado 891197" d="M23.383,58.519A11.692,11.692,0,1,1,11.69,46.826,11.693,11.693,0,0,1,23.383,58.519" transform="translate(0 86.266)" fill="#567e6f"/>
          <path id="Trazado_891198" data-name="Trazado 891198" d="M38.628,58.519A11.692,11.692,0,1,1,26.935,46.826,11.693,11.693,0,0,1,38.628,58.519" transform="translate(28.085 86.266)" fill="#567e6f"/>
          <path id="Trazado_891199" data-name="Trazado 891199" d="M53.872,58.519A11.692,11.692,0,1,1,42.179,46.826,11.693,11.693,0,0,1,53.872,58.519" transform="translate(56.169 86.266)" fill="#567e6f"/>
          <path id="Trazado_891200" data-name="Trazado 891200" d="M69.117,58.519A11.692,11.692,0,1,1,57.424,46.826,11.693,11.693,0,0,1,69.117,58.519" transform="translate(84.254 86.266)" fill="#567e6f"/>
          <path id="Trazado_891201" data-name="Trazado 891201" d="M84.361,58.519A11.692,11.692,0,1,1,72.668,46.826,11.693,11.693,0,0,1,84.361,58.519" transform="translate(112.338 86.266)" fill="#567e6f"/>
          <path id="Trazado_891202" data-name="Trazado 891202" d="M99.606,58.519A11.692,11.692,0,1,1,87.913,46.826,11.693,11.693,0,0,1,99.606,58.519" transform="translate(140.423 86.266)" fill="#567e6f"/>
          <path id="Trazado_891203" data-name="Trazado 891203" d="M114.85,58.519a11.692,11.692,0,1,1-11.693-11.693A11.693,11.693,0,0,1,114.85,58.519" transform="translate(168.507 86.266)" fill="#567e6f"/>
          <path id="Trazado_891204" data-name="Trazado 891204" d="M130.1,58.519A11.692,11.692,0,1,1,118.4,46.826,11.693,11.693,0,0,1,130.1,58.519" transform="translate(196.592 86.266)" fill="#567e6f"/>
          <path id="Trazado_891205" data-name="Trazado 891205" d="M145.339,58.519a11.692,11.692,0,1,1-11.693-11.693,11.693,11.693,0,0,1,11.693,11.693" transform="translate(224.676 86.266)" fill="#567e6f"/>
          <path id="Trazado_891206" data-name="Trazado 891206" d="M160.584,58.519a11.692,11.692,0,1,1-11.693-11.693,11.693,11.693,0,0,1,11.693,11.693" transform="translate(252.761 86.266)" fill="#567e6f"/>
          <path id="Trazado_891207" data-name="Trazado 891207" d="M175.828,58.519a11.692,11.692,0,1,1-11.693-11.693,11.693,11.693,0,0,1,11.693,11.693" transform="translate(280.845 86.266)" fill="#567e6f"/>
          <path id="Trazado_891208" data-name="Trazado 891208" d="M191.073,58.519A11.692,11.692,0,1,1,179.38,46.826a11.693,11.693,0,0,1,11.693,11.693" transform="translate(308.93 86.266)" fill="#567e6f"/>
          <path id="Trazado_891209" data-name="Trazado 891209" d="M206.317,58.519a11.692,11.692,0,1,1-11.693-11.693,11.693,11.693,0,0,1,11.693,11.693" transform="translate(337.014 86.266)" fill="#567e6f"/>
          <path id="Trazado_891210" data-name="Trazado 891210" d="M30.822,65.9A11.692,11.692,0,1,1,19.129,54.208,11.693,11.693,0,0,1,30.822,65.9" transform="translate(13.705 99.866)" fill="#567e6f"/>
          <path id="Trazado_891211" data-name="Trazado 891211" d="M46.067,65.9A11.692,11.692,0,1,1,34.374,54.208,11.693,11.693,0,0,1,46.067,65.9" transform="translate(41.79 99.866)" fill="#567e6f"/>
          <path id="Trazado_891212" data-name="Trazado 891212" d="M61.311,65.9A11.692,11.692,0,1,1,49.618,54.208,11.693,11.693,0,0,1,61.311,65.9" transform="translate(69.874 99.866)" fill="#567e6f"/>
          <path id="Trazado_891213" data-name="Trazado 891213" d="M76.556,65.9A11.692,11.692,0,1,1,64.863,54.208,11.693,11.693,0,0,1,76.556,65.9" transform="translate(97.959 99.866)" fill="#567e6f"/>
          <path id="Trazado_891214" data-name="Trazado 891214" d="M91.8,65.9A11.692,11.692,0,1,1,80.107,54.208,11.693,11.693,0,0,1,91.8,65.9" transform="translate(126.043 99.866)" fill="#567e6f"/>
          <path id="Trazado_891215" data-name="Trazado 891215" d="M107.045,65.9A11.692,11.692,0,1,1,95.352,54.208,11.693,11.693,0,0,1,107.045,65.9" transform="translate(154.128 99.866)" fill="#567e6f"/>
          <path id="Trazado_891216" data-name="Trazado 891216" d="M122.289,65.9A11.692,11.692,0,1,1,110.6,54.208,11.693,11.693,0,0,1,122.289,65.9" transform="translate(182.212 99.866)" fill="#567e6f"/>
          <path id="Trazado_891217" data-name="Trazado 891217" d="M137.534,65.9a11.692,11.692,0,1,1-11.693-11.693A11.693,11.693,0,0,1,137.534,65.9" transform="translate(210.297 99.866)" fill="#567e6f"/>
          <path id="Trazado_891218" data-name="Trazado 891218" d="M152.778,65.9a11.692,11.692,0,1,1-11.693-11.693A11.693,11.693,0,0,1,152.778,65.9" transform="translate(238.38 99.866)" fill="#567e6f"/>
          <path id="Trazado_891219" data-name="Trazado 891219" d="M168.023,65.9A11.692,11.692,0,1,1,156.33,54.208,11.693,11.693,0,0,1,168.023,65.9" transform="translate(266.466 99.866)" fill="#567e6f"/>
          <path id="Trazado_891220" data-name="Trazado 891220" d="M183.267,65.9a11.692,11.692,0,1,1-11.693-11.693A11.693,11.693,0,0,1,183.267,65.9" transform="translate(294.549 99.866)" fill="#567e6f"/>
          <path id="Trazado_891221" data-name="Trazado 891221" d="M198.512,65.9a11.692,11.692,0,1,1-11.693-11.693A11.693,11.693,0,0,1,198.512,65.9" transform="translate(322.635 99.866)" fill="#567e6f"/>
          <path id="Trazado_891222" data-name="Trazado 891222" d="M213.756,65.9a11.692,11.692,0,1,1-11.693-11.693A11.693,11.693,0,0,1,213.756,65.9" transform="translate(350.718 99.866)" fill="#567e6f"/>
          <path id="Trazado_891223" data-name="Trazado 891223" d="M23.383,74.128A11.692,11.692,0,1,1,11.69,62.435,11.693,11.693,0,0,1,23.383,74.128" transform="translate(0 115.022)" fill="#567e6f"/>
          <path id="Trazado_891224" data-name="Trazado 891224" d="M38.628,74.128A11.692,11.692,0,1,1,26.935,62.435,11.693,11.693,0,0,1,38.628,74.128" transform="translate(28.085 115.022)" fill="#567e6f"/>
          <path id="Trazado_891225" data-name="Trazado 891225" d="M53.872,74.128A11.692,11.692,0,1,1,42.179,62.435,11.693,11.693,0,0,1,53.872,74.128" transform="translate(56.169 115.022)" fill="#567e6f"/>
          <path id="Trazado_891226" data-name="Trazado 891226" d="M69.117,74.128A11.692,11.692,0,1,1,57.424,62.435,11.693,11.693,0,0,1,69.117,74.128" transform="translate(84.254 115.022)" fill="#567e6f"/>
          <path id="Trazado_891227" data-name="Trazado 891227" d="M84.361,74.128A11.692,11.692,0,1,1,72.668,62.435,11.693,11.693,0,0,1,84.361,74.128" transform="translate(112.338 115.022)" fill="#567e6f"/>
          <path id="Trazado_891228" data-name="Trazado 891228" d="M99.606,74.128A11.692,11.692,0,1,1,87.913,62.435,11.693,11.693,0,0,1,99.606,74.128" transform="translate(140.423 115.022)" fill="#567e6f"/>
          <path id="Trazado_891229" data-name="Trazado 891229" d="M114.85,74.128a11.692,11.692,0,1,1-11.693-11.693A11.693,11.693,0,0,1,114.85,74.128" transform="translate(168.507 115.022)" fill="#567e6f"/>
          <path id="Trazado_891230" data-name="Trazado 891230" d="M130.1,74.128A11.692,11.692,0,1,1,118.4,62.435,11.693,11.693,0,0,1,130.1,74.128" transform="translate(196.592 115.022)" fill="#567e6f"/>
          <path id="Trazado_891231" data-name="Trazado 891231" d="M145.339,74.128a11.692,11.692,0,1,1-11.693-11.693,11.693,11.693,0,0,1,11.693,11.693" transform="translate(224.676 115.022)" fill="#567e6f"/>
          <path id="Trazado_891232" data-name="Trazado 891232" d="M160.584,74.128a11.692,11.692,0,1,1-11.693-11.693,11.693,11.693,0,0,1,11.693,11.693" transform="translate(252.761 115.022)" fill="#567e6f"/>
          <path id="Trazado_891233" data-name="Trazado 891233" d="M175.828,74.128a11.692,11.692,0,1,1-11.693-11.693,11.693,11.693,0,0,1,11.693,11.693" transform="translate(280.845 115.022)" fill="#567e6f"/>
          <path id="Trazado_891234" data-name="Trazado 891234" d="M191.073,74.128A11.692,11.692,0,1,1,179.38,62.435a11.693,11.693,0,0,1,11.693,11.693" transform="translate(308.93 115.022)" fill="#567e6f"/>
          <path id="Trazado_891235" data-name="Trazado 891235" d="M206.317,74.128a11.692,11.692,0,1,1-11.693-11.693,11.693,11.693,0,0,1,11.693,11.693" transform="translate(337.014 115.022)" fill="#567e6f"/>
          <path id="Trazado_891236" data-name="Trazado 891236" d="M30.822,81.51A11.692,11.692,0,1,1,19.129,69.817,11.693,11.693,0,0,1,30.822,81.51" transform="translate(13.705 128.622)" fill="#567e6f"/>
          <path id="Trazado_891237" data-name="Trazado 891237" d="M46.067,81.51A11.692,11.692,0,1,1,34.374,69.817,11.693,11.693,0,0,1,46.067,81.51" transform="translate(41.79 128.622)" fill="#567e6f"/>
          <path id="Trazado_891238" data-name="Trazado 891238" d="M61.311,81.51A11.692,11.692,0,1,1,49.618,69.817,11.693,11.693,0,0,1,61.311,81.51" transform="translate(69.874 128.622)" fill="#567e6f"/>
          <path id="Trazado_891239" data-name="Trazado 891239" d="M76.556,81.51A11.692,11.692,0,1,1,64.863,69.817,11.693,11.693,0,0,1,76.556,81.51" transform="translate(97.959 128.622)" fill="#567e6f"/>
          <path id="Trazado_891240" data-name="Trazado 891240" d="M91.8,81.51A11.692,11.692,0,1,1,80.107,69.817,11.693,11.693,0,0,1,91.8,81.51" transform="translate(126.043 128.622)" fill="#567e6f"/>
          <path id="Trazado_891241" data-name="Trazado 891241" d="M107.045,81.51A11.692,11.692,0,1,1,95.352,69.817,11.693,11.693,0,0,1,107.045,81.51" transform="translate(154.128 128.622)" fill="#567e6f"/>
          <path id="Trazado_891242" data-name="Trazado 891242" d="M122.289,81.51A11.692,11.692,0,1,1,110.6,69.817,11.693,11.693,0,0,1,122.289,81.51" transform="translate(182.212 128.622)" fill="#567e6f"/>
          <path id="Trazado_891243" data-name="Trazado 891243" d="M137.534,81.51a11.692,11.692,0,1,1-11.693-11.693A11.693,11.693,0,0,1,137.534,81.51" transform="translate(210.297 128.622)" fill="#567e6f"/>
          <path id="Trazado_891244" data-name="Trazado 891244" d="M152.778,81.51a11.692,11.692,0,1,1-11.693-11.693A11.693,11.693,0,0,1,152.778,81.51" transform="translate(238.38 128.622)" fill="#567e6f"/>
          <path id="Trazado_891245" data-name="Trazado 891245" d="M168.023,81.51A11.692,11.692,0,1,1,156.33,69.817,11.693,11.693,0,0,1,168.023,81.51" transform="translate(266.466 128.622)" fill="#567e6f"/>
          <path id="Trazado_891246" data-name="Trazado 891246" d="M183.267,81.51a11.692,11.692,0,1,1-11.693-11.693A11.693,11.693,0,0,1,183.267,81.51" transform="translate(294.549 128.622)" fill="#567e6f"/>
          <path id="Trazado_891247" data-name="Trazado 891247" d="M198.512,81.51a11.692,11.692,0,1,1-11.693-11.693A11.693,11.693,0,0,1,198.512,81.51" transform="translate(322.635 128.622)" fill="#567e6f"/>
          <path id="Trazado_891248" data-name="Trazado 891248" d="M213.756,81.51a11.692,11.692,0,1,1-11.693-11.693A11.693,11.693,0,0,1,213.756,81.51" transform="translate(350.718 128.622)" fill="#567e6f"/>
          <path id="Trazado_891249" data-name="Trazado 891249" d="M23.383,89.738A11.692,11.692,0,1,1,11.69,78.045,11.693,11.693,0,0,1,23.383,89.738" transform="translate(0 143.78)" fill="#567e6f"/>
          <path id="Trazado_891250" data-name="Trazado 891250" d="M38.628,89.738A11.692,11.692,0,1,1,26.935,78.045,11.693,11.693,0,0,1,38.628,89.738" transform="translate(28.085 143.78)" fill="#567e6f"/>
          <path id="Trazado_891251" data-name="Trazado 891251" d="M53.872,89.738A11.692,11.692,0,1,1,42.179,78.045,11.693,11.693,0,0,1,53.872,89.738" transform="translate(56.169 143.78)" fill="#567e6f"/>
          <path id="Trazado_891252" data-name="Trazado 891252" d="M69.117,89.738A11.692,11.692,0,1,1,57.424,78.045,11.693,11.693,0,0,1,69.117,89.738" transform="translate(84.254 143.78)" fill="#567e6f"/>
          <path id="Trazado_891253" data-name="Trazado 891253" d="M84.361,89.738A11.692,11.692,0,1,1,72.668,78.045,11.693,11.693,0,0,1,84.361,89.738" transform="translate(112.338 143.78)" fill="#567e6f"/>
          <path id="Trazado_891254" data-name="Trazado 891254" d="M99.606,89.738A11.692,11.692,0,1,1,87.913,78.045,11.693,11.693,0,0,1,99.606,89.738" transform="translate(140.423 143.78)" fill="#567e6f"/>
          <path id="Trazado_891255" data-name="Trazado 891255" d="M114.85,89.738a11.692,11.692,0,1,1-11.693-11.693A11.693,11.693,0,0,1,114.85,89.738" transform="translate(168.507 143.78)" fill="#567e6f"/>
          <path id="Trazado_891256" data-name="Trazado 891256" d="M130.1,89.738A11.692,11.692,0,1,1,118.4,78.045,11.693,11.693,0,0,1,130.1,89.738" transform="translate(196.592 143.78)" fill="#567e6f"/>
          <path id="Trazado_891257" data-name="Trazado 891257" d="M145.339,89.738a11.692,11.692,0,1,1-11.693-11.693,11.693,11.693,0,0,1,11.693,11.693" transform="translate(224.676 143.78)" fill="#567e6f"/>
          <path id="Trazado_891258" data-name="Trazado 891258" d="M160.584,89.738a11.692,11.692,0,1,1-11.693-11.693,11.693,11.693,0,0,1,11.693,11.693" transform="translate(252.761 143.78)" fill="#567e6f"/>
          <path id="Trazado_891259" data-name="Trazado 891259" d="M175.828,89.738a11.692,11.692,0,1,1-11.693-11.693,11.693,11.693,0,0,1,11.693,11.693" transform="translate(280.845 143.78)" fill="#567e6f"/>
          <path id="Trazado_891260" data-name="Trazado 891260" d="M191.073,89.738A11.692,11.692,0,1,1,179.38,78.045a11.693,11.693,0,0,1,11.693,11.693" transform="translate(308.93 143.78)" fill="#567e6f"/>
          <path id="Trazado_891261" data-name="Trazado 891261" d="M206.317,89.738a11.692,11.692,0,1,1-11.693-11.693,11.693,11.693,0,0,1,11.693,11.693" transform="translate(337.014 143.78)" fill="#567e6f"/>
          <path id="Trazado_891262" data-name="Trazado 891262" d="M30.822,97.119A11.692,11.692,0,1,1,19.129,85.426,11.693,11.693,0,0,1,30.822,97.119" transform="translate(13.705 157.378)" fill="#567e6f"/>
          <path id="Trazado_891263" data-name="Trazado 891263" d="M46.067,97.119A11.692,11.692,0,1,1,34.374,85.426,11.693,11.693,0,0,1,46.067,97.119" transform="translate(41.79 157.378)" fill="#567e6f"/>
          <path id="Trazado_891264" data-name="Trazado 891264" d="M61.311,97.119A11.692,11.692,0,1,1,49.618,85.426,11.693,11.693,0,0,1,61.311,97.119" transform="translate(69.874 157.378)" fill="#567e6f"/>
          <path id="Trazado_891265" data-name="Trazado 891265" d="M76.556,97.119A11.692,11.692,0,1,1,64.863,85.426,11.693,11.693,0,0,1,76.556,97.119" transform="translate(97.959 157.378)" fill="#567e6f"/>
          <path id="Trazado_891266" data-name="Trazado 891266" d="M91.8,97.119A11.692,11.692,0,1,1,80.107,85.426,11.693,11.693,0,0,1,91.8,97.119" transform="translate(126.043 157.378)" fill="#567e6f"/>
          <path id="Trazado_891267" data-name="Trazado 891267" d="M107.045,97.119A11.692,11.692,0,1,1,95.352,85.426a11.693,11.693,0,0,1,11.693,11.693" transform="translate(154.128 157.378)" fill="#567e6f"/>
          <path id="Trazado_891268" data-name="Trazado 891268" d="M122.289,97.119A11.692,11.692,0,1,1,110.6,85.426a11.693,11.693,0,0,1,11.693,11.693" transform="translate(182.212 157.378)" fill="#567e6f"/>
          <path id="Trazado_891269" data-name="Trazado 891269" d="M137.534,97.119a11.692,11.692,0,1,1-11.693-11.693,11.693,11.693,0,0,1,11.693,11.693" transform="translate(210.297 157.378)" fill="#567e6f"/>
          <path id="Trazado_891270" data-name="Trazado 891270" d="M152.778,97.119a11.692,11.692,0,1,1-11.693-11.693,11.693,11.693,0,0,1,11.693,11.693" transform="translate(238.38 157.378)" fill="#567e6f"/>
          <path id="Trazado_891271" data-name="Trazado 891271" d="M168.023,97.119A11.692,11.692,0,1,1,156.33,85.426a11.693,11.693,0,0,1,11.693,11.693" transform="translate(266.466 157.378)" fill="#567e6f"/>
          <path id="Trazado_891272" data-name="Trazado 891272" d="M183.267,97.119a11.692,11.692,0,1,1-11.693-11.693,11.693,11.693,0,0,1,11.693,11.693" transform="translate(294.549 157.378)" fill="#567e6f"/>
          <path id="Trazado_891273" data-name="Trazado 891273" d="M198.512,97.119a11.692,11.692,0,1,1-11.693-11.693,11.693,11.693,0,0,1,11.693,11.693" transform="translate(322.635 157.378)" fill="#567e6f"/>
          <path id="Trazado_891274" data-name="Trazado 891274" d="M213.756,97.119a11.692,11.692,0,1,1-11.693-11.693,11.693,11.693,0,0,1,11.693,11.693" transform="translate(350.718 157.378)" fill="#567e6f"/>
          <path id="Trazado_891275" data-name="Trazado 891275" d="M23.383,105.347A11.692,11.692,0,1,1,11.69,93.654a11.693,11.693,0,0,1,11.693,11.693" transform="translate(0 172.536)" fill="#567e6f"/>
          <path id="Trazado_891276" data-name="Trazado 891276" d="M38.628,105.347A11.692,11.692,0,1,1,26.935,93.654a11.693,11.693,0,0,1,11.693,11.693" transform="translate(28.085 172.536)" fill="#567e6f"/>
          <path id="Trazado_891277" data-name="Trazado 891277" d="M53.872,105.347A11.692,11.692,0,1,1,42.179,93.654a11.693,11.693,0,0,1,11.693,11.693" transform="translate(56.169 172.536)" fill="#567e6f"/>
          <path id="Trazado_891278" data-name="Trazado 891278" d="M69.117,105.347A11.692,11.692,0,1,1,57.424,93.654a11.693,11.693,0,0,1,11.693,11.693" transform="translate(84.254 172.536)" fill="#567e6f"/>
          <path id="Trazado_891279" data-name="Trazado 891279" d="M84.361,105.347A11.692,11.692,0,1,1,72.668,93.654a11.693,11.693,0,0,1,11.693,11.693" transform="translate(112.338 172.536)" fill="#567e6f"/>
          <path id="Trazado_891280" data-name="Trazado 891280" d="M99.606,105.347A11.692,11.692,0,1,1,87.913,93.654a11.693,11.693,0,0,1,11.693,11.693" transform="translate(140.423 172.536)" fill="#567e6f"/>
          <path id="Trazado_891281" data-name="Trazado 891281" d="M114.85,105.347a11.692,11.692,0,1,1-11.693-11.693,11.693,11.693,0,0,1,11.693,11.693" transform="translate(168.507 172.536)" fill="#567e6f"/>
          <path id="Trazado_891282" data-name="Trazado 891282" d="M130.1,105.347A11.692,11.692,0,1,1,118.4,93.654,11.693,11.693,0,0,1,130.1,105.347" transform="translate(196.592 172.536)" fill="#567e6f"/>
          <path id="Trazado_891283" data-name="Trazado 891283" d="M145.339,105.347a11.692,11.692,0,1,1-11.693-11.693,11.693,11.693,0,0,1,11.693,11.693" transform="translate(224.676 172.536)" fill="#567e6f"/>
          <path id="Trazado_891284" data-name="Trazado 891284" d="M160.584,105.347a11.692,11.692,0,1,1-11.693-11.693,11.693,11.693,0,0,1,11.693,11.693" transform="translate(252.761 172.536)" fill="#567e6f"/>
          <path id="Trazado_891285" data-name="Trazado 891285" d="M175.828,105.347a11.692,11.692,0,1,1-11.693-11.693,11.693,11.693,0,0,1,11.693,11.693" transform="translate(280.845 172.536)" fill="#567e6f"/>
          <path id="Trazado_891286" data-name="Trazado 891286" d="M191.073,105.347A11.692,11.692,0,1,1,179.38,93.654a11.693,11.693,0,0,1,11.693,11.693" transform="translate(308.93 172.536)" fill="#567e6f"/>
          <path id="Trazado_891287" data-name="Trazado 891287" d="M206.317,105.347a11.692,11.692,0,1,1-11.693-11.693,11.693,11.693,0,0,1,11.693,11.693" transform="translate(337.014 172.536)" fill="#567e6f"/>
          <path id="Trazado_891288" data-name="Trazado 891288" d="M30.822,112.728a11.692,11.692,0,1,1-11.693-11.693,11.693,11.693,0,0,1,11.693,11.693" transform="translate(13.705 186.134)" fill="#567e6f"/>
          <path id="Trazado_891289" data-name="Trazado 891289" d="M46.067,112.728a11.692,11.692,0,1,1-11.693-11.693,11.693,11.693,0,0,1,11.693,11.693" transform="translate(41.79 186.134)" fill="#567e6f"/>
          <path id="Trazado_891290" data-name="Trazado 891290" d="M61.311,112.728a11.692,11.692,0,1,1-11.693-11.693,11.693,11.693,0,0,1,11.693,11.693" transform="translate(69.874 186.134)" fill="#567e6f"/>
          <path id="Trazado_891291" data-name="Trazado 891291" d="M76.556,112.728a11.692,11.692,0,1,1-11.693-11.693,11.693,11.693,0,0,1,11.693,11.693" transform="translate(97.959 186.134)" fill="#567e6f"/>
          <path id="Trazado_891292" data-name="Trazado 891292" d="M91.8,112.728a11.692,11.692,0,1,1-11.693-11.693A11.693,11.693,0,0,1,91.8,112.728" transform="translate(126.043 186.134)" fill="#567e6f"/>
          <path id="Trazado_891293" data-name="Trazado 891293" d="M107.045,112.728a11.692,11.692,0,1,1-11.693-11.693,11.693,11.693,0,0,1,11.693,11.693" transform="translate(154.128 186.134)" fill="#567e6f"/>
          <path id="Trazado_891294" data-name="Trazado 891294" d="M122.289,112.728A11.692,11.692,0,1,1,110.6,101.035a11.693,11.693,0,0,1,11.693,11.693" transform="translate(182.212 186.134)" fill="#567e6f"/>
          <path id="Trazado_891295" data-name="Trazado 891295" d="M137.534,112.728a11.692,11.692,0,1,1-11.693-11.693,11.693,11.693,0,0,1,11.693,11.693" transform="translate(210.297 186.134)" fill="#567e6f"/>
          <path id="Trazado_891296" data-name="Trazado 891296" d="M152.778,112.728a11.692,11.692,0,1,1-11.693-11.693,11.693,11.693,0,0,1,11.693,11.693" transform="translate(238.38 186.134)" fill="#567e6f"/>
          <path id="Trazado_891297" data-name="Trazado 891297" d="M168.023,112.728a11.692,11.692,0,1,1-11.693-11.693,11.693,11.693,0,0,1,11.693,11.693" transform="translate(266.466 186.134)" fill="#567e6f"/>
          <path id="Trazado_891298" data-name="Trazado 891298" d="M183.267,112.728a11.692,11.692,0,1,1-11.693-11.693,11.693,11.693,0,0,1,11.693,11.693" transform="translate(294.549 186.134)" fill="#567e6f"/>
          <path id="Trazado_891299" data-name="Trazado 891299" d="M198.512,112.728a11.692,11.692,0,1,1-11.693-11.693,11.693,11.693,0,0,1,11.693,11.693" transform="translate(322.635 186.134)" fill="#567e6f"/>
          <path id="Trazado_891300" data-name="Trazado 891300" d="M213.756,112.728a11.692,11.692,0,1,1-11.693-11.693,11.694,11.694,0,0,1,11.693,11.693" transform="translate(350.718 186.134)" fill="#567e6f"/>
          <path id="Trazado_891301" data-name="Trazado 891301" d="M23.383,120.956A11.692,11.692,0,1,1,11.69,109.263a11.693,11.693,0,0,1,11.693,11.693" transform="translate(0 201.292)" fill="#567e6f"/>
          <path id="Trazado_891302" data-name="Trazado 891302" d="M38.628,120.956a11.692,11.692,0,1,1-11.693-11.693,11.693,11.693,0,0,1,11.693,11.693" transform="translate(28.085 201.292)" fill="#567e6f"/>
          <path id="Trazado_891303" data-name="Trazado 891303" d="M53.872,120.956a11.692,11.692,0,1,1-11.693-11.693,11.693,11.693,0,0,1,11.693,11.693" transform="translate(56.169 201.292)" fill="#567e6f"/>
          <path id="Trazado_891304" data-name="Trazado 891304" d="M69.117,120.956a11.692,11.692,0,1,1-11.693-11.693,11.693,11.693,0,0,1,11.693,11.693" transform="translate(84.254 201.292)" fill="#567e6f"/>
          <path id="Trazado_891305" data-name="Trazado 891305" d="M84.361,120.956a11.692,11.692,0,1,1-11.693-11.693,11.693,11.693,0,0,1,11.693,11.693" transform="translate(112.338 201.292)" fill="#567e6f"/>
          <path id="Trazado_891306" data-name="Trazado 891306" d="M99.606,120.956a11.692,11.692,0,1,1-11.693-11.693,11.693,11.693,0,0,1,11.693,11.693" transform="translate(140.423 201.292)" fill="#567e6f"/>
          <path id="Trazado_891307" data-name="Trazado 891307" d="M114.85,120.956a11.692,11.692,0,1,1-11.693-11.693,11.693,11.693,0,0,1,11.693,11.693" transform="translate(168.507 201.292)" fill="#567e6f"/>
          <path id="Trazado_891308" data-name="Trazado 891308" d="M130.1,120.956A11.692,11.692,0,1,1,118.4,109.263,11.693,11.693,0,0,1,130.1,120.956" transform="translate(196.592 201.292)" fill="#567e6f"/>
          <path id="Trazado_891309" data-name="Trazado 891309" d="M145.339,120.956a11.692,11.692,0,1,1-11.693-11.693,11.693,11.693,0,0,1,11.693,11.693" transform="translate(224.676 201.292)" fill="#567e6f"/>
          <path id="Trazado_891310" data-name="Trazado 891310" d="M160.584,120.956a11.692,11.692,0,1,1-11.693-11.693,11.693,11.693,0,0,1,11.693,11.693" transform="translate(252.761 201.292)" fill="#567e6f"/>
          <path id="Trazado_891311" data-name="Trazado 891311" d="M175.828,120.956a11.692,11.692,0,1,1-11.693-11.693,11.693,11.693,0,0,1,11.693,11.693" transform="translate(280.845 201.292)" fill="#567e6f"/>
          <path id="Trazado_891312" data-name="Trazado 891312" d="M191.073,120.956a11.692,11.692,0,1,1-11.693-11.693,11.693,11.693,0,0,1,11.693,11.693" transform="translate(308.93 201.292)" fill="#567e6f"/>
          <path id="Trazado_891313" data-name="Trazado 891313" d="M206.317,120.956a11.692,11.692,0,1,1-11.693-11.693,11.693,11.693,0,0,1,11.693,11.693" transform="translate(337.014 201.292)" fill="#567e6f"/>
          <path id="Trazado_891314" data-name="Trazado 891314" d="M30.822,128.337a11.692,11.692,0,1,1-11.693-11.693,11.693,11.693,0,0,1,11.693,11.693" transform="translate(13.705 214.89)" fill="#567e6f"/>
          <path id="Trazado_891315" data-name="Trazado 891315" d="M46.067,128.337a11.692,11.692,0,1,1-11.693-11.693,11.693,11.693,0,0,1,11.693,11.693" transform="translate(41.79 214.89)" fill="#567e6f"/>
          <path id="Trazado_891316" data-name="Trazado 891316" d="M61.311,128.337a11.692,11.692,0,1,1-11.693-11.693,11.693,11.693,0,0,1,11.693,11.693" transform="translate(69.874 214.89)" fill="#567e6f"/>
          <path id="Trazado_891317" data-name="Trazado 891317" d="M76.556,128.337a11.692,11.692,0,1,1-11.693-11.693,11.693,11.693,0,0,1,11.693,11.693" transform="translate(97.959 214.89)" fill="#567e6f"/>
          <path id="Trazado_891318" data-name="Trazado 891318" d="M91.8,128.337a11.692,11.692,0,1,1-11.693-11.693A11.693,11.693,0,0,1,91.8,128.337" transform="translate(126.043 214.89)" fill="#567e6f"/>
          <path id="Trazado_891319" data-name="Trazado 891319" d="M107.045,128.337a11.692,11.692,0,1,1-11.693-11.693,11.693,11.693,0,0,1,11.693,11.693" transform="translate(154.128 214.89)" fill="#567e6f"/>
          <path id="Trazado_891320" data-name="Trazado 891320" d="M122.289,128.337A11.692,11.692,0,1,1,110.6,116.644a11.693,11.693,0,0,1,11.693,11.693" transform="translate(182.212 214.89)" fill="#567e6f"/>
          <path id="Trazado_891321" data-name="Trazado 891321" d="M137.534,128.337a11.692,11.692,0,1,1-11.693-11.693,11.693,11.693,0,0,1,11.693,11.693" transform="translate(210.297 214.89)" fill="#567e6f"/>
          <path id="Trazado_891322" data-name="Trazado 891322" d="M152.778,128.337a11.692,11.692,0,1,1-11.693-11.693,11.693,11.693,0,0,1,11.693,11.693" transform="translate(238.38 214.89)" fill="#567e6f"/>
          <path id="Trazado_891323" data-name="Trazado 891323" d="M168.023,128.337a11.692,11.692,0,1,1-11.693-11.693,11.693,11.693,0,0,1,11.693,11.693" transform="translate(266.466 214.89)" fill="#567e6f"/>
          <path id="Trazado_891324" data-name="Trazado 891324" d="M183.267,128.337a11.692,11.692,0,1,1-11.693-11.693,11.693,11.693,0,0,1,11.693,11.693" transform="translate(294.549 214.89)" fill="#567e6f"/>
          <path id="Trazado_891325" data-name="Trazado 891325" d="M198.512,128.337a11.692,11.692,0,1,1-11.693-11.693,11.693,11.693,0,0,1,11.693,11.693" transform="translate(322.635 214.89)" fill="#567e6f"/>
          <path id="Trazado_891326" data-name="Trazado 891326" d="M213.756,128.337a11.692,11.692,0,1,1-11.693-11.693,11.694,11.694,0,0,1,11.693,11.693" transform="translate(350.718 214.89)" fill="#567e6f"/>
        </g>
      </g>
    </g>
    <g id="Rectángulo_401993" data-name="Rectángulo 401993" transform="translate(300.045 1795.928)" fill="#b24d03" stroke="#000" stroke-width="2">
      <rect width="195" height="101" stroke="none"/>
      <rect x="1" y="1" width="193" height="99" fill="none"/>
    </g>
    <g id="Rectángulo_401994" data-name="Rectángulo 401994" transform="translate(306.045 1801.928)" fill="#e33d00" stroke="#000" stroke-width="2">
      <rect width="183" height="89" stroke="none"/>
      <rect x="1" y="1" width="181" height="87" fill="none"/>
    </g>
    <path id="Trazado_891328" data-name="Trazado 891328" d="M-7422.085-9690.184v100" transform="translate(7781.045 11485.928)" fill="none" stroke="#000" stroke-width="2"/>
    <path id="Trazado_891329" data-name="Trazado 891329" d="M-7422.085-9690.184v100" transform="translate(7777.045 11485.928)" fill="none" stroke="#000" stroke-width="2"/>
    <path id="Trazado_891327" data-name="Trazado 891327" d="M-7599.051-9756.651v222.2h51.579v52.736h297.883v-52.736h48.544v-222.2Z" transform="translate(7781.045 11485.928)" fill="none" stroke="#3b574d" stroke-width="4"/>
  </g>
</svg>
