<svg xmlns="http://www.w3.org/2000/svg" width="813.777" height="103" viewBox="0 0 813.777 103">
  <g id="Grupo_1107073" data-name="Grupo 1107073" transform="translate(-395.612 -21506.189)">
    <g id="Grupo_1106883" data-name="Grupo 1106883" transform="translate(0 -48.811)">
      <g id="Grupo_1106882" data-name="Grupo 1106882">
        <g id="Grupo_1106623" data-name="Grupo 1106623" transform="translate(2293.889 21652.418) rotate(180)">
          <path id="Trazado_891146" data-name="Trazado 891146" d="M435.624,87.93h-74.2a8.1,8.1,0,0,1-8.106-8.106V8.613A8.1,8.1,0,0,1,361.425.507h74.2a8.1,8.1,0,0,1,8.1,8.106V79.824a8.1,8.1,0,0,1-8.1,8.106M436.668,73V15.434a8.1,8.1,0,0,0-8.1-8.1H368.476a8.1,8.1,0,0,0-8.1,8.1V73a8.1,8.1,0,0,0,8.1,8.1h60.091a8.1,8.1,0,0,0,8.1-8.1" transform="translate(1454.052 1.449)" fill="#fff" stroke="#707070" stroke-width="1"/>
          <path id="Trazado_891147" data-name="Trazado 891147" d="M435.624,87.93h-74.2a8.1,8.1,0,0,1-8.106-8.106V8.613A8.1,8.1,0,0,1,361.425.507h74.2a8.1,8.1,0,0,1,8.1,8.106V79.824A8.1,8.1,0,0,1,435.624,87.93ZM436.668,73V15.434a8.1,8.1,0,0,0-8.1-8.1H368.476a8.1,8.1,0,0,0-8.1,8.1V73a8.1,8.1,0,0,0,8.1,8.1h60.091A8.1,8.1,0,0,0,436.668,73Z" transform="translate(1454.052 1.449)" fill="#fd0" stroke="#000" stroke-miterlimit="10" stroke-width="1"/>
          <path id="Trazado_891148" data-name="Trazado 891148" d="M1085.125,40.189h0a38.662,38.662,0,0,1,38.666-38.661h699.2V78.854h-699.2a38.666,38.666,0,0,1-38.666-38.666m218.618-13.325a12.225,12.225,0,1,0,12.225,12.225,12.223,12.223,0,0,0-12.225-12.225m46.285,0a12.225,12.225,0,1,0,12.225,12.225,12.228,12.228,0,0,0-12.225-12.225m46.285,0a12.225,12.225,0,1,0,12.225,12.225,12.228,12.228,0,0,0-12.225-12.225m46.285,0a12.225,12.225,0,1,0,12.225,12.225A12.228,12.228,0,0,0,1442.6,26.863m46.285,0a12.225,12.225,0,1,0,12.225,12.225,12.228,12.228,0,0,0-12.225-12.225" transform="translate(-0.125 5.653)" fill="#ccaf91" stroke="#707070" stroke-width="1"/>
          <path id="Trazado_891149" data-name="Trazado 891149" d="M1085.125,40.189h0a38.662,38.662,0,0,1,38.666-38.661h699.2V78.854h-699.2A38.666,38.666,0,0,1,1085.125,40.189Zm218.618-13.325a12.225,12.225,0,1,0,12.225,12.225A12.223,12.223,0,0,0,1303.743,26.863Zm46.285,0a12.225,12.225,0,1,0,12.225,12.225A12.228,12.228,0,0,0,1350.028,26.863Zm46.285,0a12.225,12.225,0,1,0,12.225,12.225A12.228,12.228,0,0,0,1396.313,26.863Zm46.285,0a12.225,12.225,0,1,0,12.225,12.225A12.228,12.228,0,0,0,1442.6,26.863Zm46.285,0a12.225,12.225,0,1,0,12.225,12.225A12.228,12.228,0,0,0,1488.884,26.863Z" transform="translate(-0.125 5.653)" fill="none" stroke="#000" stroke-miterlimit="10" stroke-width="1"/>
          <g id="Rectángulo_402394" data-name="Rectángulo 402394" transform="translate(1817.496 80.844) rotate(180)" fill="none" stroke="#000" stroke-width="1" stroke-dasharray="10 5">
            <path d="M0,0H691.657a35,35,0,0,1,35,35v0a35,35,0,0,1-35,35H0a0,0,0,0,1,0,0V0A0,0,0,0,1,0,0Z" stroke="none"/>
            <path d="M.5.5H691.657a34.5,34.5,0,0,1,34.5,34.5v0a34.5,34.5,0,0,1-34.5,34.5H.5a0,0,0,0,1,0,0V.5A0,0,0,0,1,.5.5Z" fill="none"/>
          </g>
          <path id="Trazado_892339" data-name="Trazado 892339" d="M0,0H29.849V91.685H0Z" transform="translate(1754.495 0)" fill="#fd0" stroke="#707070" stroke-width="1"/>
          <rect id="Rectángulo_402096" data-name="Rectángulo 402096" width="29.849" height="91.685" transform="translate(1754.495 0)" fill="none" stroke="#000" stroke-miterlimit="10" stroke-width="1"/>
          <path id="Trazado_891150" data-name="Trazado 891150" d="M358.888,17.983h75.034V8.173H358.888a4.9,4.9,0,0,0,0,9.81" transform="translate(1456.798 33.012)" stroke="#707070" stroke-width="1"/>
          <path id="Trazado_891151" data-name="Trazado 891151" d="M358.888,17.983h75.034V8.173H358.888a4.9,4.9,0,0,0,0,9.81Z" transform="translate(1456.798 33.012)" fill="#fd0" stroke="#000" stroke-miterlimit="10" stroke-width="1"/>
          <path id="Trazado_891152" data-name="Trazado 891152" d="M368.088,1.528s-33.047,15.884-37.1,40.83c0,0-1.064,19.261,37.1,36.5" transform="translate(1362.1 5.653)" fill="none" stroke="#000" stroke-miterlimit="10" stroke-width="1"/>
        </g>
      </g>
      <g id="Rectángulo_402395" data-name="Rectángulo 402395" transform="translate(916.051 21555)" fill="none" stroke="#567e6f" stroke-width="7">
        <rect width="59" height="103" stroke="none"/>
        <rect x="3.5" y="3.5" width="52" height="96" fill="none"/>
      </g>
    </g>
  </g>
</svg>
