<svg xmlns="http://www.w3.org/2000/svg" xmlns:xlink="http://www.w3.org/1999/xlink" width="402.006" height="198.775" viewBox="0 0 402.006 198.775">
  <defs>
    <clipPath id="clip-path">
      <path id="Trazado_891538" data-name="Trazado 891538" d="M-7599.05-9756.649v158.807h51.579v37.691h297.883v-37.691h48.544v-158.807Z" transform="translate(8094.05 11607.998)" fill="#fff" stroke="#707070" stroke-width="1"/>
    </clipPath>
    <clipPath id="clip-path-2">
      <rect id="Rectángulo_401998" data-name="Rectángulo 401998" width="564.475" height="354.92" fill="#567e6f" stroke="#707070" stroke-width="1"/>
    </clipPath>
  </defs>
  <g id="Grupo_1107069" data-name="Grupo 1107069" transform="translate(-389.051 -2209.276)">
    <g id="Enmascarar_grupo_1098677" data-name="Enmascarar grupo 1098677" transform="translate(-103.949 359.928)" clip-path="url(#clip-path)">
      <g id="Grupo_1106419" data-name="Grupo 1106419" transform="translate(486.063 1851.349)">
        <g id="Grupo_1106418" data-name="Grupo 1106418" transform="translate(0 0)" clip-path="url(#clip-path-2)">
          <path id="Trazado_891330" data-name="Trazado 891330" d="M23.383,11.692A11.692,11.692,0,1,1,11.69,0,11.693,11.693,0,0,1,23.383,11.692" transform="translate(0 -0.002)" fill="#567e6f"/>
          <path id="Trazado_891331" data-name="Trazado 891331" d="M38.628,11.692A11.692,11.692,0,1,1,26.935,0,11.693,11.693,0,0,1,38.628,11.692" transform="translate(28.085 -0.002)" fill="#567e6f"/>
          <path id="Trazado_891332" data-name="Trazado 891332" d="M53.872,11.692A11.692,11.692,0,1,1,42.179,0,11.693,11.693,0,0,1,53.872,11.692" transform="translate(56.169 -0.002)" fill="#567e6f"/>
          <path id="Trazado_891333" data-name="Trazado 891333" d="M69.117,11.692A11.692,11.692,0,1,1,57.424,0,11.693,11.693,0,0,1,69.117,11.692" transform="translate(84.254 -0.002)" fill="#567e6f"/>
          <path id="Trazado_891334" data-name="Trazado 891334" d="M84.361,11.692A11.692,11.692,0,1,1,72.668,0,11.693,11.693,0,0,1,84.361,11.692" transform="translate(112.338 -0.002)" fill="#567e6f"/>
          <path id="Trazado_891335" data-name="Trazado 891335" d="M99.606,11.692A11.692,11.692,0,1,1,87.913,0,11.693,11.693,0,0,1,99.606,11.692" transform="translate(140.423 -0.002)" fill="#567e6f"/>
          <path id="Trazado_891336" data-name="Trazado 891336" d="M114.85,11.692A11.692,11.692,0,1,1,103.157,0,11.693,11.693,0,0,1,114.85,11.692" transform="translate(168.507 -0.002)" fill="#567e6f"/>
          <path id="Trazado_891337" data-name="Trazado 891337" d="M130.1,11.692A11.692,11.692,0,1,1,118.4,0,11.693,11.693,0,0,1,130.1,11.692" transform="translate(196.592 -0.002)" fill="#567e6f"/>
          <path id="Trazado_891338" data-name="Trazado 891338" d="M145.339,11.692A11.692,11.692,0,1,1,133.646,0a11.693,11.693,0,0,1,11.693,11.693" transform="translate(224.676 -0.002)" fill="#567e6f"/>
          <path id="Trazado_891339" data-name="Trazado 891339" d="M160.584,11.692A11.692,11.692,0,1,1,148.891,0a11.693,11.693,0,0,1,11.693,11.693" transform="translate(252.761 -0.002)" fill="#567e6f"/>
          <path id="Trazado_891340" data-name="Trazado 891340" d="M175.828,11.692A11.692,11.692,0,1,1,164.135,0a11.693,11.693,0,0,1,11.693,11.693" transform="translate(280.845 -0.002)" fill="#567e6f"/>
          <path id="Trazado_891341" data-name="Trazado 891341" d="M191.073,11.692A11.692,11.692,0,1,1,179.38,0a11.693,11.693,0,0,1,11.693,11.693" transform="translate(308.93 -0.002)" fill="#567e6f"/>
          <path id="Trazado_891342" data-name="Trazado 891342" d="M206.317,11.692A11.692,11.692,0,1,1,194.624,0a11.693,11.693,0,0,1,11.693,11.693" transform="translate(337.014 -0.002)" fill="#567e6f"/>
          <path id="Trazado_891343" data-name="Trazado 891343" d="M30.822,19.074A11.692,11.692,0,1,1,19.129,7.381,11.693,11.693,0,0,1,30.822,19.074" transform="translate(13.705 13.598)" fill="#567e6f"/>
          <path id="Trazado_891344" data-name="Trazado 891344" d="M46.067,19.074A11.692,11.692,0,1,1,34.374,7.381,11.693,11.693,0,0,1,46.067,19.074" transform="translate(41.79 13.598)" fill="#567e6f"/>
          <path id="Trazado_891345" data-name="Trazado 891345" d="M61.311,19.074A11.692,11.692,0,1,1,49.618,7.381,11.693,11.693,0,0,1,61.311,19.074" transform="translate(69.874 13.598)" fill="#567e6f"/>
          <path id="Trazado_891346" data-name="Trazado 891346" d="M76.556,19.074A11.692,11.692,0,1,1,64.863,7.381,11.693,11.693,0,0,1,76.556,19.074" transform="translate(97.959 13.598)" fill="#567e6f"/>
          <path id="Trazado_891347" data-name="Trazado 891347" d="M91.8,19.074A11.692,11.692,0,1,1,80.107,7.381,11.693,11.693,0,0,1,91.8,19.074" transform="translate(126.043 13.598)" fill="#567e6f"/>
          <path id="Trazado_891348" data-name="Trazado 891348" d="M107.045,19.074A11.692,11.692,0,1,1,95.352,7.381a11.693,11.693,0,0,1,11.693,11.693" transform="translate(154.128 13.598)" fill="#567e6f"/>
          <path id="Trazado_891349" data-name="Trazado 891349" d="M122.289,19.074A11.692,11.692,0,1,1,110.6,7.381a11.693,11.693,0,0,1,11.693,11.693" transform="translate(182.212 13.598)" fill="#567e6f"/>
          <path id="Trazado_891350" data-name="Trazado 891350" d="M137.534,19.074A11.692,11.692,0,1,1,125.841,7.381a11.693,11.693,0,0,1,11.693,11.693" transform="translate(210.297 13.598)" fill="#567e6f"/>
          <path id="Trazado_891351" data-name="Trazado 891351" d="M152.778,19.074A11.692,11.692,0,1,1,141.085,7.381a11.693,11.693,0,0,1,11.693,11.693" transform="translate(238.38 13.598)" fill="#567e6f"/>
          <path id="Trazado_891352" data-name="Trazado 891352" d="M168.023,19.074A11.692,11.692,0,1,1,156.33,7.381a11.693,11.693,0,0,1,11.693,11.693" transform="translate(266.466 13.598)" fill="#567e6f"/>
          <path id="Trazado_891353" data-name="Trazado 891353" d="M183.267,19.074A11.692,11.692,0,1,1,171.574,7.381a11.693,11.693,0,0,1,11.693,11.693" transform="translate(294.549 13.598)" fill="#567e6f"/>
          <path id="Trazado_891354" data-name="Trazado 891354" d="M198.512,19.074A11.692,11.692,0,1,1,186.819,7.381a11.693,11.693,0,0,1,11.693,11.693" transform="translate(322.635 13.598)" fill="#567e6f"/>
          <path id="Trazado_891355" data-name="Trazado 891355" d="M213.756,19.074A11.692,11.692,0,1,1,202.063,7.381a11.693,11.693,0,0,1,11.693,11.693" transform="translate(350.718 13.598)" fill="#567e6f"/>
          <path id="Trazado_891356" data-name="Trazado 891356" d="M23.383,27.3A11.692,11.692,0,1,1,11.69,15.608,11.693,11.693,0,0,1,23.383,27.3" transform="translate(0 28.754)" fill="#567e6f"/>
          <path id="Trazado_891357" data-name="Trazado 891357" d="M38.628,27.3A11.692,11.692,0,1,1,26.935,15.608,11.693,11.693,0,0,1,38.628,27.3" transform="translate(28.085 28.754)" fill="#567e6f"/>
          <path id="Trazado_891358" data-name="Trazado 891358" d="M53.872,27.3A11.692,11.692,0,1,1,42.179,15.608,11.693,11.693,0,0,1,53.872,27.3" transform="translate(56.169 28.754)" fill="#567e6f"/>
          <path id="Trazado_891359" data-name="Trazado 891359" d="M69.117,27.3A11.692,11.692,0,1,1,57.424,15.608,11.693,11.693,0,0,1,69.117,27.3" transform="translate(84.254 28.754)" fill="#567e6f"/>
          <path id="Trazado_891360" data-name="Trazado 891360" d="M84.361,27.3A11.692,11.692,0,1,1,72.668,15.608,11.693,11.693,0,0,1,84.361,27.3" transform="translate(112.338 28.754)" fill="#567e6f"/>
          <path id="Trazado_891361" data-name="Trazado 891361" d="M99.606,27.3A11.692,11.692,0,1,1,87.913,15.608,11.693,11.693,0,0,1,99.606,27.3" transform="translate(140.423 28.754)" fill="#567e6f"/>
          <path id="Trazado_891362" data-name="Trazado 891362" d="M114.85,27.3a11.692,11.692,0,1,1-11.693-11.693A11.693,11.693,0,0,1,114.85,27.3" transform="translate(168.507 28.754)" fill="#567e6f"/>
          <path id="Trazado_891363" data-name="Trazado 891363" d="M130.1,27.3A11.692,11.692,0,1,1,118.4,15.608,11.693,11.693,0,0,1,130.1,27.3" transform="translate(196.592 28.754)" fill="#567e6f"/>
          <path id="Trazado_891364" data-name="Trazado 891364" d="M145.339,27.3a11.692,11.692,0,1,1-11.693-11.693A11.693,11.693,0,0,1,145.339,27.3" transform="translate(224.676 28.754)" fill="#567e6f"/>
          <path id="Trazado_891365" data-name="Trazado 891365" d="M160.584,27.3a11.692,11.692,0,1,1-11.693-11.693A11.693,11.693,0,0,1,160.584,27.3" transform="translate(252.761 28.754)" fill="#567e6f"/>
          <path id="Trazado_891366" data-name="Trazado 891366" d="M175.828,27.3a11.692,11.692,0,1,1-11.693-11.693A11.693,11.693,0,0,1,175.828,27.3" transform="translate(280.845 28.754)" fill="#567e6f"/>
          <path id="Trazado_891367" data-name="Trazado 891367" d="M191.073,27.3A11.692,11.692,0,1,1,179.38,15.608,11.693,11.693,0,0,1,191.073,27.3" transform="translate(308.93 28.754)" fill="#567e6f"/>
          <path id="Trazado_891368" data-name="Trazado 891368" d="M206.317,27.3a11.692,11.692,0,1,1-11.693-11.693A11.693,11.693,0,0,1,206.317,27.3" transform="translate(337.014 28.754)" fill="#567e6f"/>
          <path id="Trazado_891369" data-name="Trazado 891369" d="M30.822,34.683A11.692,11.692,0,1,1,19.129,22.99,11.693,11.693,0,0,1,30.822,34.683" transform="translate(13.705 42.354)" fill="#567e6f"/>
          <path id="Trazado_891370" data-name="Trazado 891370" d="M46.067,34.683A11.692,11.692,0,1,1,34.374,22.99,11.693,11.693,0,0,1,46.067,34.683" transform="translate(41.79 42.354)" fill="#567e6f"/>
          <path id="Trazado_891371" data-name="Trazado 891371" d="M61.311,34.683A11.692,11.692,0,1,1,49.618,22.99,11.693,11.693,0,0,1,61.311,34.683" transform="translate(69.874 42.354)" fill="#567e6f"/>
          <path id="Trazado_891372" data-name="Trazado 891372" d="M76.556,34.683A11.692,11.692,0,1,1,64.863,22.99,11.693,11.693,0,0,1,76.556,34.683" transform="translate(97.959 42.354)" fill="#567e6f"/>
          <path id="Trazado_891373" data-name="Trazado 891373" d="M91.8,34.683A11.692,11.692,0,1,1,80.107,22.99,11.693,11.693,0,0,1,91.8,34.683" transform="translate(126.043 42.354)" fill="#567e6f"/>
          <path id="Trazado_891374" data-name="Trazado 891374" d="M107.045,34.683A11.692,11.692,0,1,1,95.352,22.99a11.693,11.693,0,0,1,11.693,11.693" transform="translate(154.128 42.354)" fill="#567e6f"/>
          <path id="Trazado_891375" data-name="Trazado 891375" d="M122.289,34.683A11.692,11.692,0,1,1,110.6,22.99a11.693,11.693,0,0,1,11.693,11.693" transform="translate(182.212 42.354)" fill="#567e6f"/>
          <path id="Trazado_891376" data-name="Trazado 891376" d="M137.534,34.683A11.692,11.692,0,1,1,125.841,22.99a11.693,11.693,0,0,1,11.693,11.693" transform="translate(210.297 42.354)" fill="#567e6f"/>
          <path id="Trazado_891377" data-name="Trazado 891377" d="M152.778,34.683A11.692,11.692,0,1,1,141.085,22.99a11.693,11.693,0,0,1,11.693,11.693" transform="translate(238.38 42.354)" fill="#567e6f"/>
          <path id="Trazado_891378" data-name="Trazado 891378" d="M168.023,34.683A11.692,11.692,0,1,1,156.33,22.99a11.693,11.693,0,0,1,11.693,11.693" transform="translate(266.466 42.354)" fill="#567e6f"/>
          <path id="Trazado_891379" data-name="Trazado 891379" d="M183.267,34.683A11.692,11.692,0,1,1,171.574,22.99a11.693,11.693,0,0,1,11.693,11.693" transform="translate(294.549 42.354)" fill="#567e6f"/>
          <path id="Trazado_891380" data-name="Trazado 891380" d="M198.512,34.683A11.692,11.692,0,1,1,186.819,22.99a11.693,11.693,0,0,1,11.693,11.693" transform="translate(322.635 42.354)" fill="#567e6f"/>
          <path id="Trazado_891381" data-name="Trazado 891381" d="M213.756,34.683A11.692,11.692,0,1,1,202.063,22.99a11.694,11.694,0,0,1,11.693,11.693" transform="translate(350.718 42.354)" fill="#567e6f"/>
          <path id="Trazado_891382" data-name="Trazado 891382" d="M23.383,42.91A11.692,11.692,0,1,1,11.69,31.217,11.693,11.693,0,0,1,23.383,42.91" transform="translate(0 57.51)" fill="#567e6f"/>
          <path id="Trazado_891383" data-name="Trazado 891383" d="M38.628,42.91A11.692,11.692,0,1,1,26.935,31.217,11.693,11.693,0,0,1,38.628,42.91" transform="translate(28.085 57.51)" fill="#567e6f"/>
          <path id="Trazado_891384" data-name="Trazado 891384" d="M53.872,42.91A11.692,11.692,0,1,1,42.179,31.217,11.693,11.693,0,0,1,53.872,42.91" transform="translate(56.169 57.51)" fill="#567e6f"/>
          <path id="Trazado_891385" data-name="Trazado 891385" d="M69.117,42.91A11.692,11.692,0,1,1,57.424,31.217,11.693,11.693,0,0,1,69.117,42.91" transform="translate(84.254 57.51)" fill="#567e6f"/>
          <path id="Trazado_891386" data-name="Trazado 891386" d="M84.361,42.91A11.692,11.692,0,1,1,72.668,31.217,11.693,11.693,0,0,1,84.361,42.91" transform="translate(112.338 57.51)" fill="#567e6f"/>
          <path id="Trazado_891387" data-name="Trazado 891387" d="M99.606,42.91A11.692,11.692,0,1,1,87.913,31.217,11.693,11.693,0,0,1,99.606,42.91" transform="translate(140.423 57.51)" fill="#567e6f"/>
          <path id="Trazado_891388" data-name="Trazado 891388" d="M114.85,42.91a11.692,11.692,0,1,1-11.693-11.693A11.693,11.693,0,0,1,114.85,42.91" transform="translate(168.507 57.51)" fill="#567e6f"/>
          <path id="Trazado_891389" data-name="Trazado 891389" d="M130.1,42.91A11.692,11.692,0,1,1,118.4,31.217,11.693,11.693,0,0,1,130.1,42.91" transform="translate(196.592 57.51)" fill="#567e6f"/>
          <path id="Trazado_891390" data-name="Trazado 891390" d="M145.339,42.91a11.692,11.692,0,1,1-11.693-11.693A11.693,11.693,0,0,1,145.339,42.91" transform="translate(224.676 57.51)" fill="#567e6f"/>
          <path id="Trazado_891391" data-name="Trazado 891391" d="M160.584,42.91a11.692,11.692,0,1,1-11.693-11.693A11.693,11.693,0,0,1,160.584,42.91" transform="translate(252.761 57.51)" fill="#567e6f"/>
          <path id="Trazado_891392" data-name="Trazado 891392" d="M175.828,42.91a11.692,11.692,0,1,1-11.693-11.693A11.693,11.693,0,0,1,175.828,42.91" transform="translate(280.845 57.51)" fill="#567e6f"/>
          <path id="Trazado_891393" data-name="Trazado 891393" d="M191.073,42.91A11.692,11.692,0,1,1,179.38,31.217,11.693,11.693,0,0,1,191.073,42.91" transform="translate(308.93 57.51)" fill="#567e6f"/>
          <path id="Trazado_891394" data-name="Trazado 891394" d="M206.317,42.91a11.692,11.692,0,1,1-11.693-11.693A11.693,11.693,0,0,1,206.317,42.91" transform="translate(337.014 57.51)" fill="#567e6f"/>
          <path id="Trazado_891395" data-name="Trazado 891395" d="M30.822,50.292A11.692,11.692,0,1,1,19.129,38.6,11.693,11.693,0,0,1,30.822,50.292" transform="translate(13.705 71.11)" fill="#567e6f"/>
          <path id="Trazado_891396" data-name="Trazado 891396" d="M46.067,50.292A11.692,11.692,0,1,1,34.374,38.6,11.693,11.693,0,0,1,46.067,50.292" transform="translate(41.79 71.11)" fill="#567e6f"/>
          <path id="Trazado_891397" data-name="Trazado 891397" d="M61.311,50.292A11.692,11.692,0,1,1,49.618,38.6,11.693,11.693,0,0,1,61.311,50.292" transform="translate(69.874 71.11)" fill="#567e6f"/>
          <path id="Trazado_891398" data-name="Trazado 891398" d="M76.556,50.292A11.692,11.692,0,1,1,64.863,38.6,11.693,11.693,0,0,1,76.556,50.292" transform="translate(97.959 71.11)" fill="#567e6f"/>
          <path id="Trazado_891399" data-name="Trazado 891399" d="M91.8,50.292A11.692,11.692,0,1,1,80.107,38.6,11.693,11.693,0,0,1,91.8,50.292" transform="translate(126.043 71.11)" fill="#567e6f"/>
          <path id="Trazado_891400" data-name="Trazado 891400" d="M107.045,50.292A11.692,11.692,0,1,1,95.352,38.6a11.693,11.693,0,0,1,11.693,11.693" transform="translate(154.128 71.11)" fill="#567e6f"/>
          <path id="Trazado_891401" data-name="Trazado 891401" d="M122.289,50.292A11.692,11.692,0,1,1,110.6,38.6a11.693,11.693,0,0,1,11.693,11.693" transform="translate(182.212 71.11)" fill="#567e6f"/>
          <path id="Trazado_891402" data-name="Trazado 891402" d="M137.534,50.292A11.692,11.692,0,1,1,125.841,38.6a11.693,11.693,0,0,1,11.693,11.693" transform="translate(210.297 71.11)" fill="#567e6f"/>
          <path id="Trazado_891403" data-name="Trazado 891403" d="M152.778,50.292A11.692,11.692,0,1,1,141.085,38.6a11.693,11.693,0,0,1,11.693,11.693" transform="translate(238.38 71.11)" fill="#567e6f"/>
          <path id="Trazado_891404" data-name="Trazado 891404" d="M168.023,50.292A11.692,11.692,0,1,1,156.33,38.6a11.693,11.693,0,0,1,11.693,11.693" transform="translate(266.466 71.11)" fill="#567e6f"/>
          <path id="Trazado_891405" data-name="Trazado 891405" d="M183.267,50.292A11.692,11.692,0,1,1,171.574,38.6a11.693,11.693,0,0,1,11.693,11.693" transform="translate(294.549 71.11)" fill="#567e6f"/>
          <path id="Trazado_891406" data-name="Trazado 891406" d="M198.512,50.292A11.692,11.692,0,1,1,186.819,38.6a11.693,11.693,0,0,1,11.693,11.693" transform="translate(322.635 71.11)" fill="#567e6f"/>
          <path id="Trazado_891407" data-name="Trazado 891407" d="M213.756,50.292A11.692,11.692,0,1,1,202.063,38.6a11.693,11.693,0,0,1,11.693,11.693" transform="translate(350.718 71.11)" fill="#567e6f"/>
          <path id="Trazado_891408" data-name="Trazado 891408" d="M23.383,58.519A11.692,11.692,0,1,1,11.69,46.826,11.693,11.693,0,0,1,23.383,58.519" transform="translate(0 86.266)" fill="#567e6f"/>
          <path id="Trazado_891409" data-name="Trazado 891409" d="M38.628,58.519A11.692,11.692,0,1,1,26.935,46.826,11.693,11.693,0,0,1,38.628,58.519" transform="translate(28.085 86.266)" fill="#567e6f"/>
          <path id="Trazado_891410" data-name="Trazado 891410" d="M53.872,58.519A11.692,11.692,0,1,1,42.179,46.826,11.693,11.693,0,0,1,53.872,58.519" transform="translate(56.169 86.266)" fill="#567e6f"/>
          <path id="Trazado_891411" data-name="Trazado 891411" d="M69.117,58.519A11.692,11.692,0,1,1,57.424,46.826,11.693,11.693,0,0,1,69.117,58.519" transform="translate(84.254 86.266)" fill="#567e6f"/>
          <path id="Trazado_891412" data-name="Trazado 891412" d="M84.361,58.519A11.692,11.692,0,1,1,72.668,46.826,11.693,11.693,0,0,1,84.361,58.519" transform="translate(112.338 86.266)" fill="#567e6f"/>
          <path id="Trazado_891413" data-name="Trazado 891413" d="M99.606,58.519A11.692,11.692,0,1,1,87.913,46.826,11.693,11.693,0,0,1,99.606,58.519" transform="translate(140.423 86.266)" fill="#567e6f"/>
          <path id="Trazado_891414" data-name="Trazado 891414" d="M114.85,58.519a11.692,11.692,0,1,1-11.693-11.693A11.693,11.693,0,0,1,114.85,58.519" transform="translate(168.507 86.266)" fill="#567e6f"/>
          <path id="Trazado_891415" data-name="Trazado 891415" d="M130.1,58.519A11.692,11.692,0,1,1,118.4,46.826,11.693,11.693,0,0,1,130.1,58.519" transform="translate(196.592 86.266)" fill="#567e6f"/>
          <path id="Trazado_891416" data-name="Trazado 891416" d="M145.339,58.519a11.692,11.692,0,1,1-11.693-11.693,11.693,11.693,0,0,1,11.693,11.693" transform="translate(224.676 86.266)" fill="#567e6f"/>
          <path id="Trazado_891417" data-name="Trazado 891417" d="M160.584,58.519a11.692,11.692,0,1,1-11.693-11.693,11.693,11.693,0,0,1,11.693,11.693" transform="translate(252.761 86.266)" fill="#567e6f"/>
          <path id="Trazado_891418" data-name="Trazado 891418" d="M175.828,58.519a11.692,11.692,0,1,1-11.693-11.693,11.693,11.693,0,0,1,11.693,11.693" transform="translate(280.845 86.266)" fill="#567e6f"/>
          <path id="Trazado_891419" data-name="Trazado 891419" d="M191.073,58.519A11.692,11.692,0,1,1,179.38,46.826a11.693,11.693,0,0,1,11.693,11.693" transform="translate(308.93 86.266)" fill="#567e6f"/>
          <path id="Trazado_891420" data-name="Trazado 891420" d="M206.317,58.519a11.692,11.692,0,1,1-11.693-11.693,11.693,11.693,0,0,1,11.693,11.693" transform="translate(337.014 86.266)" fill="#567e6f"/>
          <path id="Trazado_891421" data-name="Trazado 891421" d="M30.822,65.9A11.692,11.692,0,1,1,19.129,54.208,11.693,11.693,0,0,1,30.822,65.9" transform="translate(13.705 99.866)" fill="#567e6f"/>
          <path id="Trazado_891422" data-name="Trazado 891422" d="M46.067,65.9A11.692,11.692,0,1,1,34.374,54.208,11.693,11.693,0,0,1,46.067,65.9" transform="translate(41.79 99.866)" fill="#567e6f"/>
          <path id="Trazado_891423" data-name="Trazado 891423" d="M61.311,65.9A11.692,11.692,0,1,1,49.618,54.208,11.693,11.693,0,0,1,61.311,65.9" transform="translate(69.874 99.866)" fill="#567e6f"/>
          <path id="Trazado_891424" data-name="Trazado 891424" d="M76.556,65.9A11.692,11.692,0,1,1,64.863,54.208,11.693,11.693,0,0,1,76.556,65.9" transform="translate(97.959 99.866)" fill="#567e6f"/>
          <path id="Trazado_891425" data-name="Trazado 891425" d="M91.8,65.9A11.692,11.692,0,1,1,80.107,54.208,11.693,11.693,0,0,1,91.8,65.9" transform="translate(126.043 99.866)" fill="#567e6f"/>
          <path id="Trazado_891426" data-name="Trazado 891426" d="M107.045,65.9A11.692,11.692,0,1,1,95.352,54.208,11.693,11.693,0,0,1,107.045,65.9" transform="translate(154.128 99.866)" fill="#567e6f"/>
          <path id="Trazado_891427" data-name="Trazado 891427" d="M122.289,65.9A11.692,11.692,0,1,1,110.6,54.208,11.693,11.693,0,0,1,122.289,65.9" transform="translate(182.212 99.866)" fill="#567e6f"/>
          <path id="Trazado_891428" data-name="Trazado 891428" d="M137.534,65.9a11.692,11.692,0,1,1-11.693-11.693A11.693,11.693,0,0,1,137.534,65.9" transform="translate(210.297 99.866)" fill="#567e6f"/>
          <path id="Trazado_891429" data-name="Trazado 891429" d="M152.778,65.9a11.692,11.692,0,1,1-11.693-11.693A11.693,11.693,0,0,1,152.778,65.9" transform="translate(238.38 99.866)" fill="#567e6f"/>
          <path id="Trazado_891430" data-name="Trazado 891430" d="M168.023,65.9A11.692,11.692,0,1,1,156.33,54.208,11.693,11.693,0,0,1,168.023,65.9" transform="translate(266.466 99.866)" fill="#567e6f"/>
          <path id="Trazado_891431" data-name="Trazado 891431" d="M183.267,65.9a11.692,11.692,0,1,1-11.693-11.693A11.693,11.693,0,0,1,183.267,65.9" transform="translate(294.549 99.866)" fill="#567e6f"/>
          <path id="Trazado_891432" data-name="Trazado 891432" d="M198.512,65.9a11.692,11.692,0,1,1-11.693-11.693A11.693,11.693,0,0,1,198.512,65.9" transform="translate(322.635 99.866)" fill="#567e6f"/>
          <path id="Trazado_891433" data-name="Trazado 891433" d="M213.756,65.9a11.692,11.692,0,1,1-11.693-11.693A11.693,11.693,0,0,1,213.756,65.9" transform="translate(350.718 99.866)" fill="#567e6f"/>
          <path id="Trazado_891434" data-name="Trazado 891434" d="M23.383,74.128A11.692,11.692,0,1,1,11.69,62.435,11.693,11.693,0,0,1,23.383,74.128" transform="translate(0 115.022)" fill="#567e6f"/>
          <path id="Trazado_891435" data-name="Trazado 891435" d="M38.628,74.128A11.692,11.692,0,1,1,26.935,62.435,11.693,11.693,0,0,1,38.628,74.128" transform="translate(28.085 115.022)" fill="#567e6f"/>
          <path id="Trazado_891436" data-name="Trazado 891436" d="M53.872,74.128A11.692,11.692,0,1,1,42.179,62.435,11.693,11.693,0,0,1,53.872,74.128" transform="translate(56.169 115.022)" fill="#567e6f"/>
          <path id="Trazado_891437" data-name="Trazado 891437" d="M69.117,74.128A11.692,11.692,0,1,1,57.424,62.435,11.693,11.693,0,0,1,69.117,74.128" transform="translate(84.254 115.022)" fill="#567e6f"/>
          <path id="Trazado_891438" data-name="Trazado 891438" d="M84.361,74.128A11.692,11.692,0,1,1,72.668,62.435,11.693,11.693,0,0,1,84.361,74.128" transform="translate(112.338 115.022)" fill="#567e6f"/>
          <path id="Trazado_891439" data-name="Trazado 891439" d="M99.606,74.128A11.692,11.692,0,1,1,87.913,62.435,11.693,11.693,0,0,1,99.606,74.128" transform="translate(140.423 115.022)" fill="#567e6f"/>
          <path id="Trazado_891440" data-name="Trazado 891440" d="M114.85,74.128a11.692,11.692,0,1,1-11.693-11.693A11.693,11.693,0,0,1,114.85,74.128" transform="translate(168.507 115.022)" fill="#567e6f"/>
          <path id="Trazado_891441" data-name="Trazado 891441" d="M130.1,74.128A11.692,11.692,0,1,1,118.4,62.435,11.693,11.693,0,0,1,130.1,74.128" transform="translate(196.592 115.022)" fill="#567e6f"/>
          <path id="Trazado_891442" data-name="Trazado 891442" d="M145.339,74.128a11.692,11.692,0,1,1-11.693-11.693,11.693,11.693,0,0,1,11.693,11.693" transform="translate(224.676 115.022)" fill="#567e6f"/>
          <path id="Trazado_891443" data-name="Trazado 891443" d="M160.584,74.128a11.692,11.692,0,1,1-11.693-11.693,11.693,11.693,0,0,1,11.693,11.693" transform="translate(252.761 115.022)" fill="#567e6f"/>
          <path id="Trazado_891444" data-name="Trazado 891444" d="M175.828,74.128a11.692,11.692,0,1,1-11.693-11.693,11.693,11.693,0,0,1,11.693,11.693" transform="translate(280.845 115.022)" fill="#567e6f"/>
          <path id="Trazado_891445" data-name="Trazado 891445" d="M191.073,74.128A11.692,11.692,0,1,1,179.38,62.435a11.693,11.693,0,0,1,11.693,11.693" transform="translate(308.93 115.022)" fill="#567e6f"/>
          <path id="Trazado_891446" data-name="Trazado 891446" d="M206.317,74.128a11.692,11.692,0,1,1-11.693-11.693,11.693,11.693,0,0,1,11.693,11.693" transform="translate(337.014 115.022)" fill="#567e6f"/>
          <path id="Trazado_891447" data-name="Trazado 891447" d="M30.822,81.51A11.692,11.692,0,1,1,19.129,69.817,11.693,11.693,0,0,1,30.822,81.51" transform="translate(13.705 128.622)" fill="#567e6f"/>
          <path id="Trazado_891448" data-name="Trazado 891448" d="M46.067,81.51A11.692,11.692,0,1,1,34.374,69.817,11.693,11.693,0,0,1,46.067,81.51" transform="translate(41.79 128.622)" fill="#567e6f"/>
          <path id="Trazado_891449" data-name="Trazado 891449" d="M61.311,81.51A11.692,11.692,0,1,1,49.618,69.817,11.693,11.693,0,0,1,61.311,81.51" transform="translate(69.874 128.622)" fill="#567e6f"/>
          <path id="Trazado_891450" data-name="Trazado 891450" d="M76.556,81.51A11.692,11.692,0,1,1,64.863,69.817,11.693,11.693,0,0,1,76.556,81.51" transform="translate(97.959 128.622)" fill="#567e6f"/>
          <path id="Trazado_891451" data-name="Trazado 891451" d="M91.8,81.51A11.692,11.692,0,1,1,80.107,69.817,11.693,11.693,0,0,1,91.8,81.51" transform="translate(126.043 128.622)" fill="#567e6f"/>
          <path id="Trazado_891452" data-name="Trazado 891452" d="M107.045,81.51A11.692,11.692,0,1,1,95.352,69.817,11.693,11.693,0,0,1,107.045,81.51" transform="translate(154.128 128.622)" fill="#567e6f"/>
          <path id="Trazado_891453" data-name="Trazado 891453" d="M122.289,81.51A11.692,11.692,0,1,1,110.6,69.817,11.693,11.693,0,0,1,122.289,81.51" transform="translate(182.212 128.622)" fill="#567e6f"/>
          <path id="Trazado_891454" data-name="Trazado 891454" d="M137.534,81.51a11.692,11.692,0,1,1-11.693-11.693A11.693,11.693,0,0,1,137.534,81.51" transform="translate(210.297 128.622)" fill="#567e6f"/>
          <path id="Trazado_891455" data-name="Trazado 891455" d="M152.778,81.51a11.692,11.692,0,1,1-11.693-11.693A11.693,11.693,0,0,1,152.778,81.51" transform="translate(238.38 128.622)" fill="#567e6f"/>
          <path id="Trazado_891456" data-name="Trazado 891456" d="M168.023,81.51A11.692,11.692,0,1,1,156.33,69.817,11.693,11.693,0,0,1,168.023,81.51" transform="translate(266.466 128.622)" fill="#567e6f"/>
          <path id="Trazado_891457" data-name="Trazado 891457" d="M183.267,81.51a11.692,11.692,0,1,1-11.693-11.693A11.693,11.693,0,0,1,183.267,81.51" transform="translate(294.549 128.622)" fill="#567e6f"/>
          <path id="Trazado_891458" data-name="Trazado 891458" d="M198.512,81.51a11.692,11.692,0,1,1-11.693-11.693A11.693,11.693,0,0,1,198.512,81.51" transform="translate(322.635 128.622)" fill="#567e6f"/>
          <path id="Trazado_891459" data-name="Trazado 891459" d="M213.756,81.51a11.692,11.692,0,1,1-11.693-11.693A11.693,11.693,0,0,1,213.756,81.51" transform="translate(350.718 128.622)" fill="#567e6f"/>
          <path id="Trazado_891460" data-name="Trazado 891460" d="M23.383,89.738A11.692,11.692,0,1,1,11.69,78.045,11.693,11.693,0,0,1,23.383,89.738" transform="translate(0 143.78)" fill="#567e6f"/>
          <path id="Trazado_891461" data-name="Trazado 891461" d="M38.628,89.738A11.692,11.692,0,1,1,26.935,78.045,11.693,11.693,0,0,1,38.628,89.738" transform="translate(28.085 143.78)" fill="#567e6f"/>
          <path id="Trazado_891462" data-name="Trazado 891462" d="M53.872,89.738A11.692,11.692,0,1,1,42.179,78.045,11.693,11.693,0,0,1,53.872,89.738" transform="translate(56.169 143.78)" fill="#567e6f"/>
          <path id="Trazado_891463" data-name="Trazado 891463" d="M69.117,89.738A11.692,11.692,0,1,1,57.424,78.045,11.693,11.693,0,0,1,69.117,89.738" transform="translate(84.254 143.78)" fill="#567e6f"/>
          <path id="Trazado_891464" data-name="Trazado 891464" d="M84.361,89.738A11.692,11.692,0,1,1,72.668,78.045,11.693,11.693,0,0,1,84.361,89.738" transform="translate(112.338 143.78)" fill="#567e6f"/>
          <path id="Trazado_891465" data-name="Trazado 891465" d="M99.606,89.738A11.692,11.692,0,1,1,87.913,78.045,11.693,11.693,0,0,1,99.606,89.738" transform="translate(140.423 143.78)" fill="#567e6f"/>
          <path id="Trazado_891466" data-name="Trazado 891466" d="M114.85,89.738a11.692,11.692,0,1,1-11.693-11.693A11.693,11.693,0,0,1,114.85,89.738" transform="translate(168.507 143.78)" fill="#567e6f"/>
          <path id="Trazado_891467" data-name="Trazado 891467" d="M130.1,89.738A11.692,11.692,0,1,1,118.4,78.045,11.693,11.693,0,0,1,130.1,89.738" transform="translate(196.592 143.78)" fill="#567e6f"/>
          <path id="Trazado_891468" data-name="Trazado 891468" d="M145.339,89.738a11.692,11.692,0,1,1-11.693-11.693,11.693,11.693,0,0,1,11.693,11.693" transform="translate(224.676 143.78)" fill="#567e6f"/>
          <path id="Trazado_891469" data-name="Trazado 891469" d="M160.584,89.738a11.692,11.692,0,1,1-11.693-11.693,11.693,11.693,0,0,1,11.693,11.693" transform="translate(252.761 143.78)" fill="#567e6f"/>
          <path id="Trazado_891470" data-name="Trazado 891470" d="M175.828,89.738a11.692,11.692,0,1,1-11.693-11.693,11.693,11.693,0,0,1,11.693,11.693" transform="translate(280.845 143.78)" fill="#567e6f"/>
          <path id="Trazado_891471" data-name="Trazado 891471" d="M191.073,89.738A11.692,11.692,0,1,1,179.38,78.045a11.693,11.693,0,0,1,11.693,11.693" transform="translate(308.93 143.78)" fill="#567e6f"/>
          <path id="Trazado_891472" data-name="Trazado 891472" d="M206.317,89.738a11.692,11.692,0,1,1-11.693-11.693,11.693,11.693,0,0,1,11.693,11.693" transform="translate(337.014 143.78)" fill="#567e6f"/>
          <path id="Trazado_891473" data-name="Trazado 891473" d="M30.822,97.119A11.692,11.692,0,1,1,19.129,85.426,11.693,11.693,0,0,1,30.822,97.119" transform="translate(13.705 157.378)" fill="#567e6f"/>
          <path id="Trazado_891474" data-name="Trazado 891474" d="M46.067,97.119A11.692,11.692,0,1,1,34.374,85.426,11.693,11.693,0,0,1,46.067,97.119" transform="translate(41.79 157.378)" fill="#567e6f"/>
          <path id="Trazado_891475" data-name="Trazado 891475" d="M61.311,97.119A11.692,11.692,0,1,1,49.618,85.426,11.693,11.693,0,0,1,61.311,97.119" transform="translate(69.874 157.378)" fill="#567e6f"/>
          <path id="Trazado_891476" data-name="Trazado 891476" d="M76.556,97.119A11.692,11.692,0,1,1,64.863,85.426,11.693,11.693,0,0,1,76.556,97.119" transform="translate(97.959 157.378)" fill="#567e6f"/>
          <path id="Trazado_891477" data-name="Trazado 891477" d="M91.8,97.119A11.692,11.692,0,1,1,80.107,85.426,11.693,11.693,0,0,1,91.8,97.119" transform="translate(126.043 157.378)" fill="#567e6f"/>
          <path id="Trazado_891478" data-name="Trazado 891478" d="M107.045,97.119A11.692,11.692,0,1,1,95.352,85.426a11.693,11.693,0,0,1,11.693,11.693" transform="translate(154.128 157.378)" fill="#567e6f"/>
          <path id="Trazado_891479" data-name="Trazado 891479" d="M122.289,97.119A11.692,11.692,0,1,1,110.6,85.426a11.693,11.693,0,0,1,11.693,11.693" transform="translate(182.212 157.378)" fill="#567e6f"/>
          <path id="Trazado_891480" data-name="Trazado 891480" d="M137.534,97.119a11.692,11.692,0,1,1-11.693-11.693,11.693,11.693,0,0,1,11.693,11.693" transform="translate(210.297 157.378)" fill="#567e6f"/>
          <path id="Trazado_891481" data-name="Trazado 891481" d="M152.778,97.119a11.692,11.692,0,1,1-11.693-11.693,11.693,11.693,0,0,1,11.693,11.693" transform="translate(238.38 157.378)" fill="#567e6f"/>
          <path id="Trazado_891482" data-name="Trazado 891482" d="M168.023,97.119A11.692,11.692,0,1,1,156.33,85.426a11.693,11.693,0,0,1,11.693,11.693" transform="translate(266.466 157.378)" fill="#567e6f"/>
          <path id="Trazado_891483" data-name="Trazado 891483" d="M183.267,97.119a11.692,11.692,0,1,1-11.693-11.693,11.693,11.693,0,0,1,11.693,11.693" transform="translate(294.549 157.378)" fill="#567e6f"/>
          <path id="Trazado_891484" data-name="Trazado 891484" d="M198.512,97.119a11.692,11.692,0,1,1-11.693-11.693,11.693,11.693,0,0,1,11.693,11.693" transform="translate(322.635 157.378)" fill="#567e6f"/>
          <path id="Trazado_891485" data-name="Trazado 891485" d="M213.756,97.119a11.692,11.692,0,1,1-11.693-11.693,11.693,11.693,0,0,1,11.693,11.693" transform="translate(350.718 157.378)" fill="#567e6f"/>
          <path id="Trazado_891486" data-name="Trazado 891486" d="M23.383,105.347A11.692,11.692,0,1,1,11.69,93.654a11.693,11.693,0,0,1,11.693,11.693" transform="translate(0 172.536)" fill="#567e6f"/>
          <path id="Trazado_891487" data-name="Trazado 891487" d="M38.628,105.347A11.692,11.692,0,1,1,26.935,93.654a11.693,11.693,0,0,1,11.693,11.693" transform="translate(28.085 172.536)" fill="#567e6f"/>
          <path id="Trazado_891488" data-name="Trazado 891488" d="M53.872,105.347A11.692,11.692,0,1,1,42.179,93.654a11.693,11.693,0,0,1,11.693,11.693" transform="translate(56.169 172.536)" fill="#567e6f"/>
          <path id="Trazado_891489" data-name="Trazado 891489" d="M69.117,105.347A11.692,11.692,0,1,1,57.424,93.654a11.693,11.693,0,0,1,11.693,11.693" transform="translate(84.254 172.536)" fill="#567e6f"/>
          <path id="Trazado_891490" data-name="Trazado 891490" d="M84.361,105.347A11.692,11.692,0,1,1,72.668,93.654a11.693,11.693,0,0,1,11.693,11.693" transform="translate(112.338 172.536)" fill="#567e6f"/>
          <path id="Trazado_891491" data-name="Trazado 891491" d="M99.606,105.347A11.692,11.692,0,1,1,87.913,93.654a11.693,11.693,0,0,1,11.693,11.693" transform="translate(140.423 172.536)" fill="#567e6f"/>
          <path id="Trazado_891492" data-name="Trazado 891492" d="M114.85,105.347a11.692,11.692,0,1,1-11.693-11.693,11.693,11.693,0,0,1,11.693,11.693" transform="translate(168.507 172.536)" fill="#567e6f"/>
          <path id="Trazado_891493" data-name="Trazado 891493" d="M130.1,105.347A11.692,11.692,0,1,1,118.4,93.654,11.693,11.693,0,0,1,130.1,105.347" transform="translate(196.592 172.536)" fill="#567e6f"/>
          <path id="Trazado_891494" data-name="Trazado 891494" d="M145.339,105.347a11.692,11.692,0,1,1-11.693-11.693,11.693,11.693,0,0,1,11.693,11.693" transform="translate(224.676 172.536)" fill="#567e6f"/>
          <path id="Trazado_891495" data-name="Trazado 891495" d="M160.584,105.347a11.692,11.692,0,1,1-11.693-11.693,11.693,11.693,0,0,1,11.693,11.693" transform="translate(252.761 172.536)" fill="#567e6f"/>
          <path id="Trazado_891496" data-name="Trazado 891496" d="M175.828,105.347a11.692,11.692,0,1,1-11.693-11.693,11.693,11.693,0,0,1,11.693,11.693" transform="translate(280.845 172.536)" fill="#567e6f"/>
          <path id="Trazado_891497" data-name="Trazado 891497" d="M191.073,105.347A11.692,11.692,0,1,1,179.38,93.654a11.693,11.693,0,0,1,11.693,11.693" transform="translate(308.93 172.536)" fill="#567e6f"/>
          <path id="Trazado_891498" data-name="Trazado 891498" d="M206.317,105.347a11.692,11.692,0,1,1-11.693-11.693,11.693,11.693,0,0,1,11.693,11.693" transform="translate(337.014 172.536)" fill="#567e6f"/>
          <path id="Trazado_891499" data-name="Trazado 891499" d="M30.822,112.728a11.692,11.692,0,1,1-11.693-11.693,11.693,11.693,0,0,1,11.693,11.693" transform="translate(13.705 186.134)" fill="#567e6f"/>
          <path id="Trazado_891500" data-name="Trazado 891500" d="M46.067,112.728a11.692,11.692,0,1,1-11.693-11.693,11.693,11.693,0,0,1,11.693,11.693" transform="translate(41.79 186.134)" fill="#567e6f"/>
          <path id="Trazado_891501" data-name="Trazado 891501" d="M61.311,112.728a11.692,11.692,0,1,1-11.693-11.693,11.693,11.693,0,0,1,11.693,11.693" transform="translate(69.874 186.134)" fill="#567e6f"/>
          <path id="Trazado_891502" data-name="Trazado 891502" d="M76.556,112.728a11.692,11.692,0,1,1-11.693-11.693,11.693,11.693,0,0,1,11.693,11.693" transform="translate(97.959 186.134)" fill="#567e6f"/>
          <path id="Trazado_891503" data-name="Trazado 891503" d="M91.8,112.728a11.692,11.692,0,1,1-11.693-11.693A11.693,11.693,0,0,1,91.8,112.728" transform="translate(126.043 186.134)" fill="#567e6f"/>
          <path id="Trazado_891504" data-name="Trazado 891504" d="M107.045,112.728a11.692,11.692,0,1,1-11.693-11.693,11.693,11.693,0,0,1,11.693,11.693" transform="translate(154.128 186.134)" fill="#567e6f"/>
          <path id="Trazado_891505" data-name="Trazado 891505" d="M122.289,112.728A11.692,11.692,0,1,1,110.6,101.035a11.693,11.693,0,0,1,11.693,11.693" transform="translate(182.212 186.134)" fill="#567e6f"/>
          <path id="Trazado_891506" data-name="Trazado 891506" d="M137.534,112.728a11.692,11.692,0,1,1-11.693-11.693,11.693,11.693,0,0,1,11.693,11.693" transform="translate(210.297 186.134)" fill="#567e6f"/>
          <path id="Trazado_891507" data-name="Trazado 891507" d="M152.778,112.728a11.692,11.692,0,1,1-11.693-11.693,11.693,11.693,0,0,1,11.693,11.693" transform="translate(238.38 186.134)" fill="#567e6f"/>
          <path id="Trazado_891508" data-name="Trazado 891508" d="M168.023,112.728a11.692,11.692,0,1,1-11.693-11.693,11.693,11.693,0,0,1,11.693,11.693" transform="translate(266.466 186.134)" fill="#567e6f"/>
          <path id="Trazado_891509" data-name="Trazado 891509" d="M183.267,112.728a11.692,11.692,0,1,1-11.693-11.693,11.693,11.693,0,0,1,11.693,11.693" transform="translate(294.549 186.134)" fill="#567e6f"/>
          <path id="Trazado_891510" data-name="Trazado 891510" d="M198.512,112.728a11.692,11.692,0,1,1-11.693-11.693,11.693,11.693,0,0,1,11.693,11.693" transform="translate(322.635 186.134)" fill="#567e6f"/>
          <path id="Trazado_891511" data-name="Trazado 891511" d="M213.756,112.728a11.692,11.692,0,1,1-11.693-11.693,11.694,11.694,0,0,1,11.693,11.693" transform="translate(350.718 186.134)" fill="#567e6f"/>
          <path id="Trazado_891512" data-name="Trazado 891512" d="M23.383,120.956A11.692,11.692,0,1,1,11.69,109.263a11.693,11.693,0,0,1,11.693,11.693" transform="translate(0 201.292)" fill="#567e6f"/>
          <path id="Trazado_891513" data-name="Trazado 891513" d="M38.628,120.956a11.692,11.692,0,1,1-11.693-11.693,11.693,11.693,0,0,1,11.693,11.693" transform="translate(28.085 201.292)" fill="#567e6f"/>
          <path id="Trazado_891514" data-name="Trazado 891514" d="M53.872,120.956a11.692,11.692,0,1,1-11.693-11.693,11.693,11.693,0,0,1,11.693,11.693" transform="translate(56.169 201.292)" fill="#567e6f"/>
          <path id="Trazado_891515" data-name="Trazado 891515" d="M69.117,120.956a11.692,11.692,0,1,1-11.693-11.693,11.693,11.693,0,0,1,11.693,11.693" transform="translate(84.254 201.292)" fill="#567e6f"/>
          <path id="Trazado_891516" data-name="Trazado 891516" d="M84.361,120.956a11.692,11.692,0,1,1-11.693-11.693,11.693,11.693,0,0,1,11.693,11.693" transform="translate(112.338 201.292)" fill="#567e6f"/>
          <path id="Trazado_891517" data-name="Trazado 891517" d="M99.606,120.956a11.692,11.692,0,1,1-11.693-11.693,11.693,11.693,0,0,1,11.693,11.693" transform="translate(140.423 201.292)" fill="#567e6f"/>
          <path id="Trazado_891518" data-name="Trazado 891518" d="M114.85,120.956a11.692,11.692,0,1,1-11.693-11.693,11.693,11.693,0,0,1,11.693,11.693" transform="translate(168.507 201.292)" fill="#567e6f"/>
          <path id="Trazado_891519" data-name="Trazado 891519" d="M130.1,120.956A11.692,11.692,0,1,1,118.4,109.263,11.693,11.693,0,0,1,130.1,120.956" transform="translate(196.592 201.292)" fill="#567e6f"/>
          <path id="Trazado_891520" data-name="Trazado 891520" d="M145.339,120.956a11.692,11.692,0,1,1-11.693-11.693,11.693,11.693,0,0,1,11.693,11.693" transform="translate(224.676 201.292)" fill="#567e6f"/>
          <path id="Trazado_891521" data-name="Trazado 891521" d="M160.584,120.956a11.692,11.692,0,1,1-11.693-11.693,11.693,11.693,0,0,1,11.693,11.693" transform="translate(252.761 201.292)" fill="#567e6f"/>
          <path id="Trazado_891522" data-name="Trazado 891522" d="M175.828,120.956a11.692,11.692,0,1,1-11.693-11.693,11.693,11.693,0,0,1,11.693,11.693" transform="translate(280.845 201.292)" fill="#567e6f"/>
          <path id="Trazado_891523" data-name="Trazado 891523" d="M191.073,120.956a11.692,11.692,0,1,1-11.693-11.693,11.693,11.693,0,0,1,11.693,11.693" transform="translate(308.93 201.292)" fill="#567e6f"/>
          <path id="Trazado_891524" data-name="Trazado 891524" d="M206.317,120.956a11.692,11.692,0,1,1-11.693-11.693,11.693,11.693,0,0,1,11.693,11.693" transform="translate(337.014 201.292)" fill="#567e6f"/>
          <path id="Trazado_891525" data-name="Trazado 891525" d="M30.822,128.337a11.692,11.692,0,1,1-11.693-11.693,11.693,11.693,0,0,1,11.693,11.693" transform="translate(13.705 214.89)" fill="#567e6f"/>
          <path id="Trazado_891526" data-name="Trazado 891526" d="M46.067,128.337a11.692,11.692,0,1,1-11.693-11.693,11.693,11.693,0,0,1,11.693,11.693" transform="translate(41.79 214.89)" fill="#567e6f"/>
          <path id="Trazado_891527" data-name="Trazado 891527" d="M61.311,128.337a11.692,11.692,0,1,1-11.693-11.693,11.693,11.693,0,0,1,11.693,11.693" transform="translate(69.874 214.89)" fill="#567e6f"/>
          <path id="Trazado_891528" data-name="Trazado 891528" d="M76.556,128.337a11.692,11.692,0,1,1-11.693-11.693,11.693,11.693,0,0,1,11.693,11.693" transform="translate(97.959 214.89)" fill="#567e6f"/>
          <path id="Trazado_891529" data-name="Trazado 891529" d="M91.8,128.337a11.692,11.692,0,1,1-11.693-11.693A11.693,11.693,0,0,1,91.8,128.337" transform="translate(126.043 214.89)" fill="#567e6f"/>
          <path id="Trazado_891530" data-name="Trazado 891530" d="M107.045,128.337a11.692,11.692,0,1,1-11.693-11.693,11.693,11.693,0,0,1,11.693,11.693" transform="translate(154.128 214.89)" fill="#567e6f"/>
          <path id="Trazado_891531" data-name="Trazado 891531" d="M122.289,128.337A11.692,11.692,0,1,1,110.6,116.644a11.693,11.693,0,0,1,11.693,11.693" transform="translate(182.212 214.89)" fill="#567e6f"/>
          <path id="Trazado_891532" data-name="Trazado 891532" d="M137.534,128.337a11.692,11.692,0,1,1-11.693-11.693,11.693,11.693,0,0,1,11.693,11.693" transform="translate(210.297 214.89)" fill="#567e6f"/>
          <path id="Trazado_891533" data-name="Trazado 891533" d="M152.778,128.337a11.692,11.692,0,1,1-11.693-11.693,11.693,11.693,0,0,1,11.693,11.693" transform="translate(238.38 214.89)" fill="#567e6f"/>
          <path id="Trazado_891534" data-name="Trazado 891534" d="M168.023,128.337a11.692,11.692,0,1,1-11.693-11.693,11.693,11.693,0,0,1,11.693,11.693" transform="translate(266.466 214.89)" fill="#567e6f"/>
          <path id="Trazado_891535" data-name="Trazado 891535" d="M183.267,128.337a11.692,11.692,0,1,1-11.693-11.693,11.693,11.693,0,0,1,11.693,11.693" transform="translate(294.549 214.89)" fill="#567e6f"/>
          <path id="Trazado_891536" data-name="Trazado 891536" d="M198.512,128.337a11.692,11.692,0,1,1-11.693-11.693,11.693,11.693,0,0,1,11.693,11.693" transform="translate(322.635 214.89)" fill="#567e6f"/>
          <path id="Trazado_891537" data-name="Trazado 891537" d="M213.756,128.337a11.692,11.692,0,1,1-11.693-11.693,11.694,11.694,0,0,1,11.693,11.693" transform="translate(350.718 214.89)" fill="#567e6f"/>
        </g>
      </g>
    </g>
    <path id="Trazado_895479" data-name="Trazado 895479" d="M0,0H236.832V70.321H0Z" transform="translate(467.048 2259.928)" fill="#b24d03"/>
    <path id="Rectángulo_401999_-_Contorno" data-name="Rectángulo 401999 - Contorno" d="M2,2V68.321H234.832V2H2M0,0H236.832V70.321H0Z" transform="translate(467.048 2259.928)"/>
    <path id="Trazado_895480" data-name="Trazado 895480" d="M0,0H224.832V58.321H0Z" transform="translate(473.048 2265.928)" fill="#e33d00"/>
    <path id="Rectángulo_402000_-_Contorno" data-name="Rectángulo 402000 - Contorno" d="M2,2V56.321H222.832V2H2M0,0H224.832V58.321H0Z" transform="translate(473.048 2265.928)"/>
    <path id="Trazado_891540" data-name="Trazado 891540" d="M-7421.085-9620.867h-2v-69.316h2Z" transform="translate(7987.687 11949.928)"/>
    <path id="Trazado_891541" data-name="Trazado 891541" d="M-7421.085-9620.867h-2v-69.316h2Z" transform="translate(7980.829 11949.928)"/>
    <path id="Trazado_891539" data-name="Trazado 891539" d="M-7601.051-9758.651h402.006v161.415h-48.544v37.36h-301.883v-37.36h-51.579Zm398.006,4h-394.006v153.415h51.579v37.36h293.883v-37.36h48.544Z" transform="translate(7990.102 11967.928)" fill="#3b574d"/>
  </g>
</svg>
