<svg xmlns="http://www.w3.org/2000/svg" xmlns:xlink="http://www.w3.org/1999/xlink" width="402.006" height="198.775" viewBox="0 0 402.006 198.775">
  <defs>
    <clipPath id="clip-path">
      <path id="Trazado_891752" data-name="Trazado 891752" d="M-7599.05-9756.649v158.807h51.579v37.691h297.883v-37.691h48.544v-158.807Z" transform="translate(8094.05 11607.998)" fill="#fff" stroke="#707070" stroke-width="1"/>
    </clipPath>
    <clipPath id="clip-path-2">
      <rect id="Rectángulo_402003" data-name="Rectángulo 402003" width="564.475" height="354.92" fill="#567e6f" stroke="#707070" stroke-width="1"/>
    </clipPath>
  </defs>
  <g id="Grupo_1107069" data-name="Grupo 1107069" transform="translate(-809.051 -2209.276)">
    <g id="Enmascarar_grupo_1098678" data-name="Enmascarar grupo 1098678" transform="translate(316.051 359.928)" clip-path="url(#clip-path)">
      <g id="Grupo_1106421" data-name="Grupo 1106421" transform="translate(486.063 1851.349)">
        <g id="Grupo_1106420" data-name="Grupo 1106420" transform="translate(0 0)" clip-path="url(#clip-path-2)">
          <path id="Trazado_891544" data-name="Trazado 891544" d="M23.383,11.692A11.692,11.692,0,1,1,11.69,0,11.693,11.693,0,0,1,23.383,11.692" transform="translate(0 -0.002)" fill="#567e6f"/>
          <path id="Trazado_891545" data-name="Trazado 891545" d="M38.628,11.692A11.692,11.692,0,1,1,26.935,0,11.693,11.693,0,0,1,38.628,11.692" transform="translate(28.085 -0.002)" fill="#567e6f"/>
          <path id="Trazado_891546" data-name="Trazado 891546" d="M53.872,11.692A11.692,11.692,0,1,1,42.179,0,11.693,11.693,0,0,1,53.872,11.692" transform="translate(56.169 -0.002)" fill="#567e6f"/>
          <path id="Trazado_891547" data-name="Trazado 891547" d="M69.117,11.692A11.692,11.692,0,1,1,57.424,0,11.693,11.693,0,0,1,69.117,11.692" transform="translate(84.254 -0.002)" fill="#567e6f"/>
          <path id="Trazado_891548" data-name="Trazado 891548" d="M84.361,11.692A11.692,11.692,0,1,1,72.668,0,11.693,11.693,0,0,1,84.361,11.692" transform="translate(112.338 -0.002)" fill="#567e6f"/>
          <path id="Trazado_891549" data-name="Trazado 891549" d="M99.606,11.692A11.692,11.692,0,1,1,87.913,0,11.693,11.693,0,0,1,99.606,11.692" transform="translate(140.423 -0.002)" fill="#567e6f"/>
          <path id="Trazado_891550" data-name="Trazado 891550" d="M114.85,11.692A11.692,11.692,0,1,1,103.157,0,11.693,11.693,0,0,1,114.85,11.692" transform="translate(168.507 -0.002)" fill="#567e6f"/>
          <path id="Trazado_891551" data-name="Trazado 891551" d="M130.1,11.692A11.692,11.692,0,1,1,118.4,0,11.693,11.693,0,0,1,130.1,11.692" transform="translate(196.592 -0.002)" fill="#567e6f"/>
          <path id="Trazado_891552" data-name="Trazado 891552" d="M145.339,11.692A11.692,11.692,0,1,1,133.646,0a11.693,11.693,0,0,1,11.693,11.693" transform="translate(224.676 -0.002)" fill="#567e6f"/>
          <path id="Trazado_891553" data-name="Trazado 891553" d="M160.584,11.692A11.692,11.692,0,1,1,148.891,0a11.693,11.693,0,0,1,11.693,11.693" transform="translate(252.761 -0.002)" fill="#567e6f"/>
          <path id="Trazado_891554" data-name="Trazado 891554" d="M175.828,11.692A11.692,11.692,0,1,1,164.135,0a11.693,11.693,0,0,1,11.693,11.693" transform="translate(280.845 -0.002)" fill="#567e6f"/>
          <path id="Trazado_891555" data-name="Trazado 891555" d="M191.073,11.692A11.692,11.692,0,1,1,179.38,0a11.693,11.693,0,0,1,11.693,11.693" transform="translate(308.93 -0.002)" fill="#567e6f"/>
          <path id="Trazado_891556" data-name="Trazado 891556" d="M206.317,11.692A11.692,11.692,0,1,1,194.624,0a11.693,11.693,0,0,1,11.693,11.693" transform="translate(337.014 -0.002)" fill="#567e6f"/>
          <path id="Trazado_891557" data-name="Trazado 891557" d="M30.822,19.074A11.692,11.692,0,1,1,19.129,7.381,11.693,11.693,0,0,1,30.822,19.074" transform="translate(13.705 13.598)" fill="#567e6f"/>
          <path id="Trazado_891558" data-name="Trazado 891558" d="M46.067,19.074A11.692,11.692,0,1,1,34.374,7.381,11.693,11.693,0,0,1,46.067,19.074" transform="translate(41.79 13.598)" fill="#567e6f"/>
          <path id="Trazado_891559" data-name="Trazado 891559" d="M61.311,19.074A11.692,11.692,0,1,1,49.618,7.381,11.693,11.693,0,0,1,61.311,19.074" transform="translate(69.874 13.598)" fill="#567e6f"/>
          <path id="Trazado_891560" data-name="Trazado 891560" d="M76.556,19.074A11.692,11.692,0,1,1,64.863,7.381,11.693,11.693,0,0,1,76.556,19.074" transform="translate(97.959 13.598)" fill="#567e6f"/>
          <path id="Trazado_891561" data-name="Trazado 891561" d="M91.8,19.074A11.692,11.692,0,1,1,80.107,7.381,11.693,11.693,0,0,1,91.8,19.074" transform="translate(126.043 13.598)" fill="#567e6f"/>
          <path id="Trazado_891562" data-name="Trazado 891562" d="M107.045,19.074A11.692,11.692,0,1,1,95.352,7.381a11.693,11.693,0,0,1,11.693,11.693" transform="translate(154.128 13.598)" fill="#567e6f"/>
          <path id="Trazado_891563" data-name="Trazado 891563" d="M122.289,19.074A11.692,11.692,0,1,1,110.6,7.381a11.693,11.693,0,0,1,11.693,11.693" transform="translate(182.212 13.598)" fill="#567e6f"/>
          <path id="Trazado_891564" data-name="Trazado 891564" d="M137.534,19.074A11.692,11.692,0,1,1,125.841,7.381a11.693,11.693,0,0,1,11.693,11.693" transform="translate(210.297 13.598)" fill="#567e6f"/>
          <path id="Trazado_891565" data-name="Trazado 891565" d="M152.778,19.074A11.692,11.692,0,1,1,141.085,7.381a11.693,11.693,0,0,1,11.693,11.693" transform="translate(238.38 13.598)" fill="#567e6f"/>
          <path id="Trazado_891566" data-name="Trazado 891566" d="M168.023,19.074A11.692,11.692,0,1,1,156.33,7.381a11.693,11.693,0,0,1,11.693,11.693" transform="translate(266.466 13.598)" fill="#567e6f"/>
          <path id="Trazado_891567" data-name="Trazado 891567" d="M183.267,19.074A11.692,11.692,0,1,1,171.574,7.381a11.693,11.693,0,0,1,11.693,11.693" transform="translate(294.549 13.598)" fill="#567e6f"/>
          <path id="Trazado_891568" data-name="Trazado 891568" d="M198.512,19.074A11.692,11.692,0,1,1,186.819,7.381a11.693,11.693,0,0,1,11.693,11.693" transform="translate(322.635 13.598)" fill="#567e6f"/>
          <path id="Trazado_891569" data-name="Trazado 891569" d="M213.756,19.074A11.692,11.692,0,1,1,202.063,7.381a11.693,11.693,0,0,1,11.693,11.693" transform="translate(350.718 13.598)" fill="#567e6f"/>
          <path id="Trazado_891570" data-name="Trazado 891570" d="M23.383,27.3A11.692,11.692,0,1,1,11.69,15.608,11.693,11.693,0,0,1,23.383,27.3" transform="translate(0 28.754)" fill="#567e6f"/>
          <path id="Trazado_891571" data-name="Trazado 891571" d="M38.628,27.3A11.692,11.692,0,1,1,26.935,15.608,11.693,11.693,0,0,1,38.628,27.3" transform="translate(28.085 28.754)" fill="#567e6f"/>
          <path id="Trazado_891572" data-name="Trazado 891572" d="M53.872,27.3A11.692,11.692,0,1,1,42.179,15.608,11.693,11.693,0,0,1,53.872,27.3" transform="translate(56.169 28.754)" fill="#567e6f"/>
          <path id="Trazado_891573" data-name="Trazado 891573" d="M69.117,27.3A11.692,11.692,0,1,1,57.424,15.608,11.693,11.693,0,0,1,69.117,27.3" transform="translate(84.254 28.754)" fill="#567e6f"/>
          <path id="Trazado_891574" data-name="Trazado 891574" d="M84.361,27.3A11.692,11.692,0,1,1,72.668,15.608,11.693,11.693,0,0,1,84.361,27.3" transform="translate(112.338 28.754)" fill="#567e6f"/>
          <path id="Trazado_891575" data-name="Trazado 891575" d="M99.606,27.3A11.692,11.692,0,1,1,87.913,15.608,11.693,11.693,0,0,1,99.606,27.3" transform="translate(140.423 28.754)" fill="#567e6f"/>
          <path id="Trazado_891576" data-name="Trazado 891576" d="M114.85,27.3a11.692,11.692,0,1,1-11.693-11.693A11.693,11.693,0,0,1,114.85,27.3" transform="translate(168.507 28.754)" fill="#567e6f"/>
          <path id="Trazado_891577" data-name="Trazado 891577" d="M130.1,27.3A11.692,11.692,0,1,1,118.4,15.608,11.693,11.693,0,0,1,130.1,27.3" transform="translate(196.592 28.754)" fill="#567e6f"/>
          <path id="Trazado_891578" data-name="Trazado 891578" d="M145.339,27.3a11.692,11.692,0,1,1-11.693-11.693A11.693,11.693,0,0,1,145.339,27.3" transform="translate(224.676 28.754)" fill="#567e6f"/>
          <path id="Trazado_891579" data-name="Trazado 891579" d="M160.584,27.3a11.692,11.692,0,1,1-11.693-11.693A11.693,11.693,0,0,1,160.584,27.3" transform="translate(252.761 28.754)" fill="#567e6f"/>
          <path id="Trazado_891580" data-name="Trazado 891580" d="M175.828,27.3a11.692,11.692,0,1,1-11.693-11.693A11.693,11.693,0,0,1,175.828,27.3" transform="translate(280.845 28.754)" fill="#567e6f"/>
          <path id="Trazado_891581" data-name="Trazado 891581" d="M191.073,27.3A11.692,11.692,0,1,1,179.38,15.608,11.693,11.693,0,0,1,191.073,27.3" transform="translate(308.93 28.754)" fill="#567e6f"/>
          <path id="Trazado_891582" data-name="Trazado 891582" d="M206.317,27.3a11.692,11.692,0,1,1-11.693-11.693A11.693,11.693,0,0,1,206.317,27.3" transform="translate(337.014 28.754)" fill="#567e6f"/>
          <path id="Trazado_891583" data-name="Trazado 891583" d="M30.822,34.683A11.692,11.692,0,1,1,19.129,22.99,11.693,11.693,0,0,1,30.822,34.683" transform="translate(13.705 42.354)" fill="#567e6f"/>
          <path id="Trazado_891584" data-name="Trazado 891584" d="M46.067,34.683A11.692,11.692,0,1,1,34.374,22.99,11.693,11.693,0,0,1,46.067,34.683" transform="translate(41.79 42.354)" fill="#567e6f"/>
          <path id="Trazado_891585" data-name="Trazado 891585" d="M61.311,34.683A11.692,11.692,0,1,1,49.618,22.99,11.693,11.693,0,0,1,61.311,34.683" transform="translate(69.874 42.354)" fill="#567e6f"/>
          <path id="Trazado_891586" data-name="Trazado 891586" d="M76.556,34.683A11.692,11.692,0,1,1,64.863,22.99,11.693,11.693,0,0,1,76.556,34.683" transform="translate(97.959 42.354)" fill="#567e6f"/>
          <path id="Trazado_891587" data-name="Trazado 891587" d="M91.8,34.683A11.692,11.692,0,1,1,80.107,22.99,11.693,11.693,0,0,1,91.8,34.683" transform="translate(126.043 42.354)" fill="#567e6f"/>
          <path id="Trazado_891588" data-name="Trazado 891588" d="M107.045,34.683A11.692,11.692,0,1,1,95.352,22.99a11.693,11.693,0,0,1,11.693,11.693" transform="translate(154.128 42.354)" fill="#567e6f"/>
          <path id="Trazado_891589" data-name="Trazado 891589" d="M122.289,34.683A11.692,11.692,0,1,1,110.6,22.99a11.693,11.693,0,0,1,11.693,11.693" transform="translate(182.212 42.354)" fill="#567e6f"/>
          <path id="Trazado_891590" data-name="Trazado 891590" d="M137.534,34.683A11.692,11.692,0,1,1,125.841,22.99a11.693,11.693,0,0,1,11.693,11.693" transform="translate(210.297 42.354)" fill="#567e6f"/>
          <path id="Trazado_891591" data-name="Trazado 891591" d="M152.778,34.683A11.692,11.692,0,1,1,141.085,22.99a11.693,11.693,0,0,1,11.693,11.693" transform="translate(238.38 42.354)" fill="#567e6f"/>
          <path id="Trazado_891592" data-name="Trazado 891592" d="M168.023,34.683A11.692,11.692,0,1,1,156.33,22.99a11.693,11.693,0,0,1,11.693,11.693" transform="translate(266.466 42.354)" fill="#567e6f"/>
          <path id="Trazado_891593" data-name="Trazado 891593" d="M183.267,34.683A11.692,11.692,0,1,1,171.574,22.99a11.693,11.693,0,0,1,11.693,11.693" transform="translate(294.549 42.354)" fill="#567e6f"/>
          <path id="Trazado_891594" data-name="Trazado 891594" d="M198.512,34.683A11.692,11.692,0,1,1,186.819,22.99a11.693,11.693,0,0,1,11.693,11.693" transform="translate(322.635 42.354)" fill="#567e6f"/>
          <path id="Trazado_891595" data-name="Trazado 891595" d="M213.756,34.683A11.692,11.692,0,1,1,202.063,22.99a11.694,11.694,0,0,1,11.693,11.693" transform="translate(350.718 42.354)" fill="#567e6f"/>
          <path id="Trazado_891596" data-name="Trazado 891596" d="M23.383,42.91A11.692,11.692,0,1,1,11.69,31.217,11.693,11.693,0,0,1,23.383,42.91" transform="translate(0 57.51)" fill="#567e6f"/>
          <path id="Trazado_891597" data-name="Trazado 891597" d="M38.628,42.91A11.692,11.692,0,1,1,26.935,31.217,11.693,11.693,0,0,1,38.628,42.91" transform="translate(28.085 57.51)" fill="#567e6f"/>
          <path id="Trazado_891598" data-name="Trazado 891598" d="M53.872,42.91A11.692,11.692,0,1,1,42.179,31.217,11.693,11.693,0,0,1,53.872,42.91" transform="translate(56.169 57.51)" fill="#567e6f"/>
          <path id="Trazado_891599" data-name="Trazado 891599" d="M69.117,42.91A11.692,11.692,0,1,1,57.424,31.217,11.693,11.693,0,0,1,69.117,42.91" transform="translate(84.254 57.51)" fill="#567e6f"/>
          <path id="Trazado_891600" data-name="Trazado 891600" d="M84.361,42.91A11.692,11.692,0,1,1,72.668,31.217,11.693,11.693,0,0,1,84.361,42.91" transform="translate(112.338 57.51)" fill="#567e6f"/>
          <path id="Trazado_891601" data-name="Trazado 891601" d="M99.606,42.91A11.692,11.692,0,1,1,87.913,31.217,11.693,11.693,0,0,1,99.606,42.91" transform="translate(140.423 57.51)" fill="#567e6f"/>
          <path id="Trazado_891602" data-name="Trazado 891602" d="M114.85,42.91a11.692,11.692,0,1,1-11.693-11.693A11.693,11.693,0,0,1,114.85,42.91" transform="translate(168.507 57.51)" fill="#567e6f"/>
          <path id="Trazado_891603" data-name="Trazado 891603" d="M130.1,42.91A11.692,11.692,0,1,1,118.4,31.217,11.693,11.693,0,0,1,130.1,42.91" transform="translate(196.592 57.51)" fill="#567e6f"/>
          <path id="Trazado_891604" data-name="Trazado 891604" d="M145.339,42.91a11.692,11.692,0,1,1-11.693-11.693A11.693,11.693,0,0,1,145.339,42.91" transform="translate(224.676 57.51)" fill="#567e6f"/>
          <path id="Trazado_891605" data-name="Trazado 891605" d="M160.584,42.91a11.692,11.692,0,1,1-11.693-11.693A11.693,11.693,0,0,1,160.584,42.91" transform="translate(252.761 57.51)" fill="#567e6f"/>
          <path id="Trazado_891606" data-name="Trazado 891606" d="M175.828,42.91a11.692,11.692,0,1,1-11.693-11.693A11.693,11.693,0,0,1,175.828,42.91" transform="translate(280.845 57.51)" fill="#567e6f"/>
          <path id="Trazado_891607" data-name="Trazado 891607" d="M191.073,42.91A11.692,11.692,0,1,1,179.38,31.217,11.693,11.693,0,0,1,191.073,42.91" transform="translate(308.93 57.51)" fill="#567e6f"/>
          <path id="Trazado_891608" data-name="Trazado 891608" d="M206.317,42.91a11.692,11.692,0,1,1-11.693-11.693A11.693,11.693,0,0,1,206.317,42.91" transform="translate(337.014 57.51)" fill="#567e6f"/>
          <path id="Trazado_891609" data-name="Trazado 891609" d="M30.822,50.292A11.692,11.692,0,1,1,19.129,38.6,11.693,11.693,0,0,1,30.822,50.292" transform="translate(13.705 71.11)" fill="#567e6f"/>
          <path id="Trazado_891610" data-name="Trazado 891610" d="M46.067,50.292A11.692,11.692,0,1,1,34.374,38.6,11.693,11.693,0,0,1,46.067,50.292" transform="translate(41.79 71.11)" fill="#567e6f"/>
          <path id="Trazado_891611" data-name="Trazado 891611" d="M61.311,50.292A11.692,11.692,0,1,1,49.618,38.6,11.693,11.693,0,0,1,61.311,50.292" transform="translate(69.874 71.11)" fill="#567e6f"/>
          <path id="Trazado_891612" data-name="Trazado 891612" d="M76.556,50.292A11.692,11.692,0,1,1,64.863,38.6,11.693,11.693,0,0,1,76.556,50.292" transform="translate(97.959 71.11)" fill="#567e6f"/>
          <path id="Trazado_891613" data-name="Trazado 891613" d="M91.8,50.292A11.692,11.692,0,1,1,80.107,38.6,11.693,11.693,0,0,1,91.8,50.292" transform="translate(126.043 71.11)" fill="#567e6f"/>
          <path id="Trazado_891614" data-name="Trazado 891614" d="M107.045,50.292A11.692,11.692,0,1,1,95.352,38.6a11.693,11.693,0,0,1,11.693,11.693" transform="translate(154.128 71.11)" fill="#567e6f"/>
          <path id="Trazado_891615" data-name="Trazado 891615" d="M122.289,50.292A11.692,11.692,0,1,1,110.6,38.6a11.693,11.693,0,0,1,11.693,11.693" transform="translate(182.212 71.11)" fill="#567e6f"/>
          <path id="Trazado_891616" data-name="Trazado 891616" d="M137.534,50.292A11.692,11.692,0,1,1,125.841,38.6a11.693,11.693,0,0,1,11.693,11.693" transform="translate(210.297 71.11)" fill="#567e6f"/>
          <path id="Trazado_891617" data-name="Trazado 891617" d="M152.778,50.292A11.692,11.692,0,1,1,141.085,38.6a11.693,11.693,0,0,1,11.693,11.693" transform="translate(238.38 71.11)" fill="#567e6f"/>
          <path id="Trazado_891618" data-name="Trazado 891618" d="M168.023,50.292A11.692,11.692,0,1,1,156.33,38.6a11.693,11.693,0,0,1,11.693,11.693" transform="translate(266.466 71.11)" fill="#567e6f"/>
          <path id="Trazado_891619" data-name="Trazado 891619" d="M183.267,50.292A11.692,11.692,0,1,1,171.574,38.6a11.693,11.693,0,0,1,11.693,11.693" transform="translate(294.549 71.11)" fill="#567e6f"/>
          <path id="Trazado_891620" data-name="Trazado 891620" d="M198.512,50.292A11.692,11.692,0,1,1,186.819,38.6a11.693,11.693,0,0,1,11.693,11.693" transform="translate(322.635 71.11)" fill="#567e6f"/>
          <path id="Trazado_891621" data-name="Trazado 891621" d="M213.756,50.292A11.692,11.692,0,1,1,202.063,38.6a11.693,11.693,0,0,1,11.693,11.693" transform="translate(350.718 71.11)" fill="#567e6f"/>
          <path id="Trazado_891622" data-name="Trazado 891622" d="M23.383,58.519A11.692,11.692,0,1,1,11.69,46.826,11.693,11.693,0,0,1,23.383,58.519" transform="translate(0 86.266)" fill="#567e6f"/>
          <path id="Trazado_891623" data-name="Trazado 891623" d="M38.628,58.519A11.692,11.692,0,1,1,26.935,46.826,11.693,11.693,0,0,1,38.628,58.519" transform="translate(28.085 86.266)" fill="#567e6f"/>
          <path id="Trazado_891624" data-name="Trazado 891624" d="M53.872,58.519A11.692,11.692,0,1,1,42.179,46.826,11.693,11.693,0,0,1,53.872,58.519" transform="translate(56.169 86.266)" fill="#567e6f"/>
          <path id="Trazado_891625" data-name="Trazado 891625" d="M69.117,58.519A11.692,11.692,0,1,1,57.424,46.826,11.693,11.693,0,0,1,69.117,58.519" transform="translate(84.254 86.266)" fill="#567e6f"/>
          <path id="Trazado_891626" data-name="Trazado 891626" d="M84.361,58.519A11.692,11.692,0,1,1,72.668,46.826,11.693,11.693,0,0,1,84.361,58.519" transform="translate(112.338 86.266)" fill="#567e6f"/>
          <path id="Trazado_891627" data-name="Trazado 891627" d="M99.606,58.519A11.692,11.692,0,1,1,87.913,46.826,11.693,11.693,0,0,1,99.606,58.519" transform="translate(140.423 86.266)" fill="#567e6f"/>
          <path id="Trazado_891628" data-name="Trazado 891628" d="M114.85,58.519a11.692,11.692,0,1,1-11.693-11.693A11.693,11.693,0,0,1,114.85,58.519" transform="translate(168.507 86.266)" fill="#567e6f"/>
          <path id="Trazado_891629" data-name="Trazado 891629" d="M130.1,58.519A11.692,11.692,0,1,1,118.4,46.826,11.693,11.693,0,0,1,130.1,58.519" transform="translate(196.592 86.266)" fill="#567e6f"/>
          <path id="Trazado_891630" data-name="Trazado 891630" d="M145.339,58.519a11.692,11.692,0,1,1-11.693-11.693,11.693,11.693,0,0,1,11.693,11.693" transform="translate(224.676 86.266)" fill="#567e6f"/>
          <path id="Trazado_891631" data-name="Trazado 891631" d="M160.584,58.519a11.692,11.692,0,1,1-11.693-11.693,11.693,11.693,0,0,1,11.693,11.693" transform="translate(252.761 86.266)" fill="#567e6f"/>
          <path id="Trazado_891632" data-name="Trazado 891632" d="M175.828,58.519a11.692,11.692,0,1,1-11.693-11.693,11.693,11.693,0,0,1,11.693,11.693" transform="translate(280.845 86.266)" fill="#567e6f"/>
          <path id="Trazado_891633" data-name="Trazado 891633" d="M191.073,58.519A11.692,11.692,0,1,1,179.38,46.826a11.693,11.693,0,0,1,11.693,11.693" transform="translate(308.93 86.266)" fill="#567e6f"/>
          <path id="Trazado_891634" data-name="Trazado 891634" d="M206.317,58.519a11.692,11.692,0,1,1-11.693-11.693,11.693,11.693,0,0,1,11.693,11.693" transform="translate(337.014 86.266)" fill="#567e6f"/>
          <path id="Trazado_891635" data-name="Trazado 891635" d="M30.822,65.9A11.692,11.692,0,1,1,19.129,54.208,11.693,11.693,0,0,1,30.822,65.9" transform="translate(13.705 99.866)" fill="#567e6f"/>
          <path id="Trazado_891636" data-name="Trazado 891636" d="M46.067,65.9A11.692,11.692,0,1,1,34.374,54.208,11.693,11.693,0,0,1,46.067,65.9" transform="translate(41.79 99.866)" fill="#567e6f"/>
          <path id="Trazado_891637" data-name="Trazado 891637" d="M61.311,65.9A11.692,11.692,0,1,1,49.618,54.208,11.693,11.693,0,0,1,61.311,65.9" transform="translate(69.874 99.866)" fill="#567e6f"/>
          <path id="Trazado_891638" data-name="Trazado 891638" d="M76.556,65.9A11.692,11.692,0,1,1,64.863,54.208,11.693,11.693,0,0,1,76.556,65.9" transform="translate(97.959 99.866)" fill="#567e6f"/>
          <path id="Trazado_891639" data-name="Trazado 891639" d="M91.8,65.9A11.692,11.692,0,1,1,80.107,54.208,11.693,11.693,0,0,1,91.8,65.9" transform="translate(126.043 99.866)" fill="#567e6f"/>
          <path id="Trazado_891640" data-name="Trazado 891640" d="M107.045,65.9A11.692,11.692,0,1,1,95.352,54.208,11.693,11.693,0,0,1,107.045,65.9" transform="translate(154.128 99.866)" fill="#567e6f"/>
          <path id="Trazado_891641" data-name="Trazado 891641" d="M122.289,65.9A11.692,11.692,0,1,1,110.6,54.208,11.693,11.693,0,0,1,122.289,65.9" transform="translate(182.212 99.866)" fill="#567e6f"/>
          <path id="Trazado_891642" data-name="Trazado 891642" d="M137.534,65.9a11.692,11.692,0,1,1-11.693-11.693A11.693,11.693,0,0,1,137.534,65.9" transform="translate(210.297 99.866)" fill="#567e6f"/>
          <path id="Trazado_891643" data-name="Trazado 891643" d="M152.778,65.9a11.692,11.692,0,1,1-11.693-11.693A11.693,11.693,0,0,1,152.778,65.9" transform="translate(238.38 99.866)" fill="#567e6f"/>
          <path id="Trazado_891644" data-name="Trazado 891644" d="M168.023,65.9A11.692,11.692,0,1,1,156.33,54.208,11.693,11.693,0,0,1,168.023,65.9" transform="translate(266.466 99.866)" fill="#567e6f"/>
          <path id="Trazado_891645" data-name="Trazado 891645" d="M183.267,65.9a11.692,11.692,0,1,1-11.693-11.693A11.693,11.693,0,0,1,183.267,65.9" transform="translate(294.549 99.866)" fill="#567e6f"/>
          <path id="Trazado_891646" data-name="Trazado 891646" d="M198.512,65.9a11.692,11.692,0,1,1-11.693-11.693A11.693,11.693,0,0,1,198.512,65.9" transform="translate(322.635 99.866)" fill="#567e6f"/>
          <path id="Trazado_891647" data-name="Trazado 891647" d="M213.756,65.9a11.692,11.692,0,1,1-11.693-11.693A11.693,11.693,0,0,1,213.756,65.9" transform="translate(350.718 99.866)" fill="#567e6f"/>
          <path id="Trazado_891648" data-name="Trazado 891648" d="M23.383,74.128A11.692,11.692,0,1,1,11.69,62.435,11.693,11.693,0,0,1,23.383,74.128" transform="translate(0 115.022)" fill="#567e6f"/>
          <path id="Trazado_891649" data-name="Trazado 891649" d="M38.628,74.128A11.692,11.692,0,1,1,26.935,62.435,11.693,11.693,0,0,1,38.628,74.128" transform="translate(28.085 115.022)" fill="#567e6f"/>
          <path id="Trazado_891650" data-name="Trazado 891650" d="M53.872,74.128A11.692,11.692,0,1,1,42.179,62.435,11.693,11.693,0,0,1,53.872,74.128" transform="translate(56.169 115.022)" fill="#567e6f"/>
          <path id="Trazado_891651" data-name="Trazado 891651" d="M69.117,74.128A11.692,11.692,0,1,1,57.424,62.435,11.693,11.693,0,0,1,69.117,74.128" transform="translate(84.254 115.022)" fill="#567e6f"/>
          <path id="Trazado_891652" data-name="Trazado 891652" d="M84.361,74.128A11.692,11.692,0,1,1,72.668,62.435,11.693,11.693,0,0,1,84.361,74.128" transform="translate(112.338 115.022)" fill="#567e6f"/>
          <path id="Trazado_891653" data-name="Trazado 891653" d="M99.606,74.128A11.692,11.692,0,1,1,87.913,62.435,11.693,11.693,0,0,1,99.606,74.128" transform="translate(140.423 115.022)" fill="#567e6f"/>
          <path id="Trazado_891654" data-name="Trazado 891654" d="M114.85,74.128a11.692,11.692,0,1,1-11.693-11.693A11.693,11.693,0,0,1,114.85,74.128" transform="translate(168.507 115.022)" fill="#567e6f"/>
          <path id="Trazado_891655" data-name="Trazado 891655" d="M130.1,74.128A11.692,11.692,0,1,1,118.4,62.435,11.693,11.693,0,0,1,130.1,74.128" transform="translate(196.592 115.022)" fill="#567e6f"/>
          <path id="Trazado_891656" data-name="Trazado 891656" d="M145.339,74.128a11.692,11.692,0,1,1-11.693-11.693,11.693,11.693,0,0,1,11.693,11.693" transform="translate(224.676 115.022)" fill="#567e6f"/>
          <path id="Trazado_891657" data-name="Trazado 891657" d="M160.584,74.128a11.692,11.692,0,1,1-11.693-11.693,11.693,11.693,0,0,1,11.693,11.693" transform="translate(252.761 115.022)" fill="#567e6f"/>
          <path id="Trazado_891658" data-name="Trazado 891658" d="M175.828,74.128a11.692,11.692,0,1,1-11.693-11.693,11.693,11.693,0,0,1,11.693,11.693" transform="translate(280.845 115.022)" fill="#567e6f"/>
          <path id="Trazado_891659" data-name="Trazado 891659" d="M191.073,74.128A11.692,11.692,0,1,1,179.38,62.435a11.693,11.693,0,0,1,11.693,11.693" transform="translate(308.93 115.022)" fill="#567e6f"/>
          <path id="Trazado_891660" data-name="Trazado 891660" d="M206.317,74.128a11.692,11.692,0,1,1-11.693-11.693,11.693,11.693,0,0,1,11.693,11.693" transform="translate(337.014 115.022)" fill="#567e6f"/>
          <path id="Trazado_891661" data-name="Trazado 891661" d="M30.822,81.51A11.692,11.692,0,1,1,19.129,69.817,11.693,11.693,0,0,1,30.822,81.51" transform="translate(13.705 128.622)" fill="#567e6f"/>
          <path id="Trazado_891662" data-name="Trazado 891662" d="M46.067,81.51A11.692,11.692,0,1,1,34.374,69.817,11.693,11.693,0,0,1,46.067,81.51" transform="translate(41.79 128.622)" fill="#567e6f"/>
          <path id="Trazado_891663" data-name="Trazado 891663" d="M61.311,81.51A11.692,11.692,0,1,1,49.618,69.817,11.693,11.693,0,0,1,61.311,81.51" transform="translate(69.874 128.622)" fill="#567e6f"/>
          <path id="Trazado_891664" data-name="Trazado 891664" d="M76.556,81.51A11.692,11.692,0,1,1,64.863,69.817,11.693,11.693,0,0,1,76.556,81.51" transform="translate(97.959 128.622)" fill="#567e6f"/>
          <path id="Trazado_891665" data-name="Trazado 891665" d="M91.8,81.51A11.692,11.692,0,1,1,80.107,69.817,11.693,11.693,0,0,1,91.8,81.51" transform="translate(126.043 128.622)" fill="#567e6f"/>
          <path id="Trazado_891666" data-name="Trazado 891666" d="M107.045,81.51A11.692,11.692,0,1,1,95.352,69.817,11.693,11.693,0,0,1,107.045,81.51" transform="translate(154.128 128.622)" fill="#567e6f"/>
          <path id="Trazado_891667" data-name="Trazado 891667" d="M122.289,81.51A11.692,11.692,0,1,1,110.6,69.817,11.693,11.693,0,0,1,122.289,81.51" transform="translate(182.212 128.622)" fill="#567e6f"/>
          <path id="Trazado_891668" data-name="Trazado 891668" d="M137.534,81.51a11.692,11.692,0,1,1-11.693-11.693A11.693,11.693,0,0,1,137.534,81.51" transform="translate(210.297 128.622)" fill="#567e6f"/>
          <path id="Trazado_891669" data-name="Trazado 891669" d="M152.778,81.51a11.692,11.692,0,1,1-11.693-11.693A11.693,11.693,0,0,1,152.778,81.51" transform="translate(238.38 128.622)" fill="#567e6f"/>
          <path id="Trazado_891670" data-name="Trazado 891670" d="M168.023,81.51A11.692,11.692,0,1,1,156.33,69.817,11.693,11.693,0,0,1,168.023,81.51" transform="translate(266.466 128.622)" fill="#567e6f"/>
          <path id="Trazado_891671" data-name="Trazado 891671" d="M183.267,81.51a11.692,11.692,0,1,1-11.693-11.693A11.693,11.693,0,0,1,183.267,81.51" transform="translate(294.549 128.622)" fill="#567e6f"/>
          <path id="Trazado_891672" data-name="Trazado 891672" d="M198.512,81.51a11.692,11.692,0,1,1-11.693-11.693A11.693,11.693,0,0,1,198.512,81.51" transform="translate(322.635 128.622)" fill="#567e6f"/>
          <path id="Trazado_891673" data-name="Trazado 891673" d="M213.756,81.51a11.692,11.692,0,1,1-11.693-11.693A11.693,11.693,0,0,1,213.756,81.51" transform="translate(350.718 128.622)" fill="#567e6f"/>
          <path id="Trazado_891674" data-name="Trazado 891674" d="M23.383,89.738A11.692,11.692,0,1,1,11.69,78.045,11.693,11.693,0,0,1,23.383,89.738" transform="translate(0 143.78)" fill="#567e6f"/>
          <path id="Trazado_891675" data-name="Trazado 891675" d="M38.628,89.738A11.692,11.692,0,1,1,26.935,78.045,11.693,11.693,0,0,1,38.628,89.738" transform="translate(28.085 143.78)" fill="#567e6f"/>
          <path id="Trazado_891676" data-name="Trazado 891676" d="M53.872,89.738A11.692,11.692,0,1,1,42.179,78.045,11.693,11.693,0,0,1,53.872,89.738" transform="translate(56.169 143.78)" fill="#567e6f"/>
          <path id="Trazado_891677" data-name="Trazado 891677" d="M69.117,89.738A11.692,11.692,0,1,1,57.424,78.045,11.693,11.693,0,0,1,69.117,89.738" transform="translate(84.254 143.78)" fill="#567e6f"/>
          <path id="Trazado_891678" data-name="Trazado 891678" d="M84.361,89.738A11.692,11.692,0,1,1,72.668,78.045,11.693,11.693,0,0,1,84.361,89.738" transform="translate(112.338 143.78)" fill="#567e6f"/>
          <path id="Trazado_891679" data-name="Trazado 891679" d="M99.606,89.738A11.692,11.692,0,1,1,87.913,78.045,11.693,11.693,0,0,1,99.606,89.738" transform="translate(140.423 143.78)" fill="#567e6f"/>
          <path id="Trazado_891680" data-name="Trazado 891680" d="M114.85,89.738a11.692,11.692,0,1,1-11.693-11.693A11.693,11.693,0,0,1,114.85,89.738" transform="translate(168.507 143.78)" fill="#567e6f"/>
          <path id="Trazado_891681" data-name="Trazado 891681" d="M130.1,89.738A11.692,11.692,0,1,1,118.4,78.045,11.693,11.693,0,0,1,130.1,89.738" transform="translate(196.592 143.78)" fill="#567e6f"/>
          <path id="Trazado_891682" data-name="Trazado 891682" d="M145.339,89.738a11.692,11.692,0,1,1-11.693-11.693,11.693,11.693,0,0,1,11.693,11.693" transform="translate(224.676 143.78)" fill="#567e6f"/>
          <path id="Trazado_891683" data-name="Trazado 891683" d="M160.584,89.738a11.692,11.692,0,1,1-11.693-11.693,11.693,11.693,0,0,1,11.693,11.693" transform="translate(252.761 143.78)" fill="#567e6f"/>
          <path id="Trazado_891684" data-name="Trazado 891684" d="M175.828,89.738a11.692,11.692,0,1,1-11.693-11.693,11.693,11.693,0,0,1,11.693,11.693" transform="translate(280.845 143.78)" fill="#567e6f"/>
          <path id="Trazado_891685" data-name="Trazado 891685" d="M191.073,89.738A11.692,11.692,0,1,1,179.38,78.045a11.693,11.693,0,0,1,11.693,11.693" transform="translate(308.93 143.78)" fill="#567e6f"/>
          <path id="Trazado_891686" data-name="Trazado 891686" d="M206.317,89.738a11.692,11.692,0,1,1-11.693-11.693,11.693,11.693,0,0,1,11.693,11.693" transform="translate(337.014 143.78)" fill="#567e6f"/>
          <path id="Trazado_891687" data-name="Trazado 891687" d="M30.822,97.119A11.692,11.692,0,1,1,19.129,85.426,11.693,11.693,0,0,1,30.822,97.119" transform="translate(13.705 157.378)" fill="#567e6f"/>
          <path id="Trazado_891688" data-name="Trazado 891688" d="M46.067,97.119A11.692,11.692,0,1,1,34.374,85.426,11.693,11.693,0,0,1,46.067,97.119" transform="translate(41.79 157.378)" fill="#567e6f"/>
          <path id="Trazado_891689" data-name="Trazado 891689" d="M61.311,97.119A11.692,11.692,0,1,1,49.618,85.426,11.693,11.693,0,0,1,61.311,97.119" transform="translate(69.874 157.378)" fill="#567e6f"/>
          <path id="Trazado_891690" data-name="Trazado 891690" d="M76.556,97.119A11.692,11.692,0,1,1,64.863,85.426,11.693,11.693,0,0,1,76.556,97.119" transform="translate(97.959 157.378)" fill="#567e6f"/>
          <path id="Trazado_891691" data-name="Trazado 891691" d="M91.8,97.119A11.692,11.692,0,1,1,80.107,85.426,11.693,11.693,0,0,1,91.8,97.119" transform="translate(126.043 157.378)" fill="#567e6f"/>
          <path id="Trazado_891692" data-name="Trazado 891692" d="M107.045,97.119A11.692,11.692,0,1,1,95.352,85.426a11.693,11.693,0,0,1,11.693,11.693" transform="translate(154.128 157.378)" fill="#567e6f"/>
          <path id="Trazado_891693" data-name="Trazado 891693" d="M122.289,97.119A11.692,11.692,0,1,1,110.6,85.426a11.693,11.693,0,0,1,11.693,11.693" transform="translate(182.212 157.378)" fill="#567e6f"/>
          <path id="Trazado_891694" data-name="Trazado 891694" d="M137.534,97.119a11.692,11.692,0,1,1-11.693-11.693,11.693,11.693,0,0,1,11.693,11.693" transform="translate(210.297 157.378)" fill="#567e6f"/>
          <path id="Trazado_891695" data-name="Trazado 891695" d="M152.778,97.119a11.692,11.692,0,1,1-11.693-11.693,11.693,11.693,0,0,1,11.693,11.693" transform="translate(238.38 157.378)" fill="#567e6f"/>
          <path id="Trazado_891696" data-name="Trazado 891696" d="M168.023,97.119A11.692,11.692,0,1,1,156.33,85.426a11.693,11.693,0,0,1,11.693,11.693" transform="translate(266.466 157.378)" fill="#567e6f"/>
          <path id="Trazado_891697" data-name="Trazado 891697" d="M183.267,97.119a11.692,11.692,0,1,1-11.693-11.693,11.693,11.693,0,0,1,11.693,11.693" transform="translate(294.549 157.378)" fill="#567e6f"/>
          <path id="Trazado_891698" data-name="Trazado 891698" d="M198.512,97.119a11.692,11.692,0,1,1-11.693-11.693,11.693,11.693,0,0,1,11.693,11.693" transform="translate(322.635 157.378)" fill="#567e6f"/>
          <path id="Trazado_891699" data-name="Trazado 891699" d="M213.756,97.119a11.692,11.692,0,1,1-11.693-11.693,11.693,11.693,0,0,1,11.693,11.693" transform="translate(350.718 157.378)" fill="#567e6f"/>
          <path id="Trazado_891700" data-name="Trazado 891700" d="M23.383,105.347A11.692,11.692,0,1,1,11.69,93.654a11.693,11.693,0,0,1,11.693,11.693" transform="translate(0 172.536)" fill="#567e6f"/>
          <path id="Trazado_891701" data-name="Trazado 891701" d="M38.628,105.347A11.692,11.692,0,1,1,26.935,93.654a11.693,11.693,0,0,1,11.693,11.693" transform="translate(28.085 172.536)" fill="#567e6f"/>
          <path id="Trazado_891702" data-name="Trazado 891702" d="M53.872,105.347A11.692,11.692,0,1,1,42.179,93.654a11.693,11.693,0,0,1,11.693,11.693" transform="translate(56.169 172.536)" fill="#567e6f"/>
          <path id="Trazado_891703" data-name="Trazado 891703" d="M69.117,105.347A11.692,11.692,0,1,1,57.424,93.654a11.693,11.693,0,0,1,11.693,11.693" transform="translate(84.254 172.536)" fill="#567e6f"/>
          <path id="Trazado_891704" data-name="Trazado 891704" d="M84.361,105.347A11.692,11.692,0,1,1,72.668,93.654a11.693,11.693,0,0,1,11.693,11.693" transform="translate(112.338 172.536)" fill="#567e6f"/>
          <path id="Trazado_891705" data-name="Trazado 891705" d="M99.606,105.347A11.692,11.692,0,1,1,87.913,93.654a11.693,11.693,0,0,1,11.693,11.693" transform="translate(140.423 172.536)" fill="#567e6f"/>
          <path id="Trazado_891706" data-name="Trazado 891706" d="M114.85,105.347a11.692,11.692,0,1,1-11.693-11.693,11.693,11.693,0,0,1,11.693,11.693" transform="translate(168.507 172.536)" fill="#567e6f"/>
          <path id="Trazado_891707" data-name="Trazado 891707" d="M130.1,105.347A11.692,11.692,0,1,1,118.4,93.654,11.693,11.693,0,0,1,130.1,105.347" transform="translate(196.592 172.536)" fill="#567e6f"/>
          <path id="Trazado_891708" data-name="Trazado 891708" d="M145.339,105.347a11.692,11.692,0,1,1-11.693-11.693,11.693,11.693,0,0,1,11.693,11.693" transform="translate(224.676 172.536)" fill="#567e6f"/>
          <path id="Trazado_891709" data-name="Trazado 891709" d="M160.584,105.347a11.692,11.692,0,1,1-11.693-11.693,11.693,11.693,0,0,1,11.693,11.693" transform="translate(252.761 172.536)" fill="#567e6f"/>
          <path id="Trazado_891710" data-name="Trazado 891710" d="M175.828,105.347a11.692,11.692,0,1,1-11.693-11.693,11.693,11.693,0,0,1,11.693,11.693" transform="translate(280.845 172.536)" fill="#567e6f"/>
          <path id="Trazado_891711" data-name="Trazado 891711" d="M191.073,105.347A11.692,11.692,0,1,1,179.38,93.654a11.693,11.693,0,0,1,11.693,11.693" transform="translate(308.93 172.536)" fill="#567e6f"/>
          <path id="Trazado_891712" data-name="Trazado 891712" d="M206.317,105.347a11.692,11.692,0,1,1-11.693-11.693,11.693,11.693,0,0,1,11.693,11.693" transform="translate(337.014 172.536)" fill="#567e6f"/>
          <path id="Trazado_891713" data-name="Trazado 891713" d="M30.822,112.728a11.692,11.692,0,1,1-11.693-11.693,11.693,11.693,0,0,1,11.693,11.693" transform="translate(13.705 186.134)" fill="#567e6f"/>
          <path id="Trazado_891714" data-name="Trazado 891714" d="M46.067,112.728a11.692,11.692,0,1,1-11.693-11.693,11.693,11.693,0,0,1,11.693,11.693" transform="translate(41.79 186.134)" fill="#567e6f"/>
          <path id="Trazado_891715" data-name="Trazado 891715" d="M61.311,112.728a11.692,11.692,0,1,1-11.693-11.693,11.693,11.693,0,0,1,11.693,11.693" transform="translate(69.874 186.134)" fill="#567e6f"/>
          <path id="Trazado_891716" data-name="Trazado 891716" d="M76.556,112.728a11.692,11.692,0,1,1-11.693-11.693,11.693,11.693,0,0,1,11.693,11.693" transform="translate(97.959 186.134)" fill="#567e6f"/>
          <path id="Trazado_891717" data-name="Trazado 891717" d="M91.8,112.728a11.692,11.692,0,1,1-11.693-11.693A11.693,11.693,0,0,1,91.8,112.728" transform="translate(126.043 186.134)" fill="#567e6f"/>
          <path id="Trazado_891718" data-name="Trazado 891718" d="M107.045,112.728a11.692,11.692,0,1,1-11.693-11.693,11.693,11.693,0,0,1,11.693,11.693" transform="translate(154.128 186.134)" fill="#567e6f"/>
          <path id="Trazado_891719" data-name="Trazado 891719" d="M122.289,112.728A11.692,11.692,0,1,1,110.6,101.035a11.693,11.693,0,0,1,11.693,11.693" transform="translate(182.212 186.134)" fill="#567e6f"/>
          <path id="Trazado_891720" data-name="Trazado 891720" d="M137.534,112.728a11.692,11.692,0,1,1-11.693-11.693,11.693,11.693,0,0,1,11.693,11.693" transform="translate(210.297 186.134)" fill="#567e6f"/>
          <path id="Trazado_891721" data-name="Trazado 891721" d="M152.778,112.728a11.692,11.692,0,1,1-11.693-11.693,11.693,11.693,0,0,1,11.693,11.693" transform="translate(238.38 186.134)" fill="#567e6f"/>
          <path id="Trazado_891722" data-name="Trazado 891722" d="M168.023,112.728a11.692,11.692,0,1,1-11.693-11.693,11.693,11.693,0,0,1,11.693,11.693" transform="translate(266.466 186.134)" fill="#567e6f"/>
          <path id="Trazado_891723" data-name="Trazado 891723" d="M183.267,112.728a11.692,11.692,0,1,1-11.693-11.693,11.693,11.693,0,0,1,11.693,11.693" transform="translate(294.549 186.134)" fill="#567e6f"/>
          <path id="Trazado_891724" data-name="Trazado 891724" d="M198.512,112.728a11.692,11.692,0,1,1-11.693-11.693,11.693,11.693,0,0,1,11.693,11.693" transform="translate(322.635 186.134)" fill="#567e6f"/>
          <path id="Trazado_891725" data-name="Trazado 891725" d="M213.756,112.728a11.692,11.692,0,1,1-11.693-11.693,11.694,11.694,0,0,1,11.693,11.693" transform="translate(350.718 186.134)" fill="#567e6f"/>
          <path id="Trazado_891726" data-name="Trazado 891726" d="M23.383,120.956A11.692,11.692,0,1,1,11.69,109.263a11.693,11.693,0,0,1,11.693,11.693" transform="translate(0 201.292)" fill="#567e6f"/>
          <path id="Trazado_891727" data-name="Trazado 891727" d="M38.628,120.956a11.692,11.692,0,1,1-11.693-11.693,11.693,11.693,0,0,1,11.693,11.693" transform="translate(28.085 201.292)" fill="#567e6f"/>
          <path id="Trazado_891728" data-name="Trazado 891728" d="M53.872,120.956a11.692,11.692,0,1,1-11.693-11.693,11.693,11.693,0,0,1,11.693,11.693" transform="translate(56.169 201.292)" fill="#567e6f"/>
          <path id="Trazado_891729" data-name="Trazado 891729" d="M69.117,120.956a11.692,11.692,0,1,1-11.693-11.693,11.693,11.693,0,0,1,11.693,11.693" transform="translate(84.254 201.292)" fill="#567e6f"/>
          <path id="Trazado_891730" data-name="Trazado 891730" d="M84.361,120.956a11.692,11.692,0,1,1-11.693-11.693,11.693,11.693,0,0,1,11.693,11.693" transform="translate(112.338 201.292)" fill="#567e6f"/>
          <path id="Trazado_891731" data-name="Trazado 891731" d="M99.606,120.956a11.692,11.692,0,1,1-11.693-11.693,11.693,11.693,0,0,1,11.693,11.693" transform="translate(140.423 201.292)" fill="#567e6f"/>
          <path id="Trazado_891732" data-name="Trazado 891732" d="M114.85,120.956a11.692,11.692,0,1,1-11.693-11.693,11.693,11.693,0,0,1,11.693,11.693" transform="translate(168.507 201.292)" fill="#567e6f"/>
          <path id="Trazado_891733" data-name="Trazado 891733" d="M130.1,120.956A11.692,11.692,0,1,1,118.4,109.263,11.693,11.693,0,0,1,130.1,120.956" transform="translate(196.592 201.292)" fill="#567e6f"/>
          <path id="Trazado_891734" data-name="Trazado 891734" d="M145.339,120.956a11.692,11.692,0,1,1-11.693-11.693,11.693,11.693,0,0,1,11.693,11.693" transform="translate(224.676 201.292)" fill="#567e6f"/>
          <path id="Trazado_891735" data-name="Trazado 891735" d="M160.584,120.956a11.692,11.692,0,1,1-11.693-11.693,11.693,11.693,0,0,1,11.693,11.693" transform="translate(252.761 201.292)" fill="#567e6f"/>
          <path id="Trazado_891736" data-name="Trazado 891736" d="M175.828,120.956a11.692,11.692,0,1,1-11.693-11.693,11.693,11.693,0,0,1,11.693,11.693" transform="translate(280.845 201.292)" fill="#567e6f"/>
          <path id="Trazado_891737" data-name="Trazado 891737" d="M191.073,120.956a11.692,11.692,0,1,1-11.693-11.693,11.693,11.693,0,0,1,11.693,11.693" transform="translate(308.93 201.292)" fill="#567e6f"/>
          <path id="Trazado_891738" data-name="Trazado 891738" d="M206.317,120.956a11.692,11.692,0,1,1-11.693-11.693,11.693,11.693,0,0,1,11.693,11.693" transform="translate(337.014 201.292)" fill="#567e6f"/>
          <path id="Trazado_891739" data-name="Trazado 891739" d="M30.822,128.337a11.692,11.692,0,1,1-11.693-11.693,11.693,11.693,0,0,1,11.693,11.693" transform="translate(13.705 214.89)" fill="#567e6f"/>
          <path id="Trazado_891740" data-name="Trazado 891740" d="M46.067,128.337a11.692,11.692,0,1,1-11.693-11.693,11.693,11.693,0,0,1,11.693,11.693" transform="translate(41.79 214.89)" fill="#567e6f"/>
          <path id="Trazado_891741" data-name="Trazado 891741" d="M61.311,128.337a11.692,11.692,0,1,1-11.693-11.693,11.693,11.693,0,0,1,11.693,11.693" transform="translate(69.874 214.89)" fill="#567e6f"/>
          <path id="Trazado_891742" data-name="Trazado 891742" d="M76.556,128.337a11.692,11.692,0,1,1-11.693-11.693,11.693,11.693,0,0,1,11.693,11.693" transform="translate(97.959 214.89)" fill="#567e6f"/>
          <path id="Trazado_891743" data-name="Trazado 891743" d="M91.8,128.337a11.692,11.692,0,1,1-11.693-11.693A11.693,11.693,0,0,1,91.8,128.337" transform="translate(126.043 214.89)" fill="#567e6f"/>
          <path id="Trazado_891744" data-name="Trazado 891744" d="M107.045,128.337a11.692,11.692,0,1,1-11.693-11.693,11.693,11.693,0,0,1,11.693,11.693" transform="translate(154.128 214.89)" fill="#567e6f"/>
          <path id="Trazado_891745" data-name="Trazado 891745" d="M122.289,128.337A11.692,11.692,0,1,1,110.6,116.644a11.693,11.693,0,0,1,11.693,11.693" transform="translate(182.212 214.89)" fill="#567e6f"/>
          <path id="Trazado_891746" data-name="Trazado 891746" d="M137.534,128.337a11.692,11.692,0,1,1-11.693-11.693,11.693,11.693,0,0,1,11.693,11.693" transform="translate(210.297 214.89)" fill="#567e6f"/>
          <path id="Trazado_891747" data-name="Trazado 891747" d="M152.778,128.337a11.692,11.692,0,1,1-11.693-11.693,11.693,11.693,0,0,1,11.693,11.693" transform="translate(238.38 214.89)" fill="#567e6f"/>
          <path id="Trazado_891748" data-name="Trazado 891748" d="M168.023,128.337a11.692,11.692,0,1,1-11.693-11.693,11.693,11.693,0,0,1,11.693,11.693" transform="translate(266.466 214.89)" fill="#567e6f"/>
          <path id="Trazado_891749" data-name="Trazado 891749" d="M183.267,128.337a11.692,11.692,0,1,1-11.693-11.693,11.693,11.693,0,0,1,11.693,11.693" transform="translate(294.549 214.89)" fill="#567e6f"/>
          <path id="Trazado_891750" data-name="Trazado 891750" d="M198.512,128.337a11.692,11.692,0,1,1-11.693-11.693,11.693,11.693,0,0,1,11.693,11.693" transform="translate(322.635 214.89)" fill="#567e6f"/>
          <path id="Trazado_891751" data-name="Trazado 891751" d="M213.756,128.337a11.692,11.692,0,1,1-11.693-11.693,11.694,11.694,0,0,1,11.693,11.693" transform="translate(350.718 214.89)" fill="#567e6f"/>
        </g>
      </g>
    </g>
    <rect id="Rectángulo_402001" data-name="Rectángulo 402001" width="198.28" height="70.321" transform="translate(924.231 2258.739)" fill="#b24d03"/>
    <path id="Rectángulo_402001_-_Contorno" data-name="Rectángulo 402001 - Contorno" d="M2,2V68.321H196.28V2H2M0,0H198.28V70.321H0Z" transform="translate(924.231 2258.739)"/>
    <rect id="Rectángulo_402002" data-name="Rectángulo 402002" width="186.28" height="58.321" transform="translate(930.231 2264.739)" fill="#e33d00"/>
    <path id="Rectángulo_402002_-_Contorno" data-name="Rectángulo 402002 - Contorno" d="M2,2V56.321H184.28V2H2M0,0H186.28V58.321H0Z" transform="translate(930.231 2264.739)"/>
    <path id="Trazado_891542" data-name="Trazado 891542" d="M-7421.085-9620.867h-2v-69.316h2Z" transform="translate(8407.828 11948.739)"/>
    <path id="Trazado_891753" data-name="Trazado 891753" d="M-7601.051-9758.651h402.006v161.415h-48.544v37.36h-301.883v-37.36h-51.579Zm398.006,4h-394.006v153.415h51.579v37.36h293.883v-37.36h48.544Z" transform="translate(8410.102 11967.928)" fill="#3b574d"/>
    <path id="Trazado_891543" data-name="Trazado 891543" d="M-7421.085-9620.867h-2v-69.316h2Z" transform="translate(8402.084 11948.739)"/>
  </g>
</svg>
