<svg xmlns="http://www.w3.org/2000/svg" xmlns:xlink="http://www.w3.org/1999/xlink" width="263.567" height="176.168" viewBox="0 0 263.567 176.168">
  <defs>
    <clipPath id="clip-path">
      <path id="Trazado_891538" data-name="Trazado 891538" d="M-7599.05-9756.649v139.786h33.826v33.177h195.35v-33.177h31.834v-139.786Z" transform="translate(8094.05 11607.998)" fill="#fff" stroke="#707070" stroke-width="1"/>
    </clipPath>
    <clipPath id="clip-path-2">
      <rect id="Rect치ngulo_401998" data-name="Rect치ngulo 401998" width="357.958" height="225.07" fill="#567e6f" stroke="#707070" stroke-width="1"/>
    </clipPath>
  </defs>
  <g id="Grupo_1107069" data-name="Grupo 1107069" transform="translate(-667.551 -2873.502)">
    <g id="Enmascarar_grupo_1098677" data-name="Enmascarar grupo 1098677" transform="translate(174.051 1023.652)" clip-path="url(#clip-path)">
      <g id="Grupo_1106419" data-name="Grupo 1106419" transform="translate(486.991 1851.349)">
        <g id="Grupo_1106418" data-name="Grupo 1106418" transform="translate(0 0)" clip-path="url(#clip-path-2)">
          <path id="Trazado_891330" data-name="Trazado 891330" d="M14.828,7.414A7.414,7.414,0,1,1,7.413,0a7.415,7.415,0,0,1,7.415,7.415" transform="translate(0 -0.001)" fill="#567e6f"/>
          <path id="Trazado_891331" data-name="Trazado 891331" d="M30.073,7.414A7.414,7.414,0,1,1,22.658,0a7.415,7.415,0,0,1,7.415,7.415" transform="translate(12.233 -0.001)" fill="#567e6f"/>
          <path id="Trazado_891332" data-name="Trazado 891332" d="M45.317,7.414A7.414,7.414,0,1,1,37.9,0a7.415,7.415,0,0,1,7.415,7.415" transform="translate(24.465 -0.001)" fill="#567e6f"/>
          <path id="Trazado_891333" data-name="Trazado 891333" d="M60.562,7.414A7.414,7.414,0,1,1,53.147,0a7.415,7.415,0,0,1,7.415,7.415" transform="translate(36.697 -0.001)" fill="#567e6f"/>
          <path id="Trazado_891334" data-name="Trazado 891334" d="M75.806,7.414A7.414,7.414,0,1,1,68.391,0a7.415,7.415,0,0,1,7.415,7.415" transform="translate(48.929 -0.001)" fill="#567e6f"/>
          <path id="Trazado_891335" data-name="Trazado 891335" d="M91.051,7.414A7.414,7.414,0,1,1,83.636,0a7.415,7.415,0,0,1,7.415,7.415" transform="translate(61.162 -0.001)" fill="#567e6f"/>
          <path id="Trazado_891336" data-name="Trazado 891336" d="M106.3,7.414A7.414,7.414,0,1,1,98.88,0,7.415,7.415,0,0,1,106.3,7.414" transform="translate(73.394 -0.001)" fill="#567e6f"/>
          <path id="Trazado_891337" data-name="Trazado 891337" d="M121.54,7.414A7.414,7.414,0,1,1,114.125,0a7.415,7.415,0,0,1,7.415,7.415" transform="translate(85.626 -0.001)" fill="#567e6f"/>
          <path id="Trazado_891338" data-name="Trazado 891338" d="M136.784,7.414A7.414,7.414,0,1,1,129.369,0a7.415,7.415,0,0,1,7.415,7.415" transform="translate(97.858 -0.001)" fill="#567e6f"/>
          <path id="Trazado_891339" data-name="Trazado 891339" d="M152.029,7.414A7.414,7.414,0,1,1,144.614,0a7.415,7.415,0,0,1,7.415,7.415" transform="translate(110.091 -0.001)" fill="#567e6f"/>
          <path id="Trazado_891340" data-name="Trazado 891340" d="M167.273,7.414A7.414,7.414,0,1,1,159.858,0a7.415,7.415,0,0,1,7.415,7.415" transform="translate(122.323 -0.001)" fill="#567e6f"/>
          <path id="Trazado_891341" data-name="Trazado 891341" d="M182.518,7.414A7.414,7.414,0,1,1,175.1,0a7.415,7.415,0,0,1,7.415,7.415" transform="translate(134.556 -0.001)" fill="#567e6f"/>
          <path id="Trazado_891342" data-name="Trazado 891342" d="M197.762,7.414A7.414,7.414,0,1,1,190.347,0a7.415,7.415,0,0,1,7.415,7.415" transform="translate(146.787 -0.001)" fill="#567e6f"/>
          <path id="Trazado_891343" data-name="Trazado 891343" d="M22.267,14.8a7.414,7.414,0,1,1-7.415-7.415A7.415,7.415,0,0,1,22.267,14.8" transform="translate(5.969 5.923)" fill="#567e6f"/>
          <path id="Trazado_891344" data-name="Trazado 891344" d="M37.512,14.8A7.414,7.414,0,1,1,30.1,7.381,7.415,7.415,0,0,1,37.512,14.8" transform="translate(18.202 5.923)" fill="#567e6f"/>
          <path id="Trazado_891345" data-name="Trazado 891345" d="M52.756,14.8a7.414,7.414,0,1,1-7.415-7.415A7.415,7.415,0,0,1,52.756,14.8" transform="translate(30.434 5.923)" fill="#567e6f"/>
          <path id="Trazado_891346" data-name="Trazado 891346" d="M68,14.8a7.414,7.414,0,1,1-7.415-7.415A7.415,7.415,0,0,1,68,14.8" transform="translate(42.666 5.923)" fill="#567e6f"/>
          <path id="Trazado_891347" data-name="Trazado 891347" d="M83.245,14.8A7.414,7.414,0,1,1,75.83,7.381,7.415,7.415,0,0,1,83.245,14.8" transform="translate(54.898 5.923)" fill="#567e6f"/>
          <path id="Trazado_891348" data-name="Trazado 891348" d="M98.49,14.8a7.414,7.414,0,1,1-7.415-7.415A7.415,7.415,0,0,1,98.49,14.8" transform="translate(67.131 5.923)" fill="#567e6f"/>
          <path id="Trazado_891349" data-name="Trazado 891349" d="M113.734,14.8a7.414,7.414,0,1,1-7.415-7.415,7.415,7.415,0,0,1,7.415,7.415" transform="translate(79.363 5.923)" fill="#567e6f"/>
          <path id="Trazado_891350" data-name="Trazado 891350" d="M128.979,14.8a7.414,7.414,0,1,1-7.415-7.415,7.415,7.415,0,0,1,7.415,7.415" transform="translate(91.596 5.923)" fill="#567e6f"/>
          <path id="Trazado_891351" data-name="Trazado 891351" d="M144.223,14.8a7.414,7.414,0,1,1-7.415-7.415,7.415,7.415,0,0,1,7.415,7.415" transform="translate(103.827 5.923)" fill="#567e6f"/>
          <path id="Trazado_891352" data-name="Trazado 891352" d="M159.468,14.8a7.414,7.414,0,1,1-7.415-7.415,7.415,7.415,0,0,1,7.415,7.415" transform="translate(116.06 5.923)" fill="#567e6f"/>
          <path id="Trazado_891353" data-name="Trazado 891353" d="M174.712,14.8A7.414,7.414,0,1,1,167.3,7.381a7.415,7.415,0,0,1,7.415,7.415" transform="translate(128.292 5.923)" fill="#567e6f"/>
          <path id="Trazado_891354" data-name="Trazado 891354" d="M189.957,14.8a7.414,7.414,0,1,1-7.415-7.415,7.415,7.415,0,0,1,7.415,7.415" transform="translate(140.525 5.923)" fill="#567e6f"/>
          <path id="Trazado_891355" data-name="Trazado 891355" d="M205.2,14.8a7.414,7.414,0,1,1-7.415-7.415A7.415,7.415,0,0,1,205.2,14.8" transform="translate(152.757 5.923)" fill="#567e6f"/>
          <path id="Trazado_891356" data-name="Trazado 891356" d="M14.828,23.023a7.414,7.414,0,1,1-7.415-7.415,7.415,7.415,0,0,1,7.415,7.415" transform="translate(0 12.524)" fill="#567e6f"/>
          <path id="Trazado_891357" data-name="Trazado 891357" d="M30.073,23.023a7.414,7.414,0,1,1-7.415-7.415,7.415,7.415,0,0,1,7.415,7.415" transform="translate(12.233 12.524)" fill="#567e6f"/>
          <path id="Trazado_891358" data-name="Trazado 891358" d="M45.317,23.023A7.414,7.414,0,1,1,37.9,15.608a7.415,7.415,0,0,1,7.415,7.415" transform="translate(24.465 12.524)" fill="#567e6f"/>
          <path id="Trazado_891359" data-name="Trazado 891359" d="M60.562,23.023a7.414,7.414,0,1,1-7.415-7.415,7.415,7.415,0,0,1,7.415,7.415" transform="translate(36.697 12.524)" fill="#567e6f"/>
          <path id="Trazado_891360" data-name="Trazado 891360" d="M75.806,23.023a7.414,7.414,0,1,1-7.415-7.415,7.415,7.415,0,0,1,7.415,7.415" transform="translate(48.929 12.524)" fill="#567e6f"/>
          <path id="Trazado_891361" data-name="Trazado 891361" d="M91.051,23.023a7.414,7.414,0,1,1-7.415-7.415,7.415,7.415,0,0,1,7.415,7.415" transform="translate(61.162 12.524)" fill="#567e6f"/>
          <path id="Trazado_891362" data-name="Trazado 891362" d="M106.3,23.023a7.414,7.414,0,1,1-7.415-7.415,7.415,7.415,0,0,1,7.415,7.415" transform="translate(73.394 12.524)" fill="#567e6f"/>
          <path id="Trazado_891363" data-name="Trazado 891363" d="M121.54,23.023a7.414,7.414,0,1,1-7.415-7.415,7.415,7.415,0,0,1,7.415,7.415" transform="translate(85.626 12.524)" fill="#567e6f"/>
          <path id="Trazado_891364" data-name="Trazado 891364" d="M136.784,23.023a7.414,7.414,0,1,1-7.415-7.415,7.415,7.415,0,0,1,7.415,7.415" transform="translate(97.858 12.524)" fill="#567e6f"/>
          <path id="Trazado_891365" data-name="Trazado 891365" d="M152.029,23.023a7.414,7.414,0,1,1-7.415-7.415,7.415,7.415,0,0,1,7.415,7.415" transform="translate(110.091 12.524)" fill="#567e6f"/>
          <path id="Trazado_891366" data-name="Trazado 891366" d="M167.273,23.023a7.414,7.414,0,1,1-7.415-7.415,7.415,7.415,0,0,1,7.415,7.415" transform="translate(122.323 12.524)" fill="#567e6f"/>
          <path id="Trazado_891367" data-name="Trazado 891367" d="M182.518,23.023a7.414,7.414,0,1,1-7.415-7.415,7.415,7.415,0,0,1,7.415,7.415" transform="translate(134.556 12.524)" fill="#567e6f"/>
          <path id="Trazado_891368" data-name="Trazado 891368" d="M197.762,23.023a7.414,7.414,0,1,1-7.415-7.415,7.415,7.415,0,0,1,7.415,7.415" transform="translate(146.787 12.524)" fill="#567e6f"/>
          <path id="Trazado_891369" data-name="Trazado 891369" d="M22.267,30.405a7.414,7.414,0,1,1-7.415-7.415,7.415,7.415,0,0,1,7.415,7.415" transform="translate(5.969 18.447)" fill="#567e6f"/>
          <path id="Trazado_891370" data-name="Trazado 891370" d="M37.512,30.405A7.414,7.414,0,1,1,30.1,22.99a7.415,7.415,0,0,1,7.415,7.415" transform="translate(18.202 18.447)" fill="#567e6f"/>
          <path id="Trazado_891371" data-name="Trazado 891371" d="M52.756,30.405a7.414,7.414,0,1,1-7.415-7.415,7.415,7.415,0,0,1,7.415,7.415" transform="translate(30.434 18.447)" fill="#567e6f"/>
          <path id="Trazado_891372" data-name="Trazado 891372" d="M68,30.405a7.414,7.414,0,1,1-7.415-7.415A7.415,7.415,0,0,1,68,30.405" transform="translate(42.666 18.447)" fill="#567e6f"/>
          <path id="Trazado_891373" data-name="Trazado 891373" d="M83.245,30.405A7.414,7.414,0,1,1,75.83,22.99a7.415,7.415,0,0,1,7.415,7.415" transform="translate(54.898 18.447)" fill="#567e6f"/>
          <path id="Trazado_891374" data-name="Trazado 891374" d="M98.49,30.405a7.414,7.414,0,1,1-7.415-7.415,7.415,7.415,0,0,1,7.415,7.415" transform="translate(67.131 18.447)" fill="#567e6f"/>
          <path id="Trazado_891375" data-name="Trazado 891375" d="M113.734,30.405a7.414,7.414,0,1,1-7.415-7.415,7.415,7.415,0,0,1,7.415,7.415" transform="translate(79.363 18.447)" fill="#567e6f"/>
          <path id="Trazado_891376" data-name="Trazado 891376" d="M128.979,30.405a7.414,7.414,0,1,1-7.415-7.415,7.415,7.415,0,0,1,7.415,7.415" transform="translate(91.596 18.447)" fill="#567e6f"/>
          <path id="Trazado_891377" data-name="Trazado 891377" d="M144.223,30.405a7.414,7.414,0,1,1-7.415-7.415,7.415,7.415,0,0,1,7.415,7.415" transform="translate(103.827 18.447)" fill="#567e6f"/>
          <path id="Trazado_891378" data-name="Trazado 891378" d="M159.468,30.405a7.414,7.414,0,1,1-7.415-7.415,7.415,7.415,0,0,1,7.415,7.415" transform="translate(116.06 18.447)" fill="#567e6f"/>
          <path id="Trazado_891379" data-name="Trazado 891379" d="M174.712,30.405A7.414,7.414,0,1,1,167.3,22.99a7.415,7.415,0,0,1,7.415,7.415" transform="translate(128.292 18.447)" fill="#567e6f"/>
          <path id="Trazado_891380" data-name="Trazado 891380" d="M189.957,30.405a7.414,7.414,0,1,1-7.415-7.415,7.415,7.415,0,0,1,7.415,7.415" transform="translate(140.525 18.447)" fill="#567e6f"/>
          <path id="Trazado_891381" data-name="Trazado 891381" d="M205.2,30.405a7.414,7.414,0,1,1-7.415-7.415,7.415,7.415,0,0,1,7.415,7.415" transform="translate(152.757 18.447)" fill="#567e6f"/>
          <path id="Trazado_891382" data-name="Trazado 891382" d="M14.828,38.632a7.414,7.414,0,1,1-7.415-7.415,7.415,7.415,0,0,1,7.415,7.415" transform="translate(0 25.049)" fill="#567e6f"/>
          <path id="Trazado_891383" data-name="Trazado 891383" d="M30.073,38.632a7.414,7.414,0,1,1-7.415-7.415,7.415,7.415,0,0,1,7.415,7.415" transform="translate(12.233 25.049)" fill="#567e6f"/>
          <path id="Trazado_891384" data-name="Trazado 891384" d="M45.317,38.632A7.414,7.414,0,1,1,37.9,31.217a7.415,7.415,0,0,1,7.415,7.415" transform="translate(24.465 25.049)" fill="#567e6f"/>
          <path id="Trazado_891385" data-name="Trazado 891385" d="M60.562,38.632a7.414,7.414,0,1,1-7.415-7.415,7.415,7.415,0,0,1,7.415,7.415" transform="translate(36.697 25.049)" fill="#567e6f"/>
          <path id="Trazado_891386" data-name="Trazado 891386" d="M75.806,38.632a7.414,7.414,0,1,1-7.415-7.415,7.415,7.415,0,0,1,7.415,7.415" transform="translate(48.929 25.049)" fill="#567e6f"/>
          <path id="Trazado_891387" data-name="Trazado 891387" d="M91.051,38.632a7.414,7.414,0,1,1-7.415-7.415,7.415,7.415,0,0,1,7.415,7.415" transform="translate(61.162 25.049)" fill="#567e6f"/>
          <path id="Trazado_891388" data-name="Trazado 891388" d="M106.3,38.632a7.414,7.414,0,1,1-7.415-7.415,7.415,7.415,0,0,1,7.415,7.415" transform="translate(73.394 25.049)" fill="#567e6f"/>
          <path id="Trazado_891389" data-name="Trazado 891389" d="M121.54,38.632a7.414,7.414,0,1,1-7.415-7.415,7.415,7.415,0,0,1,7.415,7.415" transform="translate(85.626 25.049)" fill="#567e6f"/>
          <path id="Trazado_891390" data-name="Trazado 891390" d="M136.784,38.632a7.414,7.414,0,1,1-7.415-7.415,7.415,7.415,0,0,1,7.415,7.415" transform="translate(97.858 25.049)" fill="#567e6f"/>
          <path id="Trazado_891391" data-name="Trazado 891391" d="M152.029,38.632a7.414,7.414,0,1,1-7.415-7.415,7.415,7.415,0,0,1,7.415,7.415" transform="translate(110.091 25.049)" fill="#567e6f"/>
          <path id="Trazado_891392" data-name="Trazado 891392" d="M167.273,38.632a7.414,7.414,0,1,1-7.415-7.415,7.415,7.415,0,0,1,7.415,7.415" transform="translate(122.323 25.049)" fill="#567e6f"/>
          <path id="Trazado_891393" data-name="Trazado 891393" d="M182.518,38.632a7.414,7.414,0,1,1-7.415-7.415,7.415,7.415,0,0,1,7.415,7.415" transform="translate(134.556 25.049)" fill="#567e6f"/>
          <path id="Trazado_891394" data-name="Trazado 891394" d="M197.762,38.632a7.414,7.414,0,1,1-7.415-7.415,7.415,7.415,0,0,1,7.415,7.415" transform="translate(146.787 25.049)" fill="#567e6f"/>
          <path id="Trazado_891395" data-name="Trazado 891395" d="M22.267,46.014A7.414,7.414,0,1,1,14.852,38.6a7.415,7.415,0,0,1,7.415,7.415" transform="translate(5.969 30.972)" fill="#567e6f"/>
          <path id="Trazado_891396" data-name="Trazado 891396" d="M37.512,46.014A7.414,7.414,0,1,1,30.1,38.6a7.415,7.415,0,0,1,7.415,7.415" transform="translate(18.202 30.972)" fill="#567e6f"/>
          <path id="Trazado_891397" data-name="Trazado 891397" d="M52.756,46.014A7.414,7.414,0,1,1,45.341,38.6a7.415,7.415,0,0,1,7.415,7.415" transform="translate(30.434 30.972)" fill="#567e6f"/>
          <path id="Trazado_891398" data-name="Trazado 891398" d="M68,46.014A7.414,7.414,0,1,1,60.586,38.6,7.415,7.415,0,0,1,68,46.014" transform="translate(42.666 30.972)" fill="#567e6f"/>
          <path id="Trazado_891399" data-name="Trazado 891399" d="M83.245,46.014A7.414,7.414,0,1,1,75.83,38.6a7.415,7.415,0,0,1,7.415,7.415" transform="translate(54.898 30.972)" fill="#567e6f"/>
          <path id="Trazado_891400" data-name="Trazado 891400" d="M98.49,46.014A7.414,7.414,0,1,1,91.075,38.6a7.415,7.415,0,0,1,7.415,7.415" transform="translate(67.131 30.972)" fill="#567e6f"/>
          <path id="Trazado_891401" data-name="Trazado 891401" d="M113.734,46.014a7.414,7.414,0,1,1-7.415-7.415,7.415,7.415,0,0,1,7.415,7.415" transform="translate(79.363 30.972)" fill="#567e6f"/>
          <path id="Trazado_891402" data-name="Trazado 891402" d="M128.979,46.014a7.414,7.414,0,1,1-7.415-7.415,7.415,7.415,0,0,1,7.415,7.415" transform="translate(91.596 30.972)" fill="#567e6f"/>
          <path id="Trazado_891403" data-name="Trazado 891403" d="M144.223,46.014a7.414,7.414,0,1,1-7.415-7.415,7.415,7.415,0,0,1,7.415,7.415" transform="translate(103.827 30.972)" fill="#567e6f"/>
          <path id="Trazado_891404" data-name="Trazado 891404" d="M159.468,46.014a7.414,7.414,0,1,1-7.415-7.415,7.415,7.415,0,0,1,7.415,7.415" transform="translate(116.06 30.972)" fill="#567e6f"/>
          <path id="Trazado_891405" data-name="Trazado 891405" d="M174.712,46.014A7.414,7.414,0,1,1,167.3,38.6a7.415,7.415,0,0,1,7.415,7.415" transform="translate(128.292 30.972)" fill="#567e6f"/>
          <path id="Trazado_891406" data-name="Trazado 891406" d="M189.957,46.014a7.414,7.414,0,1,1-7.415-7.415,7.415,7.415,0,0,1,7.415,7.415" transform="translate(140.525 30.972)" fill="#567e6f"/>
          <path id="Trazado_891407" data-name="Trazado 891407" d="M205.2,46.014a7.414,7.414,0,1,1-7.415-7.415,7.415,7.415,0,0,1,7.415,7.415" transform="translate(152.757 30.972)" fill="#567e6f"/>
          <path id="Trazado_891408" data-name="Trazado 891408" d="M14.828,54.241a7.414,7.414,0,1,1-7.415-7.415,7.415,7.415,0,0,1,7.415,7.415" transform="translate(0 37.573)" fill="#567e6f"/>
          <path id="Trazado_891409" data-name="Trazado 891409" d="M30.073,54.241a7.414,7.414,0,1,1-7.415-7.415,7.415,7.415,0,0,1,7.415,7.415" transform="translate(12.233 37.573)" fill="#567e6f"/>
          <path id="Trazado_891410" data-name="Trazado 891410" d="M45.317,54.241A7.414,7.414,0,1,1,37.9,46.826a7.415,7.415,0,0,1,7.415,7.415" transform="translate(24.465 37.573)" fill="#567e6f"/>
          <path id="Trazado_891411" data-name="Trazado 891411" d="M60.562,54.241a7.414,7.414,0,1,1-7.415-7.415,7.415,7.415,0,0,1,7.415,7.415" transform="translate(36.697 37.573)" fill="#567e6f"/>
          <path id="Trazado_891412" data-name="Trazado 891412" d="M75.806,54.241a7.414,7.414,0,1,1-7.415-7.415,7.415,7.415,0,0,1,7.415,7.415" transform="translate(48.929 37.573)" fill="#567e6f"/>
          <path id="Trazado_891413" data-name="Trazado 891413" d="M91.051,54.241a7.414,7.414,0,1,1-7.415-7.415,7.415,7.415,0,0,1,7.415,7.415" transform="translate(61.162 37.573)" fill="#567e6f"/>
          <path id="Trazado_891414" data-name="Trazado 891414" d="M106.3,54.241a7.414,7.414,0,1,1-7.415-7.415,7.415,7.415,0,0,1,7.415,7.415" transform="translate(73.394 37.573)" fill="#567e6f"/>
          <path id="Trazado_891415" data-name="Trazado 891415" d="M121.54,54.241a7.414,7.414,0,1,1-7.415-7.415,7.415,7.415,0,0,1,7.415,7.415" transform="translate(85.626 37.573)" fill="#567e6f"/>
          <path id="Trazado_891416" data-name="Trazado 891416" d="M136.784,54.241a7.414,7.414,0,1,1-7.415-7.415,7.415,7.415,0,0,1,7.415,7.415" transform="translate(97.858 37.573)" fill="#567e6f"/>
          <path id="Trazado_891417" data-name="Trazado 891417" d="M152.029,54.241a7.414,7.414,0,1,1-7.415-7.415,7.415,7.415,0,0,1,7.415,7.415" transform="translate(110.091 37.573)" fill="#567e6f"/>
          <path id="Trazado_891418" data-name="Trazado 891418" d="M167.273,54.241a7.414,7.414,0,1,1-7.415-7.415,7.415,7.415,0,0,1,7.415,7.415" transform="translate(122.323 37.573)" fill="#567e6f"/>
          <path id="Trazado_891419" data-name="Trazado 891419" d="M182.518,54.241a7.414,7.414,0,1,1-7.415-7.415,7.415,7.415,0,0,1,7.415,7.415" transform="translate(134.556 37.573)" fill="#567e6f"/>
          <path id="Trazado_891420" data-name="Trazado 891420" d="M197.762,54.241a7.414,7.414,0,1,1-7.415-7.415,7.415,7.415,0,0,1,7.415,7.415" transform="translate(146.787 37.573)" fill="#567e6f"/>
          <path id="Trazado_891421" data-name="Trazado 891421" d="M22.267,61.623a7.414,7.414,0,1,1-7.415-7.415,7.415,7.415,0,0,1,7.415,7.415" transform="translate(5.969 43.497)" fill="#567e6f"/>
          <path id="Trazado_891422" data-name="Trazado 891422" d="M37.512,61.623A7.414,7.414,0,1,1,30.1,54.208a7.415,7.415,0,0,1,7.415,7.415" transform="translate(18.202 43.497)" fill="#567e6f"/>
          <path id="Trazado_891423" data-name="Trazado 891423" d="M52.756,61.623a7.414,7.414,0,1,1-7.415-7.415,7.415,7.415,0,0,1,7.415,7.415" transform="translate(30.434 43.497)" fill="#567e6f"/>
          <path id="Trazado_891424" data-name="Trazado 891424" d="M68,61.623a7.414,7.414,0,1,1-7.415-7.415A7.415,7.415,0,0,1,68,61.623" transform="translate(42.666 43.497)" fill="#567e6f"/>
          <path id="Trazado_891425" data-name="Trazado 891425" d="M83.245,61.623a7.414,7.414,0,1,1-7.415-7.415,7.415,7.415,0,0,1,7.415,7.415" transform="translate(54.898 43.497)" fill="#567e6f"/>
          <path id="Trazado_891426" data-name="Trazado 891426" d="M98.49,61.623a7.414,7.414,0,1,1-7.415-7.415,7.415,7.415,0,0,1,7.415,7.415" transform="translate(67.131 43.497)" fill="#567e6f"/>
          <path id="Trazado_891427" data-name="Trazado 891427" d="M113.734,61.623a7.414,7.414,0,1,1-7.415-7.415,7.415,7.415,0,0,1,7.415,7.415" transform="translate(79.363 43.497)" fill="#567e6f"/>
          <path id="Trazado_891428" data-name="Trazado 891428" d="M128.979,61.623a7.414,7.414,0,1,1-7.415-7.415,7.415,7.415,0,0,1,7.415,7.415" transform="translate(91.596 43.497)" fill="#567e6f"/>
          <path id="Trazado_891429" data-name="Trazado 891429" d="M144.223,61.623a7.414,7.414,0,1,1-7.415-7.415,7.415,7.415,0,0,1,7.415,7.415" transform="translate(103.827 43.497)" fill="#567e6f"/>
          <path id="Trazado_891430" data-name="Trazado 891430" d="M159.468,61.623a7.414,7.414,0,1,1-7.415-7.415,7.415,7.415,0,0,1,7.415,7.415" transform="translate(116.06 43.497)" fill="#567e6f"/>
          <path id="Trazado_891431" data-name="Trazado 891431" d="M174.712,61.623a7.414,7.414,0,1,1-7.415-7.415,7.415,7.415,0,0,1,7.415,7.415" transform="translate(128.292 43.497)" fill="#567e6f"/>
          <path id="Trazado_891432" data-name="Trazado 891432" d="M189.957,61.623a7.414,7.414,0,1,1-7.415-7.415,7.415,7.415,0,0,1,7.415,7.415" transform="translate(140.525 43.497)" fill="#567e6f"/>
          <path id="Trazado_891433" data-name="Trazado 891433" d="M205.2,61.623a7.414,7.414,0,1,1-7.415-7.415,7.415,7.415,0,0,1,7.415,7.415" transform="translate(152.757 43.497)" fill="#567e6f"/>
          <path id="Trazado_891434" data-name="Trazado 891434" d="M14.828,69.85a7.414,7.414,0,1,1-7.415-7.415,7.415,7.415,0,0,1,7.415,7.415" transform="translate(0 50.098)" fill="#567e6f"/>
          <path id="Trazado_891435" data-name="Trazado 891435" d="M30.073,69.85a7.414,7.414,0,1,1-7.415-7.415,7.415,7.415,0,0,1,7.415,7.415" transform="translate(12.233 50.098)" fill="#567e6f"/>
          <path id="Trazado_891436" data-name="Trazado 891436" d="M45.317,69.85A7.414,7.414,0,1,1,37.9,62.435a7.415,7.415,0,0,1,7.415,7.415" transform="translate(24.465 50.098)" fill="#567e6f"/>
          <path id="Trazado_891437" data-name="Trazado 891437" d="M60.562,69.85a7.414,7.414,0,1,1-7.415-7.415,7.415,7.415,0,0,1,7.415,7.415" transform="translate(36.697 50.098)" fill="#567e6f"/>
          <path id="Trazado_891438" data-name="Trazado 891438" d="M75.806,69.85a7.414,7.414,0,1,1-7.415-7.415,7.415,7.415,0,0,1,7.415,7.415" transform="translate(48.929 50.098)" fill="#567e6f"/>
          <path id="Trazado_891439" data-name="Trazado 891439" d="M91.051,69.85a7.414,7.414,0,1,1-7.415-7.415,7.415,7.415,0,0,1,7.415,7.415" transform="translate(61.162 50.098)" fill="#567e6f"/>
          <path id="Trazado_891440" data-name="Trazado 891440" d="M106.3,69.85a7.414,7.414,0,1,1-7.415-7.415A7.415,7.415,0,0,1,106.3,69.85" transform="translate(73.394 50.098)" fill="#567e6f"/>
          <path id="Trazado_891441" data-name="Trazado 891441" d="M121.54,69.85a7.414,7.414,0,1,1-7.415-7.415,7.415,7.415,0,0,1,7.415,7.415" transform="translate(85.626 50.098)" fill="#567e6f"/>
          <path id="Trazado_891442" data-name="Trazado 891442" d="M136.784,69.85a7.414,7.414,0,1,1-7.415-7.415,7.415,7.415,0,0,1,7.415,7.415" transform="translate(97.858 50.098)" fill="#567e6f"/>
          <path id="Trazado_891443" data-name="Trazado 891443" d="M152.029,69.85a7.414,7.414,0,1,1-7.415-7.415,7.415,7.415,0,0,1,7.415,7.415" transform="translate(110.091 50.098)" fill="#567e6f"/>
          <path id="Trazado_891444" data-name="Trazado 891444" d="M167.273,69.85a7.414,7.414,0,1,1-7.415-7.415,7.415,7.415,0,0,1,7.415,7.415" transform="translate(122.323 50.098)" fill="#567e6f"/>
          <path id="Trazado_891445" data-name="Trazado 891445" d="M182.518,69.85a7.414,7.414,0,1,1-7.415-7.415,7.415,7.415,0,0,1,7.415,7.415" transform="translate(134.556 50.098)" fill="#567e6f"/>
          <path id="Trazado_891446" data-name="Trazado 891446" d="M197.762,69.85a7.414,7.414,0,1,1-7.415-7.415,7.415,7.415,0,0,1,7.415,7.415" transform="translate(146.787 50.098)" fill="#567e6f"/>
          <path id="Trazado_891447" data-name="Trazado 891447" d="M22.267,77.232a7.414,7.414,0,1,1-7.415-7.415,7.415,7.415,0,0,1,7.415,7.415" transform="translate(5.969 56.022)" fill="#567e6f"/>
          <path id="Trazado_891448" data-name="Trazado 891448" d="M37.512,77.232A7.414,7.414,0,1,1,30.1,69.817a7.415,7.415,0,0,1,7.415,7.415" transform="translate(18.202 56.022)" fill="#567e6f"/>
          <path id="Trazado_891449" data-name="Trazado 891449" d="M52.756,77.232a7.414,7.414,0,1,1-7.415-7.415,7.415,7.415,0,0,1,7.415,7.415" transform="translate(30.434 56.022)" fill="#567e6f"/>
          <path id="Trazado_891450" data-name="Trazado 891450" d="M68,77.232a7.414,7.414,0,1,1-7.415-7.415A7.415,7.415,0,0,1,68,77.232" transform="translate(42.666 56.022)" fill="#567e6f"/>
          <path id="Trazado_891451" data-name="Trazado 891451" d="M83.245,77.232a7.414,7.414,0,1,1-7.415-7.415,7.415,7.415,0,0,1,7.415,7.415" transform="translate(54.898 56.022)" fill="#567e6f"/>
          <path id="Trazado_891452" data-name="Trazado 891452" d="M98.49,77.232a7.414,7.414,0,1,1-7.415-7.415,7.415,7.415,0,0,1,7.415,7.415" transform="translate(67.131 56.022)" fill="#567e6f"/>
          <path id="Trazado_891453" data-name="Trazado 891453" d="M113.734,77.232a7.414,7.414,0,1,1-7.415-7.415,7.415,7.415,0,0,1,7.415,7.415" transform="translate(79.363 56.022)" fill="#567e6f"/>
          <path id="Trazado_891454" data-name="Trazado 891454" d="M128.979,77.232a7.414,7.414,0,1,1-7.415-7.415,7.415,7.415,0,0,1,7.415,7.415" transform="translate(91.596 56.022)" fill="#567e6f"/>
          <path id="Trazado_891455" data-name="Trazado 891455" d="M144.223,77.232a7.414,7.414,0,1,1-7.415-7.415,7.415,7.415,0,0,1,7.415,7.415" transform="translate(103.827 56.022)" fill="#567e6f"/>
          <path id="Trazado_891456" data-name="Trazado 891456" d="M159.468,77.232a7.414,7.414,0,1,1-7.415-7.415,7.415,7.415,0,0,1,7.415,7.415" transform="translate(116.06 56.022)" fill="#567e6f"/>
          <path id="Trazado_891457" data-name="Trazado 891457" d="M174.712,77.232a7.414,7.414,0,1,1-7.415-7.415,7.415,7.415,0,0,1,7.415,7.415" transform="translate(128.292 56.022)" fill="#567e6f"/>
          <path id="Trazado_891458" data-name="Trazado 891458" d="M189.957,77.232a7.414,7.414,0,1,1-7.415-7.415,7.415,7.415,0,0,1,7.415,7.415" transform="translate(140.525 56.022)" fill="#567e6f"/>
          <path id="Trazado_891459" data-name="Trazado 891459" d="M205.2,77.232a7.414,7.414,0,1,1-7.415-7.415,7.415,7.415,0,0,1,7.415,7.415" transform="translate(152.757 56.022)" fill="#567e6f"/>
          <path id="Trazado_891460" data-name="Trazado 891460" d="M14.828,85.46a7.414,7.414,0,1,1-7.415-7.415,7.415,7.415,0,0,1,7.415,7.415" transform="translate(0 62.624)" fill="#567e6f"/>
          <path id="Trazado_891461" data-name="Trazado 891461" d="M30.073,85.46a7.414,7.414,0,1,1-7.415-7.415,7.415,7.415,0,0,1,7.415,7.415" transform="translate(12.233 62.624)" fill="#567e6f"/>
          <path id="Trazado_891462" data-name="Trazado 891462" d="M45.317,85.46A7.414,7.414,0,1,1,37.9,78.045a7.415,7.415,0,0,1,7.415,7.415" transform="translate(24.465 62.624)" fill="#567e6f"/>
          <path id="Trazado_891463" data-name="Trazado 891463" d="M60.562,85.46a7.414,7.414,0,1,1-7.415-7.415,7.415,7.415,0,0,1,7.415,7.415" transform="translate(36.697 62.624)" fill="#567e6f"/>
          <path id="Trazado_891464" data-name="Trazado 891464" d="M75.806,85.46a7.414,7.414,0,1,1-7.415-7.415,7.415,7.415,0,0,1,7.415,7.415" transform="translate(48.929 62.624)" fill="#567e6f"/>
          <path id="Trazado_891465" data-name="Trazado 891465" d="M91.051,85.46a7.414,7.414,0,1,1-7.415-7.415,7.415,7.415,0,0,1,7.415,7.415" transform="translate(61.162 62.624)" fill="#567e6f"/>
          <path id="Trazado_891466" data-name="Trazado 891466" d="M106.3,85.46a7.414,7.414,0,1,1-7.415-7.415A7.415,7.415,0,0,1,106.3,85.46" transform="translate(73.394 62.624)" fill="#567e6f"/>
          <path id="Trazado_891467" data-name="Trazado 891467" d="M121.54,85.46a7.414,7.414,0,1,1-7.415-7.415,7.415,7.415,0,0,1,7.415,7.415" transform="translate(85.626 62.624)" fill="#567e6f"/>
          <path id="Trazado_891468" data-name="Trazado 891468" d="M136.784,85.46a7.414,7.414,0,1,1-7.415-7.415,7.415,7.415,0,0,1,7.415,7.415" transform="translate(97.858 62.624)" fill="#567e6f"/>
          <path id="Trazado_891469" data-name="Trazado 891469" d="M152.029,85.46a7.414,7.414,0,1,1-7.415-7.415,7.415,7.415,0,0,1,7.415,7.415" transform="translate(110.091 62.624)" fill="#567e6f"/>
          <path id="Trazado_891470" data-name="Trazado 891470" d="M167.273,85.46a7.414,7.414,0,1,1-7.415-7.415,7.415,7.415,0,0,1,7.415,7.415" transform="translate(122.323 62.624)" fill="#567e6f"/>
          <path id="Trazado_891471" data-name="Trazado 891471" d="M182.518,85.46a7.414,7.414,0,1,1-7.415-7.415,7.415,7.415,0,0,1,7.415,7.415" transform="translate(134.556 62.624)" fill="#567e6f"/>
          <path id="Trazado_891472" data-name="Trazado 891472" d="M197.762,85.46a7.414,7.414,0,1,1-7.415-7.415,7.415,7.415,0,0,1,7.415,7.415" transform="translate(146.787 62.624)" fill="#567e6f"/>
          <path id="Trazado_891473" data-name="Trazado 891473" d="M22.267,92.841a7.414,7.414,0,1,1-7.415-7.415,7.415,7.415,0,0,1,7.415,7.415" transform="translate(5.969 68.546)" fill="#567e6f"/>
          <path id="Trazado_891474" data-name="Trazado 891474" d="M37.512,92.841A7.414,7.414,0,1,1,30.1,85.426a7.415,7.415,0,0,1,7.415,7.415" transform="translate(18.202 68.546)" fill="#567e6f"/>
          <path id="Trazado_891475" data-name="Trazado 891475" d="M52.756,92.841a7.414,7.414,0,1,1-7.415-7.415,7.415,7.415,0,0,1,7.415,7.415" transform="translate(30.434 68.546)" fill="#567e6f"/>
          <path id="Trazado_891476" data-name="Trazado 891476" d="M68,92.841a7.414,7.414,0,1,1-7.415-7.415A7.415,7.415,0,0,1,68,92.841" transform="translate(42.666 68.546)" fill="#567e6f"/>
          <path id="Trazado_891477" data-name="Trazado 891477" d="M83.245,92.841a7.414,7.414,0,1,1-7.415-7.415,7.415,7.415,0,0,1,7.415,7.415" transform="translate(54.898 68.546)" fill="#567e6f"/>
          <path id="Trazado_891478" data-name="Trazado 891478" d="M98.49,92.841a7.414,7.414,0,1,1-7.415-7.415,7.415,7.415,0,0,1,7.415,7.415" transform="translate(67.131 68.546)" fill="#567e6f"/>
          <path id="Trazado_891479" data-name="Trazado 891479" d="M113.734,92.841a7.414,7.414,0,1,1-7.415-7.415,7.415,7.415,0,0,1,7.415,7.415" transform="translate(79.363 68.546)" fill="#567e6f"/>
          <path id="Trazado_891480" data-name="Trazado 891480" d="M128.979,92.841a7.414,7.414,0,1,1-7.415-7.415,7.415,7.415,0,0,1,7.415,7.415" transform="translate(91.596 68.546)" fill="#567e6f"/>
          <path id="Trazado_891481" data-name="Trazado 891481" d="M144.223,92.841a7.414,7.414,0,1,1-7.415-7.415,7.415,7.415,0,0,1,7.415,7.415" transform="translate(103.827 68.546)" fill="#567e6f"/>
          <path id="Trazado_891482" data-name="Trazado 891482" d="M159.468,92.841a7.414,7.414,0,1,1-7.415-7.415,7.415,7.415,0,0,1,7.415,7.415" transform="translate(116.06 68.546)" fill="#567e6f"/>
          <path id="Trazado_891483" data-name="Trazado 891483" d="M174.712,92.841a7.414,7.414,0,1,1-7.415-7.415,7.415,7.415,0,0,1,7.415,7.415" transform="translate(128.292 68.546)" fill="#567e6f"/>
          <path id="Trazado_891484" data-name="Trazado 891484" d="M189.957,92.841a7.414,7.414,0,1,1-7.415-7.415,7.415,7.415,0,0,1,7.415,7.415" transform="translate(140.525 68.546)" fill="#567e6f"/>
          <path id="Trazado_891485" data-name="Trazado 891485" d="M205.2,92.841a7.414,7.414,0,1,1-7.415-7.415,7.415,7.415,0,0,1,7.415,7.415" transform="translate(152.757 68.546)" fill="#567e6f"/>
          <path id="Trazado_891486" data-name="Trazado 891486" d="M14.828,101.069a7.414,7.414,0,1,1-7.415-7.415,7.415,7.415,0,0,1,7.415,7.415" transform="translate(0 75.149)" fill="#567e6f"/>
          <path id="Trazado_891487" data-name="Trazado 891487" d="M30.073,101.069a7.414,7.414,0,1,1-7.415-7.415,7.415,7.415,0,0,1,7.415,7.415" transform="translate(12.233 75.149)" fill="#567e6f"/>
          <path id="Trazado_891488" data-name="Trazado 891488" d="M45.317,101.069A7.414,7.414,0,1,1,37.9,93.654a7.415,7.415,0,0,1,7.415,7.415" transform="translate(24.465 75.149)" fill="#567e6f"/>
          <path id="Trazado_891489" data-name="Trazado 891489" d="M60.562,101.069a7.414,7.414,0,1,1-7.415-7.415,7.415,7.415,0,0,1,7.415,7.415" transform="translate(36.697 75.149)" fill="#567e6f"/>
          <path id="Trazado_891490" data-name="Trazado 891490" d="M75.806,101.069a7.414,7.414,0,1,1-7.415-7.415,7.415,7.415,0,0,1,7.415,7.415" transform="translate(48.929 75.149)" fill="#567e6f"/>
          <path id="Trazado_891491" data-name="Trazado 891491" d="M91.051,101.069a7.414,7.414,0,1,1-7.415-7.415,7.415,7.415,0,0,1,7.415,7.415" transform="translate(61.162 75.149)" fill="#567e6f"/>
          <path id="Trazado_891492" data-name="Trazado 891492" d="M106.3,101.069a7.414,7.414,0,1,1-7.415-7.415,7.415,7.415,0,0,1,7.415,7.415" transform="translate(73.394 75.149)" fill="#567e6f"/>
          <path id="Trazado_891493" data-name="Trazado 891493" d="M121.54,101.069a7.414,7.414,0,1,1-7.415-7.415,7.415,7.415,0,0,1,7.415,7.415" transform="translate(85.626 75.149)" fill="#567e6f"/>
          <path id="Trazado_891494" data-name="Trazado 891494" d="M136.784,101.069a7.414,7.414,0,1,1-7.415-7.415,7.415,7.415,0,0,1,7.415,7.415" transform="translate(97.858 75.149)" fill="#567e6f"/>
          <path id="Trazado_891495" data-name="Trazado 891495" d="M152.029,101.069a7.414,7.414,0,1,1-7.415-7.415,7.415,7.415,0,0,1,7.415,7.415" transform="translate(110.091 75.149)" fill="#567e6f"/>
          <path id="Trazado_891496" data-name="Trazado 891496" d="M167.273,101.069a7.414,7.414,0,1,1-7.415-7.415,7.415,7.415,0,0,1,7.415,7.415" transform="translate(122.323 75.149)" fill="#567e6f"/>
          <path id="Trazado_891497" data-name="Trazado 891497" d="M182.518,101.069a7.414,7.414,0,1,1-7.415-7.415,7.415,7.415,0,0,1,7.415,7.415" transform="translate(134.556 75.149)" fill="#567e6f"/>
          <path id="Trazado_891498" data-name="Trazado 891498" d="M197.762,101.069a7.414,7.414,0,1,1-7.415-7.415,7.415,7.415,0,0,1,7.415,7.415" transform="translate(146.787 75.149)" fill="#567e6f"/>
          <path id="Trazado_891499" data-name="Trazado 891499" d="M22.267,108.45a7.414,7.414,0,1,1-7.415-7.415,7.415,7.415,0,0,1,7.415,7.415" transform="translate(5.969 81.071)" fill="#567e6f"/>
          <path id="Trazado_891500" data-name="Trazado 891500" d="M37.512,108.45a7.414,7.414,0,1,1-7.415-7.415,7.415,7.415,0,0,1,7.415,7.415" transform="translate(18.202 81.071)" fill="#567e6f"/>
          <path id="Trazado_891501" data-name="Trazado 891501" d="M52.756,108.45a7.414,7.414,0,1,1-7.415-7.415,7.415,7.415,0,0,1,7.415,7.415" transform="translate(30.434 81.071)" fill="#567e6f"/>
          <path id="Trazado_891502" data-name="Trazado 891502" d="M68,108.45a7.414,7.414,0,1,1-7.415-7.415A7.415,7.415,0,0,1,68,108.45" transform="translate(42.666 81.071)" fill="#567e6f"/>
          <path id="Trazado_891503" data-name="Trazado 891503" d="M83.245,108.45a7.414,7.414,0,1,1-7.415-7.415,7.415,7.415,0,0,1,7.415,7.415" transform="translate(54.898 81.071)" fill="#567e6f"/>
          <path id="Trazado_891504" data-name="Trazado 891504" d="M98.49,108.45a7.414,7.414,0,1,1-7.415-7.415,7.415,7.415,0,0,1,7.415,7.415" transform="translate(67.131 81.071)" fill="#567e6f"/>
          <path id="Trazado_891505" data-name="Trazado 891505" d="M113.734,108.45a7.414,7.414,0,1,1-7.415-7.415,7.415,7.415,0,0,1,7.415,7.415" transform="translate(79.363 81.071)" fill="#567e6f"/>
          <path id="Trazado_891506" data-name="Trazado 891506" d="M128.979,108.45a7.414,7.414,0,1,1-7.415-7.415,7.415,7.415,0,0,1,7.415,7.415" transform="translate(91.596 81.071)" fill="#567e6f"/>
          <path id="Trazado_891507" data-name="Trazado 891507" d="M144.223,108.45a7.414,7.414,0,1,1-7.415-7.415,7.415,7.415,0,0,1,7.415,7.415" transform="translate(103.827 81.071)" fill="#567e6f"/>
          <path id="Trazado_891508" data-name="Trazado 891508" d="M159.468,108.45a7.414,7.414,0,1,1-7.415-7.415,7.415,7.415,0,0,1,7.415,7.415" transform="translate(116.06 81.071)" fill="#567e6f"/>
          <path id="Trazado_891509" data-name="Trazado 891509" d="M174.712,108.45a7.414,7.414,0,1,1-7.415-7.415,7.415,7.415,0,0,1,7.415,7.415" transform="translate(128.292 81.071)" fill="#567e6f"/>
          <path id="Trazado_891510" data-name="Trazado 891510" d="M189.957,108.45a7.414,7.414,0,1,1-7.415-7.415,7.415,7.415,0,0,1,7.415,7.415" transform="translate(140.525 81.071)" fill="#567e6f"/>
          <path id="Trazado_891511" data-name="Trazado 891511" d="M205.2,108.45a7.414,7.414,0,1,1-7.415-7.415,7.415,7.415,0,0,1,7.415,7.415" transform="translate(152.757 81.071)" fill="#567e6f"/>
          <path id="Trazado_891512" data-name="Trazado 891512" d="M14.828,116.678a7.414,7.414,0,1,1-7.415-7.415,7.415,7.415,0,0,1,7.415,7.415" transform="translate(0 87.673)" fill="#567e6f"/>
          <path id="Trazado_891513" data-name="Trazado 891513" d="M30.073,116.678a7.414,7.414,0,1,1-7.415-7.415,7.415,7.415,0,0,1,7.415,7.415" transform="translate(12.233 87.673)" fill="#567e6f"/>
          <path id="Trazado_891514" data-name="Trazado 891514" d="M45.317,116.678a7.414,7.414,0,1,1-7.415-7.415,7.415,7.415,0,0,1,7.415,7.415" transform="translate(24.465 87.673)" fill="#567e6f"/>
          <path id="Trazado_891515" data-name="Trazado 891515" d="M60.562,116.678a7.414,7.414,0,1,1-7.415-7.415,7.415,7.415,0,0,1,7.415,7.415" transform="translate(36.697 87.673)" fill="#567e6f"/>
          <path id="Trazado_891516" data-name="Trazado 891516" d="M75.806,116.678a7.414,7.414,0,1,1-7.415-7.415,7.415,7.415,0,0,1,7.415,7.415" transform="translate(48.929 87.673)" fill="#567e6f"/>
          <path id="Trazado_891517" data-name="Trazado 891517" d="M91.051,116.678a7.414,7.414,0,1,1-7.415-7.415,7.415,7.415,0,0,1,7.415,7.415" transform="translate(61.162 87.673)" fill="#567e6f"/>
          <path id="Trazado_891518" data-name="Trazado 891518" d="M106.3,116.678a7.414,7.414,0,1,1-7.415-7.415,7.415,7.415,0,0,1,7.415,7.415" transform="translate(73.394 87.673)" fill="#567e6f"/>
          <path id="Trazado_891519" data-name="Trazado 891519" d="M121.54,116.678a7.414,7.414,0,1,1-7.415-7.415,7.415,7.415,0,0,1,7.415,7.415" transform="translate(85.626 87.673)" fill="#567e6f"/>
          <path id="Trazado_891520" data-name="Trazado 891520" d="M136.784,116.678a7.414,7.414,0,1,1-7.415-7.415,7.415,7.415,0,0,1,7.415,7.415" transform="translate(97.858 87.673)" fill="#567e6f"/>
          <path id="Trazado_891521" data-name="Trazado 891521" d="M152.029,116.678a7.414,7.414,0,1,1-7.415-7.415,7.415,7.415,0,0,1,7.415,7.415" transform="translate(110.091 87.673)" fill="#567e6f"/>
          <path id="Trazado_891522" data-name="Trazado 891522" d="M167.273,116.678a7.414,7.414,0,1,1-7.415-7.415,7.415,7.415,0,0,1,7.415,7.415" transform="translate(122.323 87.673)" fill="#567e6f"/>
          <path id="Trazado_891523" data-name="Trazado 891523" d="M182.518,116.678a7.414,7.414,0,1,1-7.415-7.415,7.415,7.415,0,0,1,7.415,7.415" transform="translate(134.556 87.673)" fill="#567e6f"/>
          <path id="Trazado_891524" data-name="Trazado 891524" d="M197.762,116.678a7.414,7.414,0,1,1-7.415-7.415,7.415,7.415,0,0,1,7.415,7.415" transform="translate(146.787 87.673)" fill="#567e6f"/>
          <path id="Trazado_891525" data-name="Trazado 891525" d="M22.267,124.059a7.414,7.414,0,1,1-7.415-7.415,7.415,7.415,0,0,1,7.415,7.415" transform="translate(5.969 93.596)" fill="#567e6f"/>
          <path id="Trazado_891526" data-name="Trazado 891526" d="M37.512,124.059a7.414,7.414,0,1,1-7.415-7.415,7.415,7.415,0,0,1,7.415,7.415" transform="translate(18.202 93.596)" fill="#567e6f"/>
          <path id="Trazado_891527" data-name="Trazado 891527" d="M52.756,124.059a7.414,7.414,0,1,1-7.415-7.415,7.415,7.415,0,0,1,7.415,7.415" transform="translate(30.434 93.596)" fill="#567e6f"/>
          <path id="Trazado_891528" data-name="Trazado 891528" d="M68,124.059a7.414,7.414,0,1,1-7.415-7.415A7.415,7.415,0,0,1,68,124.059" transform="translate(42.666 93.596)" fill="#567e6f"/>
          <path id="Trazado_891529" data-name="Trazado 891529" d="M83.245,124.059a7.414,7.414,0,1,1-7.415-7.415,7.415,7.415,0,0,1,7.415,7.415" transform="translate(54.898 93.596)" fill="#567e6f"/>
          <path id="Trazado_891530" data-name="Trazado 891530" d="M98.49,124.059a7.414,7.414,0,1,1-7.415-7.415,7.415,7.415,0,0,1,7.415,7.415" transform="translate(67.131 93.596)" fill="#567e6f"/>
          <path id="Trazado_891531" data-name="Trazado 891531" d="M113.734,124.059a7.414,7.414,0,1,1-7.415-7.415,7.415,7.415,0,0,1,7.415,7.415" transform="translate(79.363 93.596)" fill="#567e6f"/>
          <path id="Trazado_891532" data-name="Trazado 891532" d="M128.979,124.059a7.414,7.414,0,1,1-7.415-7.415,7.415,7.415,0,0,1,7.415,7.415" transform="translate(91.596 93.596)" fill="#567e6f"/>
          <path id="Trazado_891533" data-name="Trazado 891533" d="M144.223,124.059a7.414,7.414,0,1,1-7.415-7.415,7.415,7.415,0,0,1,7.415,7.415" transform="translate(103.827 93.596)" fill="#567e6f"/>
          <path id="Trazado_891534" data-name="Trazado 891534" d="M159.468,124.059a7.414,7.414,0,1,1-7.415-7.415,7.415,7.415,0,0,1,7.415,7.415" transform="translate(116.06 93.596)" fill="#567e6f"/>
          <path id="Trazado_891535" data-name="Trazado 891535" d="M174.712,124.059a7.414,7.414,0,1,1-7.415-7.415,7.415,7.415,0,0,1,7.415,7.415" transform="translate(128.292 93.596)" fill="#567e6f"/>
          <path id="Trazado_891536" data-name="Trazado 891536" d="M189.957,124.059a7.414,7.414,0,1,1-7.415-7.415,7.415,7.415,0,0,1,7.415,7.415" transform="translate(140.525 93.596)" fill="#567e6f"/>
          <path id="Trazado_891537" data-name="Trazado 891537" d="M205.2,124.059a7.414,7.414,0,1,1-7.415-7.415,7.415,7.415,0,0,1,7.415,7.415" transform="translate(152.757 93.596)" fill="#567e6f"/>
        </g>
      </g>
    </g>
    <path id="Trazado_891539" data-name="Trazado 891539" d="M-7599.051-9756.65V-9616.7h33.768v33.216h195.018V-9616.7h31.781V-9756.65Z" transform="translate(8268.102 12631.652)" fill="none" stroke="#3b574d" stroke-width="3"/>
    <g id="Rect치ngulo_402005" data-name="Rect치ngulo 402005" transform="translate(726.051 2905.725)" fill="#fd0" stroke="#000" stroke-width="2">
      <rect width="150" height="24" stroke="none"/>
      <rect x="1" y="1" width="148" height="22" fill="none"/>
    </g>
    <path id="Trazado_891758" data-name="Trazado 891758" d="M-7367.559-8508.528l5.613,5.615,6.022-5.615,5.615,5.615,5.615-5.615,5.615,5.615,5.615-5.615,5.615,5.615,5.615-5.615,5.615,5.615,5.615-5.615,5.615,5.615,5.615-5.615,5.615,5.615,5.615-5.615,5.615,5.615,5.615-5.615,5.615,5.615,5.615-5.615,5.615,5.615,5.615-5.615,5.615,5.615,3.427-3.427" transform="translate(8094.051 11422.725)" fill="none" stroke="#000" stroke-width="2"/>
  </g>
</svg>
