<svg xmlns="http://www.w3.org/2000/svg" width="84.862" height="89.395" viewBox="0 0 84.862 89.395">
  <g id="Grupo_1107121" data-name="Grupo 1107121" transform="translate(-180 -11174.186)">
    <g id="bolso" transform="translate(157.52 11164.176)">
      <path id="Trazado_895491" data-name="Trazado 895491" d="M272.2,20.7c8.613,2.378,15.325,10.464,15.325,10.464h6.061S286.983,21.183,272.2,20.7Z" transform="translate(-204.346 -8.748)" fill="#798795"/>
      <path id="Trazado_895492" data-name="Trazado 895492" d="M128.26,28.137h5.576s10.875-10.778,20.576-10.464a17.916,17.916,0,0,0-3.234-.591C137.352,15.89,128.26,28.137,128.26,28.137Z" transform="translate(-86.56 -5.72)" fill="#798795"/>
      <path id="Trazado_895493" data-name="Trazado 895493" d="M129.685,77h-67.3a309.277,309.277,0,0,0-1.732,37.612h.015l70.682.545h.058A308.875,308.875,0,0,0,129.685,77Z" transform="translate(-31.185 -54.818)" fill="#c79a83"/>
      <path id="Trazado_895494" data-name="Trazado 895494" d="M404.545,120.6c.1-1.75.165-3.512.213-5.275a306.568,306.568,0,0,0-1.719-38.039h1.548a6.2,6.2,0,0,1,6.2,6.205v47.062a22.822,22.822,0,0,1-16.134,21.821l-.015-.055C401.159,148.141,403.754,134.856,404.545,120.6Z" transform="translate(-304.538 -55.055)" fill="#bc5e51"/>
      <path id="Trazado_895495" data-name="Trazado 895495" d="M44.5,152.323l-.005.02A22.825,22.825,0,0,1,28.48,130.557V83.5a6.2,6.2,0,0,1,6.2-6.205h1.423a307.406,307.406,0,0,0-1.732,37.518c.047,1.937.12,3.877.225,5.8C35.39,134.858,37.985,148.14,44.5,152.323Z" transform="translate(-4.91 -55.055)" fill="#bc5e51"/>
      <path id="Trazado_895496" data-name="Trazado 895496" d="M131.672,273.086c-21.933-4.579-48.369-2.922-61.871-1.574l-3.847.412c-3.194.365-5.033.64-5.033.64h0c.047,1.937.12,3.877.225,5.8l.064,0,32.385,32.766H97.82l33.642-32.766c.1-1.75.165-3.512.213-5.275Z" transform="translate(-31.455 -212.813)" fill="#6b655f"/>
      <path id="Trazado_895497" data-name="Trazado 895497" d="M268.014,315.67h27.991c-.79,14.253-3.385,27.537-9.9,31.719l.016.055a22.8,22.8,0,0,1-6.674.992H262v-26.75A6.014,6.014,0,0,1,268.014,315.67Z" transform="translate(-195.999 -250.122)" fill="#7f3d32"/>
      <path id="Trazado_895498" data-name="Trazado 895498" d="M347.185,409.034v2.406a.392.392,0,0,1-.392.392H335.064a.393.393,0,0,1-.394-.392v-2.406a.394.394,0,0,1,.394-.394h11.729a.393.393,0,0,1,.392.394Z" transform="translate(-255.465 -326.199)" fill="#edb740"/>
      <path id="Trazado_895499" data-name="Trazado 895499" d="M60.651,114.612s1.839-.3,5.033-.66l.4-.053A310.95,310.95,0,0,1,67.832,77H62.381a309.277,309.277,0,0,0-1.732,37.612h0c0-.014,0,0,0,0Z" transform="translate(-31.185 -54.818)" fill="#997261"/>
      <path id="Trazado_895500" data-name="Trazado 895500" d="M66.372,280.738h0q-.009-.362-.015-.724l-.4.064c-3.2.365-5.034.661-5.034.661h0a.149.149,0,0,1,0,.021c.047,1.923.164,3.839.269,5.748l.108.021v.025h5.3C66.492,284.554,66.419,282.66,66.372,280.738Z" transform="translate(-31.455 -220.944)" fill="#3f3c39"/>
      <path id="Trazado_895501" data-name="Trazado 895501" d="M90.173,280.644a.649.649,0,0,1-.612.867H85.316a.65.65,0,0,1-.623-.839l.692-2.279c1.123-.129,2.411-.269,3.847-.412Z" transform="translate(-50.886 -219.28)" fill="#4a5160"/>
      <path id="Trazado_895502" data-name="Trazado 895502" d="M94.971,321.686v26.75H78.847a22.822,22.822,0,0,1-6.788-1.027l.005-.02c-6.519-4.183-9.114-17.465-9.9-31.716l.064,0H88.957A6.014,6.014,0,0,1,94.971,321.686Z" transform="translate(-32.47 -250.122)" fill="#7f3d32"/>
      <path id="Trazado_895503" data-name="Trazado 895503" d="M77.716,347.406c-6.519-4.183-9.114-17.435-9.9-31.686l.064.026-.093-.056v.056H62.513v-.03l-.108-.011c.79,14.251,3.363,27.526,9.882,31.708l-.017.016a22.752,22.752,0,0,0,6.777,1.023H84.5a22.823,22.823,0,0,1-6.788-1.027Z" transform="translate(-32.671 -250.138)" fill="#5b2c25"/>
      <g id="Grupo_1107116" data-name="Grupo 1107116" transform="translate(22.48 10.01)">
        <path id="Trazado_895504" data-name="Trazado 895504" d="M343.367,406.532v-2.405a1.485,1.485,0,0,0-1.484-1.484h-11.73a1.485,1.485,0,0,0-1.484,1.484v2.405a1.485,1.485,0,0,0,1.484,1.484h11.729A1.485,1.485,0,0,0,343.367,406.532Zm-2.18-.7H330.85v-1.012h10.336Z" transform="translate(-273.035 -331.301)"/>
        <path id="Trazado_895505" data-name="Trazado 895505" d="M100.048,21.144H89.8A25.037,25.037,0,0,0,84.734,16.3a29.919,29.919,0,0,0-16.745-5.617,18.8,18.8,0,0,0-3.277-.592,25.673,25.673,0,0,0-17.379,5.285,33.917,33.917,0,0,0-6.161,5.765h-11.4a7.3,7.3,0,0,0-7.294,7.3V75.5a23.928,23.928,0,0,0,23.9,23.9H83.444a23.928,23.928,0,0,0,23.9-23.9V28.44a7.3,7.3,0,0,0-7.294-7.3ZM83.369,18.007a24.671,24.671,0,0,1,3.564,3.137H83.677a42.24,42.24,0,0,0-5.314-4.967c-1-.786-1.97-1.472-2.907-2.074a26.775,26.775,0,0,1,7.914,3.9ZM67.689,12.859c5.671,1.612,10.539,5.851,12.98,8.286H50.124c3.517-2.972,10.909-8.434,17.564-8.286Zm-7.9-.457a38.061,38.061,0,0,0-6.469,3.579,53.167,53.167,0,0,0-6.479,5.164H44.084c2.543-2.69,8.151-7.66,15.7-8.743ZM32.173,23.325h65.35A315.712,315.712,0,0,1,99.2,55.9q-.009,1.549-.039,3.044C90.115,57.177,75.1,55.433,53.2,56.5c-10.955.535-19.584,1.589-22.669,2q-.023-1.272-.031-2.58a315.94,315.94,0,0,1,1.673-32.6Zm5.88,37.816H35.023l.309-1.018c.7-.078,1.463-.159,2.275-.242ZM24.66,75.5V28.44a5.12,5.12,0,0,1,5.113-5.115h.207a318.42,318.42,0,0,0-1.661,32.592c.111,18.566,2.362,31.328,6.706,38.1A21.731,21.731,0,0,1,24.66,75.5ZM61.412,97.224H46.377a21.64,21.64,0,0,1-6.269-.924c-5.1-3.353-8.255-13.525-9.261-29.662H56.488a4.931,4.931,0,0,1,4.924,4.926Zm3.5-25.66v25.66H63.592V71.564a7.113,7.113,0,0,0-7.1-7.106H30.726q-.09-1.833-.145-3.761c.565-.076,1.371-.18,2.389-.3l-.207.679a1.741,1.741,0,0,0,1.666,2.248h4.245A1.741,1.741,0,0,0,40.315,61l-.472-1.338c13.638-1.284,38.484-2.655,59.259,1.5q-.052,1.687-.131,3.3H72.015a7.113,7.113,0,0,0-7.1,7.106ZM89.517,96.359a21.65,21.65,0,0,1-6.073.866H67.091V71.564a4.931,4.931,0,0,1,4.924-4.926H98.849c-1.011,16.217-4.192,26.411-9.337,29.712ZM105.162,75.5A21.732,21.732,0,0,1,94.591,94.138c4.4-6.735,6.675-19.54,6.787-38.221a318.436,318.436,0,0,0-1.661-32.592h.332a5.12,5.12,0,0,1,5.113,5.115Z" transform="translate(-22.48 -10.01)"/>
      </g>
    </g>
  </g>
</svg>
