<svg xmlns="http://www.w3.org/2000/svg" width="84.942" height="93.188" viewBox="0 0 84.942 93.188">
  <g id="Grupo_1107124" data-name="Grupo 1107124" transform="translate(-705 -11840)">
    <g id="bolso-mujer" transform="translate(700.347 11838)">
      <path id="Trazado_895506" data-name="Trazado 895506" d="M34.571,95.184H59.678C78.7,95.538,93.591,76.461,88.634,58.1l-5.4-21.589a6.648,6.648,0,0,0-6.4-5H71.973V26.849a24.849,24.849,0,1,0-49.7,0v4.659H17.414a6.648,6.648,0,0,0-6.4,5L5.615,58.1C.657,76.456,15.555,95.543,34.571,95.184ZM25.382,26.849a21.743,21.743,0,0,1,43.486,0v4.659H25.382Zm51.451,7.765a3.478,3.478,0,0,1,2.393.962v9.475A16.761,16.761,0,0,1,62.484,61.793H53.337v-2.33A4.664,4.664,0,0,0,48.678,54.8H45.571a4.664,4.664,0,0,0-4.659,4.659v2.33H31.764A16.761,16.761,0,0,1,15.023,45.051V35.576a3.478,3.478,0,0,1,2.393-.962ZM44.018,59.463a1.555,1.555,0,0,1,1.553-1.553h3.106a1.555,1.555,0,0,1,1.553,1.553v9.318a1.555,1.555,0,0,1-1.553,1.553H45.571a1.555,1.555,0,0,1-1.553-1.553Zm-35.39-.613,3.315-13.262A19.858,19.858,0,0,0,31.764,64.9h9.148v3.883a4.664,4.664,0,0,0,4.659,4.659h3.106a4.664,4.664,0,0,0,4.659-4.659V64.9h9.148a19.858,19.858,0,0,0,19.821-19.31L85.62,58.851C90.06,75.3,76.718,92.4,59.678,92.077H34.571C17.537,92.4,4.184,75.3,8.629,58.851Z" transform="translate(0 0)" fill="#567e6f"/>
      <path id="Trazado_895507" data-name="Trazado 895507" d="M39.659,59.871H53.637A4.664,4.664,0,0,0,58.3,55.212V53.659A4.664,4.664,0,0,0,53.637,49H39.659A4.664,4.664,0,0,0,35,53.659v1.553a4.664,4.664,0,0,0,4.659,4.659Zm-1.553-6.212a1.555,1.555,0,0,1,1.553-1.553H53.637a1.555,1.555,0,0,1,1.553,1.553v1.553a1.555,1.555,0,0,1-1.553,1.553H39.659a1.555,1.555,0,0,1-1.553-1.553Z" transform="translate(16.784 25.994)" fill="#567e6f"/>
    </g>
  </g>
</svg>
