<svg xmlns="http://www.w3.org/2000/svg" width="85" height="73.354" viewBox="0 0 85 73.354">
  <g id="Grupo_1107121" data-name="Grupo 1107121" transform="translate(-705 -16820.695)">
    <g id="billetera-2" transform="translate(705 16785.617)">
      <g id="Grupo_1107117" data-name="Grupo 1107117" transform="translate(0 35.078)">
        <path id="Trazado_895512" data-name="Trazado 895512" d="M298.875,401.64h6.573a1.245,1.245,0,0,0,0-2.49h-6.573a1.245,1.245,0,0,0,0,2.49Z" transform="translate(-248.219 -338.708)" fill="#567e6f"/>
        <path id="Trazado_895513" data-name="Trazado 895513" d="M219.7,401.64h6.573a1.245,1.245,0,0,0,0-2.49H219.7a1.245,1.245,0,0,0,0,2.49Z" transform="translate(-182.184 -338.708)" fill="#567e6f"/>
        <path id="Trazado_895514" data-name="Trazado 895514" d="M140.515,401.64h6.573a1.245,1.245,0,0,0,0-2.49h-6.573a1.245,1.245,0,0,0,0,2.49Z" transform="translate(-116.149 -338.708)" fill="#567e6f"/>
        <path id="Trazado_895515" data-name="Trazado 895515" d="M376.81,400.4a1.245,1.245,0,0,0,1.245,1.245h6.573a1.245,1.245,0,0,0,0-2.49h-6.573A1.245,1.245,0,0,0,376.81,400.4Z" transform="translate(-314.254 -338.708)" fill="#567e6f"/>
        <path id="Trazado_895516" data-name="Trazado 895516" d="M67.908,399.15H61.335a1.245,1.245,0,1,0,0,2.49h6.573a1.245,1.245,0,1,0,0-2.49Z" transform="translate(-50.114 -338.708)" fill="#567e6f"/>
        <path id="Trazado_895517" data-name="Trazado 895517" d="M140.515,100.341h6.573a1.245,1.245,0,0,0,0-2.49h-6.573a1.245,1.245,0,0,0,0,2.49Z" transform="translate(-116.149 -87.43)" fill="#567e6f"/>
        <path id="Trazado_895518" data-name="Trazado 895518" d="M67.908,97.851H61.335a1.245,1.245,0,1,0,0,2.49h6.573a1.245,1.245,0,1,0,0-2.49Z" transform="translate(-50.114 -87.43)" fill="#567e6f"/>
        <path id="Trazado_895519" data-name="Trazado 895519" d="M219.7,100.341h6.573a1.245,1.245,0,0,0,0-2.49H219.7a1.245,1.245,0,0,0,0,2.49Z" transform="translate(-182.184 -87.43)" fill="#567e6f"/>
        <path id="Trazado_895520" data-name="Trazado 895520" d="M298.875,100.341h6.573a1.245,1.245,0,0,0,0-2.49h-6.573a1.245,1.245,0,0,0,0,2.49Z" transform="translate(-248.219 -87.43)" fill="#567e6f"/>
        <path id="Trazado_895521" data-name="Trazado 895521" d="M384.628,100.341a1.245,1.245,0,0,0,0-2.49h-6.573a1.245,1.245,0,0,0,0,2.49Z" transform="translate(-314.254 -87.43)" fill="#567e6f"/>
        <path id="Trazado_895522" data-name="Trazado 895522" d="M81.6,60.929V45a9.93,9.93,0,0,0-9.919-9.919h-55.3a1.245,1.245,0,1,0,0,2.49h55.3A7.437,7.437,0,0,1,79.1,45v.5H76.947a1.245,1.245,0,0,0,0,2.49H79.1V60.758H62.3a11,11,0,0,0,0,21.993h1.045a1.245,1.245,0,0,0,0-2.49H62.3a8.506,8.506,0,1,1,0-17.012H80.348a2.165,2.165,0,0,1,2.163,2.163V78.1a2.165,2.165,0,0,1-2.161,2.163H69.167a1.245,1.245,0,0,0,0,2.49H79.1c.005,15.238,0,.731,0,12.769H76.947a1.245,1.245,0,0,0,0,2.49H79.1v.5a7.437,7.437,0,0,1-7.428,7.428H6.617a4.132,4.132,0,0,1-4.127-4.127v-3.8H4.648a1.245,1.245,0,1,0,0-2.49H2.49V47.989H4.648a1.245,1.245,0,1,0,0-2.49H2.49V41.7a4.132,4.132,0,0,1,4.127-4.127H10.5a1.245,1.245,0,0,0,0-2.49H6.617A6.625,6.625,0,0,0,0,41.7v60.118a6.625,6.625,0,0,0,6.617,6.618H71.676A9.93,9.93,0,0,0,81.6,98.512c0-12.956,0-2.051,0-15.932A4.66,4.66,0,0,0,85,78.1V65.411a4.66,4.66,0,0,0-3.4-4.481Z" transform="translate(0 -35.078)" fill="#567e6f"/>
        <path id="Trazado_895523" data-name="Trazado 895523" d="M349.526,224.883a5.166,5.166,0,1,0,5.166,5.166A5.172,5.172,0,0,0,349.526,224.883Zm0,7.842a2.676,2.676,0,1,1,2.676-2.676A2.679,2.679,0,0,1,349.526,232.725Z" transform="translate(-287.191 -193.372)" fill="#567e6f"/>
      </g>
    </g>
  </g>
</svg>
