<svg xmlns="http://www.w3.org/2000/svg" width="84.894" height="88.355" viewBox="0 0 84.894 88.355">
  <g id="Grupo_1107121" data-name="Grupo 1107121" transform="translate(-180 -8083.037)">
    <g id="bolsa" transform="translate(169.974 8083.037)">
      <g id="Grupo_1107096" data-name="Grupo 1107096" transform="translate(11.321 1.294)">
        <g id="Grupo_1107095" data-name="Grupo 1107095">
          <path id="Trazado_895480" data-name="Trazado 895480" d="M90.881,232.917h-64.4a8.95,8.95,0,0,1-8.77-10.735L26.25,180.24a4.951,4.951,0,0,1,4.852-3.964H86.26a4.951,4.951,0,0,1,4.852,3.964l8.539,41.942a8.95,8.95,0,0,1-8.77,10.735Z" transform="translate(-17.528 -147.151)" fill="#6f4945"/>
          <path id="Trazado_895481" data-name="Trazado 895481" d="M383.742,180.239l8.539,41.942a8.95,8.95,0,0,1-8.769,10.735h6.371a8.95,8.95,0,0,0,8.77-10.735l-8.539-41.942a4.951,4.951,0,0,0-4.852-3.964H378.89A4.951,4.951,0,0,1,383.742,180.239Z" transform="translate(-316.531 -147.15)" fill="#2d110d"/>
          <path id="Trazado_895482" data-name="Trazado 895482" d="M126.889,46.008l3.4-21.176a14.163,14.163,0,0,1,13.991-11.967h.841a14.163,14.163,0,0,1,13.992,11.97l3.346,21.173h5.431L164.414,24A19.527,19.527,0,0,0,145.123,7.5h-.841a19.527,19.527,0,0,0-19.29,16.491l-3.537,22.017Z" transform="translate(-103.521 -7.5)" fill="#6f4945"/>
          <g id="Grupo_1107094" data-name="Grupo 1107094" transform="translate(16.837 25.14)">
            <path id="Trazado_895483" data-name="Trazado 895483" d="M123.026,165.715l1.267-7.887a3.934,3.934,0,1,0-7.754-1.339l-1.432,8.912a.989.989,0,0,0,.977,1.146h5.965a.989.989,0,0,0,.977-.832Z" transform="translate(-115.095 -153.179)" fill="#6f4945"/>
            <path id="Trazado_895484" data-name="Trazado 895484" d="M345.646,166.547h5.963a.989.989,0,0,0,.977-1.143l-1.392-8.81a4,4,0,0,0-3.81-3.413,3.934,3.934,0,0,0-3.976,4.547l1.262,7.985A.989.989,0,0,0,345.646,166.547Z" transform="translate(-303.968 -153.179)" fill="#6f4945"/>
          </g>
          <path id="Trazado_895485" data-name="Trazado 895485" d="M235.116,198.565a2.045,2.045,0,0,0,3.264,0l1.549-2.052a4.125,4.125,0,0,0,.833-2.486V176.276h-8.03v17.752a4.125,4.125,0,0,0,.833,2.486Z" transform="translate(-195.596 -147.151)" fill="#6f4945"/>
          <path id="Trazado_895486" data-name="Trazado 895486" d="M215.779,214.225v-4.563a2.486,2.486,0,0,1,2.486-2.486h8.91a2.486,2.486,0,0,1,2.486,2.486v4.563a2.486,2.486,0,0,1-2.486,2.486h-8.91A2.486,2.486,0,0,1,215.779,214.225Z" transform="translate(-181.567 -172.718)" fill="#6f4945"/>
        </g>
        <path id="Trazado_895487" data-name="Trazado 895487" d="M17.711,429.685a8.95,8.95,0,0,0,8.77,10.735h64.4a8.95,8.95,0,0,0,8.77-10.735l-.535-2.629H18.247Z" transform="translate(-17.528 -354.654)" fill="#937773"/>
        <path id="Trazado_895488" data-name="Trazado 895488" d="M420.807,429.685l-.535-2.629H413.9l.535,2.629a8.95,8.95,0,0,1-8.77,10.735h6.372A8.95,8.95,0,0,0,420.807,429.685Z" transform="translate(-338.685 -354.654)" fill="#2d110d"/>
      </g>
      <path id="Trazado_895489" data-name="Trazado 895489" d="M94.711,76.067,88.366,44.9a1.294,1.294,0,0,0-2.537.516L91.323,72.4H25.59a1.294,1.294,0,1,0,0,2.589H91.85l.324,1.593a7.655,7.655,0,0,1-7.5,9.183h-64.4a7.655,7.655,0,0,1-7.5-9.183L13.1,74.99H19.32a1.294,1.294,0,1,0,0-2.589h-5.7l7.687-37.761a3.669,3.669,0,0,1,3.583-2.927h3.081l-1.082,6.737A2.284,2.284,0,0,0,29.147,41.1h5.965a2.274,2.274,0,0,0,2.254-1.921l1.2-7.461h8.6v2.841a3.787,3.787,0,0,0-2.926,3.683V42.8a3.787,3.787,0,0,0,2.926,3.683v1.687a5.451,5.451,0,0,0,1.095,3.266l1.549,2.052a3.339,3.339,0,0,0,5.33,0l1.549-2.052a5.452,5.452,0,0,0,1.095-3.266V46.484A3.787,3.787,0,0,0,60.708,42.8V38.238a3.787,3.787,0,0,0-2.926-3.683V31.714H66.4l1.178,7.456A2.273,2.273,0,0,0,69.836,41.1H75.8a2.284,2.284,0,0,0,2.255-2.64l-1.065-6.743h3.063a3.669,3.669,0,0,1,3.583,2.927l.942,4.626a1.294,1.294,0,0,0,2.537-.516l-.942-4.626a6.266,6.266,0,0,0-6.12-5h-3.5a5.369,5.369,0,0,0-1.668-2.706l-1.395-8.825A20.826,20.826,0,0,0,52.923,0h-.841A20.827,20.827,0,0,0,31.515,17.58l-1.414,8.8a5.2,5.2,0,0,0-1.693,2.746H24.894a6.266,6.266,0,0,0-6.12,5L10.236,76.068A10.244,10.244,0,0,0,20.274,88.355h64.4A10.244,10.244,0,0,0,94.711,76.068Zm-39.517-27.9a2.848,2.848,0,0,1-.572,1.706l-1.549,2.052a.751.751,0,0,1-1.2,0l-1.549-2.052a2.847,2.847,0,0,1-.572-1.706v-1.59h5.441v1.59Zm2.926-9.933V42.8a1.193,1.193,0,0,1-1.192,1.192h-8.91A1.193,1.193,0,0,1,46.827,42.8V38.238a1.193,1.193,0,0,1,1.192-1.192h8.91a1.193,1.193,0,0,1,1.192,1.192Zm-8.367-3.78V31.714h5.441v2.744ZM66.4,29.125H38.55a5.312,5.312,0,0,0-.6-1.469l1.418-8.829A12.872,12.872,0,0,1,52.082,7.953h.841A12.872,12.872,0,0,1,65.637,18.831l1.391,8.8A5.2,5.2,0,0,0,66.4,29.125Zm7.7.925,1.336,8.458H70.1L68.877,30.78a2.64,2.64,0,0,1,2.669-3.051,2.7,2.7,0,0,1,2.56,2.321ZM34.071,17.985a18.237,18.237,0,0,1,18.011-15.4h.841A18.238,18.238,0,0,1,70.936,18l1.134,7.176q-.23-.026-.466-.031a5.229,5.229,0,0,0-2.276.463l-1.134-7.175A15.461,15.461,0,0,0,52.923,5.364h-.841a15.462,15.462,0,0,0-15.27,13.056L35.659,25.6a5.252,5.252,0,0,0-1.87-.454,5.31,5.31,0,0,0-.872.022ZM30.88,29.949a2.64,2.64,0,1,1,5.2.928l-1.226,7.63H29.505Z" transform="translate(0)"/>
    </g>
  </g>
</svg>
